<?xml version="1.0" encoding="utf-8"?>
<!-- Generator: Adobe Illustrator 22.1.0, SVG Export Plug-In . SVG Version: 6.00 Build 0)  -->
<svg version="1.1" id="Calque_1" xmlns="http://www.w3.org/2000/svg" xmlns:xlink="http://www.w3.org/1999/xlink" x="0px" y="0px"
	 viewBox="0 0 2400 1800" style="enable-background:new 0 0 2400 1800;" xml:space="preserve">
<style type="text/css">
	.st0{fill:#F3F2F2;}
	.st1{fill:#162843;}
	.st2{fill:#010101;}
</style>
<rect class="st0" width="2400" height="1800"/>
<polygon class="st1" points="482.4,400 439.2,560.8 450.6,568.6 438,589 411.6,572.8 456.6,403.6 441,376.6 316.8,376.6 259.2,589 
	201.6,573.4 192,554.8 211.8,544 217.8,552.4 241.8,559 326.4,245.2 387.6,211 425.4,220.6 454.8,249.4 453.6,280 385.8,296.8 
	379.8,274 429,260.8 429,258.4 413.4,242.2 390.6,236.2 346.8,261.4 323.4,352 456,352 "/>
<polygon class="st1" points="502.2,241 525.6,247 505.8,316.6 483,310.6 "/>
<polygon class="st1" points="640.2,527.2 663.6,568 585.6,589 547.8,578.8 513.6,518.8 588.6,239.2 570.6,234.4 577.2,211 
	618,221.8 538.8,515.2 563.4,558.4 585.6,563.8 627,553 619.2,539.2 "/>
<path class="st1" d="M468,888.4l-30.6,54v61.2l-27.6,27.6l-66,18l-120-31.8L207,988h23.4l-10.8-42.6l52.8-91.8l6-127.8l54.6-55.2
	l42.6,12L340.8,811l31.2-18l76.2,19.8L468,888.4z M343.8,1024l3.6-0.6l44.4-165l-21.6-36.6L332.4,844l-34.8,131.4l24.6,43.2
	L343.8,1024z"/>
<path class="st1" d="M743.4,813.4l13.8,48.6L711,889.6l-39-71.4l-44.4,24.6l-55.8,206.4l-40.8-10.8l-16.8-90.6l31.2-54.6v-59.4
	l-11.4,3L519.6,862l-53.4-30.6L576,803.2l18.6,31.2l73.8-41.4L743.4,813.4z"/>
<path class="st1" d="M996,892.6L965.4,946v62.4l-27.6,27l-66.6,18l-103.8-28.2L747,949.6l30.6-53.4V814l93.6-25.2L975.6,817
	L996,892.6z M875.4,1027l43.8-164.4L894.6,820l-22.2-6l-4.2,0.6l-44.4,165l24.6,43.2l22.8,5.4L875.4,1027z"/>
<path class="st1" d="M1244.4,980.2l52.2,30.6l-108.6,28.8l-19.8-31.8l-71.4,41.4l-75.6-20.4l-20.4-75.6l31.2-53.4v-81.6l93-25.2
	l37.8,10.2l18.6,32.4l42.6-163.8l40.8,10.2l22.2,71.4l-68.4,151.8v103.2l11.4-3L1244.4,980.2z M1136.4,998.8l35.4-132l-25.2-43.2
	l-21.6-6l-3.6,1.2l-43.8,165l21,36.6L1136.4,998.8z"/>
<path class="st1" d="M1471.2,964l39,10.8v49.2l-93.6,25.2l-103.8-27.6l-20.4-75.6l55.8-97.2l97.2-55.8l75.6,20.4l15.6,60l-55.2,55.2
	h-61.8l-45,26.4l-5.4,21l25.2,43.8l22.2,6l22.8-6L1471.2,964z M1404.6,842.8l-21.6,81l76.2-43.8l5.4-21l-22.2-37.8L1404.6,842.8z"/>
<path class="st1" d="M1824.6,813.4l13.8,48.6l-46.2,27.6l-39-71.4l-44.4,24.6l-55.8,206.4l-40.8-10.8l-16.8-90.6l31.2-54.6v-59.4
	l-11.4,3l-14.4,25.2l-53.4-30.6l109.8-28.2l18.6,31.2l73.8-41.4L1824.6,813.4z"/>
<path class="st1" d="M1964.4,854.8H1941l11.4,42l-30.6,53.4v81.6l-65.4,17.4l-25.2-15l45-167.4l-25.8-44.4l5.4-21.6l91.8,24.6
	L1964.4,854.8z M1878.6,702.4l76.8-21.6l1.2,63l-33,34.2l-33-31.8L1878.6,702.4z"/>
<path class="st1" d="M2134.2,964l39,10.8v49.2l-93.6,25.2l-103.8-27.6l-20.4-75.6l55.8-97.2l97.2-55.8l75.6,20.4l15.6,60l-55.2,55.2
	h-61.8l-45,26.4l-5.4,21l25.2,43.8l22.2,6l22.8-6L2134.2,964z M2067.6,842.8l-21.6,81l76.2-43.8l5.4-21l-22.2-37.8L2067.6,842.8z"/>
<path class="st1" d="M1407.9,1327l-75.9-20.3l-75.3,43.5l-6.2-23.1l-75.9-20.3l-79.5,45.9l-21.3-37l-26.9,7.2l0.6,2.4h-0.1l-0.7-2.4
	l-34.1,9.2l-39.9,10.7l29,16.8l13.2-22.9l30.1-8.1v82.6l-34.3,59.4l20.3,75.9l30.7,8.2L1118,1345l56.1-32.3l32.3,56l-50.1,187.3
	l18.4,10.6l62-16.6v-87.7l34.3-59.4l-12.8-47.8l73.5-42.4l31.4,54.4l-0.2,0.7l0.7,0.2l0.4,0.7l-0.2,0.8l-0.6,0.3l0.3,0.6l-14.3,53.6
	l-0.1,0.1l0.1,0.1l-28.7,107.4l-0.2,0.2l0.1,0.1l-6.5,24.4l18.3,10.7l61.8-15.9v-87.8l34.3-59.4L1407.9,1327z M1000,1352.5
	l-11.4-6.6h15.2L1000,1352.5z M1006.7,1340.9h-8.3l9.9-2.6L1006.7,1340.9z M1033.1,1441.7l9.2,16l-16-4.3L1033.1,1441.7z
	 M1023.8,1457.9l18.8,5l-13.9,13.8l-11.8-6.8L1023.8,1457.9z M1017.5,1476.1l7.5,4.3l-5,5L1017.5,1476.1z M1021.5,1490.9l8-7.9
	l13.1,7.6l-18.3,10.6L1021.5,1490.9z M1027.8,1514.3l-0.2-0.7l0.6,0.6L1027.8,1514.3z M1029.1,1519.1l3.2-0.9l9.2,9.2h-10.2
	L1029.1,1519.1z M1045,1544.8l-9.8-2.6l-2.6-9.7h12.3V1544.8z M1045,1524l-7.2-7.2l7.2-1.9V1524z M1045,1509.7l-11.3,3l-7.2-7.2
	l18.4-10.6V1509.7z M1045,1486.2l-11.8-6.9l11.8-11.8V1486.2z M1045,1452.3l-7.6-13.1l7.6,0V1452.3z M1045,1434.2l-7.6,0l7.6-13.1
	V1434.2z M1101.5,1373.5l-22.4-6l14.2-8.2L1101.5,1373.5z M1061,1393.5l14.1,8.1l-22.3,6L1061,1393.5z M1059.1,1386.7l-6.7-3.8
	l13.3-7.7L1059.1,1386.7z M1079.9,1405.5l4.3,16l-11.7,11.6l-20.2-20.1L1079.9,1405.5z M1063.5,1389.2l8.3-14.3l6,22.5
	L1063.5,1389.2z M1069.2,1346h13.5l-9.2,16L1069.2,1346z M1090.8,1355l-11.3,6.5l7.5-13.1L1090.8,1355z M1072.1,1322.5l10.6,18.5
	h-14.9l-3-11.2L1072.1,1322.5z M1064.4,1323.2l-1,1l-0.2-0.7L1064.4,1323.2z M1062.7,1341h-9l7.1-7.1L1062.7,1341z M1050.1,1327
	l8.2-2.2l0.9,3.5l-9.2,9.2V1327z M1050.1,1346h13.9l5,18.8l-18.9-5.1V1346z M1050.1,1365l16,4.3l-16,9.2V1365z M1050.1,1387.3
	l6.5,3.8l-6.5,11.3V1387.3z M1050,1417.7l16.6,16.5l-16.6,0V1417.7z M1050,1439.2l16.4,0l-16.4,16.3V1439.2z M1050,1471l6.6,11.4
	l-6.6,3.8V1471z M1052.7,1465.7l22.5,6l-14.3,8.3L1052.7,1465.7z M1065.7,1498.2l-13.1-7.6l6.6-3.8L1065.7,1498.2z M1050,1494.9
	l15.9,9.2l-15.9,4.3V1494.9z M1058.3,1548.3l-8.3-2.2V1536l9.2,9.2L1058.3,1548.3z M1060.7,1539.6l-7.1-7.1h9L1060.7,1539.6z
	 M1063.9,1527.5H1050v-14l19-5.1L1063.9,1527.5z M1071.7,1498.6l-8.2-14.3l14.3-8.2L1071.7,1498.6z M1079.9,1467.8l-27.7-7.4
	l20.3-20.2l11.7,11.6L1079.9,1467.8z M1085.7,1446.2l-7-6.9l8.8,0L1085.7,1446.2z M1078.5,1434.3l7.3-7.2l1.9,7.2L1078.5,1434.3z
	 M1090.9,1427l-1.1-4l2.9-2.9L1090.9,1427z M1088.3,1417.4l-2.6-9.6l7.8,4.5L1088.3,1417.4z M1096,1407.9l-8-4.6l9.9-2.7
	L1096,1407.9z M1099.4,1395.1l-16,4.3l-7.4-27.5l27.6,7.4L1099.4,1395.1z M1105.9,1371.1l-8.2-14.3l14.3-8.2L1105.9,1371.1z
	 M1254.3,1360.3l-2.7-2.7l1.8-0.6L1254.3,1360.3z M1252.1,1352.2l-4.5,1.4l-7.7-7.7h10.5L1252.1,1352.2z M1231.5,1455.6l-16.3-16.3
	l16.3,0L1231.5,1455.6z M1190.4,1532.4l-6.8,11.8l-11.7-11.8H1190.4z M1175.1,1527.4l11.3-6.6l3.8,6.6H1175.1z M1188.3,1514
	l-8.2-14.3l22.5,6L1188.3,1514z M1202.3,1511.7l-7.7,13.3l-3.8-6.7L1202.3,1511.7z M1208.3,1511.4l4.3,16H1199L1208.3,1511.4z
	 M1210,1498.5l-6-22.5l14.3,8.2L1210,1498.5z M1222.6,1486.7l6.5,3.8l-13.1,7.6L1222.6,1486.7z M1220.7,1479.9l-14.3-8.3l22.6-6.1
	L1220.7,1479.9z M1201.7,1467.7l-4.3-15.9l11.6-11.6l20.1,20.1L1201.7,1467.7z M1231.5,1434.3l-16.5,0l16.5-16.5L1231.5,1434.3z
	 M1231.5,1402.2l-6.5-11.3l6.5-3.8L1231.5,1402.2z M1228.8,1407.6l-22.4-5.9l14.2-8.2L1228.8,1407.6z M1215.9,1375.4l13,7.5
	l-6.5,3.7L1215.9,1375.4z M1231.4,1378.6l-16.4-9.4l16.4-5.1L1231.4,1378.6z M1231.4,1358.7l-18.8,5.9l5-18.7h13.8L1231.4,1358.7z
	 M1223.3,1324.8l8.1,2.2l0,10.4l-9.1-9.1L1223.3,1324.8z M1220.8,1333.9l7,7h-8.8L1220.8,1333.9z M1218.4,1323.5l-0.2,0.8l-1.1-1.1
	L1218.4,1323.5z M1180.2,1313.3l9.6,2.6l-5.2,5.2L1180.2,1313.3z M1187.2,1325.5l8.1-8.1l9.8,2.6l-10.5,18.4L1187.2,1325.5z
	 M1209.4,1322.6l7.3,7.3l-3,11H1199L1209.4,1322.6z M1199,1345.9h13.4l-4.3,15.9L1199,1345.9z M1209.9,1375l8.2,14.1l-14.1,8.1
	L1209.9,1375z M1201.8,1405.6l27.5,7.3l-20.2,20.2l-11.6-11.6L1201.8,1405.6z M1196,1427.1l7.1,7.1l-9,0L1196,1427.1z
	 M1202.9,1439.2l-7,7l-1.9-7L1202.9,1439.2z M1190.8,1446.4l1,3.9l-2.9,2.9L1190.8,1446.4z M1193.4,1455.9l2.6,9.7l-7.8-4.5
	L1193.4,1455.9z M1185.7,1465.4l7.7,4.4l-9.6,2.6L1185.7,1465.4z M1182.4,1478l15.8-4.2l7.4,27.6l-27.5-7.4L1182.4,1478z
	 M1175.8,1502.4l8.1,14.1l-14.1,8.1L1175.8,1502.4z M1174.1,1560.5l-12-6.9l5-18.8l13.8,13.9L1174.1,1560.5z M1180.3,1559.9l4.3-7.5
	l5,5L1180.3,1559.9z M1195.2,1555.9l-8-8l7.4-12.9l10.5,18.2L1195.2,1555.9z M1209.5,1550.8l-10.6-18.4h15l3,11.1L1209.5,1550.8z
	 M1217.5,1549.9l0.9-0.8l0.2,0.6L1217.5,1549.9z M1219.1,1532.4h9l-7.1,7.1L1219.1,1532.4z M1231.6,1546.2l-8.2,2.2l-0.9-3.4
	l9.1-9.1V1546.2z M1231.6,1527.4h-13.9l-5.1-18.9l19,5.1V1527.4z M1231.6,1508.3l-16.1-4.3l16.1-9.3V1508.3z M1231.6,1486.1
	l-6.5-3.8l6.5-11.3V1486.1z M1236.4,1328.3l10.1,2.7l2.6,9.9h-12.7L1236.4,1328.3z M1236.4,1349.5l5.8,5.8l-5.8,1.8L1236.4,1349.5z
	 M1236.4,1362.4l9.8-3.1l8.6,8.6l-18.4,10.6L1236.4,1362.4z M1236.4,1387.2l11.7,6.8l-11.7,11.7L1236.4,1387.2z M1236.5,1452.4
	l0-13.2l7.6,0L1236.5,1452.4z M1236.5,1434.3l0-13.4l7.7,13.4L1236.5,1434.3z M1248.5,1431.7l-9.4-16.2l16.2,4.3L1248.5,1431.7z
	 M1257.9,1415.3l-19-5l13.7-13.7l12.1,7L1257.9,1415.3z M1264.3,1397.5l-8-4.6l5.3-5.3L1264.3,1397.5z M1260.1,1382l-8.3,8.3
	l-12.9-7.5l18.6-10.7L1260.1,1382z M1421.5,1398l-8.7-5l5.8-6L1421.5,1398z M1417.1,1381.4l-8.8,9.1l-12.8-7.4l19-11.3
	L1417.1,1381.4z M1392.6,1357.2l0-7.8l5.9,5.9L1392.6,1357.2z M1402.5,1359.3l8.7,8.7l-18.6,11.1l0-16.6L1402.5,1359.3z
	 M1392.7,1420.8l7.8,13.5l-7.8,0L1392.7,1420.8z M1392.7,1406.7l0-19.6l12.1,7L1392.7,1406.7z M1411.9,1361.6l-4-4l2.7-0.9
	L1411.9,1361.6z M1409.3,1351.9l-5.4,1.7l-7.6-7.6h11.5L1409.3,1351.9z M1403.9,1331l2.6,10h-13.9l0-13L1403.9,1331z M1387.7,1434.3
	l-14.6,0l14.6-15.1L1387.7,1434.3z M1352.3,1439.2l9,0l-7.2,7.4L1352.3,1439.2z M1354,1466.7l-7.9-4.5l5.3-5.5L1354,1466.7z
	 M1366.3,1441.3l19.1,19.1l-26,7l-3.7-15L1366.3,1441.3z M1385,1465.7l-8.2,14.2l-14.2-8.2L1385,1465.7z M1374.3,1484.2l-7.5,13
	l-5.1-20.3L1374.3,1484.2z M1388.9,1508.7l-16.8-4.1l16.8-10.3V1508.7z M1364.9,1510.5l4.2,16.9h-14L1364.9,1510.5z M1371.5,1499.1
	l7.1-12.3l6.7,3.9L1371.5,1499.1z M1357.4,1513.6l-6.5,11.3l-3.1-5.4L1357.4,1513.6z M1345.2,1515.2l-8.1-14.1l22.2,5.4
	L1345.2,1515.2z M1346.5,1527.4h-11.7l8.6-5.3L1346.5,1527.4z M1346.5,1532.4l-6.8,11.8l-11.7-11.8H1346.5z M1340.8,1552.3l5.6,5.7
	l-10.5,2.7L1340.8,1552.3z M1343.4,1547.9l7.5-12.9l11,19.1l-9.9,2.5L1343.4,1547.9z M1355.2,1532.4h15.3l2.8,11.1l-7.4,7.4
	L1355.2,1532.4z M1375.6,1532.4h8.8l-7,7L1375.6,1532.4z M1374.3,1527.4l-4.6-18.2l19.1,4.7v13.5H1374.3z M1388.9,1486.9l-7.8-4.5
	l7.8-13.4V1486.9z M1387.7,1455.7l-16.4-16.4l16.4,0L1387.7,1455.7z M1387.7,1402.2l-6.2-10.6l6.1-3.7L1387.7,1402.2z
	 M1385.1,1407.7l-21.2-5.6l13.3-8L1385.1,1407.7z M1372.1,1375.3l13.6,7.8l-6.7,4L1372.1,1375.3z M1387.6,1378.5l-16.3-9.4l16.3-5.1
	L1387.6,1378.5z M1387.6,1358.7l-18.8,5.9l5-18.6h13.8L1387.6,1358.7z M1379.6,1324.5l8,2.2l0,10.6l-9.1-9L1379.6,1324.5z
	 M1377.1,1333.9l7.2,7.1h-9.1L1377.1,1333.9z M1374.7,1323.2l-0.3,1l-1.4-1.4L1374.7,1323.2z M1337.8,1313.3l8.6,2.3l-4.6,4.6
	L1337.8,1313.3z M1344.3,1324.7l7.6-7.6l9.7,2.6l-10,17.6L1344.3,1324.7z M1365.7,1322.6l7.2,7.2l-3,11.2h-14.8L1365.7,1322.6z
	 M1356.6,1346h12l-3.8,14.2L1356.6,1346z M1367,1376.4l7.7,13.3l-13.4,8L1367,1376.4z M1359.1,1406l27.3,7.2l-20.2,21l-11.5-11.5
	L1359.1,1406z M1359.2,1434.2l-7.6,0l1.6-6L1359.2,1434.2z M1348.6,1445.2l1.4,5.7l-4.1,4.3L1348.6,1445.2z M1343,1466.2l6.6,3.8
	l-8.2,2.2L1343,1466.2z M1355.7,1473.5l7.2,28.8l-27.7-6.8l4.7-17.7L1355.7,1473.5z M1332.9,1503.9l8,13.9l-14,8.6L1332.9,1503.9z
	 M1324.4,1535.9l12.7,12.8l-6.6,11.5l-10.9-6.3L1324.4,1535.9z M1372.4,1551.3l2.2-2.2l0.4,1.5L1372.4,1551.3z M1379.8,1549.4
	l-1.1-4.4l10.2-10.1v12.1L1379.8,1549.4z M1392.7,1455.3l0-16l9.2,0L1392.7,1455.3z M1405.5,1433l-10.1-17.5l17.5,4.6L1405.5,1433z
	 M1395.9,1410.5l13.3-13.8l12.9,7.5l-6.7,11.5L1395.9,1410.5z"/>
<path class="st1" d="M953.5,1537.2l-30,8.1v-82.7l34.3-59.4l-20.3-75.9l-28.4-7.7l-46.5-12.5l-34.9-9.4l-35.7,9.6l-35.1,60.9
	l10,37.5l37.2-10l27.2-27.2l-43.6-43.6l7.6-13.2l32.5-8.8l32.6,8.7l33,57.4l-8.7,32.1l-57.6,33.2h-68.6l-55.6,55.6l15.1,56.7
	l74.1,19.9l0.6,1.1l61.3-35.4l19.4-11.2l21.3,37l26.9-7.2l-0.6-2.4h0.1l0.7,2.5l34.1-9.2l39.9-10.6l-29-16.8L953.5,1537.2z
	 M773.8,1348.6l3.8,6.6l-11.4,6.6L773.8,1348.6z M780.1,1359.5l8.1,14.1l-22.3-5.9L780.1,1359.5z M778.2,1346.2h15l-11.3,6.5
	L778.2,1346.2z M786.2,1395.3l-15.9,4.3l-7.3-27.5l27.6,7.3L786.2,1395.3z M791.8,1393.8l2.6-9.5l4.4,7.7L791.8,1393.8z
	 M803.1,1389.5l-4.6-7.9l9.9,2.6L803.1,1389.5z M824.1,1368.5l-11.6,11.6l-15.9-4.2l7.4-27.4L824.1,1368.5z M792.7,1371.3l-8.2-14.3
	l14.3-8.3L792.7,1371.3z M796.8,1341.2h-18.7l6.8-11.8L796.8,1341.2z M910.2,1325.1l8.2,2.2v10.3l-9.1-9.1L910.2,1325.1z
	 M880.2,1456.1l2.6,9.6l-7.7-4.5L880.2,1456.1z M875.8,1453.4l1.8-6.8l1.1,3.9L875.8,1453.4z M889.9,1439.4l-7.1,7.1l-1.9-7.1H889.9
	z M880.9,1434.4l1.9-7.1l7.1,7.1H880.9z M880.4,1470.2l-9.7,2.6l1.9-7.1L880.4,1470.2z M885,1474.1l7.4,27.5l-27.5-7.3l4.3-15.9
	L885,1474.1z M890.7,1476.1l14.3,8.2l-8.2,14.3L890.7,1476.1z M909.3,1486.8l6.7,3.8l-13.3,7.7L909.3,1486.8z M907.5,1480l-14.1-8.1
	l22.3-6L907.5,1480z M888.5,1468l-4.3-15.9l11.6-11.6l20.2,20.2L888.5,1468z M901.9,1439.4h16.5v16.5L901.9,1439.4z M901.9,1434.4
	l16.5-16.5v16.5H901.9z M915.7,1407.9l-22.4-6l14.2-8.2L915.7,1407.9z M902.7,1375.5l13.2,7.6l-6.6,3.8L902.7,1375.5z M911.8,1391.3
	l6.6-3.8v15.2L911.8,1391.3z M902.4,1369.6l16-4.3v13.5L902.4,1369.6z M899.4,1365.2l5.1-19h13.9v13.9L899.4,1365.2z M907.8,1334
	l7.2,7.2h-9.1L907.8,1334z M905.3,1323.8l-0.2,0.6l-0.9-0.9L905.3,1323.8z M903.7,1329.9l-3,11.3h-14.7l10.6-18.4L903.7,1329.9z
	 M867,1313.5l9.6,2.6l-5.2,4.9L867,1313.5z M873.9,1325.4l8.3-7.9l10,2.7l-10.7,18.5L873.9,1325.4z M885.8,1346.2h13.5l-4.3,16
	L885.8,1346.2z M896.7,1375.2l8.2,14.3l-14.3,8.3L896.7,1375.2z M888.6,1405.9l27.5,7.3l-20.2,20.2l-11.6-11.6L888.6,1405.9z
	 M818.4,1439.4l-32.4,18.7l-5-18.7H818.4z M777.7,1446.5l1.9,7l-3-3L777.7,1446.5z M780.3,1461.4l-7.8,4.5l2.6-9.7L780.3,1461.4z
	 M774.4,1439.4l-1.9,7.1l-7.1-7.1H774.4z M759.4,1440.4l11.6,11.6l-4.3,15.9l-27.5-7.3L759.4,1440.4z M758.6,1498.7l-8.2-14.2
	l14.2-8.2L758.6,1498.7z M760.3,1511.5l9.3,16.1H756L760.3,1511.5z M752.7,1498.4l-13.2-7.6l6.6-3.8L752.7,1498.4z M739.6,1465.9
	l22.6,6l-14.3,8.3L739.6,1465.9z M737,1471.3l6.6,11.4l-6.6,3.8V1471.3z M737,1495.2l15.9,9.2l-15.9,4.2V1495.2z M737,1513.7l18.9-5
	l-5.1,18.9H737V1513.7z M708.4,1491.4l8.1-8.1l12.9,7.5l-18.4,10.6L708.4,1491.4z M714.5,1514.4l-0.2-0.8l0.7,0.7L714.5,1514.4z
	 M715.8,1519.3l3.3-0.9l9.2,9.2H718L715.8,1519.3z M732,1545.2l-10-2.7l-2.7-10H732V1545.2z M732,1524.3l-7.3-7.3l7.3-1.9V1524.3z
	 M732,1509.8l-11.4,3l-7.1-7.1l18.5-10.7V1509.8z M732,1486.5l-11.8-6.8l11.8-11.8V1486.5z M745.1,1548.7l-8.1-2.2v-10.2l9,9
	L745.1,1548.7z M747.5,1539.8l-7.2-7.2h9.1L747.5,1539.8z M750,1550l0.2-0.6l0.9,0.9L750,1550z M751.6,1543.9l3-11.3h14.9
	l-10.7,18.5L751.6,1543.9z M763.2,1553.6l10.7-18.5l7.4,12.9l-8.3,8.3L763.2,1553.6z M778.6,1557.7l5.3-5.3l4.6,8L778.6,1557.7z
	 M850.6,1528.5l-56,32.3l-32.3-56l8.6-32.1l58.2-33.6l0,0l53.9-31.1L850.6,1528.5z M856.7,1524.9l6-22.4l8.2,14.2L856.7,1524.9z
	 M875.2,1514.2L875.2,1514.2L867,1500l22.4,6L875.2,1514.2L875.2,1514.2z M877.7,1518.5l11.3-6.5l-7.5,13.1L877.7,1518.5z
	 M895,1511.5l4.3,16.1h-13.6L895,1511.5z M896.4,1551l-10.6-18.4h14.9l3,11.2L896.4,1551z M904.3,1550.3l0.9-0.9l0.2,0.6
	L904.3,1550.3z M905.9,1532.6h9l-7.1,7.1L905.9,1532.6z M918.5,1546.5l-8.3,2.2l-0.9-3.4l9.2-9.2V1546.5z M918.5,1527.6h-14
	l-5.1-18.9l19.1,5.1V1527.6z M918.5,1508.6l-16.1-4.3l16.1-9.3V1508.6z M918.5,1486.3l-6.7-3.8l6.7-11.5V1486.3z M935.4,1432
	l-9.3-16.1l16.1,4.3L935.4,1432z M944.8,1415.7l-19-5.1l13.8-13.8l12.1,7L944.8,1415.7z M951.1,1397.7l-7.9-4.6l5.3-5.3
	L951.1,1397.7z M947,1382.3l-8.3,8.3l-12.8-7.4l18.5-10.7L947,1382.3z M940.8,1359.3l0.3,1l-0.9-0.9L940.8,1359.3z M939.5,1354.4
	l-3.4,0.9l-9.1-9.1h10.3L939.5,1354.4z M923.4,1328.6l10,2.7l2.6,9.9h-12.6V1328.6z M923.4,1349.6l7.2,7.2l-7.2,1.9V1349.6z
	 M923.4,1363.9l11.3-3l7.2,7.2l-18.5,10.7V1363.9z M923.4,1387.5l11.7,6.7l-11.7,11.7V1387.5z M923.4,1421.3l7.6,13.1h-7.6V1421.3z
	 M923.4,1439.4h7.7l-7.7,13.3V1439.4z M960.3,1535.3l1.6-2.7h8.6L960.3,1535.3z M979.7,1527.6h-15l3.8-6.5L979.7,1527.6z"/>
<path class="st1" d="M724.4,1333.1l-75.9-20.1l-79.4,45.9l-21.3-37l-26.8,7.1l0.7,2.5h-0.1l-0.7-2.5l-34,9.3l-39.9,10.8l29,16.8
	l13.2-23l29.8-8.2v82.7l-34.3,59.4l20.3,75.9l30.7,8.2l56.2-209.4l56-32.4l46.6,80.7l41.4-24L724.4,1333.1z M474.1,1358.9l-11.5-6.7
	h15.4L474.1,1358.9z M480.8,1347.2h-8.2l9.7-2.6L480.8,1347.2z M519.1,1530l-7-7l7-1.8L519.1,1530z M519.1,1492.6l-11.7-6.8
	l11.7-11.7L519.1,1492.6z M519,1427.2l0,13.3h-7.7L519,1427.2z M519,1445.5l0,13.4l-7.7-13.4H519z M507,1448l9.2,15.9l-15.9-4.3
	L507,1448z M497.7,1464.1l19.1,5.2l-13.9,13.9l-12.1-7.1L497.7,1464.1z M491.4,1482.2l7.9,4.6l-5.2,5.2L491.4,1482.2z M495.5,1497.6
	l8.2-8.2l12.7,7.4l-18.3,10.5L495.5,1497.6z M519.1,1501.1l0,15L508,1519l-7.3-7.3L519.1,1501.1z M501.7,1520.6l-0.3-1.3l1.1,1.1
	L501.7,1520.6z M503,1525.5l3.5-0.9l9.2,9.2h-10.5L503,1525.5z M509.1,1548.5l-2.6-9.8h12.6l0,12.4L509.1,1548.5z M567.3,1365.6
	L567.3,1365.6l8.2,14.2l-22.5-6L567.3,1365.6L567.3,1365.6z M564.8,1361.3l-11.3,6.5l7.6-13.1L564.8,1361.3z M547.4,1368.3
	l-4.3-16.1h13.6L547.4,1368.3z M534.9,1399.7l14.1,8.2l-22.3,5.9L534.9,1399.7z M533.1,1392.9l-6.6-3.8l13.2-7.6L533.1,1392.9z
	 M553.9,1411.8l4.3,16.1l-11.6,11.6l-20.3-20.4L553.9,1411.8z M537.4,1395.4l8.2-14.2l6,22.4L537.4,1395.4z M546.1,1328.8l10.6,18.4
	h-14.9l-3-11L546.1,1328.8z M538.4,1329.4l-1.1,1.1l-0.2-0.8L538.4,1329.4z M536.6,1347.2h-8.8l7-7L536.6,1347.2z M524,1333.3
	l8.2-2.2l1,3.6l-9.2,9.2V1333.3z M524,1352.2h13.9l5.1,18.9l-19-5.1V1352.2z M524,1371.3l16,4.3l-16,9.2V1371.3z M524,1393.4
	l6.6,3.8l-6.6,11.4V1393.4z M524,1424l16.5,16.5H524L524,1424z M524,1445.5h16.5L524,1462L524,1445.5z M524,1477.6l6.4,11.2
	l-6.4,3.7L524,1477.6z M526.6,1471.9l22.5,6.1l-14.2,8.2L526.6,1471.9z M539.6,1504.6l-13.2-7.7l6.6-3.8L539.6,1504.6z
	 M524.1,1501.3l15.9,9.3l-15.8,4.2L524.1,1501.3z M532.2,1554.6l-8.1-2.2l0-10.3l9.1,9.1L532.2,1554.6z M534.7,1545.6l-6.9-6.9h8.8
	L534.7,1545.6z M537.9,1533.7h-13.8l0-13.8l18.8-5L537.9,1533.7z M545.6,1504.9l-8.3-14.3l14.3-8.3L545.6,1504.9z M553.8,1474.2
	l-27.4-7.4l20.1-20.1l11.6,11.6L553.8,1474.2z M559.6,1452.6l-7.1-7.1h9L559.6,1452.6z M552.6,1440.5l7-7l1.9,7H552.6z
	 M564.8,1433.3l-1-3.9l2.9-2.9L564.8,1433.3z M562.2,1423.8l-2.6-9.8l7.9,4.5L562.2,1423.8z M569.9,1414.2l-7.9-4.6l9.8-2.6
	L569.9,1414.2z M573.3,1401.5l-15.9,4.2l-7.4-27.5l27.6,7.4L573.3,1401.5z M579.8,1377.3l-8.2-14.2l14.2-8.2L579.8,1377.3z
	 M728,1365.3l0.3,1l-0.8-0.8L728,1365.3z M724.5,1352.2l2.2,8.2l-3.4,0.9l-9.2-9.1H724.5z M710.6,1334.6l9.8,2.6l2.7,10.1h-12.5
	V1334.6z M710.6,1355.7l7.1,7.1l-7.1,1.9V1355.7z M694.9,1340l7.2,7.2h-9.1L694.9,1340z M692.4,1329.7l-0.2,0.7l-1-1L692.4,1329.7z
	 M690.8,1336l-3,11.2h-14.8l10.6-18.4L690.8,1336z M654.1,1319.6l9.7,2.6l-5.2,5.2L654.1,1319.6z M661.2,1331.9l8.2-8.2l9.8,2.6
	l-10.6,18.5L661.2,1331.9z M682.2,1368.2l-9.2-16h13.5L682.2,1368.2z M696.4,1392.9l-6.6-11.4l13.2,7.6L696.4,1392.9z M705.6,1384.8
	l-16-9.2l16-4.3V1384.8z M705.6,1366.1l-19.1,5.1l5.1-19h14V1366.1z M705.6,1343.7l-9.2-9.2l0.9-3.5l8.3,2.2V1343.7z M710.6,1369.9
	l11.2-3l7.1,7.1l-18.4,10.6V1369.9z"/>
<path class="st1" d="M394.3,1332h-73.8l60.1-224.3l-32-8.1l-55.4,55.6l-21.6,203.4l-59.4,102.8l15.2,57h-22.2l8,13.7l94.2,25.2
	l34.8,9.4l15.3-4.2l56.8-15.1l-16.8-29h-32.3l-10.4,39.7l-12.7,3.4l-32.4-8.8l-33.1-57.3l42.5-158.5h118.5l0.2-22.7l-28.7-7.7
	L394.3,1332z M381.4,1551.1l4.6-7.8l5.2,5.2L381.4,1551.1z M406.6,1544.3l-9.9,2.6l-8.2-8.2l7.5-12.8L406.6,1544.3z M391.6,1523.5
	l-6.8,11.6l-11.6-11.6H391.6z M368.4,1525.8l13.8,13.8l-7,12l-11.8-6.9L368.4,1525.8z M362.1,1549.7l7.6,4.5l-9.5,2.5L362.1,1549.7z
	 M322.9,1303.5l-14.9-23.5l19.8,5.3L322.9,1303.5z M292.6,1337.1l14.8,0.1l-11,6.4L292.6,1337.1z M302.9,1364.7l-22.5-6.1l14.2-8.3
	L302.9,1364.7z M289.7,1332.1l-7.5-12.9l13.6-2.3l15.3,15.4L289.7,1332.1z M283.9,1297.8l17.3-19.1l18.4,29l-22,3.8L283.9,1297.8z
	 M347.3,1142.1l11.7,11.7l-18.5,0.1L347.3,1142.1z M346.2,1134l-5.7-5.7l10.5-2.7L346.2,1134z M322.4,1175.2l-4.4-16.3l13.8,0
	L322.4,1175.2z M336.2,1161.4l14.5,25.1l-25-6.7L336.2,1161.4z M326.7,1210.1l-14-8.1l8-13.9L326.7,1210.1z M324.4,1214.6l-22.4,6
	l8.2-14.2L324.4,1214.6z M329,1218.5l4.6,16.9l-10.5,11.6h-0.2l-21.2-21.2L329,1218.5z M290.2,1252h28.3l-16.6,18.4L290.2,1252z
	 M329.1,1280.5l-23.8-6.4l17.9-19.8l10.2,10.2L329.1,1280.5z M334.8,1259l-7-7h8.9L334.8,1259z M329.8,1247l5.3-5.9l1.6,5.9H329.8z
	 M340,1239.8l-0.8-3.1l2.4-2.7L340,1239.8z M337.6,1231l-2.8-10.4l8.1,4.7L337.6,1231z M345.1,1220.8l-7.8-4.5l9.7-2.6L345.1,1220.8
	z M348.5,1208.1l-16,4.3l-7.5-27.6l27.8,7.4L348.5,1208.1z M355,1183.9l-14.5-25.1l21.2-0.1L355,1183.9z M363.7,1151.4l-13.8-13.8
	l7-12.1l11.9,6.9L363.7,1151.4z M370.1,1127.5l-8-4.6l9.9-2.5L370.1,1127.5z M366.2,1109.2l8.2,2.1l-0.9,3.5l-12.2,3.1L366.2,1109.2
	z M350.1,1105.2l11.1,2.8l-6.2,10.8l-11.7-6.8L350.1,1105.2z M339.6,1115.7l9.3,5.4l-12.6,3.2l-2.6-2.6L339.6,1115.7z M330.2,1125.1
	l0.5,0.5l-1.4,0.4L330.2,1125.1z M334.8,1129.8l8.8,8.7l-7.4,12.9l-11-19.2L334.8,1129.8z M320.7,1134.6l11.1,19.3l-15.2,0
	l-3.2-11.9L320.7,1134.6z M309.3,1146.1l2.1,7.9l-10,0L309.3,1146.1z M297.7,1159l15.1,0l5.1,18.7l-21.5-5.8L297.7,1159z
	 M295.8,1176.9l22.2,5.9l-9.6,16.6l-14.1-8.2L295.8,1176.9z M293.7,1196.8l12.2,7.1l-9.6,16.6l-4.6-4.6L293.7,1196.8z M291,1222.2
	l1,1l-1.2,0.3L291,1222.2z M290.3,1228.9l1.3-0.4l-1.6,2.7L290.3,1228.9z M288.7,1243.5l8.6-14.9l18.4,18.4h-27.4L288.7,1243.5z
	 M287.3,1256.8l9.6,15.2L286,1269L287.3,1256.8z M285.5,1274l10.6,2.8l-12.3,13.6L285.5,1274z M282.4,1303.3l9.1,9.2l-10.3,1.8
	L282.4,1303.3z M280,1325.3l3.9,6.7l-4.6,0L280,1325.3z M278.8,1337l8,0l5.2,9l-15.2,8.8L278.8,1337z M273,1366.1l6,22.3l-14.2-8.2
	L273,1366.1z M262.3,1384.6l14.2,8.2l-22.4,6L262.3,1384.6z M281.2,1396.7l4.3,16l-11.6,11.6l-20.2-20.2L281.2,1396.7z M287,1418.3
	l1.9,7h-8.9L287,1418.3z M251.4,1408.8l16.5,16.5h-16.5V1408.8z M251.4,1430.3h16.5l-16.5,16.5V1430.3z M251.4,1462.2l6.5,11.3
	l-6.5,3.8V1462.2z M254,1456.8l22.5,6l-14.3,8.2L254,1456.8z M266.9,1489.1l-13-7.5l6.5-3.8L266.9,1489.1z M251.4,1485.9l16,9.2
	l-16,4.3V1485.9z M251.4,1504.6l19-5.1l-5.1,19h-13.9V1504.6z M234.4,1432.9l9.2,15.9l-16-4.3L234.4,1432.9z M225.1,1449l19,5.1
	l-13.9,13.9l-12-6.9L225.1,1449z M218.8,1467.1l7.8,4.5l-5.2,5.2L218.8,1467.1z M225.5,1492.2l-2.6-9.8l8.2-8.2l12.8,7.4
	L225.5,1492.2z M216.4,1528l-2.6-4.5h14.8l2.3,8.3L216.4,1528z M228.8,1504.5l0.8,0.8l-0.5,0.1L228.8,1504.5z M230.3,1510.3l3.3-0.9
	l9.1,9.1h-10.3L230.3,1510.3z M246.4,1536l-9.9-2.6l-2.7-9.8h12.5V1536z M246.4,1515l-7.2-7.1l7.2-1.9V1515z M246.4,1500.8l-11.2,3
	l-7.2-7.2l18.5-10.7V1500.8z M246.4,1477.3l-11.7-6.7l11.7-11.7V1477.3z M246.4,1443.6l-7.7-13.3h7.7V1443.6z M246.4,1425.3h-7.6
	l7.6-13.2V1425.3z M259.7,1539.5l-8.3-2.2v-10.2l9.2,9.1L259.7,1539.5z M262,1530.6l-7.2-7.1h9.1L262,1530.6z M264.5,1540.8l0.1-0.5
	l0.7,0.7L264.5,1540.8z M266.1,1534.7l3-11.2H284l-10.6,18.4L266.1,1534.7z M302.8,1551l-9.6-2.6l5.1-5.2L302.8,1551z M295.8,1538.8
	l-8.1,8.2l-9.9-2.7l10.6-18.4L295.8,1538.8z M284.1,1518.5h-13.6l4.3-16.1L284.1,1518.5z M273,1489.6l-8.3-14.3l14.3-8.3L273,1489.6
	z M281.2,1458.8l-27.5-7.3l20.2-20.2l11.6,11.6L281.2,1458.8z M287,1437.4l-7.1-7.1h9L287,1437.4z M292.1,1418.2l-1.1-4l3-3
	L292.1,1418.2z M289.6,1408.6l-2.6-9.8l7.9,4.5L289.6,1408.6z M297.3,1399l-7.8-4.5l9.7-2.6L297.3,1399z M300.7,1386.3l-16,4.3
	l-7.4-27.6l27.6,7.4L300.7,1386.3z M307.2,1362.2l-8.3-14.3l14.3-8.3L307.2,1362.2z M315.8,1329.8l-14-14l18.6-3.2L315.8,1329.8z
	 M424.7,1315.9l8.1,2.2l-0.1,10.5l-8.9-9L424.7,1315.9z M422.2,1325.1l6.8,6.9h-8.6L422.2,1325.1z M419.9,1314.7l-0.2,0.8l-1.1-1.1
	L419.9,1314.7z M418.2,1321l-3,11h-15.2l10.8-18.4L418.2,1321z"/>
<rect x="1542.3" y="1334.5" class="st2" width="0.7" height="0.1"/>
<path class="st1" d="M1567.4,1566.9l-34.7-9.4l-46.5-12.5l-28.3-7.6l-20.3-75.9l34.6-60l25.3-43.8l103.8-60.1l75.9,20.3l15.1,56.6
	l-55.6,55.6h-68.6l-57.6,33.2l-8.6,32.2l33,57.3l32.5,8.8l32.6-8.7l34.6-59.8l28.7,7.7v40.4l-66.9,17.9l0,0L1567.4,1566.9z
	 M1611.4,1543.3l-4.6,7.9l9.9-2.6L1611.4,1543.3z M1518.6,1548.6l9.5,2.6l-4.4-7.7L1518.6,1548.6z M1614,1538.8l8.3,8.3l9.9-2.6
	l-10.7-18.5L1614,1538.8z M1503.2,1544.4l9.8,2.6l8.1-8.1l-7.4-12.8L1503.2,1544.4z M1625.7,1523.5l11.4,19.6l8.1-2.2l-4.7-17.5
	H1625.7z M1491.6,1534.6l7.3,7.3l10.6-18.4h-14.9L1491.6,1534.6z M1489.9,1540.8l1.1,0.3l-0.9-0.9L1489.9,1540.8z M1645.7,1523.5
	l4.3,16.2l8.2-2.2v-14H1645.7z M1476.9,1537.4l8.2,2.2l0.9-3.4l-9.1-9.1V1537.4z M1461.9,1533.4l10,2.7v-12.5h-12.6L1461.9,1533.4z
	 M1480.4,1523.5l7,7l1.9-7H1480.4z M1644.4,1518.5h13.9v-13.8l-19-5.1L1644.4,1518.5z M1625.7,1518.5h13.5l-4.3-15.9L1625.7,1518.5z
	 M1495.9,1518.5h13.5l-9.2-16L1495.9,1518.5z M1476.9,1518.5h13.8l5.1-19l-18.9,5.1V1518.5z M1458,1518.5h10.4l-9.2-9.2l-3.5,0.9
	L1458,1518.5z M1464.8,1507.8l7.1,7.1v-9L1464.8,1507.8z M1454.1,1504.3l0.3,1.2l0.7-0.2L1454.1,1504.3z M1453.5,1496.6l7.2,7.2
	l11.2-3V1486L1453.5,1496.6z M1476.9,1486v13.4l15.8-4.2L1476.9,1486z M1448.3,1482.4l2.7,10l18.4-10.7l-12.9-7.5L1448.3,1482.4z
	 M1490.3,1475.3l8.2,14.2l5.9-22.3L1490.3,1475.3z M1479.3,1481.7l13.2,7.6l-6.6-11.5L1479.3,1481.7z M1460.1,1470.5l11.8,6.8v-18.6
	L1460.1,1470.5z M1476.9,1462.2v15.1l6.5-3.8L1476.9,1462.2z M1444.2,1467.1l2.6,9.7l5.2-5.2L1444.2,1467.1z M1479.4,1456.6
	l8.3,14.4l14.4-8.3L1479.4,1456.6z M1443.6,1461l12,7l14-14l-19-5.1L1443.6,1461z M1479.2,1451.4l27.5,7.4l4.2-15.7l-11.7-11.7
	L1479.2,1451.4z M1544.8,1336.2l-32.2,120.4l54.3-31.3h0.3l57.4-33.1l8.6-32.1l-32.4-56.2L1544.8,1336.2z M1453.2,1444.4l15.9,4.2
	l-9.2-15.9L1453.2,1444.4z M1476.9,1430.3v16.4l16.4-16.4H1476.9z M1464.2,1430.3l7.7,13.3v-13.3H1464.2z M1505.3,1430.3l7.1,7.1
	l1.9-7.1H1505.3z M1505.3,1425.3h9.1l-1.9-7.2L1505.3,1425.3z M1476.9,1425.3h16.4l-16.4-16.4V1425.3z M1464.2,1425.3h7.7V1412
	L1464.2,1425.3z M1620.9,1425.2h8.9l-7-7.1L1620.9,1425.2z M1577.1,1425.2h37.3l-4.8-18.7L1577.1,1425.2z M1479.2,1404.1l20.1,20.1
	l11.7-11.7l-4.2-15.8L1479.2,1404.1z M1624.3,1412.4l11.4,11.7l20.1-20.1l-27.3-7.3L1624.3,1412.4z M1516.6,1414l1.1,4l1.8-6.9
	L1516.6,1414z M1615.9,1411l1.7,6.9l1.1-4L1615.9,1411z M1512.6,1398.9l2.6,9.5l5.1-5.1L1512.6,1398.9z M1615.3,1403.2l5,5.1
	l2.5-9.4L1615.3,1403.2z M1515,1394.5l7.8,4.5l1.9-7.1L1515,1394.5z M1487.7,1384.6l-8.2,14.2l22.5-6L1487.7,1384.6z M1633.2,1392.8
	l22.4,6l-8.2-14.2L1633.2,1392.8z M1663.3,1378.4v18.2l11.5-11.5L1663.3,1378.4z M1651.7,1382.1l6.6,11.3v-15.1L1651.7,1382.1z
	 M1502.9,1363l7.4,27.6l15.8-4.2l4.3-16L1502.9,1363z M1490.2,1380.3l14.4,8.3l-6.1-22.7L1490.2,1380.3z M1636.7,1366.1l-6,22.4
	l14.2-8.2L1636.7,1366.1z M1665.8,1374l12.7,7.3l8.2-8.2l-2.6-9.7L1665.8,1374z M1642.6,1366.4l6.6,11.4l6.6-3.8L1642.6,1366.4z
	 M1642.3,1360.5l16,9.3v-13.6L1642.3,1360.5z M1663.3,1354.8v14.9l18.4-10.6l-7.2-7.2L1663.3,1354.8z M1505.9,1358.7l22.4,6
	l-8.2-14.2L1505.9,1358.7z M1524.4,1347.9l8.2,14.2l6-22.4L1524.4,1347.9z M1644.4,1337.1l-5.1,19l19-5.1v-13.9H1644.4z
	 M1625.7,1337.1l9.2,16l4.3-16H1625.7z M1680.1,1350.3l0.7,0.7l-0.2-0.9L1680.1,1350.3z M1663.3,1340.6v9l7.1-1.9L1663.3,1340.6z
	 M1666.8,1337.1l9.1,9.1l3.3-0.9l-2.2-8.3H1666.8z M1663.3,1332.1h12.4l-2.7-10l-9.8-2.6V1332.1z M1645.8,1332.1h9l-7.1-7.1
	L1645.8,1332.1z M1625.7,1332.1h14.9l3-11.2l-7.2-7.2L1625.7,1332.1z M1614,1316.7l7.4,12.9l10.6-18.5l-9.9-2.7L1614,1316.7z
	 M1649.2,1319.4l9.1,9.1v-10.4l-8.2-2.2L1649.2,1319.4z M1644.1,1314.4l1,1l0.2-0.7L1644.1,1314.4z M1606.8,1304.4l4.5,7.9l5.2-5.3
	L1606.8,1304.4z"/>
</svg>
