<?xml version="1.0" encoding="utf-8"?>
<!-- Generator: Adobe Illustrator 22.1.0, SVG Export Plug-In . SVG Version: 6.00 Build 0)  -->
<svg version="1.1" id="Layer_1" xmlns="http://www.w3.org/2000/svg" xmlns:xlink="http://www.w3.org/1999/xlink" x="0px" y="0px"
	 viewBox="0 0 2400 1800" style="enable-background:new 0 0 2400 1800;" xml:space="preserve">
<style type="text/css">
	.st0{fill:#F1F1F1;}
	.st1{fill:#00234A;}
</style>
<rect class="st0" width="2400" height="1800"/>
<path class="st1" d="M349,1187l-24.3-92.5l103.8-105.4h155.7l81.1-43.8l-58.4,210.9l-115.2,68.1L349,1187z M718.9,1092.9l-30.9,17.9
	l84.4-319.6L679.9,629l-102.2-27.6L475.5,629l-97.3,167.1l56.8,32.5l82.7-144.4l60-14.6l58.4,14.6l68.1,116.8L688,854.5l-120,69.8
	H402.5l-150.9,150.9l43.8,163.8l206,55.2l194.7-113.6l51.9,86l56.8-32.4L718.9,1092.9z"/>
<path class="st1" d="M1380.4,708.5l37.3,144.4l-77.9,136.3v155.7l-43.8,43.8l-144.4,37.4l-58.4-14.6l-66.5-116.8l94.1-355.3
	l116.8-68.1L1380.4,708.5z M1227.9,601.4l-84.4,48.7l94.1-347.2l-110.3-30.8l-17.8,61.6l50.3,14.6l-204.4,756l95.7,162.2l100.6,27.6
	l178.4-47l74.6-76.2v-165.6l82.7-142.8l-55.2-206L1227.9,601.4z"/>
<polygon class="st1" points="2002.2,864.2 2127.1,792.8 2091.5,656.5 1887.1,601.4 1723.2,695.5 1614.5,1104.3 1707,1266.5 
	1809.2,1294.1 2063.9,1225.9 2063.9,1097.8 1999,1097.8 1999,1177.3 1809.2,1225.9 1750.8,1211.3 1682.7,1094.6 1780,739.3 
	1895.2,672.8 2037.9,710.1 2052.5,760.4 1971.4,807.4 "/>
</svg>
