<?xml version="1.0" encoding="utf-8"?>
<!-- Generator: Adobe Illustrator 22.1.0, SVG Export Plug-In . SVG Version: 6.00 Build 0)  -->
<svg version="1.1" id="Calque_1" xmlns="http://www.w3.org/2000/svg" xmlns:xlink="http://www.w3.org/1999/xlink" x="0px" y="0px"
	 viewBox="0 0 2400 1800" style="enable-background:new 0 0 2400 1800;" xml:space="preserve">
<style type="text/css">
	.st0{fill:#F3F2F2;}
	.st1{fill:#162843;}
</style>
<rect class="st0" width="2400" height="1800"/>
<path class="st1" d="M310.7,455.8l-5.8-10l-21.6,12.4l-25.2-6.8l-5.4-20l18.4-18.6h20.6l15-8.6l1.8-6.8l-8.4-14.4l-7.4-2l-7.4,2
	l13.4,13.2L287.9,407l-14.8,4l-4.2-15.4l11.2-19.4l12.6-3.4l34.8,9.2l6.6,25.4l-10.2,17.8v19l3.4-1l4.8-8.2l18,10.4L310.7,455.8z
	 M296.7,441.4l7-26.4l-24.8,14.4l-1.8,6.8l7.2,12.4L296.7,441.4z"/>
<path class="st1" d="M516.1,404.6l-10.2,18V443l-9.2,9.2l-22,6l-40-10.6l-5.6-9.8h7.8l-3.6-14.2l17.6-30.6l2-42.6l18.2-18.4l14.2,4
	l-11.6,42.8l10.4-6l25.4,6.6L516.1,404.6z M474.7,449.8l1.2-0.2l14.8-55l-7.2-12.2l-12.6,7.4l-11.6,43.8l8.2,14.4L474.7,449.8z"/>
<path class="st1" d="M654.3,429.8l13,3.4v16.6l-31.2,8.4l-35-9.2l-7-25.4l19-32.2l32.4-18.6l25.4,6.8l4.6,16.4l-17,9.8l-13.6-23.4
	l-12.8,7.2l-12,43.8l8.4,14.6l7.4,1.8l8-2.2L654.3,429.8z"/>
<path class="st1" d="M834.9,435.2l17.4,10.2l-36.2,9.6l-6.6-10.6l-23.8,13.8l-25.2-6.8l-6.8-25.2l10.4-17.8v-27.2l31-8.4l12.6,3.4
	l6.2,10.8l14.2-54.6l13.6,3.4l7.4,23.8l-22.8,50.6v34.4l3.8-1L834.9,435.2z M798.9,441.4l11.8-44l-8.4-14.4l-7.2-2l-1.2,0.4
	l-14.6,55l7,12.2L798.9,441.4z"/>
<path class="st1" d="M971.9,429.8l13,3.6v16.4l-31.2,8.4l-34.6-9.2l-6.8-25.2l18.6-32.4l32.4-18.6l25.2,6.8l5.2,20L975.3,418h-20.6
	l-15,8.8l-1.8,7l8.4,14.6l7.4,2l7.6-2L971.9,429.8z M949.7,389.4l-7.2,27l25.4-14.6l1.8-7l-7.4-12.6L949.7,389.4z"/>
<path class="st1" d="M341.7,546.6l-11,11.2l-10.8-10.6l-4.2-14.6l17.6-4.8l-5.4-5.4l-7.2-2l-14.4,8.2l-9,35.4h15.8l4.8-7.8l12.8,3.4
	v12h-35.6l-18,66.6l-18.8-5l-5.6-9.8h7.8l-3.8-14l17.8-30.6l5-54.2l18.2-18.4l34.4,9l9.4,9.2L341.7,546.6z"/>
<path class="st1" d="M475.3,573.2h-7.6l3.8,14.2L453.7,618l-3.6,48.8L431.9,685l-34.4-9l-9.6-9.2l0.4-21.2l11-11.2l10.8,10.6
	l3.8,13.8l-17.8,5l5.2,5.2l7.4,2l14.4-8.2l8.2-30.8l-10.6,6.2l-25.2-6.8l-6.8-25l17.4-30.2l-4.4-15.8l28.4-7.6l39.8,10.6
	L475.3,573.2z M434.1,621.6l11.8-44.4l-8.4-14.6l-7.4-2l-1.2,0.4l-12.4,46.8l-2.2,8.4l7.2,12.8L434.1,621.6z"/>
<path class="st1" d="M620.1,559.6l6.6,25l-10.2,17.8v29.8l-22.2,6l-8.6-5l15.8-58.6l-7.4-12.6l-12.6,7.4l-18.4,68.8l-18.8-5
	l-5.6-9.8h7.8l-3.6-14l19-36.4l2-43l18-18l14,3.8L584.3,559l10.6-6.2L620.1,559.6z"/>
<path class="st1" d="M740.3,573.4h-7.8l3.8,14l-10.2,17.8v27.2l-21.8,5.8l-8.4-5l15-55.8l-8.6-14.8l1.8-7.2l30.6,8.2L740.3,573.4z
	 M711.7,522.6l25.6-7.2l0.4,21l-11,11.4l-11-10.6L711.7,522.6z"/>
<path class="st1" d="M853.7,573.2h-7.8l3.6,14l-17.6,30.6l-5,49.2l-18.2,18.2l-34.6-9l-9.2-9l-0.2-22.2l11-11.2l10.8,10.6l4.2,14.6
	l-18.2,5l5.6,5.4l7.4,2l14.2-8.6l24.4-85.6l-8.4-14.4l-8.4-2.4l2-7.2l38.8,10.2L853.7,573.2z M824.9,522.2l25.6-7.2l0.4,21l-11,11.4
	l-11-10.6L824.9,522.2z"/>
<path class="st1" d="M961.7,595.6l13.6,23.4l2.4-4.2l12.8,4.2v15.8l-13.2,3.4l-22.6-38.6l-12.2,6.8l-8.6,31.8l-19.2-5l-5.6-9.8h8.2
	l-3.8-14l19.4-36.4l1.6-42.6l18.6-18.4l13.8,3.6l-11.6,42.8l10.4-5.6l25.2,6.8l4.4,16.8L961.7,595.6z M945.5,595.4l25.2-14.4
	l1.6-6.2l-7-12.4l-12.8,7L945.5,595.4z"/>
<path class="st1" d="M318.3,797.6l8,13.6l-26.2,7l-38.8-10.4l-5.6-9.8h7.8l-3.8-14l17.8-30.6l1.4-43.4l18.4-18l13.6,3.6l-26.4,98
	l8.2,14.4l7.4,1.8l2-0.6l3.4-11L318.3,797.6z"/>
<path class="st1" d="M526.7,739.6l6.8,25.8l-10.4,17.8v28.6l-22.2,6.4l-8.4-5l15.2-58.2l-7.4-12.6l-16.4,9.8l3.6,13.2l-10.4,17.8
	v28.6l-22.6,6.4l-8.4-5l15.6-58.2l-7.4-12.6l-12.6,7.4l-18.2,68.4l-13.8-3.8l-6-27.2l11-21v-19.4l-3.8,1l-4.6,8.2l-17.6-10l36.2-9.8
	l6,10.8l24.2-14.2l25.4,6.8l1.2,4.6l19.6-11.4L526.7,739.6z"/>
<path class="st1" d="M688.7,739.2l6.8,25.2l-10.2,17.8v29.4l-22.6,6.6l-8.4-5l15.8-58.8l-7.2-12.4l-12.4,7.2l-18.2,69l-13.6-3.6
	l-5.8-31.2l10.2-17.8v-19.4l-3.6,1l-4.8,8.2l-17.6-10l36-9.8l6.2,11l24.4-13.8L688.7,739.2z"/>
<path class="st1" d="M845.7,766l-10.2,17.8v20.8l-9.2,9l-22.2,6l-34.6-9.4l-6.8-25.2l10.2-17.8v-27.4l31.2-8.4l34.8,9.4L845.7,766z
	 M805.5,810.8l14.6-54.8l-8.2-14.2l-7.4-2l-1.4,0.2l-14.8,55l8.2,14.4l7.6,1.8L805.5,810.8z"/>
<path class="st1" d="M987.3,739.6l6.8,25.2l-10.2,18v20.4l-9.2,9.2l-22,5.8l-12.8-3.2l-6-10.4l-14.2,54.6l-13.8-3.4l-6.6-23.6
	l22.4-51.4v-34.4l-3.6,1l-4.8,8.4l-17.6-10.2l35.8-9.4l6.2,10.6l24.4-14L987.3,739.6z M944.3,806.2l12.6-7.4l11.8-44.2l-7-12.2
	l-12.8,7.4l-11.8,44L944.3,806.2z"/>
<path class="st1" d="M335.1,933.2l3.6,14l-17.6,30.6l-2,43.4l-18.6,18l-13.8-3.6l11.6-43.2l-10.4,5.8l-25.4-6.6l-6.8-25.4l17.4-29.8
	l-4.4-15.8l28.8-7.8l39.6,10.6l5.8,9.8L335.1,933.2L335.1,933.2z M301.1,981.4l12-44l-8.4-14.4l-7.2-1.8l-1.4,0.4L281.5,976
	l7.2,12.6L301.1,981.4z"/>
<path class="st1" d="M511.9,919.6l4.6,16.2l-15.4,9.2l-13-23.8l-14.8,8.2l-18.6,68.8l-13.6-3.6l-5.6-30.2l10.4-18.2v-19.8l-3.8,1
	l-4.8,8.4l-17.8-10.2l36.6-9.4l6.2,10.4l24.6-13.8L511.9,919.6z"/>
<path class="st1" d="M642.9,948l-3.2-1.8l3.4-13.2l-8.2-14.2l-7.8-2l-1,0.2l-7,26.4l39.2,22.8v15.4l-9.4,9.2l-22,6l-34.8-9.4
	l-4.4-16.4l23.8-13.4l3.4,1.8l-3.4,12.6l8.2,14.6l7.4,1.8l1.2-0.4l7-26l-39.6-22.6v-15.8l9.2-9.2l22-5.8l34.8,9.2l4.6,16.8
	L642.9,948z"/>
<path class="st1" d="M810.3,915.8l11.8,4.4v11.4h-35.4l-11.4,42l8.4,14.4l7.2,1.8l2-0.6l3.2-11.6h13l8,13.6l-26.2,7l-40-10.6
	l-6.2-10.6h8l-3.8-14.6l18.2-31.6l1.4-40l19.2-18.8l13.8,3.6l-12.8,48.2h16.8L810.3,915.8z"/>
<path class="st1" d="M998.3,985.2l-37.4,9.6l-6.6-10.6l-24,14l-25-6.8l-6.8-25l10.2-18V917l22.4-4.2l8.6,4.6L923.9,976l7.2,12.4
	l12.4-7l18.4-68.6l13.6,3.4l7,30.2l-10.6,18.2l0.2,20l3.8-1.2l5-8.4L998.3,985.2z"/>
<path class="st1" d="M352.5,1107.4h-8.2l2.8,19.6l-19.2,32.4l-33.4,18.8l-25.8-6.8l-7-25.2l10.6-18v-32.6l22.6-5.8l8.2,5l-15.4,61.4
	l7.6,12.6l12.8-7.6l19.2-68.4l19.6,5.2L352.5,1107.4z"/>
<path class="st1" d="M551.5,1107.4h-8l3.4,19.6l-19.6,32.4l-33.2,18.8l-26-6.8l-1.2-4.6l-20.4,11.4l-25.8-6.8l-7-25l10.4-17.8v-33.2
	l22.8-5.6l9.6,5l-16.8,61.4l7.2,12.4l17.6-9.8l-3.4-12.6l10.6-17.6v-29l22.8-5l8.8,4.8l-15.6,56.8l7.2,12.2l12.8-7.2l18.8-68.4
	l19.4,5L551.5,1107.4z"/>
<path class="st1" d="M694.1,1110.4h-8l1.4,5.6l-31.2,17.8l12.8,7.6l7.4,27.6l-5.4,5.4l-13.4,3.8l-8.8-5l8-29.6l-8.8-4.8l-14.6,8.4
	l-1.8,7.2l9.4,16.4l-7.4,7.4l-18.8-5l-5.8-21.4l31-18l-12.6-7.2l-7.4-26l5.4-5.4l12.8-3.6l8.8,5l-7.4,28l8.6,4.8l14.6-8.4l1.8-6.8
	l-8.2-14.2l7.2-7.2l25,7.6L694.1,1110.4z"/>
<path class="st1" d="M859.1,1107.4h-7.6l1.8,19.8l-17.6,30.6l-3.2,48.2l-19,19.2l-33.8-9.6l-9.2-9v-21.2l11.4-10.8l10.6,10.4
	l3.8,13.2l-17.8,5l5.4,5.2l7.4,2.2l14.2-8.4l7.8-29.6l-10.6,5.6l-25.2-6.4l-6.8-25.2l17.6-31l-3.8-14.8l28.8-8l-16.8,63.2l7.2,12.8
	l12.8-7.4l18.2-68.6l19,5.2L859.1,1107.4z"/>
<path class="st1" d="M982.9,1144.4l9,5.2v22.6l-32.2,8.6l-35.6-9.6l-4.6-16.8l26-15h-5.4v-7.6h18.6l15.8-9.2l1.8-7.2l-8.6-15.2
	l-8-2.2l-7.8,2.2l-15.2,26.4l-9-5.2v-22.6l32-8.6l35.8,9.6l4.6,16.8l-26.2,15.2h5.4v7.6h-18.6l-15.6,9l-2,7.2l8.8,15.2l7.8,2.2
	l8-2.2L982.9,1144.4z"/>
<path class="st1" d="M298.1,1417.9l2.3,8.1l-7.7,4.6l-6.5-11.9l-7.4,4.1l-9.3,34.4l-6.8-1.8l-2.8-15.1l5.2-9.1v-9.9l-1.9,0.5
	l-2.4,4.2l-8.9-5.1l18.3-4.7l3.1,5.2l12.3-6.9L298.1,1417.9z"/>
<path class="st1" d="M328.9,1443l6.5,1.8v8.2l-15.6,4.2l-17.3-4.6l-3.4-12.6l9.3-16.2l16.2-9.3l12.6,3.4l2.6,10l-9.2,9.2h-10.3
	l-7.5,4.4l-0.9,3.5l4.2,7.3l3.7,1l3.8-1L328.9,1443z M317.8,1422.8l-3.6,13.5l12.7-7.3l0.9-3.5l-3.7-6.3L317.8,1422.8z"/>
<path class="st1" d="M385.9,1411.4l-5.5,5.6l-5.4-5.3l-2.1-7.3l8.8-2.4l-2.7-2.7l-3.6-1l-7.2,4.1l-4.5,17.7h7.9l2.4-3.9l6.4,1.7v6
	h-17.8l-9,33.3l-9.4-2.5l-2.8-4.9h3.9l-1.9-7l8.9-15.3l2.5-27.1l9.1-9.2l17.2,4.5l4.7,4.6L385.9,1411.4z"/>
<path class="st1" d="M407.1,1443l6.5,1.8v8.2l-15.6,4.2l-17.3-4.6l-3.4-12.6l9.3-16.2l16.2-9.3l12.6,3.4l2.6,10l-9.2,9.2h-10.3
	l-7.5,4.4l-0.9,3.5l4.2,7.3l3.7,1l3.8-1L407.1,1443z M396,1422.8l-3.6,13.5l12.7-7.3l0.9-3.5l-3.7-6.3L396,1422.8z"/>
<path class="st1" d="M466.4,1417.9l2.3,8.1l-7.7,4.6l-6.5-11.9l-7.4,4.1l-9.3,34.4l-6.8-1.8l-2.8-15.1l5.2-9.1v-9.9l-1.9,0.5
	l-2.4,4.2l-8.9-5.1l18.3-4.7l3.1,5.2l12.3-6.9L466.4,1417.9z"/>
<path class="st1" d="M539.8,1417.9l3.4,12.9l-5.2,8.9v14.3l-11.1,3.2l-4.2-2.5l7.6-29.1l-3.7-6.3l-8.2,4.9l1.8,6.6l-5.2,8.9v14.3
	l-11.3,3.2l-4.2-2.5l7.8-29.1l-3.7-6.3l-6.3,3.7l-9.1,34.2l-6.9-1.9l-3-13.6l5.5-10.5v-9.7l-1.9,0.5l-2.3,4.1l-8.8-5l18.1-4.9l3,5.4
	l12.1-7.1l12.7,3.4l0.6,2.3l9.8-5.7L539.8,1417.9z"/>
<path class="st1" d="M576.5,1443l6.5,1.8v8.2l-15.6,4.2l-17.3-4.6l-3.4-12.6l9.3-16.2l16.2-9.3l12.6,3.4l2.6,10l-9.2,9.2h-10.3
	l-7.5,4.4l-0.9,3.5l4.2,7.3l3.7,1l3.8-1L576.5,1443z M565.4,1422.8l-3.6,13.5l12.7-7.3l0.9-3.5l-3.7-6.3L565.4,1422.8z"/>
<path class="st1" d="M622.6,1440.3l4.5,2.6v11.3l-16.1,4.3l-17.8-4.8l-2.3-8.4l13-7.5h-2.7v-3.8h9.3l7.9-4.6l0.9-3.6l-4.3-7.6
	l-4-1.1l-3.9,1.1l-7.6,13.2l-4.5-2.6v-11.3l16-4.3l17.9,4.8l2.3,8.4l-13.1,7.6h2.7v3.8h-9.3l-7.8,4.5l-1,3.6l4.4,7.6l3.9,1.1l4-1.1
	L622.6,1440.3z"/>
<path class="st1" d="M700.7,1430.4l-5.1,9v10.2l-4.6,4.6l-11,3l-20-5.3l-2.8-4.9h3.9l-1.8-7.1l8.8-15.3l1-21.3l9.1-9.2l7.1,2
	l-5.8,21.4l5.2-3l12.7,3.3L700.7,1430.4z M680,1453l0.6-0.1l7.4-27.5l-3.6-6.1l-6.3,3.7l-5.8,21.9l4.1,7.2L680,1453z"/>
<path class="st1" d="M724.9,1424.8H721l1.9,7l-5.1,8.9v13.6l-10.9,2.9l-4.2-2.5l7.5-27.9l-4.3-7.4l0.9-3.6l15.3,4.1L724.9,1424.8z
	 M710.6,1399.4l12.8-3.6l0.2,10.5l-5.5,5.7l-5.5-5.3L710.6,1399.4z"/>
<path class="st1" d="M755.3,1443l6.5,1.8v8.2l-15.6,4.2l-17.3-4.6l-3.4-12.6l9.3-16.2l16.2-9.3l12.6,3.4l2.6,10l-9.2,9.2h-10.3
	l-7.5,4.4l-0.9,3.5l4.2,7.3l3.7,1l3.8-1L755.3,1443z M744.2,1422.8l-3.6,13.5l12.7-7.3l0.9-3.5l-3.7-6.3L744.2,1422.8z"/>
<path class="st1" d="M814.2,1417.7l3.4,12.6l-5.1,8.9v14.7l-11.3,3.3l-4.2-2.5l7.9-29.4l-3.6-6.2l-6.2,3.6l-9.1,34.5l-6.8-1.8
	l-2.9-15.6l5.1-8.9v-9.7l-1.8,0.5l-2.4,4.1l-8.8-5l18-4.9l3.1,5.5l12.2-6.9L814.2,1417.7z"/>
<path class="st1" d="M877.9,1446.9l4,6.8l-13.1,3.5l-19.4-5.2l-2.8-4.9h3.9l-1.9-7l8.9-15.3l0.7-21.7l9.2-9l6.8,1.8l-13.2,49
	l4.1,7.2l3.7,0.9l1-0.3l1.7-5.5L877.9,1446.9z"/>
<path class="st1" d="M913.4,1443l6.5,1.8v8.2l-15.6,4.2l-17.3-4.6l-3.4-12.6l9.3-16.2l16.2-9.3l12.6,3.4l2.6,10l-9.2,9.2h-10.3
	l-7.5,4.4l-0.9,3.5l4.2,7.3l3.7,1l3.8-1L913.4,1443z M902.3,1422.8l-3.6,13.5l12.7-7.3l0.9-3.5l-3.7-6.3L902.3,1422.8z"/>
<path class="st1" d="M954.6,1432.1l-1.6-0.9l1.7-6.6l-4.1-7.1l-3.9-1l-0.5,0.1l-3.5,13.2l19.6,11.4v7.7l-4.7,4.6l-11,3l-17.4-4.7
	l-2.2-8.2l11.9-6.7l1.7,0.9l-1.7,6.3l4.1,7.3l3.7,0.9l0.6-0.2l3.5-13l-19.8-11.3v-7.9l4.6-4.6l11-2.9l17.4,4.6l2.3,8.4L954.6,1432.1
	z"/>
<path class="st1" d="M1031.6,1417.9l3.4,12.6l-5.1,9v10.2l-4.6,4.6l-11,2.9l-6.4-1.6l-3-5.2l-7.1,27.3l-6.9-1.7l-3.3-11.8l11.2-25.7
	v-17.2l-1.8,0.5l-2.4,4.2l-8.8-5.1l17.9-4.7l3.1,5.3l12.2-7L1031.6,1417.9z M1010.1,1451.2l6.3-3.7l5.9-22.1l-3.5-6.1l-6.4,3.7
	l-5.9,22L1010.1,1451.2z"/>
<path class="st1" d="M1079.7,1431.1l-5.1,8.9v10.4l-4.6,4.5l-11.1,3l-17.3-4.7l-3.4-12.6l5.1-8.9V1418l15.6-4.2l17.4,4.7
	L1079.7,1431.1z M1059.6,1453.5l7.3-27.4l-4.1-7.1l-3.7-1l-0.7,0.1l-7.4,27.5l4.1,7.2l3.8,0.9L1059.6,1453.5z"/>
<path class="st1" d="M1127.1,1416.9l2.3,8.1l-7.7,4.6l-6.5-11.9l-7.4,4.1l-9.3,34.4l-6.8-1.8l-2.8-15.1l5.2-9.1v-9.9l-1.9,0.5
	l-2.4,4.2l-8.9-5.1l18.3-4.7l3.1,5.2l12.3-6.9L1127.1,1416.9z"/>
<path class="st1" d="M1160.2,1416l5.9,2.2v5.7h-17.7l-5.7,21l4.2,7.2l3.6,0.9l1-0.3l1.6-5.8h6.5l4,6.8l-13.1,3.5l-20-5.3l-3.1-5.3h4
	l-1.9-7.3l9.1-15.8l0.7-20l9.6-9.4l6.9,1.8l-6.4,24.1h8.4L1160.2,1416z"/>
<path class="st1" d="M1196.9,1443l6.5,1.8v8.2l-15.6,4.2l-17.3-4.6l-3.4-12.6l9.3-16.2l16.2-9.3l12.6,3.4l2.6,10l-9.2,9.2h-10.3
	l-7.5,4.4l-0.9,3.5l4.2,7.3l3.7,1l3.8-1L1196.9,1443z M1185.8,1422.8l-3.6,13.5l12.7-7.3l0.9-3.5l-3.7-6.3L1185.8,1422.8z"/>
<path class="st1" d="M1238,1432.1l-1.6-0.9l1.7-6.6l-4.1-7.1l-3.9-1l-0.5,0.1l-3.5,13.2l19.6,11.4v7.7l-4.7,4.6l-11,3l-17.4-4.7
	l-2.2-8.2l11.9-6.7l1.7,0.9l-1.7,6.3l4.1,7.3l3.7,0.9l0.6-0.2l3.5-13l-19.8-11.3v-7.9l4.6-4.6l11-2.9l17.4,4.6l2.3,8.4L1238,1432.1z
	"/>
<path class="st1" d="M1305.3,1432.1l-1.6-0.9l1.7-6.6l-4.1-7.1l-3.9-1l-0.5,0.1l-3.5,13.2l19.6,11.4v7.7l-4.7,4.6l-11,3l-17.4-4.7
	l-2.2-8.2l11.9-6.7l1.7,0.9l-1.7,6.3l4.1,7.3l3.7,0.9l0.6-0.2l3.5-13l-19.8-11.3v-7.9l4.6-4.6l11-2.9l17.4,4.6l2.3,8.4
	L1305.3,1432.1z"/>
<path class="st1" d="M1369.9,1450.7l-18.7,4.8l-3.3-5.3l-12,7l-12.5-3.4l-3.4-12.5l5.1-9v-15.7l11.2-2.1l4.3,2.3l-7.9,29.3l3.6,6.2
	l6.2-3.5l9.2-34.3l6.8,1.7l3.5,15.1l-5.3,9.1l0.1,10l1.9-0.6l2.5-4.2L1369.9,1450.7z"/>
<path class="st1" d="M1412.6,1416.9l2.3,8.1l-7.7,4.6l-6.5-11.9l-7.4,4.1l-9.3,34.4l-6.8-1.8l-2.8-15.1l5.2-9.1v-9.9l-1.9,0.5
	l-2.4,4.2l-8.9-5.1l18.3-4.7l3.1,5.2l12.3-6.9L1412.6,1416.9z"/>
<path class="st1" d="M1487.8,1421.8h-4.1l1.4,9.8l-9.6,16.2l-16.7,9.4l-12.9-3.4l-3.5-12.6l5.3-9v-16.3l11.3-2.9l4.1,2.5l-7.7,30.7
	l3.8,6.3l6.4-3.8l9.6-34.2l9.8,2.6L1487.8,1421.8z"/>
<path class="st1" d="M1528.9,1431.1l-5.1,8.9v10.4l-4.6,4.5l-11.1,3l-17.3-4.7l-3.4-12.6l5.1-8.9V1418l15.6-4.2l17.4,4.7
	L1528.9,1431.1z M1508.8,1453.5l7.3-27.4l-4.1-7.1l-3.7-1l-0.7,0.1l-7.4,27.5l4.1,7.2l3.8,0.9L1508.8,1453.5z"/>
<path class="st1" d="M1563.3,1416l5.9,2.2v5.7h-17.7l-5.7,21l4.2,7.2l3.6,0.9l1-0.3l1.6-5.8h6.5l4,6.8l-13.1,3.5l-20-5.3l-3.1-5.3h4
	l-1.9-7.3l9.1-15.8l0.7-20l9.6-9.4l6.9,1.8l-6.4,24.1h8.4L1563.3,1416z"/>
<path class="st1" d="M1618,1417.9l2.3,8.1l-7.7,4.6l-6.5-11.9l-7.4,4.1l-9.3,34.4l-6.8-1.8l-2.8-15.1l5.2-9.1v-9.9l-1.9,0.5
	l-2.4,4.2l-8.9-5.1l18.3-4.7l3.1,5.2l12.3-6.9L1618,1417.9z"/>
<path class="st1" d="M1649,1443l6.5,1.8v8.2l-15.6,4.2l-17.3-4.6l-3.4-12.6l9.3-16.2l16.2-9.3l12.6,3.4l2.6,10l-9.2,9.2h-10.3
	l-7.5,4.4l-0.9,3.5l4.2,7.3l3.7,1l3.8-1L1649,1443z M1637.9,1422.8l-3.6,13.5l12.7-7.3l0.9-3.5l-3.7-6.3L1637.9,1422.8z"/>
<path class="st1" d="M1726.2,1417.9l3.4,12.6l-5.1,9v10.2l-4.6,4.6l-11,2.9l-6.4-1.6l-3-5.2l-7.1,27.3l-6.9-1.7l-3.3-11.8l11.2-25.7
	v-17.2l-1.8,0.5l-2.4,4.2l-8.8-5.1l17.9-4.7l3.1,5.3l12.2-7L1726.2,1417.9z M1704.7,1451.2l6.3-3.7l5.9-22.1l-3.5-6.1l-6.4,3.7
	l-5.9,22L1704.7,1451.2z"/>
<path class="st1" d="M1759.6,1456l-2.9-5l-10.8,6.2l-12.6-3.4l-2.7-10l9.2-9.3h10.3l7.5-4.3l0.9-3.4l-4.2-7.2l-3.7-1l-3.7,1l6.7,6.6
	l-5.4,5.4l-7.4,2l-2.1-7.7l5.6-9.7l6.3-1.7l17.4,4.6l3.3,12.7l-5.1,8.9v9.5l1.7-0.5l2.4-4.1l9,5.2L1759.6,1456z M1752.6,1448.8
	l3.5-13.2l-12.4,7.2l-0.9,3.4l3.6,6.2L1752.6,1448.8z"/>
<path class="st1" d="M1809.7,1432.1l-1.6-0.9l1.7-6.6l-4.1-7.1l-3.9-1l-0.5,0.1l-3.5,13.2l19.6,11.4v7.7l-4.7,4.6l-11,3l-17.4-4.7
	l-2.2-8.2l11.9-6.7l1.7,0.9l-1.7,6.3l4.1,7.3l3.7,0.9l0.6-0.2l3.5-13l-19.8-11.3v-7.9l4.6-4.6l11-2.9l17.4,4.6l2.3,8.4
	L1809.7,1432.1z"/>
<path class="st1" d="M1851.2,1432.1l-1.6-0.9l1.7-6.6l-4.1-7.1l-3.9-1l-0.5,0.1l-3.5,13.2l19.6,11.4v7.7l-4.7,4.6l-11,3l-17.4-4.7
	l-2.2-8.2l11.9-6.7l1.7,0.9l-1.7,6.3l4.1,7.3l3.7,0.9l0.6-0.2l3.5-13l-19.8-11.3v-7.9l4.6-4.6l11-2.9l17.4,4.6l2.3,8.4
	L1851.2,1432.1z"/>
<path class="st1" d="M1893.4,1456l-2.9-5l-10.8,6.2l-12.6-3.4l-2.7-10l9.2-9.3h10.3l7.5-4.3l0.9-3.4l-4.2-7.2l-3.7-1l-3.7,1l6.7,6.6
	l-5.4,5.4l-7.4,2l-2.1-7.7l5.6-9.7l6.3-1.7l17.4,4.6l3.3,12.7l-5.1,8.9v9.5l1.7-0.5l2.4-4.1l9,5.2L1893.4,1456z M1886.4,1448.8
	l3.5-13.2l-12.4,7.2l-0.9,3.4l3.6,6.2L1886.4,1448.8z"/>
<path class="st1" d="M1958.8,1424.7h-3.8l1.9,7.1l-8.9,15.3l-1.8,24.4l-9.1,9.1l-17.2-4.5l-4.8-4.6l0.2-10.6l5.5-5.6l5.4,5.3
	l1.9,6.9l-8.9,2.5l2.6,2.6l3.7,1l7.2-4.1l4.1-15.4l-5.3,3.1l-12.6-3.4l-3.4-12.5l8.7-15.1l-2.2-7.9l14.2-3.8l19.9,5.3L1958.8,1424.7
	z M1938.2,1448.9l5.9-22.2l-4.2-7.3l-3.7-1l-0.6,0.2l-6.2,23.4l-1.1,4.2l3.6,6.4L1938.2,1448.9z"/>
<path class="st1" d="M1989.3,1443l6.5,1.8v8.2l-15.6,4.2l-17.3-4.6l-3.4-12.6l9.3-16.2l16.2-9.3l12.6,3.4l2.6,10l-9.2,9.2h-10.3
	l-7.5,4.4l-0.9,3.5l4.2,7.3l3.7,1l3.8-1L1989.3,1443z M1978.2,1422.8l-3.6,13.5l12.7-7.3l0.9-3.5l-3.7-6.3L1978.2,1422.8z"/>
<path class="st1" d="M291,1517.9l3.4,12.6l-5.1,9v10.2l-4.6,4.6l-11,2.9l-6.4-1.6l-3-5.2l-7.1,27.3l-6.9-1.7l-3.3-11.8l11.2-25.7
	v-17.2l-1.8,0.5l-2.4,4.2l-8.8-5.1l17.9-4.7l3.1,5.3l12.2-7L291,1517.9z M269.5,1551.2l6.3-3.7l5.9-22.1l-3.5-6.1l-6.4,3.7l-5.9,22
	L269.5,1551.2z"/>
<path class="st1" d="M339.9,1531.1l-5.1,8.9v10.4l-4.6,4.5l-11.1,3l-17.3-4.7l-3.4-12.6l5.1-8.9V1518l15.6-4.2l17.4,4.7
	L339.9,1531.1z M319.8,1553.5l7.3-27.4l-4.1-7.1l-3.7-1l-0.7,0.1l-7.4,27.5l4.1,7.2l3.8,0.9L319.8,1553.5z"/>
<path class="st1" d="M393.8,1550.7l-18.7,4.8l-3.3-5.3l-12,7l-12.5-3.4l-3.4-12.5l5.1-9v-15.7l11.2-2.1l4.3,2.3l-7.9,29.3l3.6,6.2
	l6.2-3.5l9.2-34.3l6.8,1.7l3.5,15.1l-5.3,9.1l0.1,10l1.9-0.6l2.5-4.2L393.8,1550.7z"/>
<path class="st1" d="M435.7,1516.9l2.3,8.1l-7.7,4.6l-6.5-11.9l-7.4,4.1l-9.3,34.4l-6.8-1.8l-2.8-15.1l5.2-9.1v-9.9l-1.9,0.5
	l-2.4,4.2l-8.9-5.1l18.3-4.7l3.1,5.2l12.3-6.9L435.7,1516.9z"/>
<path class="st1" d="M529.7,1517.9l3.4,12.9l-5.2,8.9v14.3l-11.1,3.2l-4.2-2.5l7.6-29.1l-3.7-6.3l-8.2,4.9l1.8,6.6l-5.2,8.9v14.3
	l-11.3,3.2l-4.2-2.5l7.8-29.1l-3.7-6.3l-6.3,3.7l-9.1,34.2l-6.9-1.9l-3-13.6l5.5-10.5v-9.7l-1.9,0.5l-2.3,4.1l-8.8-5l18.1-4.9l3,5.4
	l12.1-7.1l12.7,3.4l0.6,2.3l9.8-5.7L529.7,1517.9z"/>
<path class="st1" d="M564.1,1556l-2.9-5l-10.8,6.2l-12.6-3.4l-2.7-10l9.2-9.3h10.3l7.5-4.3l0.9-3.4l-4.2-7.2l-3.7-1l-3.7,1l6.7,6.6
	l-5.4,5.4l-7.4,2l-2.1-7.7l5.6-9.7l6.3-1.7l17.4,4.6l3.3,12.7l-5.1,8.9v9.5l1.7-0.5l2.4-4.1l9,5.2L564.1,1556z M557.1,1548.8
	l3.5-13.2l-12.4,7.2l-0.9,3.4l3.6,6.2L557.1,1548.8z"/>
<path class="st1" d="M608.8,1524.8h-3.9l1.9,7l-5.1,8.9v13.6l-10.9,2.9l-4.2-2.5l7.5-27.9l-4.3-7.4l0.9-3.6l15.3,4.1L608.8,1524.8z
	 M594.5,1499.4l12.8-3.6l0.2,10.5l-5.5,5.7l-5.5-5.3L594.5,1499.4z"/>
<path class="st1" d="M656.3,1517.7l3.4,12.6l-5.1,8.9v14.7l-11.3,3.3l-4.2-2.5l7.9-29.4l-3.6-6.2l-6.2,3.6l-9.1,34.5l-6.8-1.8
	l-2.9-15.6l5.1-8.9v-9.7l-1.8,0.5l-2.4,4.1l-8.8-5l18-4.9l3.1,5.5l12.2-6.9L656.3,1517.7z"/>
<path class="st1" d="M696.5,1516l5.9,2.2v5.7h-17.7l-5.7,21l4.2,7.2l3.6,0.9l1-0.3l1.6-5.8h6.5l4,6.8l-13.1,3.5l-20-5.3l-3.1-5.3h4
	l-1.9-7.3l9.1-15.8l0.7-20l9.6-9.4l6.9,1.8l-6.4,24.1h8.4L696.5,1516z"/>
<path class="st1" d="M733.2,1543l6.5,1.8v8.2l-15.6,4.2l-17.3-4.6l-3.4-12.6l9.3-16.2l16.2-9.3l12.6,3.4l2.6,10l-9.2,9.2h-10.3
	l-7.5,4.4l-0.9,3.5l4.2,7.3l3.7,1l3.8-1L733.2,1543z M722.1,1522.8l-3.6,13.5l12.7-7.3l0.9-3.5l-3.7-6.3L722.1,1522.8z"/>
<path class="st1" d="M792.1,1517.7l3.4,12.6l-5.1,8.9v14.7l-11.3,3.3l-4.2-2.5l7.9-29.4l-3.6-6.2l-6.2,3.6l-9.1,34.5l-6.8-1.8
	l-2.9-15.6l5.1-8.9v-9.7l-1.8,0.5l-2.4,4.1l-8.8-5l18-4.9l3.1,5.5l12.2-6.9L792.1,1517.7z"/>
<path class="st1" d="M820.4,1524.8h-3.9l1.9,7l-5.1,8.9v13.6l-10.9,2.9l-4.2-2.5l7.5-27.9l-4.3-7.4l0.9-3.6l15.3,4.1L820.4,1524.8z
	 M806.1,1499.4l12.8-3.6l0.2,10.5l-5.5,5.7l-5.5-5.3L806.1,1499.4z"/>
<path class="st1" d="M867.9,1517.9l2.3,8.1l-7.7,4.6l-6.5-11.9l-7.4,4.1l-9.3,34.4l-6.8-1.8l-2.8-15.1l5.2-9.1v-9.9l-1.9,0.5
	l-2.4,4.2l-8.9-5.1l18.3-4.7l3.1,5.2l12.3-6.9L867.9,1517.9z"/>
<path class="st1" d="M927,1546.9l4,6.8l-13.1,3.5l-19.4-5.2l-2.8-4.9h3.9l-1.9-7l8.9-15.3l0.7-21.7l9.2-9l6.8,1.8l-13.2,49l4.1,7.2
	l3.7,0.9l1-0.3l1.7-5.5L927,1546.9z"/>
<path class="st1" d="M962,1556l-2.9-5l-10.8,6.2l-12.6-3.4l-2.7-10l9.2-9.3h10.3l7.5-4.3l0.9-3.4l-4.2-7.2l-3.7-1l-3.7,1l6.7,6.6
	l-5.4,5.4l-7.4,2l-2.1-7.7l5.6-9.7l6.3-1.7l17.4,4.6l3.3,12.7l-5.1,8.9v9.5l1.7-0.5l2.4-4.1l9,5.2L962,1556z M955,1548.8l3.5-13.2
	l-12.4,7.2l-0.9,3.4l3.6,6.2L955,1548.8z"/>
<path class="st1" d="M1040.8,1543l6.5,1.7v8.3l-15.6,4.2l-17.5-4.6l-3.5-12.7l9.5-16.1l16.2-9.3l12.7,3.4l2.3,8.2l-8.5,4.9
	l-6.8-11.7l-6.4,3.6l-6,21.9l4.2,7.3l3.7,0.9l4-1.1L1040.8,1543z"/>
<path class="st1" d="M1093.1,1517.9l3.3,12.5l-5.1,8.9v14.9l-11.1,3l-4.3-2.5l7.9-29.3l-3.7-6.3l-6.3,3.7l-9.2,34.4l-9.4-2.5
	l-2.8-4.9h3.9l-1.8-7l9.5-18.2l1-21.5l9-9l7,1.9l-5.8,21.6l5.3-3.1L1093.1,1517.9z"/>
<path class="st1" d="M1127.5,1556l-2.9-5l-10.8,6.2l-12.6-3.4l-2.7-10l9.2-9.3h10.3l7.5-4.3l0.9-3.4l-4.2-7.2l-3.7-1l-3.7,1l6.7,6.6
	l-5.4,5.4l-7.4,2l-2.1-7.7l5.6-9.7l6.3-1.7l17.4,4.6l3.3,12.7l-5.1,8.9v9.5l1.7-0.5l2.4-4.1l9,5.2L1127.5,1556z M1120.5,1548.8
	l3.5-13.2l-12.4,7.2l-0.9,3.4l3.6,6.2L1120.5,1548.8z"/>
<path class="st1" d="M1181.3,1546.9l4,6.8l-13.1,3.5l-19.4-5.2l-2.8-4.9h3.9l-1.9-7l8.9-15.3l0.7-21.7l9.2-9l6.8,1.8l-13.2,49
	l4.1,7.2l3.7,0.9l1-0.3l1.7-5.5L1181.3,1546.9z"/>
<path class="st1" d="M1216.5,1543l6.5,1.8v8.2l-15.6,4.2l-17.3-4.6l-3.4-12.6l9.3-16.2l16.2-9.3l12.6,3.4l2.6,10l-9.2,9.2h-10.3
	l-7.5,4.4l-0.9,3.5l4.2,7.3l3.7,1l3.8-1L1216.5,1543z M1205.4,1522.8l-3.6,13.5l12.7-7.3l0.9-3.5l-3.7-6.3L1205.4,1522.8z"/>
<path class="st1" d="M1279.7,1550.7l-18.7,4.8l-3.3-5.3l-12,7l-12.5-3.4l-3.4-12.5l5.1-9v-15.7l11.2-2.1l4.3,2.3l-7.9,29.3l3.6,6.2
	l6.2-3.5l9.2-34.3l6.8,1.7l3.5,15.1l-5.3,9.1l0.1,10l1.9-0.6l2.5-4.2L1279.7,1550.7z"/>
<path class="st1" d="M1321,1516.9l2.3,8.1l-7.7,4.6l-6.5-11.9l-7.4,4.1l-9.3,34.4l-6.8-1.8l-2.8-15.1l5.2-9.1v-9.9l-1.9,0.5
	l-2.4,4.2l-8.9-5.1l18.3-4.7l3.1,5.2l12.3-6.9L1321,1516.9z"/>
<path class="st1" d="M1377.6,1543l6.5,1.8v8.2l-15.6,4.2l-17.3-4.6l-3.4-12.6l9.3-16.2l16.2-9.3l12.6,3.4l2.6,10l-9.2,9.2H1369
	l-7.5,4.4l-0.9,3.5l4.2,7.3l3.7,1l3.8-1L1377.6,1543z M1366.5,1522.8l-3.6,13.5l12.7-7.3l0.9-3.5l-3.7-6.3L1366.5,1522.8z"/>
<path class="st1" d="M1422.1,1516l5.9,2.2v5.7h-17.7l-5.7,21l4.2,7.2l3.6,0.9l1-0.3l1.6-5.8h6.5l4,6.8l-13.1,3.5l-20-5.3l-3.1-5.3h4
	l-1.9-7.3l9.1-15.8l0.7-20l9.6-9.4l6.9,1.8l-6.4,24.1h8.4L1422.1,1516z"/>
<path class="st1" d="M1486.3,1546.9l4,6.8l-13.1,3.5l-19.4-5.2l-2.8-4.9h3.9l-1.9-7l8.9-15.3l0.7-21.7l9.2-9l6.8,1.8l-13.2,49
	l4.1,7.2l3.7,0.9l1-0.3l1.7-5.5L1486.3,1546.9z"/>
<path class="st1" d="M1522.2,1543l6.5,1.8v8.2l-15.6,4.2l-17.3-4.6l-3.4-12.6l9.3-16.2l16.2-9.3l12.6,3.4l2.6,10l-9.2,9.2h-10.3
	l-7.5,4.4l-0.9,3.5l4.2,7.3l3.7,1l3.8-1L1522.2,1543z M1511.1,1522.8l-3.6,13.5l12.7-7.3l0.9-3.5l-3.7-6.3L1511.1,1522.8z"/>
<path class="st1" d="M1592.2,1543l6.5,1.7v8.3l-15.6,4.2l-17.5-4.6l-3.5-12.7l9.5-16.1l16.2-9.3l12.7,3.4l2.3,8.2l-8.5,4.9
	l-6.8-11.7l-6.4,3.6l-6,21.9l4.2,7.3l3.7,0.9l4-1.1L1592.2,1543z"/>
<path class="st1" d="M1646.4,1531.1l-5.1,8.9v10.4l-4.6,4.5l-11.1,3l-17.3-4.7l-3.4-12.6l5.1-8.9V1518l15.6-4.2l17.4,4.7
	L1646.4,1531.1z M1626.3,1553.5l7.3-27.4l-4.1-7.1l-3.7-1l-0.7,0.1l-7.4,27.5l4.1,7.2l3.8,0.9L1626.3,1553.5z"/>
<path class="st1" d="M1693.8,1517.7l3.4,12.6l-5.1,8.9v14.7l-11.3,3.3l-4.2-2.5l7.9-29.4l-3.6-6.2l-6.2,3.6l-9.1,34.5l-6.8-1.8
	l-2.9-15.6l5.1-8.9v-9.7l-1.8,0.5l-2.4,4.1l-8.8-5l18-4.9l3.1,5.5l12.2-6.9L1693.8,1517.7z"/>
<path class="st1" d="M1742.1,1511.4l-5.5,5.6l-5.4-5.3l-2.1-7.3l8.8-2.4l-2.7-2.7l-3.6-1l-7.2,4.1l-4.5,17.7h7.9l2.4-3.9l6.4,1.7v6
	h-17.8l-9,33.3l-9.4-2.5l-2.8-4.9h3.9l-1.9-7l8.9-15.3l2.5-27.1l9.1-9.2l17.2,4.5l4.7,4.6L1742.1,1511.4z"/>
<path class="st1" d="M1777.2,1531.1l-5.1,8.9v10.4l-4.6,4.5l-11.1,3l-17.3-4.7l-3.4-12.6l5.1-8.9V1518l15.6-4.2l17.4,4.7
	L1777.2,1531.1z M1757.1,1553.5l7.3-27.4l-4.1-7.1l-3.7-1l-0.7,0.1l-7.4,27.5l4.1,7.2l3.8,0.9L1757.1,1553.5z"/>
<path class="st1" d="M1825.1,1517.9l2.3,8.1l-7.7,4.6l-6.5-11.9l-7.4,4.1l-9.3,34.4l-6.8-1.8l-2.8-15.1l5.2-9.1v-9.9l-1.9,0.5
	l-2.4,4.2l-8.9-5.1l18.3-4.7l3.1,5.2l12.3-6.9L1825.1,1517.9z"/>
<path class="st1" d="M1857.3,1516l5.9,2.2v5.7h-17.7l-5.7,21l4.2,7.2l3.6,0.9l1-0.3l1.6-5.8h6.5l4,6.8l-13.1,3.5l-20-5.3l-3.1-5.3h4
	l-1.9-7.3l9.1-15.8l0.7-20l9.6-9.4l6.9,1.8l-6.4,24.1h8.4L1857.3,1516z"/>
<path class="st1" d="M294.3,1645.7l8.7,5.1l-18.1,4.8l-3.3-5.3l-11.9,6.9l-12.6-3.4l-3.4-12.6l5.2-8.9v-13.6l15.5-4.2l6.3,1.7
	l3.1,5.4l7.1-27.3l6.8,1.7l3.7,11.9l-11.4,25.3v17.2l1.9-0.5L294.3,1645.7z M276.3,1648.8l5.9-22l-4.2-7.2l-3.6-1l-0.6,0.2
	l-7.3,27.5l3.5,6.1L276.3,1648.8z"/>
<path class="st1" d="M333.8,1656l-2.9-5l-10.8,6.2l-12.6-3.4l-2.7-10l9.2-9.3h10.3l7.5-4.3l0.9-3.4l-4.2-7.2l-3.7-1l-3.7,1l6.7,6.6
	l-5.4,5.4l-7.4,2l-2.1-7.7l5.6-9.7l6.3-1.7l17.4,4.6l3.3,12.7l-5.1,8.9v9.5l1.7-0.5l2.4-4.1l9,5.2L333.8,1656z M326.8,1648.8
	l3.5-13.2l-12.4,7.2l-0.9,3.4l3.6,6.2L326.8,1648.8z"/>
<path class="st1" d="M394.7,1617.7l3.4,12.6l-5.1,8.9v14.7l-11.3,3.3l-4.2-2.5l7.9-29.4l-3.6-6.2l-6.2,3.6l-9.1,34.5l-6.8-1.8
	l-2.9-15.6l5.1-8.9v-9.7l-1.8,0.5l-2.4,4.1l-8.8-5l18-4.9l3.1,5.5l12.2-6.9L394.7,1617.7z"/>
<path class="st1" d="M428.9,1632.1l-1.6-0.9l1.7-6.6l-4.1-7.1l-3.9-1l-0.5,0.1l-3.5,13.2l19.6,11.4v7.7l-4.7,4.6l-11,3l-17.4-4.7
	l-2.2-8.2l11.9-6.7l1.7,0.9l-1.7,6.3l4.1,7.3l3.7,0.9l0.6-0.2l3.5-13l-19.8-11.3v-7.9l4.6-4.6l11-2.9l17.4,4.6l2.3,8.4L428.9,1632.1
	z"/>
<path class="st1" d="M499.9,1646.9l4,6.8l-13.1,3.5l-19.4-5.2l-2.8-4.9h3.9l-1.9-7l8.9-15.3l0.7-21.7l9.2-9l6.8,1.8l-13.2,49
	l4.1,7.2l3.7,0.9l1-0.3l1.7-5.5L499.9,1646.9z"/>
<path class="st1" d="M535.5,1643l6.5,1.8v8.2l-15.6,4.2l-17.3-4.6l-3.4-12.6l9.3-16.2l16.2-9.3l12.6,3.4l2.6,10l-9.2,9.2h-10.3
	l-7.5,4.4l-0.9,3.5l4.2,7.3l3.7,1l3.8-1L535.5,1643z M524.4,1622.8l-3.6,13.5l12.7-7.3l0.9-3.5l-3.7-6.3L524.4,1622.8z"/>
<path class="st1" d="M576.8,1632.1l-1.6-0.9l1.7-6.6l-4.1-7.1l-3.9-1l-0.5,0.1l-3.5,13.2l19.6,11.4v7.7l-4.7,4.6l-11,3l-17.4-4.7
	l-2.2-8.2l11.9-6.7l1.7,0.9l-1.7,6.3l4.1,7.3l3.7,0.9l0.6-0.2l3.5-13l-19.8-11.3v-7.9l4.6-4.6l11-2.9l17.4,4.6l2.3,8.4L576.8,1632.1
	z"/>
<path class="st1" d="M644.1,1632.1l-1.6-0.9l1.7-6.6l-4.1-7.1l-3.9-1l-0.5,0.1l-3.5,13.2l19.6,11.4v7.7l-4.7,4.6l-11,3l-17.4-4.7
	l-2.2-8.2l11.9-6.7l1.7,0.9l-1.7,6.3l4.1,7.3l3.7,0.9l0.6-0.2l3.5-13l-19.8-11.3v-7.9l4.6-4.6l11-2.9l17.4,4.6l2.3,8.4L644.1,1632.1
	z"/>
<path class="st1" d="M686.3,1656l-2.9-5l-10.8,6.2l-12.6-3.4l-2.7-10l9.2-9.3h10.3l7.5-4.3l0.9-3.4l-4.2-7.2l-3.7-1l-3.7,1l6.7,6.6
	l-5.4,5.4l-7.4,2l-2.1-7.7l5.6-9.7l6.3-1.7l17.4,4.6l3.3,12.7l-5.1,8.9v9.5l1.7-0.5l2.4-4.1l9,5.2L686.3,1656z M679.3,1648.8
	l3.5-13.2l-12.4,7.2l-0.9,3.4l3.6,6.2L679.3,1648.8z"/>
<path class="st1" d="M740.1,1646.9l4,6.8l-13.1,3.5l-19.4-5.2l-2.8-4.9h3.9l-1.9-7l8.9-15.3l0.7-21.7l9.2-9l6.8,1.8l-13.2,49
	l4.1,7.2l3.7,0.9l1-0.3l1.7-5.5L740.1,1646.9z"/>
<path class="st1" d="M777.8,1646.9l4,6.8l-13.1,3.5l-19.4-5.2l-2.8-4.9h3.9l-1.9-7l8.9-15.3l0.7-21.7l9.2-9l6.8,1.8l-13.2,49
	l4.1,7.2l3.7,0.9l1-0.3l1.7-5.5L777.8,1646.9z"/>
<path class="st1" d="M813.3,1643l6.5,1.8v8.2l-15.6,4.2l-17.3-4.6l-3.4-12.6l9.3-16.2l16.2-9.3l12.6,3.4l2.6,10l-9.2,9.2h-10.3
	l-7.5,4.4l-0.9,3.5l4.2,7.3l3.7,1l3.8-1L813.3,1643z M802.2,1622.8l-3.6,13.5l12.7-7.3l0.9-3.5l-3.7-6.3L802.2,1622.8z"/>
<path class="st1" d="M854.6,1632.1l-1.6-0.9l1.7-6.6l-4.1-7.1l-3.9-1l-0.5,0.1l-3.5,13.2l19.6,11.4v7.7l-4.7,4.6l-11,3l-17.4-4.7
	l-2.2-8.2l11.9-6.7l1.7,0.9l-1.7,6.3l4.1,7.3l3.7,0.9l0.6-0.2l3.5-13l-19.8-11.3v-7.9l4.6-4.6l11-2.9l17.4,4.6l2.3,8.4L854.6,1632.1
	z"/>
<path class="st1" d="M934.9,1645.7l8.7,5.1l-18.1,4.8l-3.3-5.3l-11.9,6.9l-12.6-3.4l-3.4-12.6l5.2-8.9v-13.6l15.5-4.2l6.3,1.7
	l3.1,5.4l7.1-27.3l6.8,1.7l3.7,11.9l-11.4,25.3v17.2l1.9-0.5L934.9,1645.7z M916.9,1648.8l5.9-22l-4.2-7.2l-3.6-1l-0.6,0.2
	l-7.3,27.5l3.5,6.1L916.9,1648.8z"/>
<path class="st1" d="M973.6,1643l6.5,1.8v8.2l-15.6,4.2l-17.3-4.6l-3.4-12.6l9.3-16.2l16.2-9.3l12.6,3.4l2.6,10l-9.2,9.2H965
	l-7.5,4.4l-0.9,3.5l4.2,7.3l3.7,1l3.8-1L973.6,1643z M962.5,1622.8l-3.6,13.5l12.7-7.3l0.9-3.5l-3.7-6.3L962.5,1622.8z"/>
<path class="st1" d="M1043.6,1643l6.5,1.7v8.3l-15.6,4.2l-17.5-4.6l-3.5-12.7l9.5-16.1l16.2-9.3l12.7,3.4l2.3,8.2l-8.5,4.9
	l-6.8-11.7l-6.4,3.6l-6,21.9l4.2,7.3l3.7,0.9l4-1.1L1043.6,1643z"/>
<path class="st1" d="M1097.7,1631.1l-5.1,8.9v10.4l-4.6,4.5l-11.1,3l-17.3-4.7l-3.4-12.6l5.1-8.9V1618l15.6-4.2l17.4,4.7
	L1097.7,1631.1z M1077.6,1653.5l7.3-27.4l-4.1-7.1l-3.7-1l-0.7,0.1l-7.4,27.5l4.1,7.2l3.8,0.9L1077.6,1653.5z"/>
<path class="st1" d="M1170.6,1621.8h-4l1.7,9.8l-9.8,16.2l-16.6,9.4l-13-3.4l-0.6-2.3l-10.2,5.7l-12.9-3.4l-3.5-12.5l5.2-8.9v-16.6
	l11.4-2.8l4.8,2.5l-8.4,30.7l3.6,6.2l8.8-4.9l-1.7-6.3l5.3-8.8v-14.5l11.4-2.5l4.4,2.4l-7.8,28.4l3.6,6.1l6.4-3.6l9.4-34.2l9.7,2.5
	L1170.6,1621.8z"/>
<path class="st1" d="M1212.2,1631.1l-5.1,8.9v10.4l-4.6,4.5l-11.1,3l-17.3-4.7l-3.4-12.6l5.1-8.9V1618l15.6-4.2l17.4,4.7
	L1212.2,1631.1z M1192.1,1653.5l7.3-27.4l-4.1-7.1l-3.7-1l-0.7,0.1l-7.4,27.5l4.1,7.2l3.8,0.9L1192.1,1653.5z"/>
<path class="st1" d="M1258.8,1616.9l2.3,8.1l-7.7,4.6l-6.5-11.9l-7.4,4.1l-9.3,34.4l-6.8-1.8l-2.8-15.1l5.2-9.1v-9.9l-1.9,0.5
	l-2.4,4.2l-8.9-5.1l18.3-4.7l3.1,5.2l12.3-6.9L1258.8,1616.9z"/>
<path class="st1" d="M1281.9,1635.9l6.8,11.7l1.2-2.1l6.4,2.1v7.9l-6.6,1.7l-11.3-19.3l-6.1,3.4l-4.3,15.9l-9.6-2.5l-2.8-4.9h4.1
	l-1.9-7l9.7-18.2l0.8-21.3l9.3-9.2l6.9,1.8l-5.8,21.4l5.2-2.8l12.6,3.4l2.2,8.4L1281.9,1635.9z M1273.8,1635.8l12.6-7.2l0.8-3.1
	l-3.5-6.2l-6.4,3.5L1273.8,1635.8z"/>
<path class="st1" d="M1323.2,1624.8h-3.9l1.9,7l-5.1,8.9v13.6l-10.9,2.9l-4.2-2.5l7.5-27.9l-4.3-7.4l0.9-3.6l15.3,4.1L1323.2,1624.8
	z M1308.9,1599.4l12.8-3.6l0.2,10.5l-5.5,5.7l-5.5-5.3L1308.9,1599.4z"/>
<path class="st1" d="M1369.7,1617.7l3.4,12.6l-5.1,8.9v14.7l-11.3,3.3l-4.2-2.5l7.9-29.4l-3.6-6.2l-6.2,3.6l-9.1,34.5l-6.8-1.8
	l-2.9-15.6l5.1-8.9v-9.7l-1.8,0.5l-2.4,4.1l-8.8-5l18-4.9l3.1,5.5l12.2-6.9L1369.7,1617.7z"/>
<path class="st1" d="M1418.9,1624.7h-3.8l1.9,7.1l-8.9,15.3l-1.8,24.4l-9.1,9.1l-17.2-4.5l-4.8-4.6l0.2-10.6l5.5-5.6l5.4,5.3
	l1.9,6.9l-8.9,2.5l2.6,2.6l3.7,1l7.2-4.1l4.1-15.4l-5.3,3.1l-12.6-3.4l-3.4-12.5l8.7-15.1l-2.2-7.9l14.2-3.8l19.9,5.3L1418.9,1624.7
	z M1398.3,1648.9l5.9-22.2l-4.2-7.3l-3.7-1l-0.6,0.2l-6.2,23.4l-1.1,4.2l3.6,6.4L1398.3,1648.9z"/>
<path class="st1" d="M297.2,153.3l-5.1,9v10.2l-4.6,4.6l-11,3l-20-5.3l-2.8-4.9h3.9l-1.8-7.1l8.8-15.3l1-21.3l9.1-9.2l7.1,2
	l-5.8,21.4l5.2-3l12.7,3.3L297.2,153.3z M276.5,175.9l0.6-0.1l7.4-27.5l-3.6-6.1l-6.3,3.7l-5.8,21.9l4.1,7.2L276.5,175.9z"/>
<path class="st1" d="M344.7,140.8l2.3,8.1l-7.7,4.6l-6.5-11.9l-7.4,4.1l-9.3,34.4l-6.8-1.8l-2.8-15.1l5.2-9.1v-9.9l-1.9,0.5
	l-2.4,4.2l-8.9-5.1l18.3-4.7l3.1,5.2l12.3-6.9L344.7,140.8z"/>
<path class="st1" d="M388,154l-5.1,8.9v10.4l-4.6,4.5l-11.1,3l-17.3-4.7l-3.4-12.6l5.1-8.9v-13.7l15.6-4.2l17.4,4.7L388,154z
	 M367.9,176.4l7.3-27.4l-4.1-7.1l-3.7-1l-0.7,0.1l-7.4,27.5l4.1,7.2l3.8,0.9L367.9,176.4z"/>
<path class="st1" d="M432.6,168.6l8.7,5.1l-18.1,4.8l-3.3-5.3l-11.9,6.9l-12.6-3.4l-3.4-12.6l5.2-8.9v-13.6l15.5-4.2l6.3,1.7
	l3.1,5.4l7.1-27.3l6.8,1.7l3.7,11.9l-11.4,25.3v17.2l1.9-0.5L432.6,168.6z M414.6,171.7l5.9-22l-4.2-7.2l-3.6-1l-0.6,0.2l-7.3,27.5
	l3.5,6.1L414.6,171.7z"/>
<path class="st1" d="M471.6,165.9l6.5,1.8v8.2l-15.6,4.2l-17.3-4.6l-3.4-12.6l9.3-16.2l16.2-9.3l12.6,3.4l2.6,10l-9.2,9.2H463
	l-7.5,4.4l-0.9,3.5l4.2,7.3l3.7,1l3.8-1L471.6,165.9z M460.5,145.7l-3.6,13.5l12.7-7.3l0.9-3.5l-3.7-6.3L460.5,145.7z"/>
<path class="st1" d="M530.9,140.8l2.3,8.1l-7.7,4.6l-6.5-11.9l-7.4,4.1l-9.3,34.4l-6.8-1.8l-2.8-15.1l5.2-9.1v-9.9l-1.9,0.5
	l-2.4,4.2l-8.9-5.1l18.3-4.7l3.1,5.2l12.3-6.9L530.9,140.8z"/>
<path class="st1" d="M554.7,147.7h-3.9l1.9,7l-5.1,8.9v13.6l-10.9,2.9l-4.2-2.5l7.5-27.9l-4.3-7.4l0.9-3.6l15.3,4.1L554.7,147.7z
	 M540.4,122.3l12.8-3.6l0.2,10.5l-5.5,5.7l-5.5-5.3L540.4,122.3z"/>
<path class="st1" d="M584.5,165.9l6.5,1.8v8.2l-15.6,4.2l-17.3-4.6l-3.4-12.6l9.3-16.2l16.2-9.3l12.6,3.4l2.6,10l-9.2,9.2h-10.3
	l-7.5,4.4l-0.9,3.5l4.2,7.3l3.7,1l3.8-1L584.5,165.9z M573.4,145.7l-3.6,13.5l12.7-7.3l0.9-3.5l-3.7-6.3L573.4,145.7z"/>
<path class="st1" d="M1540,1123.6l-75.2-129.5l18.8-71l259-150.4l-73.1,275.7L1540,1123.6z M2227.1,1090.1l-188-108.6l-50.1,85.6
	l-35.5,10.4V879.2L2060,693.3l-68.9-265.2L1627.7,332l-131.6,35.5l-117,202.6l43.9,160.8l154.6-41.8l112.8-112.8l-139.9-137.9
	l77.3-20.9l77.3,20.9l87.7,150.4l-18.8,71l-156.6,89.8h-215.1L1210,944l56.4,208.9l263.2,71l225.6-129.5l60.6,104.4L2227.1,1090.1z"
	/>
</svg>
