<svg id="Calque_1" data-name="Calque 1" xmlns="http://www.w3.org/2000/svg" viewBox="0 0 2400 1800"><defs><style>.cls-1{fill:#f3f2f2;}.cls-2{font-size:500px;font-family:Entrelacs-Trame, Entrelacs;}.cls-2,.cls-6{fill:#162843;}.cls-3{letter-spacing:-0.05em;}.cls-4{letter-spacing:-0.12em;}.cls-5{letter-spacing:-0.11em;}.cls-7,.cls-8{fill:none;stroke-miterlimit:10;}.cls-7{stroke:#162843;}.cls-8{stroke:#010101;stroke-width:0.11px;}</style></defs><title>Plan de travail 1 copie 3</title><rect class="cls-1" width="2400" height="1800"/><text class="cls-2" transform="translate(251.67 683.49)">1<tspan class="cls-3" x="121.5" y="0"> </tspan><tspan x="222" y="0">2</tspan><tspan class="cls-3" x="434.49" y="0"> </tspan><tspan x="534.99" y="0">3 </tspan></text><text class="cls-2" transform="translate(251.67 1033.49)">4<tspan class="cls-4" x="193.99" y="0"> </tspan><tspan x="258.99" y="0">5</tspan><tspan class="cls-4" x="465.99" y="0"> </tspan><tspan x="530.99" y="0">6 </tspan></text><text class="cls-2" transform="translate(251.67 1383.49)">7<tspan class="cls-5" x="174.5" y="0"> </tspan><tspan x="246" y="0">8</tspan><tspan class="cls-5" x="458.49" y="0"> </tspan><tspan x="529.99" y="0">9</tspan></text><path class="cls-6" d="M1744.78,1364.55l7-23.46,25.81,14.08Zm77.42-21.12,16.42-25.81,16.42,16.42Zm-319.09-9.38,18.77-16.42,14.08,25.81Zm-103.23-25.81v-2.35l2.35,2.35Zm-18.77-4.69-28.16-9.39V1259l30.5,32.85Zm495.05,25.81-28.16-30.5,25.81-44.58,37.54,65.7Zm-77.43,16.42-42.23-23.46,18.77-68,49.27,49.27ZM1446.81,1320l37.54-65.7,28.15,46.92-30.5,28.16Zm520.86-49.27L1963,1244.9h30.5Zm-39.89,39.89-37.54-65.69h51.62l11.73,39.89Zm-70.39-65.69-23.46,42.23-42.23-42.23Zm-452.82,39.89,11.73-39.89h51.62l-37.54,65.69Zm-14.08-14.08-25.81-25.81h32.85Zm-56.31,18.77-35.19-9.39-9.39-35.19h44.58Zm469.25-63.35,39.88-23.46,14.08,23.46ZM1275.54,1198l11.73-4.69,32.85,32.85h-35.19Zm58.65,14.08-25.81-23.46,25.81-7Zm-63.35-32.85v-2.35l2.35,2.35Zm628.79-7-25.81,44.58-14.08-23.46Zm23.46-2.35,14.08,56.31h-46.93Zm-488,0,32.85,56.31H1421Zm570.13,56.31h-49.27l-16.42-68,65.69,18.77Zm-652.25,0v-49.27l65.69-18.77-16.42,68Zm431.71-9.39,21.12-79.77,28.16,49.27Zm65.69-39.89-28.16-49.27L1902,1148.7ZM1353,1111.16l56.31,30.5L1353,1158.08Zm652.25,46.92-56.31-16.42,56.31-32.85Zm-671,4.69-39.89,9.39-25.81-23.46,65.69-39.88Zm640.52-82.12,21.12,14.08-44.58,25.81Zm-567.79,39.89-44.58-25.81,21.12-14.08Zm-157.2-23.46,28.16-30.5,46.92,28.16-65.69,37.54Zm678.06,23.46-21.12-77.43,51.62,28.15Zm-497.4,2.35-30.5-51.62,51.62-28.15Zm-194.74-79.77,25.81,14.08L1242.69,1076Zm649.9-9.39,25.81,98.54-96.19-25.81,14.08-56.31Zm119.66,44.58-21.12-14.08,21.12-39.89Zm-652.25-54,21.12,39.89L1353,1078.31Zm-18.77,54L1292,1052.5l42.23-39.89Zm633.48-23.46-51.62-28.15,79.77-21.11Zm-605.33-49.27,79.77,21.11-51.62,28.15Zm506.79,14.08-35.19,9.39,7-25.81Zm-612.36-42.23,68,16.42-49.27,49.27-42.23-23.46Zm612.36-7,9.39,32.85-28.16-16.42Zm-16.42-11.73,7-23.46,2.35,14.08ZM1292,918.77l30.5,56.31-54-16.42Zm607.67,91.5L1883.21,954l42.23-39.89,72.73,70.39ZM1360,984.46l72.73-72.73L1475,954l-16.42,56.31ZM2024,954V909.38h28.15ZM2005.21,968l-56.31-58.66h56.31ZM1902,909.38l-23.46,23.46-7-23.46Zm-445.78,0h30.5l-7,23.46Zm-103.23,0h56.31L1353,968ZM1334.19,954l-25.81-44.58h25.81Zm537.29-63.35,7-23.46L1902,890.61Zm-415.28,0,23.46-25.81,7,25.81Zm567.79,0V843.69l28.15,46.92Zm-689.79,0h-25.81l25.81-46.92Zm171.28-49.27-7,21.12-2.35-11.73Zm499.75,49.27H1948.9L2005.21,832ZM1353,832l58.66,58.66H1353Zm715.6,49.27-32.85-56.31L2092,839ZM1489,829.61l-7-32.85,25.81,14.08ZM1883.21,846l16.42-58.66,98.54,25.81-72.73,72.73Zm-424.67-58.66L1475,843.69l-42.23,42.23-70.39-72.73Zm32.85-7,32.85-9.38-7,23.46Zm610,42.23-68-18.77,49.27-49.27,42.23,25.81ZM1916.06,773.3l51.62-28.16,28.15,49.27ZM1390.5,745.15l51.62,28.16-79.77,21.12Zm734.37,11.73-28.16-16.42L2115.49,724ZM2024,721.69l42.23,23.46L2024,787.38Zm-18.77,51.62-21.12-37.54,21.12-14.08ZM1353,721.69l23.46,14.08L1353,773.3Zm598.29-42.23,44.58,25.81-21.12,14.08Zm-565.44,39.89-23.46-14.08,44.58-25.81Zm572.48,9.39-51.62,28.15,21.12-79.77Zm-527.9-51.62,21.12,79.77-51.62-28.15Zm678.06,25.81-28.16,28.16-46.92-25.81,65.69-37.54Zm-635.83,61-25.81-96.19,98.54,25.81-16.42,56.31Zm532.59-75.08L1948.9,656l56.31-14.08ZM1353,641.91,1409.27,656,1353,688.84Zm671-4.69,39.89-11.73,25.81,25.81L2024,688.84Zm63.35-16.42v2.35L2085,620.8Zm-579.52,0L1536,672.42,1456.2,651.3ZM2024,585.61l25.81,25.81L2024,616.11Zm-499.75,25.81,49.27-28.15L1552.39,663Zm-65.69,16.42,25.81-44.58,14.08,21.12Zm96.2-54L1514.85,595l-14.08-21.12Zm-119.66,56.31L1421,573.87h46.92ZM1353,573.87h49.27l16.42,65.69L1353,623.14ZM2082.64,602l-11.73,2.35-32.85-32.85h35.19Zm-77.43,21.11-65.69,16.42,16.42-68h49.27Zm-82.12,4.69-32.85-56.31h46.93Zm44.58-98.54,25.81,23.46H1963ZM1397.54,555.1h-32.85l25.81-25.81Zm103.23,0,23.46-42.23,42.23,42.23ZM2024,510.53l35.19,9.39,9.39,32.85H2024ZM2005.21,541l-30.5-32.85,2.35-11.73,28.16,7ZM1353,503.49l28.16-7,2.35,11.73L1353,541Zm46.92-11.73h2.35l-2.35,2.35Zm553.71,21.12-11.73,39.89h-51.62l37.54-63.35Zm-523.21-23.46,37.54,65.69h-51.62l-11.73-39.89Zm481-9.39-37.54,63.35L1848,498.79l28.16-28.15ZM1482,470.64l28.15,28.15-25.81,46.93L1446.81,480Zm373-7-16.42,18.77-16.42-28.16Zm-253.39,14.08-16.42,68-51.62-49.27,25.81-42.23ZM1536,454.22l-14.08,28.16-18.77-18.77Zm77.43-18.77-4.69,23.46-28.16-16.42Zm65.69,947.88-117.31-32.85L1442.12,1144,1475,1024.35l159.54-595.94,44.58-11.73,117.31,32.85,119.66,204.12-192.39,717.95ZM2075.6,503.49,1679.09,397.91l-344.9,91.5V806.15L1209.84,1022l72.73,274.51,396.51,105.58,126.7-32.85,124.35-35.19L2024,1240.2V991.5L2148.33,778Z"/><path class="cls-7" d="M457.46,163.5l-9.35,2.5m.67-2.5,8.67,5m-11.59,7.1,11.59-7.1m-7.15-9.34,5,19.95m-3.75-25.87L461.82,156m.65-6.14-13.36,13.87m1.51-7,6.84,6.85m-4.34-16.19L460,159.18m-8.1-5.93,9.92-5.93m-4.34,16.19V139.8m5.93,13.44-10.26-5.93m0,0,8-2.52m-8-6.16,8.69,8.68M450.62,138l-1.83,1.83m4.32-1.17L450.62,143m4.67-3.76-2.17,8.09m-2.5-4.33h10m-37.82,16.18,10,0M426,179.68l4.33-4.33m0,0H418.48m1.59-5.92L426,179.68m-7.51-4.33,5,5m6.87-16.86-10.26,17.77m0-11.85,10.26,2.75m0-8.67L421,166m.67-2.5,8.67,5m-11.84,6.85,11.84-6.85m-7.5-9.34,5.34,19.95m-3.75-25.87L434.69,156m.65-6.14L421.65,163.5m1.83-6.84,6.84,6.85M426,147.32l6.85,11.87m-8.44-5.94,10.26-5.92m-4.34,16.19V139.8m5.93,13.44L426,147.32m0,0,8-2.52m-8-6.16,8.69,8.68M423.49,138l-1.83,1.83m4.32-1.17L423.49,143m4.67-3.76L426,147.32m-2.5-4.33h10m-47.4,0h5m3.08,30.2,8.09-2.16m-7.51,4.33h6.35M393.62,171l6.84,6.84m-2.5-23v23.7M392,165.09,402.29,171m-8.68-8.68,10.26,2.75M393.62,171l10.26-5.92m-8.43-5.93L402.29,171M398,154.83l6.85,6.82m-11.87,6.82,13.7-13.63m-8.68-5,8.68,5M404.8,143,398,154.83m8.09-9.68,2.17,3.76M398,146.15l10.26,2.75m-5.93-10.27L398,143m0,0h6.84m1.25,2.17L398,149.82m0,5,9.35-2.53m-11.86,6.86,10,0m-5.34-20,5.34,20M434,144.8l13.42-7.74,12.77,3.42,3.4,12.91-5.93,10.26v15l-10.22,2.64-2.75-1.59,8.66-32.41-5.92-10.26M398,139.8v15L392,165.09l3.42,12.77,4.67,1.26L409.81,143m10.26-5.93L426,147.32l-1.59,5.92-7.08,26.45,2.75,1.59,10.26-2.75v-15l5.92-10.26-3.42-12.77-12.77-3.42-14,8.09-3.76-6.51L398,139.8M392,141.39,386.1,143l3.76,2.17ZM398,139.8,392,141.39m-51.62,25.32,7.51,4.34m0,0-2.17,8.09m6.51-.58-1.83,1.83m0-5-2.5,4.34m-8.68-8.67,8.68,8.67m0-8.68-8.24,2.17m.73,2.17h10m-6.84-11.85v15m-4.34-7.51,10.26-5.93m2.75-1.59-1.16-4.34m0,0-1.59,5.93m-1.59-5.92,4.34,4.34m-2.75,1.59-5.92-1.59m4.34,7.51-4.34-7.51m24.86-4.34h10m4.34,16.19h5m-18.69,0H376m-4.34,4.34,4.34-4.34m0-11.85-6.84,11.85m-3.42-5.93L376,172.21m-8.68-8.67,8.68,5m-9.35-2.5,9.35-2.51m-7.51-4.34,5.34,19.94m2.17-10.6-8.09,4.67m-2.17-3.76,2.17,3.76M370,153.28,380.3,156m-11.18.67,6.84,6.84m5-13.68-13.68,13.68m12.44-18.36-8.1,2.17m6.84,11.85-6.84-11.85m0,0,10.26,5.92m-1.59-5.93L370,153.28M376,139.78v23.76m-2.17-24.28-2.17,8.09m0-8.67,8.67,8.67M369.12,138l-1.87,1.78m4.37-1.1-2.5,4.34m0,0h10m-28.71,0h5m-2.52,9.35,2.52-9.35m1.86,6.82-9.37-2.48m0,0,7.51-4.34m-5,0,5,8.68m10.28-14.6h0l5.9,10.26L370,153.28l-10.26,5.92H347.93l-9.35,9.34,2.5,9.35,12.77,3.42m16.19-28-5.92,22.11h0l-10.26,5.92-5.92-10.26,1.59-5.92,10.26-5.92m4.34,16.19,3.76-2.17,3.76,6.51,4.34-1.16m5.92-1.59L376,178.56m5.92-1.59,5.93-1.59-.21-.12-3.55-2ZM376,178.56v-15l5.92-10.26-3.42-12.77-4.67-1.25-8.07-2.16-5.95-1.59-5.92,1.59-1.59,2.75m0,0-4.34,7.51,1.59,5.92,5.92-1.59,4.34-4.34Zm0,0-.06-.06m-57.42,4.29h5m2.49,28,6.83,6.83m-5.66-2.49h6.35m-3.19-20.55v23.7m-3.76-5.33,8.09-2.13m-10.26-6,10.26,6m-6.86-11.89h10m-11.86,3.17,10.25,2.77m-10.24,5.9,10.24-5.9m-8.42-5.94L311,172.15m-4.34-16.24,6.84,6.87m-11.84,6.84,13.68-13.68m-8.68-5,8.68,5m-1.83-11.86-6.85,11.83m36.74-7.52-8.7-8.66m-2.49-.66-1.83,1.84m4.33-1.17-2.49,4.35m4.67-3.77-2.17,8.1m8.11-2.17-8.11,2.17m0,0,4.34,2.5m0-10v10m-6.84-6.84h10m-35.56,0h6.85m1.25,2.17,2.17,3.76m-10.27-2.75L316.89,150m-2.17-3.76-8.11,4.67m0,5,9.35-2.48m-7.18-13.13,5.34,20M311,139.74l-4.35,4.34m0-3.2v15l-5.92,10.26,3.42,12.77,4.67,1.26,9.69-36.11m10.26-5.92,8.09,14,6.52-3.79-1.86-6.83-12.75-3.4-14,8.09L311,139.74l-4.35,1.14m-5.91,1.61-5.93,1.59,3.76,2.17Zm5.91-1.61-5.91,1.61m-22,35.65,2.71,1.59m0,0,3.44-5.92m-5,0,5,5m3.67-37.37,1-3.68m-2.15-.66,4.29,4.34m-27.21-3,7.84-1.35m-8.31,4.32,6.81,0m-5.49-11.07,8.27,2.21m-8.77,2.47,11.49-12.71m-10.6,4.32,6.59,10.42m-6-16.09,8.17,8.17m-8.35-6.43,10.85-2.91m-11.27,6.84h9.44M270,107.88l5.1,18.79m6.17-23L271.86,106m8.74.13L275,102.89m-1.57,1.58,6,6M271.86,106l6,10.39m1.59-5.93-12.06,0m-.35,3,10.82,2.9m-11.14.41,9.55,5.54m3.17-20.52-13.64,23.64m5.33,16-6.35-6.37m-.36,3.39,5.15,8.91m1.57-5.93-7.49,4.34m0,0,5.93,1.59m-8.1,2.17,6.51,3.76m-8.68,0,9.35-2.51m-5-5,3.18,11.85m-10,0h10M255,160.79l10.26,2.75m-8.43-5.92,6.84,11.85m-10.26-5.92,10.26,5.92M268,153.28,254.28,167m5-13.68,6.84,6.84M255,169.46l10.26-5.92m-5.93-10.26V177m8.67,0-1.83,1.83m0-5-2.5,4.33M255,169.46l8.68,8.67m0-8.67-2.17,8.09m-5.35-3.75h10m-10.6-2.17,8.09-2.17m-7.51,4.34.67,2.5M278,180.62l-2.55.7-5.93-1.6-5.92-10.25,18-67.09-4.89-1.24-9.34,9.37-3.75,35.25-10.26,17.78,2.75,10.26h-3.67l.92,1.59,16.18,4.33m8.48.9,9.3-2.48-2.51-4.33h-5Zm-6.91-39.19h0m0,0h13.66m0,0h6.84l0-3.18-4.34-1.16Z"/><path class="cls-7" d="M449.95,159.16l10,0m-6.86,20.5,4.33-4.33m0,0H445.61m1.74-5.66,5.77,10m-7.51-4.33,5,5m6.86-16.86L447.2,181.28m.15-11.59,10.1,2.48"/><line class="cls-8" x1="483.91" y1="141.43" x2="483.91" y2="141.43"/><path class="cls-7" d="M495.75,177l1.83,1.84m6.85-5h-6.85m0,0,2.51,4.33m0-8.67,2.17,8.09m-4.67-36.13h10m-3.17-3.17v15m4.34-7.5-8.68-8.68m-4.33,1.17,1.81-1.84m2.52.68-2.5,4.34m4.67-3.76-2.17,8.09m0,0,8.1-2.16m-9.68,8.09,10.26-5.92m-4.34,7.5-4.34-7.51m7.51,4.34-7.51-4.34m4.34,7.51-5.93-1.58m0,0-1.58,5.92m3.17,0-4.28-4.37m0,0,1.11,4.37m-16.77-14,2.17,3.76m0,0-5.92-1.59m0,0,3.17,11.85m-7.51-4.34,9.34-2.5m-.67,2.5-6.51-3.75m6.5,27.46-1.83,1.82m0-5-2.5,4.33m0-8.67-2.17,8.09m-5.34-3.75h10m-11.17-4.34,8.67,8.67m-8.09-6.5,8.09-2.17m-4.34-16.19V177m-4.34-16.19L478,163.54m-5.92-10.26,6.84,6.85M467.05,167l13.68-13.69M478,163.54l-10.26,5.93m-1.59-5.93,10.27,5.93m3.17-11.85h-10m6.85,11.85-6.85-11.85m12.75,22.11h0l-5.9-10.25,1.58-5.93,10.26-5.92h11.85l9.35-9.34-2.5-9.35-12.77-3.42-10.26,5.93-7.51,4.34-4.34,7.51-5.93,10.26,3.42,12.77,4.67,1.25,8.07,2.17,5.93,1.59,5.92-1.59m0,0,5.94-10.26,4.34,1.16V177ZM478,163.54l5.92-22.11h0m10.26-5.92,5.92,10.26-1.59,5.92-10.26,5.92"/></svg>