<svg id="Layer_1" data-name="Layer 1" xmlns="http://www.w3.org/2000/svg" viewBox="0 0 2400 1800"><defs><style>.cls-1{fill:#f1f1f1;}.cls-2{fill:#00234a;}</style></defs><title>Artboard 2</title><rect class="cls-1" width="2400" height="1800"/><path class="cls-2" d="M349,1187l-24.33-92.47L428.49,989.11H584.22l81.11-43.8-58.4,210.89-115.18,68.13Zm369.87-94.09L688,1110.78,772.4,791.2,679.93,629,577.73,601.4,475.53,629,378.2,796.06,435,828.51l82.73-144.38,60-14.6,58.4,14.6,68.13,116.8L688,854.46,568,924.22H402.53L251.67,1075.09l43.8,163.84,206,55.16,194.67-113.56,51.91,86,56.78-32.45Z"/><path class="cls-2" d="M1380.43,708.46l37.31,144.38-77.87,136.27v155.73l-43.8,43.8L1151.7,1226l-58.4-14.6-66.51-116.8,94.09-355.27,116.8-68.13ZM1227.94,601.4l-84.36,48.67,94.09-347.16-110.31-30.82-17.84,61.64,50.29,14.6-204.4,756,95.71,162.22,100.58,27.58,178.45-47,74.62-76.24V1005.33l82.73-142.76-55.16-206Z"/><polygon class="cls-2" points="2002.23 864.2 2127.14 792.82 2091.46 656.55 1887.06 601.4 1723.21 695.49 1614.52 1104.29 1706.99 1266.51 1809.19 1294.09 2063.88 1225.95 2063.88 1097.8 1998.99 1097.8 1998.99 1177.29 1809.19 1225.95 1750.79 1211.35 1682.66 1094.55 1779.99 739.29 1895.17 672.78 2037.92 710.09 2052.52 760.38 1971.41 807.42 2002.23 864.2"/></svg>