<svg id="Calque_1" data-name="Calque 1" xmlns="http://www.w3.org/2000/svg" viewBox="0 0 2400 1800"><defs><style>.cls-1{fill:#f3f2f2;}.cls-2{fill:#162843;}.cls-3{fill:none;stroke:#162843;stroke-miterlimit:10;stroke-width:12px;}</style></defs><title>Plan de travail 1 copie 7</title><rect class="cls-1" width="2400" height="1800"/><path class="cls-2" d="M1130,789.48l-127.62-34.36L979.1,666.77l93.26-93.26h126.39l89.58-50.31-56.45,206.15Zm132.52-77.31,74.85-281-68.72-120.25-72.4-19.63-72.4,19.63L1056.4,427.49l20.86,12.27,62.58-108,56.45-14.72,56.45,14.72,58.9,103.07-14.72,54L1192.61,549H1062.54L952.1,659.41l30.68,115.34,150.93,40.49,146-84.67,34.36,60.13L1335,778.43l-46.63-81Z"/><path class="cls-2" d="M1183,1402.82,1086.06,1458l-55.22-95.71,14.72-55.22,192.65-111.66Zm195.11,14.72-44.18,12.27V1285l65-112.89L1359.7,1021.2l-213.51-56.45-72.4,19.63-69.94,120.25,22.09,81,79.76-20.86,57.67-58.9-83.44-83.44,9.82-17.18,56.44-14.73,56.45,14.73,58.9,103.07-14.72,54-104.3,60.13H1012.44L902,1332.88l30.68,115.35,150.93,40.49,146-84.67,39.27,68.72,120.25-33.13,93.26-24.54-77.31-44.18Z"/><path class="cls-2" d="M1692.63,734.26l-18.41-69.94,78.53-79.76h117.8l61.35-33.13-44.17,159.52-87.12,51.54Zm279.77-71.17-23.31,13.5,63.81-241.73-69.94-122.71-77.31-20.86-77.31,20.86-73.62,126.39,42.95,24.54,62.58-109.21,45.4-11,44.18,11,51.54,88.35-12.27,40.49-90.8,52.76H1733.12L1619,649.59l33.13,123.93L1808,815.25l147.25-85.9,39.27,65,42.95-24.54Z"/><path class="cls-2" d="M1744.63,1429.82l-44.18-76.08,11-41.72,152.16-88.35-42.95,162Zm403.71-19.63-110.44-63.81-29.45,50.31-20.86,6.14V1286.25L2050.17,1177l-40.49-155.84-213.51-56.45-77.31,20.86-68.72,119,25.77,94.48,90.8-24.54,66.26-66.26-82.21-81,45.4-12.27,45.4,12.27,51.54,88.35-11,41.72-92,52.76H1663.64l-112.89,114.12L1583.88,1447l154.61,41.72L1871,1412.64,1906.6,1474Z"/><path class="cls-2" d="M430.26,1476.37l-62.8-108.78,16.69-62.34,217.56-125.6L539,1413.58ZM822,1418.64l-57-33-25.78,44.66-58,15.54V1285.49L748,1169.87,708.35,1022,494.79,964.75l-69.72,18.69L356.6,1102.05l19.63,73.3,72.59-19.45L502,1102.77l-85-85,14.79-25.63,63.05-16.9,63.32,17,64,111.28-16.71,62.34-112,64.66H359.93L251.67,1338.73l29.57,110.36,147.89,39.62,154.5-89.2,41.5,71.88Z"/><path class="cls-3" d="M675.71,496,609.84,742.36h0l-114.08,66-141.91-38.1L326,666.13,429.92,562H561.63l114.07-66,17.65-66L627.5,315.61l-65.86-17.7-65.86,17.7L429.92,430m179.93,312.4,41.76-24.16,41.76,72.5"/></svg>