<?xml version="1.0" encoding="utf-8"?>
<!-- Generator: Adobe Illustrator 22.1.0, SVG Export Plug-In . SVG Version: 6.00 Build 0)  -->
<svg version="1.1" id="Calque_1" xmlns="http://www.w3.org/2000/svg" xmlns:xlink="http://www.w3.org/1999/xlink" x="0px" y="0px"
	 viewBox="0 0 2400 1800" style="enable-background:new 0 0 2400 1800;" xml:space="preserve">
<style type="text/css">
	.st0{fill:#F3F2F2;}
	.st1{fill:#162843;}
	.st2{fill:none;stroke:#162843;stroke-width:12;stroke-miterlimit:10;}
</style>
<rect class="st0" width="2400" height="1800"/>
<path class="st1" d="M1130,789.5l-127.6-34.4l-23.3-88.3l93.3-93.3h126.4l89.6-50.3l-56.4,206.1L1130,789.5z M1262.5,712.2l74.8-281
	l-68.7-120.2l-72.4-19.6l-72.4,19.6l-67.4,116.6l20.9,12.3l62.6-108l56.4-14.7l56.4,14.7l58.9,103.1l-14.7,54L1192.6,549h-130.1
	L952.1,659.4l30.7,115.3l150.9,40.5l146-84.7l34.4,60.1l20.9-12.3l-46.6-81L1262.5,712.2z"/>
<path class="st1" d="M1183,1402.8l-96.9,55.2l-55.2-95.7l14.7-55.2l192.7-111.7L1183,1402.8z M1378.1,1417.5l-44.2,12.3V1285
	l65-112.9l-39.2-150.9l-213.5-56.5l-72.4,19.6l-69.9,120.2l22.1,81l79.8-20.9l57.7-58.9l-83.4-83.4l9.8-17.2l56.4-14.7l56.4,14.7
	l58.9,103.1l-14.7,54l-104.3,60.1h-130.1L902,1332.9l30.7,115.3l150.9,40.5l146-84.7l39.3,68.7l120.2-33.1l93.3-24.5l-77.3-44.2
	L1378.1,1417.5z"/>
<path class="st1" d="M1692.6,734.3l-18.4-69.9l78.5-79.8h117.8l61.3-33.1L1887.7,711l-87.1,51.5L1692.6,734.3z M1972.4,663.1
	l-23.3,13.5l63.8-241.7L1943,312.2l-77.3-20.9l-77.3,20.9l-73.6,126.4l42.9,24.5l62.6-109.2l45.4-11l44.2,11l51.5,88.4l-12.3,40.5
	l-90.8,52.8h-125.2L1619,649.6l33.1,123.9l155.9,41.7l147.2-85.9l39.3,65l42.9-24.5L1972.4,663.1z"/>
<path class="st1" d="M1744.6,1429.8l-44.2-76.1l11-41.7l152.2-88.3l-42.9,162L1744.6,1429.8z M2148.3,1410.2l-110.4-63.8l-29.4,50.3
	l-20.9,6.1v-116.6l62.6-109.2l-40.5-155.8l-213.5-56.5l-77.3,20.9l-68.7,119l25.8,94.5l90.8-24.5l66.3-66.3l-82.2-81l45.4-12.3
	l45.4,12.3l51.5,88.3l-11,41.7l-92,52.8h-126.5l-112.9,114.1l33.1,122.8l154.6,41.7l132.5-76.1l35.6,61.4L2148.3,1410.2z"/>
<path class="st1" d="M430.3,1476.4l-62.8-108.8l16.7-62.3l217.6-125.6L539,1413.6L430.3,1476.4z M822,1418.6l-57-33l-25.8,44.7
	l-58,15.5v-160.4l66.8-115.6L708.3,1022l-213.6-57.2l-69.7,18.7l-68.5,118.6l19.6,73.3l72.6-19.4l53.2-53.1l-85-85l14.8-25.6
	l63-16.9l63.3,17l64,111.3l-16.7,62.3l-112,64.7H359.9l-108.3,108.2l29.6,110.4l147.9,39.6l154.5-89.2l41.5,71.9L822,1418.6z"/>
<path class="st2" d="M675.7,496l-65.9,246.4l0,0l-114.1,66l-141.9-38.1L326,666.1L429.9,562h131.7L675.7,496l17.6-66l-65.9-114.4
	l-65.9-17.7l-65.9,17.7L429.9,430 M609.8,742.4l41.8-24.2l41.8,72.5"/>
</svg>
