<?xml version="1.0" encoding="utf-8"?>
<!-- Generator: Adobe Illustrator 22.1.0, SVG Export Plug-In . SVG Version: 6.00 Build 0)  -->
<svg version="1.1" id="Calque_1" xmlns="http://www.w3.org/2000/svg" xmlns:xlink="http://www.w3.org/1999/xlink" x="0px" y="0px"
	 viewBox="0 0 2400 1800" style="enable-background:new 0 0 2400 1800;" xml:space="preserve">
<style type="text/css">
	.st0{fill:#F3F2F2;}
	.st1{fill:#162843;}
</style>
<rect class="st0" width="2400" height="1800"/>
<polygon class="st1" points="518.9,280 538.5,299.6 538.1,319.6 492.9,331.6 488.9,315.6 521.3,307.2 521.3,306 510.9,294.8 
	495.7,290.4 466.9,307.6 451.3,368 502.9,368 502.9,360.8 518.5,360.8 518.5,384.4 446.5,384.4 408.5,526 392.9,522 429.7,384.4 
	335.7,384.4 297.7,526 259.3,515.6 251.3,503.2 265.7,496 269.3,501.6 286.1,506 342.1,297.2 382.5,274 408.5,280 426.9,299.6 
	426.9,319.6 381.7,331.6 377.7,315.6 410.5,307.2 410.5,306 400.1,294.8 384.9,290.4 356.1,307.6 340.5,368 434.1,368 453.3,297.2 
	493.7,274 "/>
<polygon class="st1" points="817.3,400 788.5,507.2 796.1,512.4 787.7,526 770.1,515.2 800.1,402.4 789.7,384.4 706.9,384.4 
	668.5,526 630.1,515.6 623.7,503.2 636.9,496 640.9,501.6 656.9,506 713.3,296.8 754.1,274 779.3,280.4 798.9,299.6 798.1,320 
	752.9,331.2 748.9,316 781.7,307.2 781.7,305.6 771.3,294.8 756.1,290.8 726.9,307.6 711.3,368 799.7,368 "/>
<polygon class="st1" points="830.5,294 846.1,298 832.9,344.4 817.7,340.4 "/>
<polygon class="st1" points="1256.9,400.8 1228.1,508 1235.7,512.8 1227.7,526 1209.3,516 1239.3,403.2 1228.5,384.4 1147.7,384.4 
	1109.7,526 1094.5,522 1130.5,384.4 1038.5,384.4 1000.5,526 962.1,515.6 955.3,503.2 969.7,496 972.9,501.6 989.3,506 
	1044.5,297.2 1084.5,274 1109.7,280.4 1128.5,299.6 1127.7,320 1083.7,331.6 1079.7,316.4 1112.1,307.2 1112.1,306 1101.3,295.2 
	1086.9,290.8 1058.1,307.6 1042.5,368.4 1134.9,368.4 1153.3,297.2 1194.1,274 1219.3,280.4 1238.1,299.6 1237.3,320 1193.3,331.6 
	1188.9,316.4 1221.3,307.2 1221.3,306 1210.9,295.2 1196.5,290.8 1167.7,307.6 1151.7,368.4 1237.7,368.4 "/>
<polygon class="st1" points="1272.1,344.4 1256.1,340 1268.5,294 1284.5,298 "/>
<polygon class="st1" points="1632.5,483.6 1647.7,512.4 1595.3,526 1570.1,519.2 1546.5,478.4 1571.7,384.4 1477.7,384.4 
	1439.3,526 1400.5,515.6 1393.7,503.2 1407.7,496 1411.3,501.6 1427.7,506.4 1483.7,296.8 1524.1,274 1549.7,279.6 1568.9,299.6 
	1568.5,320 1523.7,332 1518.9,316 1552.1,307.2 1552.1,306 1541.7,295.2 1526.9,291.2 1497.3,308 1481.7,368 1576.1,368 
	1596.1,292.8 1583.3,290.4 1588.1,274 1615.7,280.8 1564.1,475.6 1580.5,505.6 1595.3,509.2 1623.3,501.6 1618.1,492.4 "/>
<polygon class="st1" points="2126.1,482.8 2141.7,511.6 2089.3,526 2064.1,518.4 2040.5,477.6 2065.7,384.4 1971.7,384.4 
	1932.9,526 1917.7,522 1954.9,384.4 1860.5,384.4 1822.1,526 1782.9,515.6 1776.9,503.6 1791.3,496 1794.5,502 1810.5,506 
	1866.5,297.2 1907.3,274 1932.9,280 1952.1,299.6 1951.3,320 1906.5,331.6 1902.5,316 1935.3,307.2 1935.3,306 1924.1,294.8 
	1910.1,291.2 1880.1,307.6 1864.9,367.6 1958.9,367.6 1977.3,297.2 2018.1,274 2043.7,280 2062.9,300 2062.1,320 2018.1,331.6 
	2012.9,316 2046.5,307.2 2046.5,306 2035.3,294.8 2020.5,291.2 1991.3,307.6 1975.7,367.6 2069.7,367.6 2090.5,292.8 2077.7,290 
	2082.5,274 2109.7,280.8 2058.5,474.8 2074.5,504.8 2089.3,509.2 2117.3,501.2 2111.7,491.6 "/>
<polygon class="st1" points="422.1,867.6 440.9,899.6 392.1,1084 350.9,1107.2 325.3,1101.2 306.9,1082 306.9,1061.2 351.3,1049.6 
	356.1,1065.2 322.5,1074.4 322.5,1075.2 333.7,1086 348.1,1090 377.3,1073.2 422.9,902 412.5,884.4 330.1,884.4 291.7,1026 
	253.3,1015.6 246.9,1003.2 260.1,995.2 264.1,1001.6 280.9,1006 336.1,797.2 376.9,774 402.1,780.4 421.3,798.8 420.9,819.6 
	375.7,832 372.1,816 404.5,806.8 404.5,806 394.1,794.8 379.3,791.2 350.1,808 334.5,867.6 "/>
<polygon class="st1" points="452.9,792.4 468.5,797.2 454.9,844.4 438.9,839.2 "/>
<polygon class="st1" points="886.1,866 900.5,917.6 878.5,953.6 878.5,1026 862.5,1026 862.5,949.2 883.3,915.2 873.3,878.8 
	837.7,869.2 808.5,886.4 770.5,1026 742.5,1018.4 747.3,1002.8 759.3,1006 792.1,884.4 698.1,884.4 659.7,1026 621.3,1015.6 
	614.5,1003.2 628.5,996 632.1,1001.6 648.5,1006.4 704.1,797.2 744.9,774 770.5,780.4 789.7,799.6 788.9,820 744.1,832 740.1,816.4 
	772.9,807.2 772.9,806 762.1,795.2 747.3,791.2 718.1,808 702.5,868.4 806.9,868.4 835.3,852 "/>
<polygon class="st1" points="1324.9,865.6 1334.1,899.2 1302.9,918 1294.9,903.2 1315.3,891.6 1311.7,878.8 1276.5,869.2 
	1246.9,886.4 1209.3,1026 1180.9,1018.8 1186.1,1002.8 1197.7,1006 1230.5,884.4 1136.9,884.4 1098.5,1026 1059.7,1015.6 
	1052.9,1003.2 1066.9,996 1070.5,1001.6 1086.9,1006.4 1142.9,797.2 1183.7,774 1208.9,780.4 1228.1,799.6 1227.7,820 1182.5,831.6 
	1178.5,816.4 1211.3,807.2 1211.3,806 1200.9,795.2 1186.1,791.2 1156.9,808 1140.9,868.4 1246.5,868.4 1274.1,852 "/>
<polygon class="st1" points="1664.9,884.4 1640.5,976 1657.7,1005.2 1672.1,1009.2 1700.1,1001.6 1695.3,992.4 1708.9,984 
	1724.9,1012 1672.1,1026 1646.5,1019.2 1623.3,978.4 1648.1,884.4 1554.1,884.4 1516.1,1026 1477.3,1015.6 1470.5,1003.2 
	1484.5,996 1488.1,1001.6 1504.5,1006.4 1560.5,797.2 1600.9,774 1626.5,780.4 1645.7,799.6 1644.9,820 1600.1,832 1596.1,816.4 
	1628.9,807.2 1628.9,806 1618.1,795.2 1603.3,791.2 1574.1,808 1558.5,868.4 1652.5,868.4 1672.9,793.2 1660.9,789.6 1664.9,774 
	1692.5,782 1669.3,868.4 1720.5,868.4 1720.5,861.2 1736.9,861.2 1736.9,884.4 "/>
<path class="st1" d="M2140.5,884.4v-23.6h-16.4v7.6h-51.2l16.8-62l-20-19.6l-48.4-12.8l-40.8,23.6l-14.8,56l-17.6-4.8l-15.2,4
	l-19.6,73.6l80.8,47.2v14.8l-10.8,11.6l-35.2,8.8l-14.4-3.6l-16.8-29.2l5.6-20.8l-15.6-4l-7.6,27.2l23.6,40.8l25.2,6.8l44-12
	l18.4-18.8v-30.8l-78.4-45.6l14-52.8l2-0.8l13.2,3.6l-3.6,15.2l25.2,42.4l43.6-25.2l-9.2-34l-36-9.6l12.8-50l29.6-16.4l38.4,10.4
	l9.6,10.4l-44.4,166l23.2,41.2l25.2,6.8l52.8-14l-16.4-28l-13.2,8.4l4.8,9.2l-28,7.2l-14.4-3.6l-16.8-29.2l24.4-91.6H2140.5z
	 M2004.1,880l3.6,13.6l-19.2,11.2l-13.2-23.2l2-8.4L2004.1,880z"/>
<polygon class="st1" points="538.5,1403.2 510.5,1507.6 518.1,1512.4 510.1,1526 492.5,1515.6 521.3,1405.6 506.9,1379.2 
	490.9,1374.8 456.5,1502.8 416.5,1526 366.1,1512.4 363.7,1503.6 324.5,1526 274.9,1512.4 261.3,1462.4 281.7,1427.2 281.7,1360.8 
	325.7,1349.2 329.7,1364.8 297.3,1373.2 297.3,1431.6 278.1,1464.4 287.7,1499.6 322.5,1508.8 359.3,1487.6 352.5,1462 
	373.3,1427.2 373.3,1368.8 389.3,1368.8 389.3,1431.2 370.1,1464 378.9,1499.6 414.1,1508.8 442.9,1492.4 479.7,1355.2 517.3,1366 
	"/>
<polygon class="st1" points="550.9,1295.2 566.5,1299.2 553.7,1344.4 538.9,1340.4 "/>
<polygon class="st1" points="1175.5,1420.4 1155.1,1455.6 1155.1,1526 1139.1,1526 1139.1,1451.6 1158.3,1418 1149.1,1382.8 
	1114.3,1373.6 1085.5,1390 1049.5,1526 1022.3,1518.4 1026.3,1503.2 1038.3,1506.4 1069.9,1388 1033.9,1375.2 999.5,1502.8 
	959.5,1526 909.1,1512.4 907.1,1503.6 867.9,1526 817.9,1512.4 804.3,1462.4 824.7,1427.2 824.7,1361.2 868.7,1349.6 872.7,1364.8 
	840.7,1373.6 840.7,1431.6 821.1,1464.4 830.7,1499.6 865.5,1509.2 902.7,1487.6 895.9,1462 916.3,1427.2 916.3,1368.8 
	932.3,1368.8 932.3,1431.2 913.1,1464 922.3,1499.6 957.1,1509.2 985.9,1492.4 1022.7,1355.2 1079.9,1375.2 1111.9,1356.4 
	1162.3,1370 "/>
<path class="st1" d="M1620.1,1497.2l-47.6,12.4l-36.4-16.4l11.2-42h64.4l42.8-42l-11.2-40.4l-51.6-13.6l-34.8,20l-45.2-20l-26,6.8
	l-24.4,41.6l14.4,7.6l20.8-35.2l15.2-4l36,16.8l-12.8,46.4h-67.6l-38,37.2l11.2,40.4l51.6,13.2l35.2-20l45.2,20l63.6-16.4v-32h-16
	L1620.1,1497.2z M1564.5,1388.8l29.6-16l36,8.8l6,22.8l-31.2,30.8h-53.2L1564.5,1388.8z M1518.9,1492.4l-29.2,17.2l-36-10l-6-22.8
	l26.4-25.6h56.4L1518.9,1492.4z"/>
<path class="st1" d="M2106.5,1497.2l-46.4,12l-24.4-6.4l-6.4-26l3.6-13.6l29.2-16.8h41.2l37.2-37.2l-11.2-40.4l-50.4-13.6l-40,23.2
	l-2,7.6l-4.8-17.2l-50.4-13.6l-40,23.2l-27.2,100.4l23.2,40.4l25.2,6.8l43.6-12l11.2-10.8l3.2,12l39.2,10.8l62.4-16.8v-31.6h-16
	L2106.5,1497.2z M2052.5,1389.2l28.8-16.8l35.2,9.2l6,22.8l-25.6,25.6h-38.8l-19.6,11.6L2052.5,1389.2z M2009.3,1489.2l-10.8,10.4
	l-35.6,9.6l-14.8-3.6l-16.4-28.8l23.6-87.6l28.4-16.8l35.6,9.2l9.2,35.6L2009.3,1489.2z"/>
</svg>
