<svg id="Calque_1" data-name="Calque 1" xmlns="http://www.w3.org/2000/svg" viewBox="0 0 2400 1800"><defs><style>.cls-1{fill:#f3f2f2;}.cls-2{fill:#162843;}</style></defs><title>Plan de travail 1 copie 2</title><rect class="cls-1" width="2400" height="1800"/><path class="cls-2" d="M518.91,280l19.6,19.6-.4,20-45.2,12-4-16,32.4-8.4V306l-10.4-11.2-15.2-4.4-28.8,17.2L451.31,368h51.6v-7.2h15.6v23.6h-72l-38,141.6-15.6-4,36.8-137.6h-94l-38,141.6-38.4-10.4-8-12.4,14.4-7.2,3.6,5.6,16.8,4.4,56-208.8,40.4-23.2,26,6,18.4,19.6v20l-45.2,12-4-16,32.8-8.4V306l-10.4-11.2-15.2-4.4-28.8,17.2L340.52,368h93.6l19.2-70.8,40.4-23.2Zm298.4,120-28.8,107.2,7.6,5.2-8.4,13.6-17.6-10.8,30-112.8-10.4-18h-82.8L668.51,526l-38.4-10.4-6.4-12.4,13.2-7.2,4,5.6,16,4.4,56.4-209.2,40.8-22.8,25.2,6.4,19.6,19.2-.8,20.4-45.2,11.2-4-15.2,32.8-8.8v-1.6l-10.4-10.8-15.2-4-29.2,16.8L711.31,368h88.4Zm13.2-106,15.6,4-13.2,46.4-15.2-4Zm426.4,106.8L1228.11,508l7.6,4.8-8,13.2-18.4-10,30-112.8-10.8-18.8h-80.8l-38,141.6-15.2-4,36-137.6h-92l-38,141.6-38.4-10.4-6.8-12.4,14.4-7.2,3.2,5.6,16.4,4.4,55.2-208.8,40-23.2,25.2,6.4,18.8,19.2-.8,20.4-44,11.6-4-15.2,32.4-9.2V306l-10.8-10.8-14.4-4.4-28.8,16.8-15.6,60.8h92.4l18.4-71.2,40.8-23.2,25.2,6.4,18.8,19.2-.8,20.4-44,11.6-4.4-15.2,32.4-9.2V306l-10.4-10.8-14.4-4.4-28.8,16.8-16,60.8h86Zm15.2-56.4-16-4.4,12.4-46,16,4Zm360.4,139.2,15.2,28.8-52.4,13.6-25.2-6.8-23.6-40.8,25.2-94h-94L1439.32,526l-38.8-10.4-6.8-12.4,14-7.2,3.6,5.6,16.4,4.8,56-209.6,40.4-22.8,25.6,5.6,19.2,20-.4,20.4-44.8,12-4.8-16,33.2-8.8V306l-10.4-10.8-14.8-4-29.6,16.8-15.6,60h94.4l20-75.2-12.8-2.4,4.8-16.4,27.6,6.8-51.6,194.8,16.4,30,14.8,3.6,28-7.6-5.2-9.2Zm493.6-.8,15.6,28.8-52.4,14.4-25.2-7.6-23.6-40.8,25.2-93.2h-94L1932.92,526l-15.2-4,37.2-137.6h-94.4L1822.12,526l-39.2-10.4-6-12,14.4-7.6,3.2,6,16,4,56-208.8,40.8-23.2,25.6,6,19.2,19.6-.8,20.4-44.8,11.6-4-15.6,32.8-8.8V306l-11.2-11.2-14-3.6-30,16.4-15.2,60h94l18.4-70.4,40.8-23.2,25.6,6,19.2,20-.8,20-44,11.6-5.2-15.6,33.6-8.8V306l-11.2-11.2-14.8-3.6-29.2,16.4-15.6,60h94l20.8-74.8-12.8-2.8,4.8-16,27.2,6.8-51.2,194,16,30,14.8,4.4,28-8-5.6-9.6Z"/><path class="cls-2" d="M422.11,867.6l18.8,32L392.11,1084l-41.2,23.2-25.6-6-18.4-19.2v-20.8l44.4-11.6,4.8,15.6-33.6,9.2v.8l11.2,10.8,14.4,4,29.2-16.8L422.91,902l-10.4-17.6h-82.4L291.72,1026l-38.4-10.4-6.4-12.4,13.2-8,4,6.4,16.8,4.4,55.2-208.8,40.8-23.2,25.2,6.4,19.2,18.4-.4,20.8L375.71,832l-3.6-16,32.4-9.2V806l-10.4-11.2-14.8-3.6L350.11,808l-15.6,59.6Zm30.8-75.2,15.6,4.8-13.6,47.2-16-5.2ZM886.12,866l14.4,51.6-22,36V1026h-16V949.2l20.8-34-10-36.4-35.6-9.6-29.2,17.2-38,139.6-28-7.6,4.8-15.6,12,3.2,32.8-121.6h-94L659.72,1026l-38.4-10.4-6.8-12.4,14-7.2,3.6,5.6,16.4,4.8,55.6-209.2,40.8-23.2,25.6,6.4,19.2,19.2-.8,20.4-44.8,12-4-15.6,32.8-9.2V806l-10.8-10.8-14.8-4L718.12,808l-15.6,60.4h104.4l28.4-16.4Zm438.8-.4,9.2,33.6-31.2,18.8-8-14.8,20.4-11.6-3.6-12.8-35.2-9.6-29.6,17.2-37.6,139.6-28.4-7.2,5.2-16,11.6,3.2,32.8-121.6h-93.6l-38.4,141.6-38.8-10.4-6.8-12.4,14-7.2,3.6,5.6,16.4,4.8,56-209.2,40.8-23.2,25.2,6.4,19.2,19.2-.4,20.4-45.2,11.6-4-15.2,32.8-9.2V806l-10.4-10.8-14.8-4-29.2,16.8-16,60.4h105.6l27.6-16.4Zm340,18.8-24.4,91.6,17.2,29.2,14.4,4,28-7.6-4.8-9.2,13.6-8.4,16,28-52.8,14-25.6-6.8-23.2-40.8,24.8-94h-94l-38,141.6-38.8-10.4-6.8-12.4,14-7.2,3.6,5.6,16.4,4.8,56-209.2,40.4-23.2,25.6,6.4,19.2,19.2-.8,20.4-44.8,12-4-15.6,32.8-9.2V806l-10.8-10.8-14.8-4-29.2,16.8-15.6,60.4h94l20.4-75.2-12-3.6,4-15.6,27.6,8-23.2,86.4h51.2v-7.2h16.4v23.2Zm404,0-24.4,91.6,16.8,29.2,14.4,3.6,28-7.2-4.8-9.2,13.2-8.4,16.4,28-52.8,14-25.2-6.8-23.2-41.2,44.4-166-9.6-10.4-38.4-10.4-29.6,16.4-12.8,50,36,9.6,9.2,34-43.6,25.2-25.2-42.4,3.6-15.2-13.2-3.6-2,.8-14,52.8,78.4,45.6v30.8l-18.4,18.8-44,12-25.2-6.8-23.6-40.8,7.6-27.2,15.6,4-5.6,20.8,16.8,29.2,14.4,3.6,35.2-8.8,10.8-11.6V973.6l-80.8-47.2,19.6-73.6,15.2-4,17.6,4.8,14.8-56,40.8-23.6,48.4,12.8,20,19.6-16.8,62h51.2v-7.6h16.4v23.6Zm-61.2,9.2-3.6-13.6-26.8-6.8-2,8.4,13.2,23.2Z"/><path class="cls-2" d="M538.51,1403.2l-28,104.4,7.6,4.8-8,13.6-17.6-10.4,28.8-110-14.4-26.4-16-4.4-34.4,128-40,23.2-50.4-13.6-2.4-8.8-39.2,22.4-49.6-13.6-13.6-50,20.4-35.2v-66.4l44-11.6,4,15.6-32.4,8.4v58.4l-19.2,32.8,9.6,35.2,34.8,9.2,36.8-21.2-6.8-25.6,20.8-34.8v-58.4h16v62.4l-19.2,32.8,8.8,35.6,35.2,9.2,28.8-16.4,36.8-137.2,37.6,10.8Zm12.4-108,15.6,4-12.8,45.2-14.8-4Zm624.6,125.2-20.4,35.2V1526h-16v-74.4l19.2-33.6-9.2-35.2-34.8-9.2-28.8,16.4-36,136-27.2-7.6,4-15.2,12,3.2,31.6-118.4-36-12.8-34.4,127.6-40,23.2-50.4-13.6-2-8.8-39.2,22.4-50-13.6-13.6-50,20.4-35.2v-66l44-11.6,4,15.2-32,8.8v58l-19.6,32.8,9.6,35.2,34.8,9.6,37.2-21.6-6.8-25.6,20.4-34.8v-58.4h16v62.4l-19.2,32.8,9.2,35.6,34.8,9.6,28.8-16.8,36.8-137.2,57.2,20,32-18.8,50.4,13.6Zm444.6,57.2h16v32l-63.6,16.4-45.2-20-35.2,20-51.6-13.2-11.2-40.4,38-37.2h67.6l12.8-46.4-36-16.8-15.2,4-20.8,35.2-14.4-7.6,24.4-41.6,26-6.8,45.2,20,34.8-20,51.6,13.6,11.2,40.4-42.8,42h-64.4l-11.2,42,36.4,16.4,47.6-12.4Zm-130.4,32,29.2-17.2,11.6-41.2h-56.4l-26.4,25.6,6,22.8Zm104.4-136.8-29.6,16-12.8,46.4h53.2l31.2-30.8-6-22.8Zm512.4,104.8h16v31.6l-62.4,16.8-39.2-10.8-3.2-12-11.2,10.8-43.6,12-25.2-6.8-23.2-40.4,27.2-100.4,40-23.2,50.4,13.6,4.8,17.2,2-7.6,40-23.2,50.4,13.6,11.2,40.4-37.2,37.2h-41.2l-29.2,16.8-3.6,13.6,6.4,26,24.4,6.4,46.4-12Zm-78-60.4-9.2-35.6-35.6-9.2-28.4,16.8-23.6,87.6,16.4,28.8,14.8,3.6,35.6-9.6,10.8-10.4Zm24-28-14,52.4,19.6-11.6h38.8l25.6-25.6-6-22.8-35.2-9.2Z"/></svg>