<?xml version="1.0" encoding="utf-8"?>
<!-- Generator: Adobe Illustrator 22.1.0, SVG Export Plug-In . SVG Version: 6.00 Build 0)  -->
<svg version="1.1" id="Calque_1" xmlns="http://www.w3.org/2000/svg" xmlns:xlink="http://www.w3.org/1999/xlink" x="0px" y="0px"
	 viewBox="0 0 2400 1800" style="enable-background:new 0 0 2400 1800;" xml:space="preserve">
<style type="text/css">
	.st0{fill:#F3F2F2;}
	.st1{fill:#162843;}
</style>
<rect class="st0" width="2400" height="1800"/>
<path class="st1" d="M286.3,1554.8l-3.5,2l-3.2-5.3l-12,7l-12.7-3.4l-2.7-10.1l9.3-9.3h10.2l7.4-4.3l1-3.3l-4.2-7.2l-3.6-0.9
	l-3.7,0.9l-5.1,8.9l-3.5-2l6-10.3l6.3-1.7l6.3,1.7l5.7,10l-5.2,19.7l1.9-1.1L286.3,1554.8z M267,1554.2l7.1-4.2l3.6-13l-5,2.7h-9.6
	l-6.4,6.5l1.5,5.7L267,1554.2z M275.8,1513.1l3.4-2l-5.7-9.7l-3.4,2L275.8,1513.1z"/>
<path class="st1" d="M347.4,1519.2l3.4,12.6l-5.1,8.9v10.2l-4.6,4.6l-11,3l-6.3-1.7l-3-5.2l-7.1,27.2l-6.9-1.7l1.1-3.9l3,0.8
	l12.4-46.9l-2.1,1.1l-5-8.7l3.4-2l3.1,5.3l12.1-7L347.4,1519.2z M335.4,1520.1l-7.2,4.2l-5.8,21.9l4.1,7.2l3.6,0.9l8.9-2.4l2.7-2.6
	v-9.7l4.8-8.3l-2.3-8.9L335.4,1520.1z"/>
<path class="st1" d="M387.4,1554.8l-3.5,2l-3.2-5.3l-12,7l-12.7-3.4l-2.7-10.1l9.3-9.3h10.2l7.4-4.3l1-3.3l-4.2-7.2l-3.6-0.9
	l-3.7,0.9l-5.1,8.9l-3.5-2l6-10.3l6.3-1.7l6.3,1.7l5.7,10l-5.2,19.7l1.9-1.1L387.4,1554.8z M368.1,1554.2l7.1-4.2l3.6-13l-5,2.7
	h-9.6l-6.4,6.5l1.5,5.7L368.1,1554.2z"/>
<path class="st1" d="M424.9,1519.2l2.3,8.2l-7.7,4.6l-1.9-3.6l5-2.8l-0.9-3.2l-8.7-2.4l-7.2,4.2l-9.3,34.3l-6.9-1.8l1.2-3.9l2.9,0.8
	l7.2-26.6l-2.1,1.2l-5-8.7l3.4-2l3.1,5.3l12.1-7L424.9,1519.2z"/>
<path class="st1" d="M450.8,1517.4h4.1v5.7h-17.7l-6.3,23.1l4.2,7.2l3.6,0.9l7-1.8l-1.3-2.3l3.4-2l4,6.8l-13.1,3.5l-6.3-1.7
	l-5.7-10.1l12.4-46.5l-3.1-0.9l1.1-3.8l6.9,1.9l-5.8,21.8h12.6L450.8,1517.4L450.8,1517.4z"/>
<path class="st1" d="M456.9,1555.9l7.5-28.1l-4.7-8l0.9-3.3l15.8,4.3l1.8,3l-3.4,2l-1-1.6l-8.1-2.1l3,5.1l-7.2,26.7l1.9,1.2l-2,3.4
	L456.9,1555.9z M472.5,1513.1l-4-1.1l3.1-11.5l4,1L472.5,1513.1z"/>
<path class="st1" d="M510.5,1519.2l2.3,8.2l-7.7,4.6l-1.9-3.6l5-2.8l-0.9-3.2l-8.7-2.4l-7.2,4.2l-9.3,34.3l-6.9-1.8l1.2-3.9l2.9,0.8
	l7.2-26.6l-2.1,1.2l-5-8.7l3.4-2l3.1,5.3l12.1-7L510.5,1519.2z"/>
<path class="st1" d="M574.6,1495.5l6.9,1.8l-1,3.8l-3.1-0.7l-12.5,46.8l1.9-1.1l5,8.7l-3.4,2l-3.2-5.3l-11.9,7l-12.6-3.4l-3.4-12.6
	l5.1-8.9v-13.7l15.6-4.1l6.3,1.7l3,5.2L574.6,1495.5z M552.7,1554.2l7.2-4.2l5.9-21.9l-4.2-7.2l-3.6-1l-11.6,3.2v11.6l-4.8,8.3
	l2.3,8.9L552.7,1554.2z"/>
<path class="st1" d="M599.7,1546.4h4v7.9l-15.6,4.2l-6.3-1.7l-5.8-10.1l6.7-25.1l10.1-5.8l12.6,3.4l2.8,10.1l-9.3,9.3h-10.3
	l-7.4,4.2l-0.9,3.4l4.1,7.2l3.7,0.9l11.6-3L599.7,1546.4L599.7,1546.4z M593.4,1520.1l-7.2,4.2l-3.5,13.1l4.8-2.9h9.7l6.4-6.4
	l-1.5-5.7L593.4,1520.1z"/>
<path class="st1" d="M658.3,1548.2l3.9,6.8l-13,3.5l-6.3-1.7l-5.7-10l12.5-46.6l-3-0.8l1.1-3.9l6.8,1.8l-13.2,48.9l4.1,7.2l3.7,0.9
	l6.9-1.8l-1.3-2.3L658.3,1548.2z"/>
<path class="st1" d="M698.3,1554.8l-3.5,2l-3.2-5.3l-12,7l-12.7-3.4l-2.7-10.1l9.3-9.3h10.2l7.4-4.3l1-3.3l-4.2-7.2l-3.6-0.9
	l-3.7,0.9l-5.1,8.9l-3.5-2l6-10.3l6.3-1.7l6.3,1.7l5.7,10l-5.2,19.7l1.9-1.1L698.3,1554.8z M679,1554.2l7.1-4.2l3.6-13l-5,2.7h-9.6
	l-6.4,6.5l1.5,5.7L679,1554.2z"/>
<path class="st1" d="M746.2,1530.3l8.2-4.8l-0.8-3.2l-14.1-3.7l-0.5,0.1l-3.5,13.2l19.6,11.3v7.7l-4.6,4.6l-11,3l-6.3-1.7l-5.9-10.1
	l1.8-6.7l4,0.9l-1.4,5.2l4.1,7.3l3.7,0.9l8.9-2.3l2.7-2.7v-3.8l-20.3-11.7l4.9-18.3l3.8-1l17.3,4.6l2.3,8.4l-10.9,6.2L746.2,1530.3z
	"/>
<path class="st1" d="M785.8,1546.4h4v7.9l-15.6,4.2l-6.3-1.7l-5.8-10.1l6.7-25.1l10.1-5.8l12.6,3.4l2.8,10.1l-9.3,9.3h-10.3
	l-7.4,4.2l-0.9,3.4l4.1,7.2l3.7,0.9l11.6-3L785.8,1546.4L785.8,1546.4z M779.5,1520.1l-7.2,4.2l-3.5,13.1l4.8-2.9h9.7l6.4-6.4
	l-1.5-5.7L779.5,1520.1z"/>
<path class="st1" d="M858,1531.9l-5.1,8.8v17.8H849v-18.9l4.7-8.3l-2.3-8.9l-8.8-2.4l-9.1,5.4l1.7,6.5l-5.1,8.8v17.8h-4v-18.9
	l4.8-8.3l-2.3-8.9l-8.8-2.4l-7.1,4.2l-9.3,34.3l-6.9-1.9l1.2-3.8l2.9,0.8l7.2-26.6l-2.1,1.2l-5-8.7l3.5-2l3,5.3l12-7l12.6,3.4
	l0.6,2.2l9.7-5.6l12.5,3.4L858,1531.9z"/>
<path class="st1" d="M894.6,1554.8l-3.5,2l-3.2-5.3l-12,7l-12.7-3.4l-2.7-10.1l9.3-9.3H880l7.4-4.3l1-3.3l-4.2-7.2l-3.6-0.9
	l-3.7,0.9l-5.1,8.9l-3.5-2l6-10.3l6.3-1.7l6.3,1.7l5.7,10l-5.2,19.7l1.9-1.1L894.6,1554.8z M875.3,1554.2l7.1-4.2l3.6-13l-5,2.7
	h-9.6l-6.4,6.5l1.5,5.7L875.3,1554.2z"/>
<path class="st1" d="M898.6,1555.9l7.5-28.1l-4.7-8l0.9-3.3l15.8,4.3l1.8,3l-3.4,2l-1-1.6l-8.1-2.1l3,5.1l-7.2,26.7l1.9,1.2l-2,3.4
	L898.6,1555.9z M914.2,1513.1l-4-1.1l3.1-11.5l4,1L914.2,1513.1z"/>
<path class="st1" d="M952.4,1519.2l3.3,12.7l-5.1,8.7v17.9h-3.9v-18.9l4.8-8.3l-2.5-9l-8.6-2.3l-7.1,4.1l-9.1,34.4l-6.8-1.9l1-3.8
	l3.1,0.8l7-26.7l-2.2,1.4l-5-8.8l3.4-1.9l3,5.2l12.2-7L952.4,1519.2z"/>
<path class="st1" d="M983.4,1546.4h4v7.9l-15.6,4.2l-6.3-1.7l-5.8-10.1l6.7-25.1l10.1-5.8l12.6,3.4l2.8,10.1l-9.3,9.3h-10.3
	l-7.4,4.2l-0.9,3.4l4.1,7.2l3.7,0.9l11.6-3L983.4,1546.4L983.4,1546.4z M977.1,1520.1l-7.2,4.2l-3.5,13.1l4.8-2.9h9.7l6.4-6.4
	l-1.5-5.7L977.1,1520.1z"/>
<path class="st1" d="M1053,1519.2l3.4,12.6l-5.1,8.9v10.2l-4.6,4.6l-11,3l-6.3-1.7l-3-5.2l-7.1,27.2l-6.9-1.7l1.1-3.9l3,0.8
	l12.4-46.9l-2.1,1.1l-5-8.7l3.4-2l3.1,5.3l12.1-7L1053,1519.2z M1041,1520.1l-7.2,4.2l-5.8,21.9l4.1,7.2l3.6,0.9l8.9-2.4l2.7-2.6
	v-9.7l4.8-8.3l-2.3-8.9L1041,1520.1z"/>
<path class="st1" d="M1093.9,1519.2l2.3,8.2l-7.7,4.6l-1.9-3.6l5-2.8l-0.9-3.2l-8.7-2.4l-7.2,4.2l-9.3,34.3l-6.9-1.8l1.2-3.9
	l2.9,0.8l7.2-26.6l-2.1,1.2l-5-8.7l3.4-2l3.1,5.3l12.1-7L1093.9,1519.2z"/>
<path class="st1" d="M1123.4,1550.9l-4.7,4.6l-11,3l-6.3-1.7l-5.7-10.1l6.7-25.1l10.1-5.8l12.6,3.4l3.4,12.7l-5.1,8.8V1550.9z
	 M1113,1520.1l-7.1,4.2l-6,21.9l4.1,7.2l3.7,0.9l9-2.4l2.7-2.6v-9.7l4.7-8.3l-2.3-8.9L1113,1520.1z"/>
<path class="st1" d="M1154.5,1528.5l5-2.9l-0.9-3.1l-8.8-2.3l-7.1,4.1l-6,21.9l4.2,7.2l3.6,0.9l11.7-3v-4.9h4v7.9l-15.7,4.2
	l-6.3-1.7l-5.7-10l6.7-25.2l10.1-5.8l12.6,3.4l2.2,8.4l-7.7,4.4L1154.5,1528.5z"/>
<path class="st1" d="M1204.9,1519.2l3.4,12.6l-5.1,8.8v17.9h-4.1v-18.9l4.9-8.4l-2.4-8.8l-8.7-2.3l-7.2,4l-9.3,34.4l-9.6-2.6
	l-1.7-2.9l3.4-2l0.9,1.5l4.1,1.1l14.3-53.5l-3-0.8l1.1-3.8l6.9,1.8l-5.7,21.3l5.2-2.8L1204.9,1519.2z"/>
<path class="st1" d="M1244.9,1554.8l-3.5,2l-3.2-5.3l-12,7l-12.7-3.4l-2.7-10.1l9.3-9.3h10.2l7.4-4.3l1-3.3l-4.2-7.2l-3.6-0.9
	l-3.7,0.9l-5.1,8.9l-3.5-2l6-10.3l6.3-1.7l6.3,1.7l5.7,10l-5.2,19.7l1.9-1.1L1244.9,1554.8z M1225.6,1554.2l7.1-4.2l3.6-13l-5,2.7
	h-9.6l-6.4,6.5l1.5,5.7L1225.6,1554.2z"/>
<path class="st1" d="M1248.9,1555.9l7.5-28.1l-4.7-8l0.9-3.3l15.8,4.3l1.8,3l-3.4,2l-1-1.6l-8.1-2.1l3,5.1l-7.2,26.7l1.9,1.2l-2,3.4
	L1248.9,1555.9z M1264.5,1513.1l-4-1.1l3.1-11.5l4,1L1264.5,1513.1z"/>
<path class="st1" d="M1302.4,1519.2l3.3,12.7l-5.1,8.7v17.9h-3.9v-18.9l4.8-8.3l-2.5-9l-8.6-2.3l-7.1,4.1l-9.1,34.4l-6.8-1.9l1-3.8
	l3.1,0.8l7-26.7l-2.2,1.4l-5-8.8l3.4-1.9l3,5.2l12.2-7L1302.4,1519.2z"/>
<path class="st1" d="M1333.4,1546.4h4v7.9l-15.6,4.2l-6.3-1.7l-5.8-10.1l6.7-25.1l10.1-5.8l12.6,3.4l2.8,10.1l-9.3,9.3h-10.3
	l-7.4,4.2l-0.9,3.4l4.1,7.2l3.7,0.9l11.6-3L1333.4,1546.4L1333.4,1546.4z M1327.1,1520.1l-7.2,4.2l-3.5,13.1l4.8-2.9h9.7l6.4-6.4
	l-1.5-5.7L1327.1,1520.1z"/>
<path class="st1" d="M1392,1548.2l3.9,6.8l-13,3.5l-6.3-1.7l-5.7-10l12.5-46.6l-3-0.8l1.1-3.9l6.8,1.8l-13.2,48.9l4.1,7.2l3.7,0.9
	l6.9-1.8l-1.3-2.3L1392,1548.2z"/>
<path class="st1" d="M1423.1,1546.4h4v7.9l-15.6,4.2l-6.3-1.7l-5.8-10.1l6.7-25.1l10.1-5.8l12.6,3.4l2.8,10.1l-9.3,9.3H1412
	l-7.4,4.2l-0.9,3.4l4.1,7.2l3.7,0.9l11.6-3L1423.1,1546.4L1423.1,1546.4z M1416.8,1520.1l-7.2,4.2l-3.5,13.1l4.8-2.9h9.7l6.4-6.4
	l-1.5-5.7L1416.8,1520.1z"/>
<path class="st1" d="M1454.5,1530.3l8.2-4.8l-0.8-3.2l-14.1-3.7l-0.5,0.1l-3.5,13.2l19.6,11.3v7.7l-4.6,4.6l-11,3l-6.3-1.7
	l-5.9-10.1l1.8-6.7l4,0.9l-1.4,5.2l4.1,7.3l3.7,0.9l8.9-2.3l2.7-2.7v-3.8l-20.3-11.7l4.9-18.3l3.8-1l17.3,4.6l2.3,8.4l-10.9,6.2
	L1454.5,1530.3z"/>
<path class="st1" d="M1528,1554.8l-3.5,2l-3.2-5.3l-12,7l-12.7-3.4l-2.7-10.1l9.3-9.3h10.2l7.4-4.3l1-3.3l-4.2-7.2l-3.6-0.9
	l-3.7,0.9l-5.1,8.9l-3.5-2l6-10.3l6.3-1.7l6.3,1.7l5.7,10l-5.2,19.7l1.9-1.1L1528,1554.8z M1508.7,1554.2l7.1-4.2l3.6-13l-5,2.7
	h-9.6l-6.4,6.5l1.5,5.7L1508.7,1554.2z"/>
<path class="st1" d="M1556.1,1517.4h4.1v5.7h-17.7l-6.3,23.1l4.2,7.2l3.6,0.9l7-1.8l-1.3-2.3l3.4-2l4,6.8l-13.1,3.5l-6.3-1.7
	l-5.7-10.1l12.4-46.5l-3.1-0.9l1.1-3.8l6.9,1.9l-5.8,21.8h12.6L1556.1,1517.4L1556.1,1517.4z"/>
<path class="st1" d="M1585.9,1546.4h4v7.9l-15.6,4.2l-6.3-1.7l-5.8-10.1l6.7-25.1l10.1-5.8l12.6,3.4l2.8,10.1l-9.3,9.3h-10.3
	l-7.4,4.2l-0.9,3.4l4.1,7.2l3.7,0.9l11.6-3L1585.9,1546.4L1585.9,1546.4z M1579.6,1520.1l-7.2,4.2l-3.5,13.1l4.8-2.9h9.7l6.4-6.4
	l-1.5-5.7L1579.6,1520.1z"/>
<path class="st1" d="M1619.5,1548.2l3.9,6.8l-13,3.5l-6.3-1.7l-5.7-10l12.5-46.6l-3-0.8l1.1-3.9l6.8,1.8l-13.2,48.9l4.1,7.2l3.7,0.9
	l6.9-1.8l-1.3-2.3L1619.5,1548.2z"/>
<path class="st1" d="M1626.9,1555.9l7.5-28.1l-4.7-8l0.9-3.3l15.8,4.3l1.8,3l-3.4,2l-1-1.6l-8.1-2.1l3,5.1l-7.2,26.7l1.9,1.2l-2,3.4
	L1626.9,1555.9z M1642.5,1513.1l-4-1.1l3.1-11.5l4,1L1642.5,1513.1z"/>
<path class="st1" d="M1670.4,1546.4h4v7.9l-15.6,4.2l-6.3-1.7l-5.8-10.1l6.7-25.1l10.1-5.8l12.6,3.4l2.8,10.1l-9.3,9.3h-10.3
	l-7.4,4.2l-0.9,3.4l4.1,7.2l3.7,0.9l11.6-3L1670.4,1546.4L1670.4,1546.4z M1664.1,1520.1l-7.2,4.2l-3.5,13.1l4.8-2.9h9.7l6.4-6.4
	l-1.5-5.7L1664.1,1520.1z"/>
<path class="st1" d="M1716.4,1519.2l2.3,8.2l-7.7,4.6l-1.9-3.6l5-2.8l-0.9-3.2l-8.7-2.4l-7.2,4.2l-9.3,34.3l-6.9-1.8l1.2-3.9
	l2.9,0.8l7.2-26.6l-2.1,1.2l-5-8.7l3.4-2l3.1,5.3l12.1-7L1716.4,1519.2z"/>
<path class="st1" d="M1737.1,1530.3l8.2-4.8l-0.8-3.2l-14.1-3.7l-0.5,0.1l-3.5,13.2l19.6,11.3v7.7l-4.6,4.6l-11,3l-6.3-1.7
	l-5.9-10.1l1.8-6.7l4,0.9l-1.4,5.2l4.1,7.3l3.7,0.9l8.9-2.3l2.7-2.7v-3.8l-20.3-11.7l4.9-18.3l3.8-1l17.3,4.6l2.3,8.4l-10.9,6.2
	L1737.1,1530.3z"/>
<path class="st1" d="M1815.3,1495.5l6.9,1.8l-1,3.8l-3.1-0.7l-12.5,46.8l1.9-1.1l5,8.7l-3.4,2l-3.2-5.3l-11.9,7l-12.6-3.4l-3.4-12.6
	l5.1-8.9v-13.7l15.6-4.1l6.3,1.7l3,5.2L1815.3,1495.5z M1793.4,1554.2l7.2-4.2l5.9-21.9l-4.2-7.2l-3.6-1l-11.6,3.2v11.6l-4.8,8.3
	l2.3,8.9L1793.4,1554.2z"/>
<path class="st1" d="M1840.4,1546.4h4v7.9l-15.6,4.2l-6.3-1.7l-5.8-10.1l6.7-25.1l10.1-5.8l12.6,3.4l2.8,10.1l-9.3,9.3h-10.3
	l-7.4,4.2l-0.9,3.4l4.1,7.2l3.7,0.9l11.6-3L1840.4,1546.4L1840.4,1546.4z M1834.1,1520.1l-7.2,4.2l-3.5,13.1l4.8-2.9h9.7l6.4-6.4
	l-1.5-5.7L1834.1,1520.1z"/>
<path class="st1" d="M1902,1517.4h4.1v5.7h-17.7l-6.3,23.1l4.2,7.2l3.6,0.9l7-1.8l-1.3-2.3l3.4-2l4,6.8l-13.1,3.5l-6.3-1.7
	l-5.7-10.1l12.4-46.5l-3.1-0.9l1.1-3.8l6.9,1.9l-5.8,21.8h12.6L1902,1517.4L1902,1517.4z"/>
<path class="st1" d="M1908.1,1555.9l7.5-28.1l-4.7-8l0.9-3.3l15.8,4.3l1.8,3l-3.4,2l-1-1.6l-8.1-2.1l3,5.1l-7.2,26.7l1.9,1.2l-2,3.4
	L1908.1,1555.9z M1923.7,1513.1l-4-1.1l3.1-11.5l4,1L1923.7,1513.1z"/>
<path class="st1" d="M1946.8,1530.3l8.2-4.8l-0.8-3.2l-14.1-3.7l-0.5,0.1l-3.5,13.2l19.6,11.3v7.7l-4.6,4.6l-11,3l-6.3-1.7
	l-5.9-10.1l1.8-6.7l4,0.9l-1.4,5.2l4.1,7.3l3.7,0.9l8.9-2.3l2.7-2.7v-3.8l-20.3-11.7l4.9-18.3l3.8-1l17.3,4.6l2.3,8.4l-10.9,6.2
	L1946.8,1530.3z"/>
<path class="st1" d="M1981.6,1530.3l8.2-4.8l-0.8-3.2l-14.1-3.7l-0.5,0.1l-3.5,13.2l19.6,11.3v7.7l-4.6,4.6l-11,3l-6.3-1.7
	l-5.9-10.1l1.8-6.7l4,0.9l-1.4,5.2l4.1,7.3l3.7,0.9l8.9-2.3l2.7-2.7v-3.8l-20.3-11.7l4.9-18.3l3.8-1l17.3,4.6l2.3,8.4l-10.9,6.2
	L1981.6,1530.3z"/>
<path class="st1" d="M2030.1,1554.8l-3.5,2l-3.2-5.3l-12,7l-12.7-3.4l-2.7-10.1l9.3-9.3h10.2l7.4-4.3l1-3.3l-4.2-7.2l-3.6-0.9
	l-3.7,0.9l-5.1,8.9l-3.5-2l6-10.3l6.3-1.7l6.3,1.7l5.7,10l-5.2,19.7l1.9-1.1L2030.1,1554.8z M2010.8,1554.2l7.1-4.2l3.6-13l-5,2.7
	h-9.6l-6.4,6.5l1.5,5.7L2010.8,1554.2z"/>
<path class="st1" d="M2067.2,1527.6l-12.1,45.5l-10,5.7l-6.3-1.6l-4.7-4.7l0.1-4.9l11.1-3l1,3.9l-8.1,2.2v0.3l2.6,2.6l3.7,1l7.2-4.1
	l3.9-15l-5.1,3l-12.7-3.4l-3.4-12.7l8.7-14.8l-2.2-7.9l14.3-3.9l6.3,1.7L2067.2,1527.6z M2049.9,1554.2l7.2-4.2l5.9-21.9l-4.1-7.2
	l-3.7-0.9l-9.3,2.5l1.4,5.6l-8.5,14.9l2.3,8.9L2049.9,1554.2z"/>
<path class="st1" d="M2094.4,1546.4h4v7.9l-15.6,4.2l-6.3-1.7l-5.8-10.1l6.7-25.1l10.1-5.8l12.6,3.4l2.8,10.1l-9.3,9.3h-10.3
	l-7.4,4.2l-0.9,3.4l4.1,7.2l3.7,0.9l11.6-3L2094.4,1546.4L2094.4,1546.4z M2088.1,1520.1l-7.2,4.2l-3.5,13.1l4.8-2.9h9.7l6.4-6.4
	l-1.5-5.7L2088.1,1520.1z"/>
<path class="st1" d="M286.3,1654.8l-3.5,2l-3.2-5.3l-12,7l-12.7-3.4l-2.7-10.1l9.3-9.3h10.2l7.4-4.3l1-3.3l-4.2-7.2l-3.6-0.9
	l-3.7,0.9l-5.1,8.9l-3.5-2l6-10.3l6.3-1.7l6.3,1.7l5.7,10l-5.2,19.7l1.9-1.1L286.3,1654.8z M267,1654.2l7.1-4.2l3.6-13l-5,2.7h-9.6
	l-6.4,6.5l1.5,5.7L267,1654.2z"/>
<path class="st1" d="M324.7,1620.7l-7,26.6l2.1-1.2l5,8.7l-3.4,2l-3.2-5.3l-12,7l-12.5-3.4l-3.4-12.5l5.1-8.9v-17.9h4v19l-4.9,8.3
	l2.4,8.8l8.7,2.3l7.2-4.1l9.1-34.3l6.9,1.8l-1,3.9L324.7,1620.7z"/>
<path class="st1" d="M364.1,1619.2l2.3,8.2l-7.7,4.6l-1.9-3.6l5-2.8l-0.9-3.2l-8.7-2.4l-7.2,4.2l-9.3,34.3l-6.9-1.8l1.2-3.9l2.9,0.8
	l7.2-26.6l-2.1,1.2l-5-8.7l3.4-2l3.1,5.3l12.1-7L364.1,1619.2z"/>
<path class="st1" d="M393.6,1650.9l-4.7,4.6l-11,3l-6.3-1.7l-5.7-10.1l6.7-25.1l10.1-5.8l12.6,3.4l3.4,12.7l-5.1,8.8V1650.9z
	 M383.2,1620.1l-7.1,4.2l-6,21.9l4.1,7.2l3.7,0.9l9-2.4l2.7-2.6v-9.7l4.7-8.3l-2.3-8.9L383.2,1620.1z"/>
<path class="st1" d="M435.9,1619.2l3.3,12.7l-5.1,8.7v17.9h-3.9v-18.9l4.8-8.3l-2.5-9l-8.6-2.3l-7.1,4.1l-9.1,34.4l-6.8-1.9l1-3.8
	l3.1,0.8l7-26.7l-2.2,1.4l-5-8.8l3.4-1.9l3,5.2l12.2-7L435.9,1619.2z"/>
<path class="st1" d="M467.3,1617.4h4.1v5.7h-17.7l-6.3,23.1l4.2,7.2l3.6,0.9l7-1.8l-1.3-2.3l3.4-2l4,6.8l-13.1,3.5l-6.3-1.7
	l-5.7-10.1l12.4-46.5l-3.1-0.9l1.1-3.8l6.9,1.9l-5.8,21.8h12.6L467.3,1617.4L467.3,1617.4z"/>
<path class="st1" d="M519.5,1648.2l3.9,6.8l-13,3.5l-6.3-1.7l-5.7-10l12.5-46.6l-3-0.8l1.1-3.9l6.8,1.8l-13.2,48.9l4.1,7.2l3.7,0.9
	l6.9-1.8l-1.3-2.3L519.5,1648.2z"/>
<path class="st1" d="M526.9,1655.9l7.5-28.1l-4.7-8l0.9-3.3l15.8,4.3l1.8,3l-3.4,2l-1-1.6l-8.1-2.1l3,5.1l-7.2,26.7l1.9,1.2l-2,3.4
	L526.9,1655.9z M542.5,1613.1l-4-1.1l3.1-11.5l4,1L542.5,1613.1z"/>
<path class="st1" d="M570.4,1646.4h4v7.9l-15.6,4.2l-6.3-1.7l-5.8-10.1l6.7-25.1l10.1-5.8l12.6,3.4l2.8,10.1l-9.3,9.3h-10.3
	l-7.4,4.2l-0.9,3.4l4.1,7.2l3.7,0.9l11.6-3L570.4,1646.4L570.4,1646.4z M564.1,1620.1l-7.2,4.2l-3.5,13.1l4.8-2.9h9.7l6.4-6.4
	l-1.5-5.7L564.1,1620.1z"/>
<path class="st1" d="M617.3,1620.7l-7,26.6l2.1-1.2l5,8.7l-3.4,2l-3.2-5.3l-12,7l-12.5-3.4l-3.4-12.5l5.1-8.9v-17.9h4v19l-4.9,8.3
	l2.4,8.8l8.7,2.3l7.2-4.1l9.1-34.3l6.9,1.8l-1,3.9L617.3,1620.7z"/>
<path class="st1" d="M685.5,1595.5l6.9,1.8l-1,3.8l-3.1-0.7l-12.5,46.8l1.9-1.1l5,8.7l-3.4,2l-3.2-5.3l-11.9,7l-12.6-3.4l-3.4-12.6
	l5.1-8.9v-13.7l15.6-4.1l6.3,1.7l3,5.2L685.5,1595.5z M663.6,1654.2l7.2-4.2l5.9-21.9l-4.2-7.2l-3.6-1l-11.6,3.2v11.6l-4.8,8.3
	l2.3,8.9L663.6,1654.2z"/>
<path class="st1" d="M719.5,1654.8l-3.5,2l-3.2-5.3l-12,7l-12.7-3.4l-2.7-10.1l9.3-9.3h10.2l7.4-4.3l1-3.3l-4.2-7.2l-3.6-0.9
	l-3.7,0.9l-5.1,8.9l-3.5-2l6-10.3l6.3-1.7l6.3,1.7l5.7,10l-5.2,19.7l1.9-1.1L719.5,1654.8z M700.2,1654.2l7.1-4.2l3.6-13l-5,2.7
	h-9.6l-6.4,6.5l1.5,5.7L700.2,1654.2z"/>
<path class="st1" d="M756.7,1619.2l3.3,12.7l-5.1,8.7v17.9H751v-18.9l4.8-8.3l-2.5-9l-8.6-2.3l-7.1,4.1l-9.1,34.4l-6.8-1.9l1-3.8
	l3.1,0.8l7-26.7l-2.2,1.4l-5-8.8l3.4-1.9l3,5.2l12.2-7L756.7,1619.2z"/>
<path class="st1" d="M782.9,1630.3l8.2-4.8l-0.8-3.2l-14.1-3.7l-0.5,0.1l-3.5,13.2l19.6,11.3v7.7l-4.6,4.6l-11,3l-6.3-1.7l-5.9-10.1
	l1.8-6.7l4,0.9l-1.4,5.2l4.1,7.3l3.7,0.9l8.9-2.3l2.7-2.7v-3.8l-20.3-11.7l4.9-18.3l3.8-1l17.3,4.6l2.3,8.4l-10.9,6.2L782.9,1630.3z
	"/>
<path class="st1" d="M844.9,1648.2l3.9,6.8l-13,3.5l-6.3-1.7l-5.7-10l12.5-46.6l-3-0.8l1.1-3.9l6.8,1.8l-13.2,48.9l4.1,7.2l3.7,0.9
	l6.9-1.8l-1.3-2.3L844.9,1648.2z"/>
<path class="st1" d="M884.9,1654.8l-3.5,2l-3.2-5.3l-12,7l-12.7-3.4l-2.7-10.1l9.3-9.3h10.2l7.4-4.3l1-3.3l-4.2-7.2l-3.6-0.9
	l-3.7,0.9l-5.1,8.9l-3.5-2l6-10.3l6.3-1.7l6.3,1.7l5.7,10l-5.2,19.7l1.9-1.1L884.9,1654.8z M865.6,1654.2l7.1-4.2l3.6-13l-5,2.7
	h-9.6l-6.4,6.5l1.5,5.7L865.6,1654.2z"/>
<path class="st1" d="M932.8,1630.3l8.2-4.8l-0.8-3.2l-14.1-3.7l-0.5,0.1l-3.5,13.2l19.6,11.3v7.7l-4.6,4.6l-11,3l-6.3-1.7l-5.9-10.1
	l1.8-6.7l4,0.9l-1.4,5.2l4.1,7.3l3.7,0.9l8.9-2.3l2.7-2.7v-3.8l-20.3-11.7l4.9-18.3l3.8-1l17.3,4.6l2.3,8.4l-10.9,6.2L932.8,1630.3z
	"/>
<path class="st1" d="M981.3,1654.8l-3.5,2l-3.2-5.3l-12,7l-12.7-3.4l-2.7-10.1l9.3-9.3h10.2l7.4-4.3l1-3.3l-4.2-7.2l-3.6-0.9
	l-3.7,0.9l-5.1,8.9l-3.5-2l6-10.3l6.3-1.7l6.3,1.7l5.7,10l-5.2,19.7l1.9-1.1L981.3,1654.8z M962,1654.2l7.1-4.2l3.6-13l-5,2.7h-9.6
	l-6.4,6.5l1.5,5.7L962,1654.2z"/>
<path class="st1" d="M1006.4,1648.2l3.9,6.8l-13,3.5l-6.3-1.7l-5.7-10l12.5-46.6l-3-0.8l1.1-3.9l6.8,1.8l-13.2,48.9l4.1,7.2l3.7,0.9
	l6.9-1.8l-1.3-2.3L1006.4,1648.2z"/>
<path class="st1" d="M1034.9,1648.2l3.9,6.8l-13,3.5l-6.3-1.7l-5.7-10l12.5-46.6l-3-0.8l1.1-3.9l6.8,1.8l-13.2,48.9l4.1,7.2l3.7,0.9
	l6.9-1.8l-1.3-2.3L1034.9,1648.2z"/>
<path class="st1" d="M1066,1646.4h4v7.9l-15.6,4.2l-6.3-1.7l-5.8-10.1l6.7-25.1l10.1-5.8l12.6,3.4l2.8,10.1l-9.3,9.3h-10.3l-7.4,4.2
	l-0.9,3.4l4.1,7.2l3.7,0.9l11.6-3L1066,1646.4L1066,1646.4z M1059.7,1620.1l-7.2,4.2l-3.5,13.1l4.8-2.9h9.7l6.4-6.4l-1.5-5.7
	L1059.7,1620.1z"/>
<path class="st1" d="M1143,1627.6l-16.8,9.6l9.7,16.7l0.7-0.2v-4.8h4v7.9l-6.6,1.7l-11.3-19.3l-6.1,3.4l-4.3,15.9l-9.6-2.5l-1.7-3
	l3.5-1.9l0.9,1.4l4.1,1.1l14.3-53.4l-3-0.8l1.1-3.9l6.9,1.8l-5.8,21.3l5.2-2.8l12.6,3.4L1143,1627.6z M1137.5,1622.5l-8.7-2.3
	l-7.2,3.9l-3.5,13l20.3-11.5L1137.5,1622.5z"/>
<path class="st1" d="M1170.2,1646.4h4v7.9l-15.6,4.2l-6.3-1.7l-5.8-10.1l6.7-25.1l10.1-5.8l12.6,3.4l2.8,10.1l-9.3,9.3h-10.3
	l-7.4,4.2l-0.9,3.4l4.1,7.2l3.7,0.9l11.6-3L1170.2,1646.4L1170.2,1646.4z M1163.9,1620.1l-7.2,4.2l-3.5,13.1l4.8-2.9h9.7l6.4-6.4
	l-1.5-5.7L1163.9,1620.1z"/>
<path class="st1" d="M1215.9,1619.2l3.3,12.7l-5.1,8.7v17.9h-3.9v-18.9l4.8-8.3l-2.5-9l-8.6-2.3l-7.1,4.1l-9.1,34.4l-6.8-1.9l1-3.8
	l3.1,0.8l7-26.7l-2.2,1.4l-5-8.8l3.4-1.9l3,5.2l12.2-7L1215.9,1619.2z"/>
<path class="st1" d="M1247.3,1617.4h4.1v5.7h-17.7l-6.3,23.1l4.2,7.2l3.6,0.9l7-1.8l-1.3-2.3l3.4-2l4,6.8l-13.1,3.5l-6.3-1.7
	l-5.7-10.1l12.4-46.5l-3.1-0.9l1.1-3.8l6.9,1.9l-5.8,21.8h12.6L1247.3,1617.4L1247.3,1617.4z"/>
<path class="st1" d="M1277.1,1646.4h4v7.9l-15.6,4.2l-6.3-1.7l-5.8-10.1l6.7-25.1l10.1-5.8l12.6,3.4l2.8,10.1l-9.3,9.3H1266
	l-7.4,4.2l-0.9,3.4l4.1,7.2l3.7,0.9l11.6-3L1277.1,1646.4L1277.1,1646.4z M1270.8,1620.1l-7.2,4.2l-3.5,13.1l4.8-2.9h9.7l6.4-6.4
	l-1.5-5.7L1270.8,1620.1z M1284.2,1606.5l-10.6,6.6l-2.3-3.5l10.7-6.8L1284.2,1606.5z"/>
<path class="st1" d="M1335.7,1648.2l3.9,6.8l-13,3.5l-6.3-1.7l-5.7-10l12.5-46.6l-3-0.8l1.1-3.9l6.8,1.8l-13.2,48.9l4.1,7.2l3.7,0.9
	l6.9-1.8l-1.3-2.3L1335.7,1648.2z"/>
<path class="st1" d="M1366.8,1646.4h4v7.9l-15.6,4.2l-6.3-1.7l-5.8-10.1l6.7-25.1l10.1-5.8l12.6,3.4l2.8,10.1l-9.3,9.3h-10.3
	l-7.4,4.2l-0.9,3.4l4.1,7.2l3.7,0.9l11.6-3L1366.8,1646.4L1366.8,1646.4z M1360.5,1620.1l-7.2,4.2l-3.5,13.1l4.8-2.9h9.7l6.4-6.4
	l-1.5-5.7L1360.5,1620.1z"/>
<path class="st1" d="M1464,1631.9l-5.1,8.8v17.8h-3.9v-18.9l4.7-8.3l-2.3-8.9l-8.8-2.4l-9.1,5.4l1.7,6.5l-5.1,8.8v17.8h-4v-18.9
	l4.8-8.3l-2.3-8.9l-8.8-2.4l-7.1,4.2l-9.3,34.3l-6.9-1.9l1.2-3.8l2.9,0.8l7.2-26.6l-2.1,1.2l-5-8.7l3.5-2l3,5.3l12-7l12.6,3.4
	l0.6,2.2l9.7-5.6l12.5,3.4L1464,1631.9z"/>
<path class="st1" d="M1491.7,1646.4h4v7.9l-15.6,4.2l-6.3-1.7l-5.8-10.1l6.7-25.1l10.1-5.8l12.6,3.4l2.8,10.1l-9.3,9.3h-10.3
	l-7.4,4.2l-0.9,3.4l4.1,7.2l3.7,0.9l11.6-3L1491.7,1646.4L1491.7,1646.4z M1485.4,1620.1l-7.2,4.2l-3.5,13.1l4.8-2.9h9.7l6.4-6.4
	l-1.5-5.7L1485.4,1620.1z"/>
<path class="st1" d="M1537.7,1619.2l2.3,8.2l-7.7,4.6l-1.9-3.6l5-2.8l-0.9-3.2l-8.7-2.4l-7.2,4.2l-9.3,34.3l-6.9-1.8l1.2-3.9
	l2.9,0.8l7.2-26.6l-2.1,1.2l-5-8.7l3.4-2l3.1,5.3l12.1-7L1537.7,1619.2z"/>
<path class="st1" d="M1561.5,1628.5l5-2.9l-0.9-3.1l-8.8-2.3l-7.1,4.1l-6,21.9l4.2,7.2l3.6,0.9l11.7-3v-4.9h4v7.9l-15.7,4.2
	l-6.3-1.7l-5.7-10l6.7-25.2l10.1-5.8l12.6,3.4l2.2,8.4l-7.7,4.4L1561.5,1628.5z"/>
<path class="st1" d="M1608.1,1619.2l2.3,8.2l-7.7,4.6l-1.9-3.6l5-2.8l-0.9-3.2l-8.7-2.4l-7.2,4.2l-9.3,34.3l-6.9-1.8l1.2-3.9
	l2.9,0.8l7.2-26.6l-2.1,1.2l-5-8.7l3.4-2l3.1,5.3l12.1-7L1608.1,1619.2z"/>
<path class="st1" d="M1633.6,1646.4h4v7.9l-15.6,4.2l-6.3-1.7l-5.8-10.1l6.7-25.1l10.1-5.8l12.6,3.4l2.8,10.1l-9.3,9.3h-10.3
	l-7.4,4.2l-0.9,3.4l4.1,7.2l3.7,0.9l11.6-3L1633.6,1646.4L1633.6,1646.4z M1627.3,1620.1l-7.2,4.2l-3.5,13.1l4.8-2.9h9.7l6.4-6.4
	l-1.5-5.7L1627.3,1620.1z"/>
<path class="st1" d="M1683.4,1595.5l6.9,1.8l-1,3.8l-3.1-0.7l-12.5,46.8l1.9-1.1l5,8.7l-3.4,2l-3.2-5.3l-11.9,7l-12.6-3.4l-3.4-12.6
	l5.1-8.9v-13.7l15.6-4.1l6.3,1.7l3,5.2L1683.4,1595.5z M1661.5,1654.2l7.2-4.2l5.9-21.9l-4.2-7.2l-3.6-1l-11.6,3.2v11.6l-4.8,8.3
	l2.3,8.9L1661.5,1654.2z"/>
<path class="st1" d="M1684.8,1655.9l7.5-28.1l-4.7-8l0.9-3.3l15.8,4.3l1.8,3l-3.4,2l-1-1.6l-8.1-2.1l3,5.1l-7.2,26.7l1.9,1.2l-2,3.4
	L1684.8,1655.9z M1700.4,1613.1l-4-1.1l3.1-11.5l4,1L1700.4,1613.1z"/>
<path class="st1" d="M1789.3,1631.9l-5.1,8.8v17.8h-3.9v-18.9l4.7-8.3l-2.3-8.9l-8.8-2.4l-9.1,5.4l1.7,6.5l-5.1,8.8v17.8h-4v-18.9
	l4.8-8.3l-2.3-8.9l-8.8-2.4l-7.1,4.2l-9.3,34.3l-6.9-1.9l1.2-3.8l2.9,0.8l7.2-26.6l-2.1,1.2l-5-8.7l3.5-2l3,5.3l12-7l12.6,3.4
	l0.6,2.2l9.7-5.6l12.5,3.4L1789.3,1631.9z"/>
<path class="st1" d="M1825.9,1654.8l-3.5,2l-3.2-5.3l-12,7l-12.7-3.4l-2.7-10.1l9.3-9.3h10.2l7.4-4.3l1-3.3l-4.2-7.2l-3.6-0.9
	l-3.7,0.9l-5.1,8.9l-3.5-2l6-10.3l6.3-1.7l6.3,1.7l5.7,10l-5.2,19.7l1.9-1.1L1825.9,1654.8z M1806.6,1654.2l7.1-4.2l3.6-13l-5,2.7
	h-9.6l-6.4,6.5l1.5,5.7L1806.6,1654.2z"/>
<path class="st1" d="M1854,1617.4h4.1v5.7h-17.7l-6.3,23.1l4.2,7.2l3.6,0.9l7-1.8l-1.3-2.3l3.4-2l4,6.8l-13.1,3.5l-6.3-1.7
	l-5.7-10.1l12.4-46.5l-3.1-0.9l1.1-3.8l6.9,1.9l-5.8,21.8h12.6L1854,1617.4L1854,1617.4z"/>
<path class="st1" d="M1860,1655.9l7.5-28.1l-4.7-8l0.9-3.3l15.8,4.3l1.8,3l-3.4,2l-1-1.6l-8.1-2.1l3,5.1l-7.2,26.7l1.9,1.2l-2,3.4
	L1860,1655.9z M1875.7,1613.1l-4-1.1l3.1-11.5l4,1L1875.7,1613.1z"/>
<path class="st1" d="M1913.7,1619.2l3.3,12.7l-5.1,8.7v17.9h-3.9v-18.9l4.8-8.3l-2.5-9l-8.6-2.3l-7.1,4.1l-9.1,34.4l-6.8-1.9l1-3.8
	l3.1,0.8l7-26.7l-2.2,1.4l-5-8.8l3.4-1.9l3,5.2l12.2-7L1913.7,1619.2z"/>
<path class="st1" d="M1525.7,1155.4l-31-117.9L1627.1,903h198.6l103.4-55.8l-74.5,268.9l-146.9,86.9L1525.7,1155.4z M1997.3,1035.4
	l-39.3,22.8l107.6-407.5l-117.9-206.9l-130.3-35.2l-130.3,35.2L1563,656.9l72.4,41.4l105.5-184.1l76.5-18.6l74.5,18.6l86.9,148.9
	l-20.8,68.3l-153,88.9h-211l-192.4,192.4l55.8,208.9l262.7,70.3l248.2-144.8l66.2,109.6l72.4-41.4L1997.3,1035.4z M1678.8,247.3
	L1904.2,117l88.9,151l115.8-66.2l39.3,68.3l-186.1,107.6l-88.9-151l-155.1,88.9L1678.8,247.3z"/>
<polygon class="st1" points="299.6,148.5 292.4,175.3 294.3,176.6 292.2,180 287.8,177.3 295.3,149.1 292.7,144.6 272,144.6 
	262.4,180 252.8,177.4 251.2,174.3 254.5,172.5 255.5,173.9 259.5,175 273.6,122.7 283.8,117 290.1,118.6 295,123.4 294.8,128.5 
	283.5,131.3 282.5,127.5 290.7,125.3 290.7,124.9 288.1,122.2 284.3,121.2 277,125.4 273.1,140.5 295.2,140.5 "/>
<polygon class="st1" points="302.9,122 306.8,123 303.5,134.6 299.7,133.6 "/>
<polygon class="st1" points="326.4,169.7 330.3,176.5 317.3,180 311,178.3 305.3,168.3 317.8,121.7 314.8,120.9 315.9,117 
	322.7,118.8 309.5,167.7 313.6,174.9 317.3,175.8 324.2,174 322.9,171.7 "/>
<path class="st1" d="M303.6,386.3l-5.2,3l-4.8-8l-18,10.5l-19-5.1l-4-15.1l13.9-13.9h15.3l11.1-6.5l1.5-4.9l-6.3-10.8l-5.4-1.4
	l-5.5,1.4l-7.6,13.3l-5.2-3l9-15.4l9.4-2.6l9.4,2.6l8.5,15l-7.8,29.5l2.9-1.7L303.6,386.3z M274.6,385.4l10.6-6.3l5.4-19.5l-7.5,4
	h-14.4l-9.6,9.8l2.2,8.5L274.6,385.4z"/>
<path class="st1" d="M387.6,332.9l5.1,19l-7.6,13.2v15.3l-6.9,7l-16.5,4.3l-9.3-2.5l-8.8-15l18.9-69.9l-4.6-1.4l1.6-5.7l10.2,2.8
	l-8.7,32.1l7.8-4.5L387.6,332.9z M369.6,334.3l-10.8,6.3l-8.7,32.8l6.1,10.8l5.4,1.3l13.3-3.5l4-4v-14.4l7.2-12.6l-3.4-13.3
	L369.6,334.3z"/>
<path class="st1" d="M464.8,346.9l7.5-4.3l-1.3-4.7l-13.2-3.4l-10.6,6.1l-9,32.8l6.3,10.8l5.4,1.3l17.5-4.5v-7.3h6v11.8l-23.5,6.3
	l-9.4-2.5l-8.5-15l10-37.8l15.1-8.7l18.9,5.1l3.3,12.6l-11.5,6.6L464.8,346.9z"/>
<path class="st1" d="M574.3,297.4l10.3,2.7l-1.5,5.7l-4.6-1L559.8,375l2.8-1.7l7.5,13l-5.1,3l-4.8-8l-17.8,10.5l-18.9-5.1l-5.1-18.9
	l7.6-13.3V334l23.4-6.2l9.4,2.6l4.5,7.8L574.3,297.4z M541.5,385.4l10.8-6.3l8.8-32.8l-6.3-10.8l-5.4-1.5l-17.4,4.8v17.4l-7.2,12.4
	l3.4,13.3L541.5,385.4z"/>
<path class="st1" d="M645.9,373.7h6v11.8l-23.4,6.3l-9.4-2.5l-8.7-15.1l10-37.6l15.1-8.7l18.9,5.1l4.2,15.1L644.7,362h-15.4
	l-11.1,6.3l-1.4,5.1l6.1,10.8l5.5,1.3l17.4-4.5v-7.3H645.9z M636.4,334.3l-10.8,6.3l-5.2,19.6l7.2-4.3h14.5l9.6-9.6l-2.2-8.5
	L636.4,334.3z"/>
<path class="st1" d="M752.5,338.8H726l-14.4,53.1l-14.2-3.9l-2.5-4.5l5.2-2.7l1.2,2.1l6.1,1.7l21-78.6l15-8.5l9.4,2.4l7,6.9
	l-0.1,7.6l-16.6,4.3l-1.5-5.7l12.1-3.5v-0.3l-4-4l-5.4-1.5l-10.8,6.1l-6,22.9h18.9v-2.5h6.1V338.8z"/>
<path class="st1" d="M832.2,345.5L814,413.8l-15,8.5l-9.4-2.4l-7-7l0.1-7.3l16.6-4.5l1.5,5.8l-12.1,3.3v0.5l3.9,3.9l5.5,1.5
	l10.8-6.2l5.8-22.5l-7.6,4.5l-19-5.1l-5.1-19l13-22.2l-3.3-11.8l21.4-5.9l9.4,2.6L832.2,345.5z M806.2,385.4l10.8-6.3l8.8-32.8
	l-6.1-10.8l-5.5-1.4l-13.9,3.8l2.1,8.4l-12.7,22.3L793,382L806.2,385.4z"/>
<path class="st1" d="M927.3,332.9l5.1,18.9l-7.6,13.2v26.8h-6.1v-28.3l7.3-12.6l-3.6-13.2l-13-3.5l-10.8,6l-13.9,51.6l-14.4-3.9
	l-2.5-4.4l5.1-3l1.4,2.2l6.1,1.7l21.4-80.2l-4.5-1.2l1.6-5.7l10.3,2.7l-8.5,31.9l7.8-4.2L927.3,332.9z"/>
<path class="st1" d="M972.3,388l11.2-42.1l-7-12l1.4-4.9l23.7,6.4l2.7,4.5l-5.1,3l-1.5-2.4l-12.1-3.1l4.5,7.6l-10.8,40l2.9,1.8
	l-3,5.1L972.3,388z M995.7,323.8l-6-1.6l4.6-17.2l6,1.5L995.7,323.8z"/>
<path class="st1" d="M274.3,488l4.4,7.6l-18,67.8l-15,8.8l-9.4-2.7l-7-6.8v-7.6l16.8-4.5l1.5,5.8l-12.3,3.3v0.3l4,4l5.5,1.5
	l10.6-6.1l16.6-63.1l-6.1-10.8l-7.6-2.1l1.5-5.7l30.6,8.2l2.6,4.3l-5.2,3l-1.4-2.2L274.3,488z M284.4,473.8l-5.7-1.5l4.6-17.2
	l5.8,1.5L284.4,473.8z"/>
<path class="st1" d="M390.9,495.5l-25.2,14.4l14.5,25l1.1-0.3v-7.2h6v11.8l-9.9,2.5l-16.9-28.9l-9.1,5.1l-6.4,23.8l-14.4-3.8
	l-2.5-4.5l5.2-2.8l1.3,2.1l6.1,1.7l21.4-80.1l-4.5-1.2l1.6-5.8l10.3,2.7l-8.7,31.9l7.8-4.2l18.9,5.1L390.9,495.5z M382.6,487.9
	l-13-3.4l-10.8,5.8l-5.2,19.5l30.4-17.2L382.6,487.9z"/>
<path class="st1" d="M467.2,526.4l5.9,10.2l-19.5,5.2l-9.4-2.5l-8.5-15l18.7-69.9l-4.5-1.2l1.6-5.8l10.2,2.7l-19.8,73.3l6.1,10.8
	l5.5,1.3l10.3-2.7l-1.9-3.4L467.2,526.4z"/>
<path class="st1" d="M607.3,502l-7.6,13.2v26.7h-5.8v-28.3l7-12.5l-3.5-13.3l-13.2-3.6l-13.6,8.1l2.5,9.8l-7.6,13.2V542h-6v-28.3
	l7.2-12.5l-3.4-13.3l-13.2-3.6l-10.6,6.3L525.6,542l-10.3-2.8l1.8-5.7l4.3,1.2l10.8-39.9l-3.1,1.8l-7.5-13l5.2-3l4.5,7.9l18-10.5
	l18.9,5.1l0.9,3.3l14.5-8.4l18.7,5.1L607.3,502z"/>
<path class="st1" d="M702.6,482.9l4.9,19l-7.6,13v26.8H694v-28.3l7.2-12.5l-3.7-13.5l-12.9-3.5l-10.6,6.2l-13.6,51.6l-10.2-2.8
	l1.5-5.7l4.6,1.2l10.5-40l-3.3,2.1l-7.5-13.2l5.1-2.8l4.5,7.8l18.3-10.5L702.6,482.9z"/>
<path class="st1" d="M794.4,530.5l-7,6.9l-16.5,4.5l-9.4-2.5l-8.5-15.1l10-37.6l15.1-8.7l18.9,5.1l5.1,19l-7.6,13.2L794.4,530.5
	L794.4,530.5z M778.8,484.3l-10.6,6.3l-9,32.8l6.1,10.8l5.5,1.3l13.5-3.6l4-3.9v-14.5l7-12.5l-3.4-13.3L778.8,484.3z"/>
<path class="st1" d="M895.5,482.9l5.1,18.9l-7.6,13.3v15.3l-6.9,6.9l-16.5,4.5l-9.4-2.5l-4.5-7.8l-10.6,40.8l-10.3-2.6l1.6-5.8
	l4.5,1.2l18.6-70.3l-3.1,1.6l-7.5-13l5.1-3l4.6,7.9l18.1-10.5L895.5,482.9z M877.5,484.3l-10.8,6.3l-8.7,32.8l6.1,10.8l5.4,1.3
	l13.3-3.6l4-3.9v-14.5L894,501l-3.4-13.3L877.5,484.3z"/>
<path class="st1" d="M976.5,565.3l4.6,1.3l-1.8,5.7l-10.2-2.7l8.5-32.2l-7.6,4.5l-19-5.1l-5.1-19l13-22.2l-3.3-11.8l21.4-5.9
	l9.4,2.6l8.5,15.1L976.5,565.3z M969.1,535.4l10.6-6.3l9-32.8l-6.3-10.8l-5.4-1.4l-13.9,3.8l2.1,8.2l-12.9,22.5l3.6,13.3
	L969.1,535.4z"/>
<path class="st1" d="M304.9,632.9l3.4,12.3l-11.5,6.9l-2.8-5.4l7.5-4.2l-1.3-4.8l-13-3.6l-10.8,6.3l-13.9,51.4l-10.3-2.7l1.8-5.8
	l4.3,1.2l10.8-39.9l-3.1,1.8l-7.5-13l5.1-3l4.6,7.9l18.1-10.5L304.9,632.9z"/>
<path class="st1" d="M373.5,649.6l12.3-7.2l-1.2-4.8l-21.1-5.5l-0.8,0.2l-5.2,19.8l29.4,16.9v11.5l-6.9,6.9l-16.5,4.5l-9.4-2.5
	l-8.8-15.1l2.7-10l6,1.4l-2.1,7.8l6.1,11l5.5,1.3l13.3-3.5l4-4v-5.7l-30.4-17.5l7.3-27.4l5.7-1.5l25.9,6.9l3.4,12.6l-16.3,9.3
	L373.5,649.6z"/>
<path class="st1" d="M471,630.2h6.1v8.5h-26.5l-9.4,34.6l6.3,10.8l5.4,1.3l10.5-2.7l-1.9-3.4l5.1-3l6,10.2l-19.6,5.2l-9.4-2.5
	l-8.5-15.1l18.6-69.7l-4.6-1.4l1.6-5.7l10.3,2.8l-8.7,32.7H471V630.2z"/>
<path class="st1" d="M569.4,635.2l-10.5,39.9l3.1-1.8l7.5,13l-5.1,3l-4.8-8l-18,10.5l-18.7-5.1l-5.1-18.7l7.6-13.3v-26.8h6v28.5
	l-7.3,12.5l3.6,13.2l13,3.4l10.8-6.1l13.6-51.4l10.3,2.7l-1.5,5.8L569.4,635.2z"/>
<path class="st1" d="M675,631.7l2.5,4.3l-5.1,3l-1.3-2.2l-6.1-1.6l-13,48l-15.1,8.7l-16.2-4.3l-0.2-57.6l16.6-4.3l1.8,5.7l-12.3,3.5
	v48.4l9.4,2.4l10.6-6.4l14.1-51.3L675,631.7z"/>
<path class="st1" d="M806.5,631.7l2.5,4.3l-5.1,3l-1.3-2.2l-6-1.6l-13,48l-15,8.7l-19-5.1l-0.9-3.5l-14.8,8.5l-18.9-5.1l-5.1-18.7
	l7.6-13.3V630l16.6-4.3l1.6,5.7l-12.1,3.5v21.6l-7.3,12.5l3.6,13.2l13,3.4l14.1-8.1l-2.5-9.4l7.8-13.2v-21.7h6v23.2l-7.3,12.4
	l3.4,13.3l13.3,3.4l10.8-6.3l13.8-51.3L806.5,631.7z"/>
<path class="st1" d="M897.4,645.2L874,658.6l9.6,5.5l7.5,27.7h-6.4l-6.1-23.8l-10.5-5.9l-22.3,12.8l4.2,15.4l-5.7,1.5l-5.4-19.9
	l23.2-13.3l-9.4-5.4l-6.9-25.3h6.3l5.7,21.4l10.3,6l22.3-12.9l-3.8-14.5h10v6h-2.2L897.4,645.2z"/>
<path class="st1" d="M999.4,636.8l-6.1-1.6l-20.8,78.4l-15,8.7l-9.4-2.7l-6.9-6.8v-7.6l16.6-4.3l1.8,5.7l-12.4,3.5v0.3l4,3.9
	l5.5,1.7l10.6-6.3l5.8-22l-7.9,4.3l-18.9-5l-5.1-18.9l7.6-13.3V628h6.1v28.3l-7.3,12.6l3.6,13.3l13.2,3.5l10.9-6.4l13.6-51.3
	l14.2,3.9l2.5,4.3l-5.1,3L999.4,636.8z"/>
<path class="st1" d="M303.3,830.5l1.8,5.8l-21.9,5.5l-26.1-7.2l-3.1-12.8l18-10.2h-4.8v-6l15.6,0.2l23.5-13.2l-1.2-4.5l-21-5.8
	l-5.5,1.4l-5.5,9.1l-5.2-3.2l6.7-11.4l9.6-2.4l26.2,7.3l3.1,12.7l-18.1,10h4.8v6l-15.6-0.2l-23.4,13.2l1,4.8l21,5.7L303.3,830.5z"/>
<path class="st1" d="M395.4,836.3l-5.2,3l-4.8-8l-18,10.5l-19-5.1l-4-15.1l13.9-13.9h15.3l11.1-6.5l1.5-4.9l-6.3-10.8l-5.4-1.4
	l-5.5,1.4l-7.6,13.3l-5.2-3l9-15.4l9.4-2.6l9.4,2.6l8.5,15l-7.8,29.5l2.9-1.7L395.4,836.3z M366.4,835.4l10.6-6.3l5.4-19.5l-7.5,4
	h-14.4l-9.6,9.8l2.2,8.5L366.4,835.4z M379.6,773.8l5.1-3l-8.5-14.5l-5.1,3L379.6,773.8z"/>
<path class="st1" d="M481.8,836.3l-5.2,3l-4.8-8l-18,10.5l-19-5.1l-4-15.1l13.9-13.9H460l11.1-6.5l1.5-4.9l-6.3-10.8l-5.4-1.4
	l-5.5,1.4l-7.6,13.3l-5.2-3l9-15.4l9.4-2.6l9.4,2.6l8.5,15l-7.8,29.5l2.9-1.7L481.8,836.3z M452.8,835.4l10.6-6.3l5.4-19.5l-7.5,4
	H447l-9.6,9.8l2.2,8.5L452.8,835.4z M476.5,763.9l-15.9,9.9l-3.4-5.2l16-10.2L476.5,763.9z"/>
<path class="st1" d="M568,836.3l-5.2,3l-4.8-8l-18,10.5l-19-5.1l-4-15.1l13.9-13.9h15.3l11.1-6.5l1.5-4.9l-6.3-10.8l-5.4-1.4
	l-5.5,1.4l-7.6,13.3l-5.2-3l9-15.4l9.4-2.6l9.4,2.6l8.5,15l-7.8,29.5l2.9-1.7L568,836.3z M539.1,835.4l10.6-6.3l5.4-19.5l-7.5,4
	h-14.4l-9.6,9.8l2.2,8.5L539.1,835.4z M543.3,771.1l11.2-6.5l6.4,11l5.1-3l-9.3-15.9l-16.3,9.4L543.3,771.1z"/>
<path class="st1" d="M654.4,836.3l-5.2,3l-4.8-8l-18,10.5l-19-5.1l-4-15.1l13.9-13.9h15.3l11.1-6.5l1.5-4.9l-6.3-10.8l-5.4-1.4
	l-5.5,1.4l-7.6,13.3l-5.2-3l9-15.4l9.4-2.6l9.4,2.6l8.5,15l-7.8,29.5l2.9-1.7L654.4,836.3z M625.5,835.4l10.6-6.3l5.4-19.5l-7.5,4
	h-14.4l-9.6,9.8l2.2,8.5L625.5,835.4z M626.2,771.1l11.2-6.5l6.4,11l13.5-7.8l-2.9-5l-8.4,4.8l-6.5-10.9l-16.3,9.4L626.2,771.1z"/>
<path class="st1" d="M740.8,836.3l-5.2,3l-4.8-8l-18,10.5l-19-5.1l-4-15.1l13.9-13.9H719l11.1-6.5l1.5-4.9l-6.3-10.8l-5.4-1.4
	l-5.5,1.4l-7.6,13.3l-5.2-3l9-15.4l9.4-2.6l9.4,2.6l8.5,15l-7.8,29.5l2.9-1.7L740.8,836.3z M711.9,835.4l10.6-6.3l5.4-19.5l-7.5,4
	H706l-9.6,9.8l2.2,8.5L711.9,835.4z M728.7,756.1l-5.7-1.5l-4,15l5.7,1.6L728.7,756.1z M738,758.6l-5.7-1.5l-4,15l5.7,1.6L738,758.6
	z"/>
<path class="st1" d="M813.7,823.7h6v11.8l-23.5,6.3l-4.2,15.3l-5.7-1.5l4.2-15.3l-3.8-1l-8.5-15l10-37.8l15.1-8.7l18.9,5.1l3.3,12.6
	l-11.5,6.6l-2.9-5.2l7.5-4.3l-1.3-4.7l-13.2-3.4l-10.6,6.1l-9,32.8l6.3,10.8l5.4,1.3l17.5-4.5V823.7z"/>
<path class="st1" d="M897.7,823.7h6v11.8l-23.4,6.3l-9.4-2.5l-8.7-15.1l10-37.6l15.1-8.7l18.9,5.1l4.2,15.1L896.5,812h-15.4
	l-11.1,6.3l-1.4,5.1l6.1,10.8l5.5,1.3l17.4-4.5v-7.3H897.7z M888.3,784.3l-10.8,6.3l-5.2,19.6l7.2-4.3H894l9.6-9.6l-2.2-8.5
	L888.3,784.3z M895.5,773.8l5.1-3l-8.5-14.5l-5.1,3L895.5,773.8z"/>
<path class="st1" d="M982.8,823.7h6v11.8l-23.4,6.3l-9.4-2.5l-8.7-15.1l10-37.6l15.1-8.7l18.9,5.1l4.2,15.1L981.6,812h-15.4
	l-11.1,6.3l-1.4,5.1l6.1,10.8l5.5,1.3l17.4-4.5v-7.3H982.8z M973.3,784.3l-10.8,6.3l-5.2,19.6l7.2-4.3H979l9.6-9.6l-2.2-8.5
	L973.3,784.3z M993.4,763.9l-15.9,9.9l-3.5-5.2l16-10.2L993.4,763.9z"/>
<path class="st1" d="M290.2,973.7h6v11.8l-23.4,6.3l-9.4-2.5l-8.7-15.1l10-37.6l15.1-8.7l18.9,5.1l4.2,15.1L289,962h-15.4l-11.1,6.3
	l-1.4,5.1l6.1,10.8l5.5,1.3l17.4-4.5v-7.3H290.2z M280.8,934.3l-10.8,6.3l-5.2,19.6l7.2-4.3h14.5l9.6-9.6l-2.2-8.5L280.8,934.3z
	 M281.2,921.1l11.2-6.5l6.4,11l5.1-3l-9.3-15.9l-16.3,9.4L281.2,921.1z"/>
<path class="st1" d="M384.6,973.7h6v11.8l-23.4,6.3l-9.4-2.5l-8.7-15.1l10-37.6l15.1-8.7l18.9,5.1l4.2,15.1L383.4,962H368l-11.1,6.3
	l-1.4,5.1l6.1,10.8l5.5,1.3l17.4-4.5v-7.3H384.6z M375.1,934.3l-10.8,6.3l-5.2,19.6l7.2-4.3h14.5l9.6-9.6l-2.2-8.5L375.1,934.3z
	 M387.9,906.1l-5.7-1.5l-4,15l5.7,1.6L387.9,906.1z M397.2,908.6l-5.7-1.5l-4,15l5.7,1.6L397.2,908.6z"/>
<path class="st1" d="M443.4,988l11.2-42.1l-7-12l1.4-4.9l23.7,6.4l2.7,4.5l-5.1,3l-1.5-2.4l-12.1-3.1l4.5,7.6l-10.8,40l2.9,1.8
	l-3,5.1L443.4,988z M464.7,923.9l5.1-3l-7.9-13.5l-5.1,3L464.7,923.9z"/>
<path class="st1" d="M510.9,988l11.2-42.1l-7-12l1.4-4.9l23.7,6.4l2.7,4.5l-5.1,3l-1.5-2.4l-12.1-3.1l4.5,7.6l-10.8,40l2.9,1.8
	l-3,5.1L510.9,988z M546.1,913.9l-15.9,9.9l-3.4-5.2l16-10.2L546.1,913.9z"/>
<path class="st1" d="M578.7,988l11.2-42.1l-7-12l1.4-4.9l23.7,6.4l2.7,4.5l-5.1,3l-1.5-2.4l-12.1-3.1l4.5,7.6l-10.8,40l2.9,1.8
	l-3,5.1L578.7,988z M590.5,921.1l11.2-6.5l6.4,11l5.1-3l-9.3-15.9l-16.3,9.4L590.5,921.1z"/>
<path class="st1" d="M646.2,988l11.2-42.1l-7-12l1.4-4.9l23.7,6.4l2.7,4.5l-5.1,3l-1.5-2.4l-12.1-3.1l4.5,7.6l-10.8,40l2.9,1.8
	l-3,5.1L646.2,988z M669.1,906.1l-5.7-1.5l-4,15l5.7,1.6L669.1,906.1z M678.4,908.6l-5.7-1.5l-4,15l5.7,1.6L678.4,908.6z"/>
<path class="st1" d="M763.5,932.9l4.9,19l-7.6,13v26.8h-5.9v-28.3l7.2-12.5l-3.7-13.5l-12.9-3.5l-10.6,6.2l-13.6,51.6L711,989
	l1.5-5.7l4.6,1.2l10.5-40l-3.3,2.1l-7.5-13.2l5.1-2.8l4.5,7.8l18.3-10.5L763.5,932.9z M739.6,921.1l11.2-6.5l6.4,11l13.5-7.8l-2.8-5
	l-8.4,4.8l-6.4-10.9l-16.3,9.4L739.6,921.1z"/>
<path class="st1" d="M859.3,980.5l-7,6.9l-16.5,4.5l-9.4-2.5l-8.5-15.1l10-37.6L843,928l18.9,5.1l5.1,19l-7.6,13.2L859.3,980.5
	L859.3,980.5z M843.7,934.3l-10.6,6.3l-9,32.8l6.1,10.8l5.5,1.3l13.5-3.6l4-3.9v-14.5l7-12.5l-3.4-13.3L843.7,934.3z M854.4,923.8
	l5.1-3l-8.5-14.5l-5.1,3L854.4,923.8z"/>
<path class="st1" d="M987.1,980.5l-7,6.9l-16.5,4.5l-9.4-2.5l-8.5-15.1l10-37.6l15.1-8.7l18.9,5.1l5.1,19l-7.6,13.2L987.1,980.5
	L987.1,980.5z M971.5,934.3l-10.6,6.3l-9,32.8l6.1,10.8l5.5,1.3l13.5-3.6l4-3.9v-14.5l7-12.5l-3.4-13.3L971.5,934.3z M995.1,913.7
	l-15.9,9.9l-3.5-5.2l16-10.2L995.1,913.7z"/>
<path class="st1" d="M296.2,1130.5l-7,6.9l-16.5,4.5l-9.4-2.5l-8.5-15.1l10-37.6l15.1-8.7l18.9,5.1l5.1,19l-7.6,13.2v15.2H296.2z
	 M280.6,1084.3l-10.6,6.3l-9,32.8l6.1,10.8l5.5,1.3l13.5-3.6l4-3.9v-14.5l7-12.5l-3.4-13.3L280.6,1084.3z M282.3,1071.1l11.2-6.5
	l6.4,11l5.1-3l-9.3-15.9l-16.3,9.4L282.3,1071.1z"/>
<path class="st1" d="M388.8,1130.5l-7,6.9l-16.5,4.5l-9.4-2.5l-8.5-15.1l10-37.6l15.1-8.7l18.9,5.1l5.1,19l-7.6,13.2v15.2H388.8z
	 M373.2,1084.3l-10.6,6.3l-9,32.8l6.1,10.8l5.5,1.3l13.5-3.6l4-3.9v-14.5l7-12.5l-3.4-13.3L373.2,1084.3z M369.9,1071.1l11.2-6.5
	l6.4,11l13.5-7.8l-2.8-5l-8.4,4.8l-6.4-10.9l-16.3,9.4L369.9,1071.1z"/>
<path class="st1" d="M483.6,1130.5l-7,6.9l-16.5,4.5l-9.4-2.5l-8.5-15.1l10-37.6l15.1-8.7l18.9,5.1l5.1,19l-7.6,13.2v15.2H483.6z
	 M468,1084.3l-10.6,6.3l-9,32.8l6.1,10.8l5.5,1.3l13.5-3.6l4-3.9v-14.5l7-12.5l-3.4-13.3L468,1084.3z M481.3,1056.1l-5.7-1.5l-4,15
	l5.7,1.6L481.3,1056.1z M490.6,1058.6l-5.7-1.5l-4,15l5.7,1.6L490.6,1058.6z"/>
<path class="st1" d="M586,1085.2l-10.5,39.9l3.1-1.8l7.5,13l-5.1,3l-4.8-8l-18,10.5l-18.7-5.1l-5.1-18.7l7.6-13.3v-26.8h6v28.5
	l-7.3,12.5l3.6,13.2l13,3.4l10.8-6.1l13.6-51.4l10.3,2.7l-1.5,5.8L586,1085.2z M565.2,1073.8l5.1-3l-8.5-14.5l-5.1,3L565.2,1073.8z"
	/>
<path class="st1" d="M687,1085.2l-10.5,39.9l3.1-1.8l7.5,13l-5.1,3l-4.8-8l-18,10.5l-18.7-5.1l-5.1-18.7l7.6-13.3v-26.8h6v28.5
	l-7.3,12.5l3.6,13.2l13,3.4l10.8-6.1l13.6-51.4l10.3,2.7l-1.5,5.8L687,1085.2z M681.4,1063.7l-15.9,9.9l-3.4-5.2l16-10.2
	L681.4,1063.7z"/>
<path class="st1" d="M787.9,1085.2l-10.5,39.9l3.1-1.8l7.5,13l-5.1,3l-4.8-8l-18,10.5l-18.7-5.1l-5.1-18.7l7.6-13.3v-26.8h6v28.5
	l-7.3,12.5l3.6,13.2l13,3.4l10.8-6.1l13.6-51.4l10.3,2.7l-1.5,5.8L787.9,1085.2z M756.9,1071.1l11.2-6.5l6.4,11l5.1-3l-9.3-15.9
	l-16.3,9.4L756.9,1071.1z"/>
<path class="st1" d="M888.9,1085.2l-10.5,39.9l3.1-1.8l7.5,13l-5.1,3l-4.8-8l-18,10.5l-18.7-5.1l-5.1-18.7l7.6-13.3v-26.8h6v28.5
	l-7.3,12.5l3.6,13.2l13,3.4l10.8-6.1l13.6-51.4l10.3,2.7l-1.5,5.8L888.9,1085.2z M870.6,1056.1l-5.7-1.5l-4,15l5.7,1.6L870.6,1056.1
	z M879.9,1058.6l-5.7-1.5l-4,15l5.7,1.6L879.9,1058.6z"/>
<path class="st1" d="M996.6,1086.8l-6.1-1.6l-20.8,78.4l-15,8.7l-9.5-2.7l-6.9-6.8v-7.6l16.6-4.3l1.8,5.7l-12.4,3.5v0.3l4,3.9
	l5.5,1.7l10.6-6.3l5.8-22l-7.9,4.3l-18.9-5l-5.1-18.9l7.6-13.3V1078h6.1v28.3l-7.3,12.6l3.6,13.3l13.2,3.5l10.9-6.4L986,1078
	l14.2,3.9l2.5,4.3l-5.1,3L996.6,1086.8z M984.3,1063.7l-15.9,9.9l-3.4-5.2l16-10.2L984.3,1063.7z"/>
<path class="st1" d="M313,1236.8l-6.1-1.6l-20.8,78.4l-15,8.7l-9.4-2.7l-6.9-6.8v-7.6l16.6-4.3l1.8,5.7l-12.4,3.5v0.3l4,3.9l5.5,1.7
	l10.6-6.3l5.8-22l-7.9,4.3l-18.9-5l-5.1-18.9l7.6-13.3V1228h6.1v28.3l-7.3,12.6l3.6,13.3l13.2,3.5l10.9-6.4l13.6-51.3l14.2,3.9
	l2.5,4.3l-5.1,3L313,1236.8z M288.9,1206.1l-5.7-1.5l-4,15l5.7,1.6L288.9,1206.1z M298.2,1208.6l-5.7-1.5l-4,15l5.7,1.6
	L298.2,1208.6z"/>
<path class="st1" d="M444.9,1231.7l2.5,4.3l-5.1,3l-1.4-2.2l-6-1.6l-13,48l-15,8.7l-19-5.1l-0.9-3.5l-14.8,8.5l-18.9-5.1l-5.1-18.7
	l7.6-13.3V1230l16.6-4.3l1.6,5.7l-12.1,3.5v21.6l-7.3,12.5l3.6,13.2l13,3.4l14.1-8.1l-2.5-9.4l7.8-13.2v-21.7h6v23.2l-7.3,12.4
	l3.4,13.3l13.3,3.4l10.8-6.3l13.8-51.3L444.9,1231.7z M386.2,1221.1l11.2-6.5l6.5,11l5.1-3l-9.3-15.9l-16.3,9.4L386.2,1221.1z"/>
<path class="st1" d="M530.7,1236.8l-6.1-1.6l-20.8,78.4l-15,8.7l-9.4-2.7l-6.9-6.8v-7.6l16.6-4.3l1.8,5.7l-12.4,3.5v0.3l4,3.9
	l5.5,1.7l10.6-6.3l5.8-22l-7.9,4.3l-18.9-5l-5.1-18.9l7.6-13.3V1228h6.1v28.3l-7.3,12.6l3.6,13.3l13.2,3.5l10.9-6.4l13.6-51.3
	l14.2,3.9l2.5,4.3l-5.1,3L530.7,1236.8z M494.5,1221.1l11.2-6.5l6.4,11l5.1-3l-9.3-15.9l-16.3,9.4L494.5,1221.1z"/>
<path class="st1" d="M662.5,1231.7l2.5,4.3l-5.1,3l-1.4-2.2l-6-1.6l-13,48l-15,8.7l-19-5.1l-0.9-3.5l-14.8,8.5l-18.9-5.1l-5.1-18.7
	l7.6-13.3V1230l16.6-4.3l1.6,5.7l-12.1,3.5v21.6l-7.3,12.5l3.6,13.2l13,3.4l14.1-8.1l-2.5-9.4l7.8-13.2v-21.7h6v23.2l-7.3,12.4
	l3.4,13.3l13.3,3.4l10.8-6.3l13.8-51.3L662.5,1231.7z M611.5,1223.9l5.1-3l-8.5-14.5l-5.1,3L611.5,1223.9z"/>
<path class="st1" d="M786.7,1231.7l2.5,4.3l-5.1,3l-1.3-2.2l-6-1.6l-13,48l-15,8.7l-19-5.1l-0.9-3.5l-14.8,8.5l-18.9-5.1L690,1268
	l7.6-13.3V1230l16.6-4.3l1.7,5.7l-12.1,3.5v21.6l-7.3,12.5l3.6,13.2l13,3.4l14.1-8.1l-2.5-9.4l7.8-13.2v-21.7h6v23.2l-7.3,12.4
	l3.4,13.3l13.3,3.4l10.8-6.3l13.8-51.3L786.7,1231.7z M751.5,1213.7l-15.9,9.9l-3.5-5.2l16-10.2L751.5,1213.7z"/>
<path class="st1" d="M910.9,1231.7l2.5,4.3l-5.1,3l-1.4-2.2l-6-1.6l-13,48l-15,8.7l-19-5.1l-0.9-3.5l-14.8,8.5l-18.9-5.1l-5.1-18.7
	l7.6-13.3V1230l16.6-4.3l1.6,5.7l-12.1,3.5v21.6l-7.3,12.5l3.6,13.2l13,3.4l14.1-8.1l-2.5-9.4l7.8-13.2v-21.7h6v23.2l-7.3,12.4
	l3.4,13.3l13.3,3.4l10.8-6.3l13.8-51.3L910.9,1231.7z M862.2,1206.1l-5.7-1.5l-4,15l5.7,1.6L862.2,1206.1z M871.5,1208.6l-5.7-1.5
	l-4,15l5.7,1.6L871.5,1208.6z"/>
<path class="st1" d="M996.9,1236.8l-6.1-1.6l-20.8,78.4l-15,8.7l-9.4-2.7l-6.9-6.8v-7.6l16.6-4.3l1.8,5.7l-12.4,3.5v0.3l4,3.9
	l5.5,1.7l10.6-6.3l5.8-22l-7.9,4.3l-18.9-5l-5.1-18.9l7.6-13.3V1228h6.1v28.3l-7.3,12.6l3.6,13.3l13.2,3.5l10.9-6.4l13.6-51.3
	l14.2,3.9l2.5,4.3l-5.1,3L996.9,1236.8z M969.3,1223.8l5.1-3l-8.5-14.5l-5.1,3L969.3,1223.8z"/>
</svg>
