<?xml version="1.0" encoding="utf-8"?>
<!-- Generator: Adobe Illustrator 22.1.0, SVG Export Plug-In . SVG Version: 6.00 Build 0)  -->
<svg version="1.1" id="Calque_1" xmlns="http://www.w3.org/2000/svg" xmlns:xlink="http://www.w3.org/1999/xlink" x="0px" y="0px"
	 viewBox="0 0 2400 1800" style="enable-background:new 0 0 2400 1800;" xml:space="preserve">
<style type="text/css">
	.st0{fill:#F3F2F2;}
	.st1{fill:#162843;}
</style>
<rect x="0" y="-1" class="st0" width="2400" height="1800"/>
<path class="st1" d="M363.2,553l-26.5,45.5V666l-65,17.5l42-157l-17.5-30l-31.5,31l-3-2.5l42.5-42.5l43.5,12L363.2,553z M284.2,676
	l-5.5-3.5l-1.5,5.5L284.2,676z M288.7,674l5.5-9.5L283.7,654l-4,14.5L288.7,674z M285.7,646.5l10.5-6.5l-6-10.5L285.7,646.5z
	 M287.2,652.5l9,8.5l5-8.5H287.2z M301.2,648.5l-3-5l-8,5H301.2z M292.2,622.5l20.5,6l-5.5-21l-12,3L292.2,622.5z M310.7,632
	l-17-4.5l6,10.5L310.7,632z M300.7,671.5l-3.5-4l-3.5,6L300.7,671.5z M296.2,606l7.5-1.5l-6-3.5L296.2,606z M304.7,503l8-14l-7.5-2
	l-6,6.5L304.7,503z M312.7,668.5l-8-14l-5.5,9.5l6,6.5L312.7,668.5z M299.7,597.5l6,3.5l-2-7.5L299.7,597.5z M300.2,591l2-2
	l-0.5-2.5L300.2,591z M301.7,641.5l3,5l5.5-10L301.7,641.5z M304.2,576.5h6.5l-5-5L304.2,576.5z M304.2,580.5l1.5,5.5l5-5.5H304.2z
	 M306.7,567l9,9l15.5-15.5l-21-5.5L306.7,567z M331.2,597l-15.5-15.5l-9,9l3.5,12L331.2,597z M316.2,491l-8,14h11l2.5-8.5L316.2,491
	z M315.2,521l3-12h-10L315.2,521z M308.2,648.5h10l-3-12L308.2,648.5z M321.7,661l-2.5-8.5h-11l8,14L321.7,661z M311.7,548.5l11-6.5
	l-6.5-10.5L311.7,548.5z M322.7,615.5l-11-6.5l4.5,17L322.7,615.5z M324.7,545.5l-11,6.5l17,4.5L324.7,545.5z M330.7,601l-17,4.5
	l11,6.5L330.7,601z M333.2,509h-10.5l-4,14.5l14.5-4V509z M332.7,638l-14-4l3.5,14.5h10.5V638z M332.7,564.5l-12,12h12V564.5z
	 M332.7,580.5h-12l12,12.5V580.5z M332.7,623.5l-12,7l12,3V623.5z M333.2,523.5l-12,3.5l12,7V523.5z M326.2,540l5-2.5l-10-6
	L326.2,540z M321.2,625.5l9.5-5.5l-4.5-2.5L321.2,625.5z M323.7,505h6.5l-5.5-5L323.7,505z M324.7,657.5l5.5-5h-6.5L324.7,657.5z
	 M333.2,494.5l-6.5-1.5l-0.5,2.5l7,7V494.5z M332.7,655l-6.5,7l0.5,2.5l6-1.5V655z M332.7,541l-4.5,2.5l4.5,8.5V541z M332.7,605.5
	l-4.5,8.5l4.5,2.5V605.5z M336.7,554.5l9-8.5l-9-5V554.5z M342.7,576.5l-6-9.5v9.5H342.7z M342.7,580.5h-6v10L342.7,580.5z
	 M337.2,505h9l-2-7.5l-7-2V505z M337.2,518.5l5-1.5l-5-5V518.5z M337.2,534l13.5-8l-5.5-5.5l-8,2V534z M358.2,553l-9-5l-10.5,10.5
	l14.5,4L358.2,553z M352.7,529.5l-13.5,8l9.5,5.5l6-6L352.7,529.5z M351.2,566l-12-3.5l7,12L351.2,566z M347.7,509h-8l7,7l2.5-0.5
	L347.7,509z M349.7,519l0.5,0.5V519H349.7z M356.2,541l-4,4l6,3.5L356.2,541z"/>
<path class="st1" d="M604.7,619.5l49,13V664l-74,19.5l-84-22.5l-12-43.5l43-43h90l13.5-50l-25.5-44l-25-7l-24.5,7l-6,10l33.5,33.5
	l-21,21l-28.5,7.5l-8-28.5l27-47l27.5-7.5l84.5,22.5l12,43.5l-43,43h-90l-23,85l59.5,16l9.5-2.5L604.7,619.5z M490.2,626l14-8
	l-9.5-5.5l-6.5,6L490.2,626z M506.2,621.5l-14,8l5.5,5.5l8.5-2.5V621.5z M495.7,646h8l-7-6.5l-2.5,0.5L495.7,646z M506.2,650h-9.5
	l2,7.5l7.5,2V650z M506.2,600.5l-9,9l9,5V600.5z M506.2,636.5l-5,1.5l5,5.5V636.5z M510.2,614.5l5-3l-5-8.5V614.5z M510.2,631.5
	l12-3l-12-7V631.5z M510.2,646h10.5l4-14l-14.5,3.5V646z M517.2,660l-7-7v7.5l6.5,2L517.2,660z M512.2,594.5l21,6l3-12.5l-8.5-8.5
	L512.2,594.5z M512.2,599l6.5,10.5l10.5-6L512.2,599z M517.2,615l-5,3l10,5.5L517.2,615z M519.7,650h-6.5l5,5.5L519.7,650z
	 M531.2,607l-10.5,6l6,11L531.2,607z M551.2,532.5l-21-5.5l5.5,21l12.5-3.5L551.2,532.5z M532.2,578.5l5.5,5l1-5H532.2z
	 M532.7,518.5l8.5-5l-2.5-4.5L532.7,518.5z M532.7,523.5l17,4.5l-6.5-11L532.7,523.5z M547.2,494l-5,9h13.5L547.2,494z M544.7,511.5
	l8.5-4.5h-11L544.7,511.5z M557.7,509l-11,6l6.5,11L557.7,509z M557.7,542l-3.5-5.5l-1.5,7L557.7,542z M561.7,508.5l-5.5,21l12,3.5
	l9-9L561.7,508.5z M565.2,536l-7.5-1.5l3.5,5.5L565.2,536z M601.2,673.5l-6-3l-1.5,5L601.2,673.5z M605.2,671.5l5.5-9L600.2,652
	l-4,14.5L605.2,671.5z M606.7,627l-4.5,17l11-6L606.7,627z M604.2,650l8.5,9l5-9H604.2z M617.7,646l-2.5-4.5l-8.5,4.5H617.7z
	 M613.7,487.5l3.5-4l-7-1.5L613.7,487.5z M610.2,625l6.5,11l10.5-6.5L610.2,625z M617.2,669.5l-3.5-4l-3.5,5.5L617.2,669.5z
	 M621.2,501l8-14l-7.5-2l-6,6L621.2,501z M629.2,666l-8-14l-5.5,10l6,6L629.2,666z M621.2,644l5.5-9.5l-8,5L621.2,644z M620.7,574.5
	h7l-5.5-5L620.7,574.5z M623.7,565l8.5,8.5l15.5-15l-21-6L623.7,565z M632.7,489l-8,14h11.5l2-8.5L632.7,489z M631.7,519l3-12h-10
	L631.7,519z M631.7,634l-7,12h10L631.7,634z M638.2,658.5l-2-8.5h-11.5l8,14L638.2,658.5z M628.7,546l10.5-6l-6-11L628.7,546z
	 M641.2,543.5l-10.5,6l16.5,4.5L641.2,543.5z M639.2,507l-4,14l14.5-3.5V507H639.2z M635.2,632l4,14h10.5v-10.5L635.2,632z
	 M649.7,521.5l-12,3l12,7V521.5z M642.7,538l5-3l-10-5.5L642.7,538z M639.2,489.5l0.5,0.5v-0.5H639.2z M639.7,663l-0.5,0.5h0.5V663z
	 M640.2,503h6.5l-5-5.5L640.2,503z M641.7,655.5l5-5.5h-6.5L641.7,655.5z M642.7,493l7,7v-7.5l-6.5-2L642.7,493z M649.7,653l-7,7
	l0.5,2.5l6.5-2V653z M649.7,538.5l-5,3l5,8.5V538.5z M653.7,503h9.5l-2-7.5l-7.5-2V503z M653.7,516.5l5-1.5l-5-5.5V516.5z
	 M653.7,531.5l14-8l-5.5-5.5l-8.5,2.5V531.5z M653.7,552.5l8.5-9l-8.5-5V552.5z M669.7,527l-14,8l9.5,6l6.5-6.5L669.7,527z
	 M664.2,507h-8l7,6.5l2.5-0.5L664.2,507z"/>
<path class="st1" d="M947.7,576.5l18.5,18.5v69l-73.5,19.5L808.2,661l-11.5-43.5l23.5-24l29.5,8l-7.5,27l25.5,44l25,7l9.5-2.5
	l26-98.5h-35.5v-4h36.5l13.5-50.5l-25-43.5l-25-7l-25,7l-6,10l33.5,33.5l-21,21l-28.5,7.5l-8-28.5l27.5-47l27.5-7.5l84,22.5l12,43.5
	L947.7,576.5z M802.7,626l14-8l-9.5-6l-6.5,6.5L802.7,626z M818.7,621.5l-14,8l5.5,5.5l8.5-2.5V621.5z M808.2,646h8l-7-7l-2.5,1
	L808.2,646z M818.7,650h-9.5l2,7.5l7.5,2V650z M818.7,600.5l-8.5,9l8.5,5V600.5z M818.7,636.5l-5,1.5l5,5.5V636.5z M822.7,614.5l5-3
	l-5-8.5V614.5z M822.7,631.5l12-3.5l-12-6.5V631.5z M822.7,646h10.5l4-14.5l-14.5,4V646z M829.7,660l-7-7v7.5l6.5,2L829.7,660z
	 M829.7,615l-5,3l10,5.5L829.7,615z M825.2,599l6,10.5l10.5-6L825.2,599z M832.2,650h-6.5l5,5.5L832.2,650z M833.7,663.5l-0.5-0.5
	l-0.5,0.5H833.7z M843.7,607l-10.5,6l6,10.5L843.7,607z M839.7,664l8-14h-11l-2.5,8.5L839.7,664z M840.7,634l-3,12h10L840.7,634z
	 M863.7,532.5l-21-5.5l6,21l12-3.5L863.7,532.5z M850.7,668l6-6l-5.5-10l-8,14L850.7,668z M845.2,523.5l17,4.5l-6-11L845.2,523.5z
	 M845.7,518.5l8.5-5l-3-4.5L845.7,518.5z M859.7,494l-5,9h13.5L859.7,494z M857.2,511.5l8.5-4.5h-11L857.2,511.5z M862.2,671
	l-3.5-5.5l-3.5,4L862.2,671z M870.2,509l-11,6l6.5,11L870.2,509z M870.2,542l-3-6l-2,7.5L870.2,542z M874.2,508.5l-5.5,21l12,3.5
	l9-9L874.2,508.5z M877.7,536l-7-1.5l3,5.5L877.7,536z M913.7,673.5l-6-3l-1.5,5L913.7,673.5z M918.2,671.5l5-9L912.7,652l-4,14.5
	L918.2,671.5z M914.7,644l11-6l-6-11L914.7,644z M916.7,650l8.5,9l5-9H916.7z M930.7,646l-3-5l-8.5,5H930.7z M921.2,620.5l21,5.5
	l-5.5-21l-12,3.5L921.2,620.5z M939.7,629.5l-17-4.5l6.5,11L939.7,629.5z M930.2,669.5l-4-4l-3.5,5.5L930.2,669.5z M926.2,487.5l4-4
	l-7-1.5L926.2,487.5z M925.7,604l7-2l-5.5-3.5L925.7,604z M933.7,500.5l8-13.5l-7.5-2l-6,6L933.7,500.5z M942.2,666l-8.5-14l-5.5,10
	l6.5,6L942.2,666z M929.2,595l5.5,3.5l-2-7L929.2,595z M929.7,589l2-2l-1-3L929.7,589z M931.2,639l2.5,5l6-9.5L931.2,639z
	 M933.7,574.5h6.5l-5-5.5L933.7,574.5z M933.7,578.5l1,5l5.5-5H933.7z M936.2,565l9,8.5l15-15l-21-6L936.2,565z M945.2,579.5l-9,8.5
	l3,12l21-5.5L945.2,579.5z M945.2,489l-8,13.5l11.5,0.5l2-8.5L945.2,489z M944.2,519l3.5-12l-10.5-0.5L944.2,519z M937.2,646h10.5
	l-3.5-12L937.2,646z M952.2,663.5l-3.5-13.5h-11.5l9,15L952.2,663.5z M941.2,546l10.5-6l-6-11L941.2,546z M941.2,607l4.5,16.5
	l6-10.5L941.2,607z M953.7,543.5l-10.5,6l17,4.5L953.7,543.5z M960.2,599l-17,4.5l10.5,6L960.2,599z M951.7,507l-4,14l14.5-3.5V507
	H951.7z M962.2,635.5l-14.5-4l4,14.5h10.5V635.5z M962.2,521.5l-12,3l12,7V521.5z M962.2,621.5l-12,6.5l12,3.5V621.5z M955.2,538
	l5-3l-9.5-5.5L955.2,538z M950.7,623.5l9.5-5.5l-5-3L950.7,623.5z M952.7,503h6.5l-5-5.5L952.7,503z M962.2,650h-9.5l3.5,12.5l6-2
	V650z M955.2,493l7,7v-7.5l-6-2L955.2,493z M962.2,538.5l-5,3l5,8.5V538.5z M962.2,603l-5,8.5l5,3V603z M966.2,503h9.5l-2-7.5
	l-7.5-2V503z M966.2,516l5.5-1l-5.5-5.5V516z M966.2,531.5l14-8l-5.5-5.5l-8.5,2.5V531.5z M966.2,552.5l9-9l-9-5V552.5z M982.2,527
	l-14,8l10,5.5l6-6L982.2,527z M976.7,507h-7.5l6.5,6.5l2.5-0.5L976.7,507z"/>
<path class="st1" d="M435.7,902l-27,46.5v67.5l-65.5,17.5L370.7,931h-109v-89.5l65-17.5l-27.5,103h72.5l14.5-53.5L435.7,902z
	 M265.7,852.5l6.5-7l-0.5-2.5l-6,1.5V852.5z M265.7,869.5l14,4l-3.5-14.5h-10.5V869.5z M265.7,884l12-7l-12-3V884z M265.7,902
	l4.5-8.5l-4.5-2.5V902z M277.7,927l-12-12.5V927H277.7z M282.7,926l9-9l-3.5-12l-21,5.5L282.7,926z M277.2,882l-9.5,5.5l4.5,2.5
	L277.2,882z M267.7,906.5l17-4.5l-11-6.5L267.7,906.5z M273.7,850l-5.5,5h6.5L273.7,850z M286.7,898.5l-4.5-17l-6.5,10.5
	L286.7,898.5z M276.7,846.5l2.5,8.5h11l-8-14L276.7,846.5z M290.2,859h-10l3,12L290.2,859z M285.7,839l8,14l5.5-9.5l-6-6.5
	L285.7,839z M306.2,885l-20.5-6l5.5,21l12-3L306.2,885z M287.7,875.5l17,4.5l-6-10.5L287.7,875.5z M294.2,927l-1.5-5.5l-5,5.5H294.2
	z M296.7,866l-3-5l-5.5,10L296.7,866z M298.7,910l-6-3.5l2,7.5L298.7,910z M302.2,901.5l-7.5,1.5l6,3.5L302.2,901.5z M298.2,916.5
	l-2,2l0.5,2.5L298.2,916.5z M311.2,855l-9-8.5l-5,8.5H311.2z M297.2,859l3,5l8.5-5H297.2z M297.7,836l4,4l3-6L297.7,836z
	 M312.7,861.5l-10.5,6l6,10.5L312.7,861.5z M309.7,833.5l-5.5,9l10.5,11l4-14.5L309.7,833.5z M314.2,831.5l5.5,3.5l1.5-5.5
	L314.2,831.5z M356.2,1026l-6-3.5l-1.5,5.5L356.2,1026z M360.7,1024l5-9l-10.5-11l-4,14.5L360.7,1024z M357.2,996.5l11-6.5l-6.5-11
	L357.2,996.5z M359.2,1002.5l9,8.5l5-8.5H359.2z M373.2,998.5l-3-5l-8.5,5H373.2z M363.7,973l21,5.5l-5.5-21l-12.5,3L363.7,973z
	 M382.2,982l-16.5-4.5l6,10.5L382.2,982z M372.7,1021.5l-4-4l-3,6L372.7,1021.5z M368.2,956.5l7-2l-5.5-3.5L368.2,956.5z
	 M384.7,1018.5l-8-14l-6,9.5l6.5,6.5L384.7,1018.5z M371.7,947.5l5.5,3.5l-2-7.5L371.7,947.5z M372.2,941.5l2-2l-1-3L372.2,941.5z
	 M373.7,991.5l3,5l5.5-10L373.7,991.5z M376.2,927h6.5l-5.5-5.5L376.2,927z M376.2,931l1.5,5l5-5H376.2z M378.7,917l9,9l15-15.5
	l-21-5.5L378.7,917z M402.7,947l-15-15.5l-9,9l3.5,12L402.7,947z M380.2,998.5h10l-3.5-12L380.2,998.5z M393.7,1011l-2.5-8.5h-11
	l8,14L393.7,1011z M383.7,898.5l11-6.5l-6.5-10.5L383.7,898.5z M394.2,965.5l-10.5-6.5l4.5,17L394.2,965.5z M396.7,895.5l-11,6.5
	l17,4.5L396.7,895.5z M402.7,951l-17,4.5l10.5,6.5L402.7,951z M404.7,988l-14.5-4l4,14.5h10.5V988z M404.7,914.5L392.2,927h12.5
	V914.5z M404.7,931h-12.5l12.5,12V931z M404.7,973.5l-12,7l12,3.5V973.5z M393.2,882l4.5,8l5-2.5l-3.5-2L393.2,882z M393.2,976
	l9.5-6l-5-2.5L393.2,976z M396.7,1007.5l5.5-5h-7L396.7,1007.5z M404.7,1005.5l-7,6.5l1,2.5l6-1.5V1005.5z M404.7,891l-5,2.5l5,8.5
	V891z M404.7,955.5l-5,8.5l5,2.5V955.5z M408.7,904.5l9-8.5l-9-5V904.5z M414.2,927l-5.5-10v10H414.2z M414.2,931h-5.5v9.5
	L414.2,931z M425.2,912.5l5-9l-9-5.5l-10.5,10.5L425.2,912.5z M423.2,916l-12.5-3l7,12L423.2,916z"/>
<path class="st1" d="M690.7,945v69l-73.5,19.5l-84.5-22.5l-12-43.5l24-24l29.5,8l-17,62l60,16l9.5-2.5l7.5-29.5l7-25.5l-25.5-43.5
	h-72.5v-89l74-20l84,22.5l6.5,24l-41,11l10-37.5l-59.5-16l-9.5,2.5l-26.5,98.5h89L690.7,945z M527.2,976l14-8l-9.5-5.5l-6.5,6
	L527.2,976z M543.2,971.5l-14,8l5.5,5.5l8.5-2.5V971.5z M532.7,996h7.5l-6.5-6.5l-2.5,0.5L532.7,996z M543.2,1000h-9.5l2,7.5l7.5,2
	V1000z M543.2,950.5l-8.5,9l8.5,5V950.5z M543.2,986.5l-5,1.5l5,5.5V986.5z M547.2,850l7-7l-0.5-2.5l-6.5,2V850z M547.2,867.5
	l14.5,3.5l-4-14h-10.5V867.5z M547.2,881.5l12-7l-12-3V881.5z M547.2,900l5-8.5l-5-3V900z M559.7,924.5L547.2,912v12.5H559.7z
	 M547.2,964.5l5-3l-5-8.5V964.5z M547.2,981.5l12-3l-12-7V981.5z M547.2,996h10.5l4-14l-14.5,3.5V996z M554.2,1010l-7-7v7.5l6.5,2
	L554.2,1010z M559.2,879.5l-10,5.5l5,3L559.2,879.5z M564.7,923.5l8.5-8.5l-3-12.5l-21,6L564.7,923.5z M554.2,965l-5,3l10,5.5
	L554.2,965z M549.7,904l16.5-4.5l-10.5-6L549.7,904z M549.7,949l6,10.5l10.5-6L549.7,949z M555.2,847.5l-5,5.5h6.5L555.2,847.5z
	 M556.7,1000h-6.5l5,5.5L556.7,1000z M557.2,839.5l0.5,0.5v-0.5H557.2z M568.2,896l-4.5-17l-6,11L568.2,896z M568.2,957l-10.5,6
	l6,11L568.2,957z M558.7,844.5l2.5,8.5h11l-8-14L558.7,844.5z M572.2,857h-10l3,12L572.2,857z M588.2,882.5l-21-5.5l6,21l12-3.5
	L588.2,882.5z M567.7,837l8,14l5.5-10l-6-6L567.7,837z M576.2,924.5l-1.5-5l-5.5,5H576.2z M569.7,873.5l17,4.5l-6-11L569.7,873.5z
	 M578.7,863.5l-3-4.5l-5.5,9.5L578.7,863.5z M580.7,908l-6-3.5l2,7L580.7,908z M583.7,899l-7,2l6,3.5L583.7,899z M579.7,914l-2,2
	l1,3L579.7,914z M593.2,853l-9-9l-5,9H593.2z M579.2,857l2.5,4.5l8.5-4.5H579.2z M579.7,833.5l3.5,4l3.5-5.5L579.7,833.5z
	 M594.7,859l-11,6l6.5,11L594.7,859z M591.7,831.5l-5.5,9l10.5,10.5l4-14.5L591.7,831.5z M596.2,829.5l5.5,3l1.5-5L596.2,829.5z
	 M636.7,956.5l10.5-10.5l-24.5-14L636.7,956.5z M624.7,928.5l24.5,14l3.5-14H624.7z M638.2,1023.5l-6-3l-1.5,5L638.2,1023.5z
	 M642.7,1021.5l5-9l-10.5-10.5l-4,14.5L642.7,1021.5z M642.7,967l2-7.5l-5.5,1.5L642.7,967z M639.2,994l11-6l-6.5-11L639.2,994z
	 M641.2,1000l8.5,9l5-9H641.2z M645.7,955l0.5-2.5l-3.5,3.5L645.7,955z M654.7,996l-2.5-4.5l-8.5,4.5H654.7z M661.2,955l-12,3.5
	l-3.5,12l21,5.5L661.2,955z M664.2,979.5l-17-4.5l6.5,11L664.2,979.5z M654.7,1019.5l-4-4l-3.5,5.5L654.7,1019.5z M657.2,952l-5.5-3
	l-1.5,5L657.2,952z M666.7,1016l-8.5-14l-5.5,10l6.5,6L666.7,1016z M653.7,945.5l5.5,3l-2-7L653.7,945.5z M654.2,939l2-2l-1-3
	L654.2,939z M655.7,989.5l2.5,4.5l6-9.5L655.7,989.5z M658.2,928.5l1,5l5.5-5H658.2z M684.7,944.5l-15-15l-9,8.5l3,12.5L684.7,944.5
	z M661.7,996h10.5l-3.5-12L661.7,996z M675.2,1008.5l-2-8.5h-11.5l8,14L675.2,1008.5z M665.7,957l4.5,17l6-11L665.7,957z M684.7,949
	l-17,4.5l10.5,6L684.7,949z M686.7,857h-10.5l-4,14l14.5-3.5V857z M686.7,985.5l-14.5-3.5l4,14h10.5V985.5z M674.7,973.5l10-5.5
	l-5-3L674.7,973.5z M686.7,971.5l-12,7l12,3V971.5z M676.7,1013l-0.5,0.5h0.5V1013z M677.2,853h6.5l-5-5.5L677.2,853z M678.7,1005.5
	l5-5.5h-6.5L678.7,1005.5z M679.7,843l7,7v-7.5l-6-2L679.7,843z M686.7,1003l-7,7l1,2.5l6-2V1003z M686.7,953l-5,8.5l5,3V953z
	 M690.7,853h9.5l-2-7.5l-7.5-2V853z M690.7,866.5l5-1.5l-5-5.5V866.5z M701.2,857h-7.5l6.5,6.5l2.5-0.5L701.2,857z"/>
<path class="st1" d="M966.2,945v69l-73.5,19.5l-84.5-22.5l-15.5-58.5l26.5-45.5v-67.5l73.5-20l84.5,22.5l11.5,43.5l-23.5,24l-29.5-8
	l7.5-27l-25.5-44l-25-7l-9.5,2.5l-26,98.5h89L966.2,945z M802.7,943l-5,9l9,5.5l10.5-11L802.7,943z M798.2,957l2,7l3.5-4L798.2,957z
	 M801.2,968.5l2,7.5l14-8l-10-5.5L801.2,968.5z M810.2,930.5l-5.5,9l12,3L810.2,930.5z M819.2,971.5l-14,8l5.5,5.5l8.5-2.5V971.5z
	 M805.7,985.5v0.5h0.5L805.7,985.5z M808.7,996h7.5l-7-6.5l-2.5,0.5L808.7,996z M811.7,1007.5l7.5,2v-9.5h-9.5L811.7,1007.5z
	 M819.2,950.5l-9,9l9,5V950.5z M819.2,915l-5.5,9.5h5.5V915z M819.2,928.5h-5.5l5.5,10V928.5z M813.7,988l5.5,5.5v-7L813.7,988z
	 M823.2,842.5v7.5l6.5-7l-0.5-2.5L823.2,842.5z M823.2,857v10.5l14.5,3.5l-4-14H823.2z M823.2,881.5l12-7l-12-3V881.5z M823.2,900
	l5-8.5l-5-3V900z M823.2,912v12.5h12.5L823.2,912z M823.2,941l12.5-12.5h-12.5V941z M827.7,961.5l-4.5-8.5v11.5L827.7,961.5z
	 M823.2,981.5l12-3l-12-7V981.5z M833.7,996l3.5-14l-14,3.5V996H833.7z M823.2,1003v7.5l6,2l1-2.5L823.2,1003z M834.7,879.5
	l-9.5,5.5l5,3L834.7,879.5z M831.2,893.5l-6,10.5l17-4.5L831.2,893.5z M845.7,902.5l-20.5,6l15,15l9-8.5L845.7,902.5z M849.2,938
	l-9-8.5l-15,15l20.5,6L849.2,938z M831.2,959.5l11-6l-17-4.5L831.2,959.5z M834.7,973.5l-5-8.5l-4.5,3L834.7,973.5z M831.2,847.5
	l-5.5,5.5h7L831.2,847.5z M832.7,1000h-7l5.5,5.5L832.7,1000z M833.7,839.5h-0.5v0.5L833.7,839.5z M833.2,890l11,6l-4.5-17
	L833.2,890z M844.2,957l-11,6l6.5,11L844.2,957z M833.2,1013.5h0.5l-0.5-0.5V1013.5z M834.2,844.5l2.5,8.5h11l-8-14L834.2,844.5z
	 M834.2,1008.5l5.5,5.5l8-14h-11L834.2,1008.5z M847.7,857h-10l3.5,12L847.7,857z M847.7,996l-7-12l-3,12H847.7z M902.2,1027
	l14.5-55l-25-43.5h-36L842.2,979l25.5,43.5l25,7L902.2,1027z M850.7,835l-7.5,2l8,14l6-10L850.7,835z M864.2,882.5l-21-5.5l5.5,21
	l12-3.5L864.2,882.5z M857.2,1012l-6-10l-8,14l7.5,2L857.2,1012z M845.2,924.5h6.5l-1.5-5L845.2,924.5z M851.7,928.5h-6.5l5,5
	L851.7,928.5z M854.2,863.5l-3-4.5l-5.5,9.5L854.2,863.5z M845.7,873.5l16.5,4.5l-6-11L845.7,873.5z M852.2,911.5l4-4l-5.5-3
	L852.2,911.5z M859.7,899l-7,2l5.5,3.5L859.7,899z M854.2,919l1.5-5l-2,2L854.2,919z M868.7,853l-9-9l-5,9H868.7z M857.7,861.5
	l8.5-4.5h-11.5L857.7,861.5z M862.2,832l-7,1.5l4,4L862.2,832z M859.2,1015.5l-4,4l7,1.5L859.2,1015.5z M865.7,876l4.5-17l-10.5,6
	L865.7,876z M872.7,851l3.5-14.5l-9-5l-5,9L872.7,851z M878.7,827.5l-7,2l6,3L878.7,827.5z M898.2,932l14,24.5l10.5-10.5L898.2,932z
	 M928.7,928.5h-28.5l24.5,14L928.7,928.5z M906.7,1025.5l7-2l-5.5-3L906.7,1025.5z M909.2,1016.5l9,5l5.5-9l-10.5-10.5L909.2,1016.5
	z M915.2,961l3,6l2-7.5L915.2,961z M915.2,994l10.5-6l-6-11L915.2,994z M916.7,1000l9,9l5-9H916.7z M922.2,952.5l-3.5,3.5l2.5-1
	L922.2,952.5z M927.7,991.5l-8.5,4.5h11.5L927.7,991.5z M924.7,958.5l-3,12l20.5,5.5l-5.5-21L924.7,958.5z M923.2,832l3,5.5l4-4
	L923.2,832z M923.2,975l6,11l11-6.5L923.2,975z M923.2,1021l7-1.5l-4-4L923.2,1021z M925.7,954l7.5-2l-6-3L925.7,954z M942.2,837
	l-7.5-2l-6,6l5.5,10L942.2,837z M934.7,1018l7.5-2l-8-14l-5.5,10L934.7,1018z M935.2,948.5l-2-7l-4,4L935.2,948.5z M931.7,937
	l-0.5-3l-1.5,5L931.7,937z M931.2,989.5l3,4.5l5.5-9.5L931.2,989.5z M935.2,933.5l5-5h-6.5L935.2,933.5z M960.7,944.5l-15.5-15
	l-9,8.5l3.5,12.5L960.7,944.5z M951.2,844.5l-5.5-5.5l-8,14h11L951.2,844.5z M944.7,869l3-12h-10L944.7,869z M937.7,996h10l-3-12
	L937.7,996z M951.2,1008.5l-2.5-8.5h-11l8,14L951.2,1008.5z M941.2,896l11-6l-6.5-11L941.2,896z M952.2,963l-11-6l4.5,17L952.2,963z
	 M954.2,893.5l-11,6l17,4.5L954.2,893.5z M954.2,959.5l6-10.5l-17,4.5L954.2,959.5z M951.7,857l-3.5,14l14-3.5V857H951.7z
	 M951.7,996h10.5v-10.5l-14-3.5L951.7,996z M950.2,874.5l12,7v-10L950.2,874.5z M962.2,971.5l-12,7l12,3V971.5z M950.7,879.5l5,8.5
	l4.5-3L950.7,879.5z M960.2,968l-4.5-3l-5,8.5L960.2,968z M952.2,839.5h-0.5l0.5,0.5V839.5z M951.7,1013.5h0.5v-0.5L951.7,1013.5z
	 M953.2,853h6.5l-5.5-5.5L953.2,853z M954.2,1005.5l5.5-5.5h-6.5L954.2,1005.5z M962.2,850v-7.5l-6-2l-0.5,2.5L962.2,850z
	 M962.2,1010.5v-7.5l-6.5,7l0.5,2.5L962.2,1010.5z M957.7,891.5l4.5,8.5v-11.5L957.7,891.5z M962.2,953l-4.5,8.5l4.5,3V953z
	 M973.7,845.5l-7.5-2v9.5h9.5L973.7,845.5z M966.2,866.5l5.5-1.5l-5.5-5.5V866.5z M966.2,881.5l14-8l-5.5-5.5l-8.5,2.5V881.5z
	 M966.2,902.5l9-9l-9-5V902.5z M984.2,884.5l-2-7.5l-14,8l10,6L984.2,884.5z M977.2,857h-8l7,6.5l2.5-0.5L977.2,857z M979.7,867.5
	V867h-0.5L979.7,867.5z"/>
<path class="st1" d="M416.2,1253l-26,45.5v67.5l-65.5,17.5l22.5-84.5l-38.5-22.5h44.5l22.5-84.5l-59.5-16l-25,6.5l-5.5,10l33.5,34
	l-21,21l-28.5,7.5l-8-29l27-47l27.5-7.5l0.5,0.5l84,22.5L416.2,1253z M287.7,1234.5l-21-5.5l5.5,21l12-3L287.7,1234.5z M269.2,1221
	l8.5-5l-2.5-5L269.2,1221z M269.2,1225.5l17,4.5l-6.5-10.5L269.2,1225.5z M283.7,1196.5l-5.5,8.5h14L283.7,1196.5z M281.2,1214
	l8.5-5h-11.5L281.2,1214z M293.7,1211l-10.5,6.5l6,10.5L293.7,1211z M294.2,1244l-3.5-5.5l-2,7L294.2,1244z M298.2,1211l-5.5,21
	l12,3l9-8.5L298.2,1211z M301.2,1238.5l-7-2l3.5,5.5L301.2,1238.5z M348.2,1295l4-14.5h-28.5L348.2,1295z M337.2,1376l-5.5-3.5
	l-1.5,5.5L337.2,1376z M341.7,1374l5.5-9.5l-10.5-10.5l-4,14.5L341.7,1374z M338.7,1346.5l11-6.5l-6.5-10.5L338.7,1346.5z
	 M340.7,1352.5l8.5,8.5l5-8.5H340.7z M354.2,1348.5l-2.5-5l-8.5,5H354.2z M345.2,1322.5l21,6l-6-21l-12,3L345.2,1322.5z M363.7,1332
	l-17-4.5l6.5,10.5L363.7,1332z M354.2,1371.5l-4-4l-3.5,6L354.2,1371.5z M350.7,1301l-1.5,5l7.5-1.5L350.7,1301z M365.7,1368.5
	l-8-14l-5.5,9.5l6.5,6.5L365.7,1368.5z M352.7,1297.5l6,3.5l-2-7.5L352.7,1297.5z M353.2,1291.5l2.5-2.5l-1-2.5L353.2,1291.5z
	 M355.2,1341.5l2.5,5l5.5-10L355.2,1341.5z M357.2,1276.5h6.5l-5-5L357.2,1276.5z M357.2,1280.5l1.5,5.5l5.5-5.5H357.2z M359.7,1267
	l9,9l15.5-15.5l-21-5.5L359.7,1267z M384.2,1297l-15.5-15.5l-8.5,9l3,12L384.2,1297z M361.2,1348.5h10l-3-12L361.2,1348.5z
	 M374.7,1361l-2-8.5h-11.5l8,14L374.7,1361z M364.7,1248.5l11-6.5l-6-10.5L364.7,1248.5z M375.7,1315.5l-10.5-6.5l4.5,17
	L375.7,1315.5z M377.7,1245.5l-10.5,6.5l17,4.5L377.7,1245.5z M383.7,1301l-16.5,4.5l10.5,6.5L383.7,1301z M386.2,1209h-10.5
	l-4,14.5l14.5-4V1209z M386.2,1338l-14.5-4l4,14.5h10.5V1338z M386.2,1264.5l-12.5,12h12.5V1264.5z M386.2,1280.5h-12.5l12.5,12.5
	V1280.5z M386.2,1223.5l-12,3.5l12,7V1223.5z M379.2,1240l5-2.5l-10-6L379.2,1240z M374.2,1325.5l10-5.5l-5-2.5L374.2,1325.5z
	 M386.2,1323.5l-12,7l12,3V1323.5z M376.7,1205h6.5l-5-5L376.7,1205z M378.2,1357.5l5-5h-6.5L378.2,1357.5z M386.2,1194.5l-6.5-1.5
	l-0.5,2.5l7,7V1194.5z M386.2,1355.5l-7,6.5l0.5,2.5l6.5-1.5V1355.5z M386.2,1241l-5,2.5l5,8.5V1241z M386.2,1305.5l-5,8.5l5,2.5
	V1305.5z M390.2,1205h9l-2-7.5l-7-2V1205z M390.2,1218.5l5-1.5l-5-5V1218.5z M390.2,1234l14-8l-5.5-5.5l-8.5,2V1234z M390.2,1254.5
	l8.5-8.5l-8.5-5V1254.5z M395.7,1276.5l-5.5-9.5v9.5H395.7z M395.7,1280.5h-5.5v10L395.7,1280.5z M406.2,1262.5l5.5-9.5l-9-5
	l-11,10.5L406.2,1262.5z M405.7,1229.5l-13.5,8l9.5,5.5l6-6L405.7,1229.5z M404.2,1266l-12-3.5l7,12L404.2,1266z M400.7,1209h-8l7,7
	l2.5-0.5L400.7,1209z M409.2,1241.5l-4,3.5l6,3.5L409.2,1241.5z"/>
<path class="st1" d="M659.2,1276.5l18.5,18.5v54l-20.5,20l-53.5,14.5l-84-22.5l-12-43.5l41-41l-18.5-18.5v-54l20-20l53.5-14.5
	l84.5,22.5l12,43.5L659.2,1276.5z M514.2,1326l14-8l-9.5-5.5l-6.5,6L514.2,1326z M530.2,1321.5l-14,8l5.5,5.5l8.5-2.5V1321.5z
	 M519.7,1346h7.5l-6.5-6.5l-2.5,0.5L519.7,1346z M530.2,1350h-9.5l2,7.5l7.5,2V1350z M530.2,1301l-9,8.5l9,5V1301z M530.2,1337l-5,1
	l5,5.5V1337z M534.2,1217.5l14.5,3.5l-4-14h-10.5V1217.5z M534.2,1231.5l12-7l-12-3V1231.5z M534.2,1250l5-8.5l-5-3V1250z
	 M534.2,1314.5l5-3l-5-8.5V1314.5z M534.2,1331.5l12-3l-12-7V1331.5z M544.7,1346l4-14l-14.5,3.5v10.5H544.7z M541.2,1360l-7-7v7.5
	l6,2L541.2,1360z M546.2,1229.5l-10,5.5l5,3L546.2,1229.5z M536.2,1254l17-4.5l-10.5-6L536.2,1254z M551.7,1273.5l8.5-8.5l-3-12.5
	l-21,6L551.7,1273.5z M536.2,1294.5l21,6l3-12.5l-9-8.5L536.2,1294.5z M536.2,1299l6.5,10.5l10.5-6L536.2,1299z M541.2,1315l-5,3
	l10,5.5L541.2,1315z M537.2,1203h6.5l-1.5-5.5L537.2,1203z M543.7,1350h-6.5l5,5.5L543.7,1350z M544.7,1363.5l-0.5-0.5v0.5H544.7z
	 M555.2,1246l-4.5-17l-6,11L555.2,1246z M555.2,1307l-10.5,6l6,11L555.2,1307z M545.7,1194.5l2,8.5h11.5l-8-14L545.7,1194.5z
	 M551.2,1364l8-14h-11.5l-2,8.5L551.2,1364z M559.2,1207h-10.5l3.5,12L559.2,1207z M548.7,1346h10.5l-7-12L548.7,1346z M613.2,1377
	l21.5-80.5l-31.5-18h-36l-13.5,50l25.5,44l24.5,7L613.2,1377z M559.7,1248l12.5-3.5l3-12l-21-5.5L559.7,1248z M554.7,1187l8,14
	l5.5-10l-6.5-6L554.7,1187z M561.7,1368l6.5-6l-5.5-10l-8,14L561.7,1368z M562.7,1274.5l-1-5l-5.5,5H562.7z M556.2,1278.5l5.5,5l1-5
	H556.2z M565.2,1213.5l-2.5-4.5l-6,9.5L565.2,1213.5z M556.7,1223.5l17,4.5l-6.5-11L556.7,1223.5z M567.2,1257.5l-5.5-3l2,7
	L567.2,1257.5z M569.2,1254.5l1.5-5.5l-7,2L569.2,1254.5z M564.7,1266l1,3l1-5L564.7,1266z M566.2,1183.5l4,4l3.5-5.5L566.2,1183.5z
	 M579.7,1203l-8.5-9l-5,9H579.7z M566.2,1207l2.5,4.5l8.5-4.5H566.2z M573.7,1371l-3.5-5.5l-4,4L573.7,1371z M568.2,1274.5h28
	l-24.5-14L568.2,1274.5z M570.7,1215l6.5,11l4.5-17L570.7,1215z M594.7,1176l-21.5,80.5l31,18h36.5l13.5-50l-25.5-44l-25-7
	L594.7,1176z M578.2,1181.5l-5,9l10.5,10.5l4-14.5L578.2,1181.5z M582.7,1179.5l6,3l1.5-5L582.7,1179.5z M639.7,1278.5h-28.5
	l24.5,14L639.7,1278.5z M625.2,1373.5l-6-3l-1.5,5L625.2,1373.5z M629.2,1371.5l5.5-9l-10.5-10.5l-4,14.5L629.2,1371.5z M637.2,1338
	l-6.5-11l-4.5,17L637.2,1338z M628.2,1350l8.5,9l5-9H628.2z M641.7,1346l-2.5-4.5l-8.5,4.5H641.7z M647.7,1305l-12,3.5l-3,12l21,5.5
	L647.7,1305z M634.2,1182l3.5,5.5l3.5-4L634.2,1182z M651.2,1329.5l-17-4.5l6.5,11L651.2,1329.5z M641.7,1369.5l-4-4l-3.5,5.5
	L641.7,1369.5z M638.2,1298.5l-1,5.5l7-2L638.2,1298.5z M645.7,1185l-6,6l5.5,10l8-14L645.7,1185z M653.2,1366l-8-14l-5.5,10l6.5,6
	L653.2,1366z M640.2,1295.5l6,3l-2-7L640.2,1295.5z M643.2,1287l-1-3l-1,5L643.2,1287z M642.7,1339.5l2.5,4.5l5.5-9.5L642.7,1339.5z
	 M651.7,1274.5l-5.5-5l-1.5,5H651.7z M651.7,1278.5h-7l1.5,5L651.7,1278.5z M671.7,1258.5l-21-6l-3,12.5l8.5,8.5L671.7,1258.5z
	 M656.2,1279.5l-8.5,8.5l3,12.5l21-6L656.2,1279.5z M656.7,1189l-8,14h11.5l2-8.5L656.7,1189z M658.7,1207h-10l7,12L658.7,1207z
	 M648.7,1346h10l-3-12L648.7,1346z M662.2,1358.5l-2-8.5h-11.5l8,14L662.2,1358.5z M652.7,1246l10.5-6l-6-11L652.7,1246z
	 M652.7,1307l4.5,17l6-11L652.7,1307z M665.2,1243.5l-10.5,6l16.5,4.5L665.2,1243.5z M671.2,1299l-16.5,4.5l10.5,6L671.2,1299z
	 M663.2,1207l-4,14l14.5-3.5V1207H663.2z M673.7,1335.5l-14.5-3.5l4,14h10.5V1335.5z M673.7,1221.5l-12,3l12,7.5V1221.5z
	 M666.7,1238l5-3l-10-5.5L666.7,1238z M661.7,1323.5l10-5.5l-5-3L661.7,1323.5z M673.7,1321.5l-12,7l12,3V1321.5z M663.2,1190
	l0.5-0.5h-0.5V1190z M664.2,1203h6.5l-5-5.5L664.2,1203z M670.7,1350h-6.5l1.5,5.5L670.7,1350z M666.7,1193l7,7v-7.5l-6.5-2
	L666.7,1193z M673.7,1238.5l-5,3l5,9V1238.5z M673.7,1303l-5,8.5l5,3V1303z M677.7,1203h9.5l-2-7.5l-7.5-2V1203z M677.7,1216.5
	l5-1.5l-5-5V1216.5z M677.7,1231.5l14-8l-5.5-5.5l-8.5,2.5V1231.5z M677.7,1252l8.5-8.5l-8.5-5V1252z M693.7,1227l-14,8l9.5,6
	l6.5-6.5L693.7,1227z M688.2,1207h-8l7,6.5l2.5-0.5L688.2,1207z"/>
<path class="st1" d="M988.2,1250.5l-26.5,45.5v68l-73.5,19.5l-84.5-22.5l-12-43.5l24-24l29.5,8l-7.5,27l25.5,44l25,7l9-2.5
	l26.5-98.5h-89l-20.5-20.5v-68.5l74-20l84,22.5L988.2,1250.5z M798.2,1326l14-8l-9.5-6l-6.5,6.5L798.2,1326z M814.2,1321.5l-14,8
	l5.5,5.5l8.5-2.5V1321.5z M803.7,1346h8l-7-6.5l-2.5,0.5L803.7,1346z M814.2,1350h-9.5l2,7.5l7.5,2V1350z M814.2,1300.5l-8.5,9
	l8.5,5V1300.5z M814.2,1336.5l-5,1.5l5,5.5V1336.5z M818.2,1200l7-7l-0.5-2.5l-6.5,2V1200z M818.2,1217.5l14.5,3.5l-4-14h-10.5
	V1217.5z M818.2,1231.5l12-7l-12-3V1231.5z M818.2,1250l5-8.5l-5-3V1250z M818.2,1314.5l5-3l-5-8.5V1314.5z M818.2,1331.5l12-3
	l-12-7V1331.5z M828.7,1346l4-14l-14.5,3.5v10.5H828.7z M825.2,1360l-7-7v7.5l6.5,2L825.2,1360z M830.2,1229.5l-10,5.5l5,3
	L830.2,1229.5z M820.2,1254l17-4.5l-10.5-6L820.2,1254z M835.7,1273.5l8.5-8.5l-3-12.5l-21,6L835.7,1273.5z M820.2,1299l6.5,10.5
	l10.5-6L820.2,1299z M825.2,1315l-5,3l10,5.5L825.2,1315z M826.2,1197.5l-5,5.5h6.5L826.2,1197.5z M827.7,1350h-6.5l5,5.5
	L827.7,1350z M828.2,1190l0.5-0.5h-0.5V1190z M828.7,1363.5l-0.5-0.5v0.5H828.7z M839.2,1246l-4.5-17l-6,11L839.2,1246z M839.2,1307
	l-10.5,6l6,11L839.2,1307z M829.7,1194.5l2,8.5h11.5l-8-14L829.7,1194.5z M835.2,1364l8-14h-11.5l-2,8.5L835.2,1364z M843.2,1207
	h-10l3,12L843.2,1207z M836.2,1334l-3,12h10L836.2,1334z M856.2,1244.5l3-12l-21-5.5l5.5,21L856.2,1244.5z M838.7,1187l8,14l5.5-10
	l-6-6L838.7,1187z M846.2,1368l6-6l-5.5-10l-8,14L846.2,1368z M846.7,1274.5l-1-5l-5.5,5H846.7z M840.7,1223.5l17,4.5l-6.5-11
	L840.7,1223.5z M849.2,1213.5l-2.5-4.5l-5.5,9.5L849.2,1213.5z M851.2,1257.5l-5.5-3l2,7L851.2,1257.5z M847.7,1251l5.5,3.5l1.5-5.5
	L847.7,1251z M850.7,1264l-2,2l1,3L850.7,1264z M864.2,1203l-9-9l-5,9H864.2z M850.2,1207l2.5,4.5l8.5-4.5H850.2z M850.7,1183.5
	l3.5,4l3.5-5.5L850.7,1183.5z M857.7,1371l-3.5-5.5l-3.5,4L857.7,1371z M880.7,1274.5l-25-14l-3.5,14H880.7z M861.2,1226l4.5-17
	l-11,6L861.2,1226z M924.7,1274.5l13.5-50.5l-25-43.5l-25-7l-9.5,2.5l-21.5,80.5l31.5,18H924.7z M862.2,1181.5l-5,9l10.5,10.5
	l4-14.5L862.2,1181.5z M866.7,1179.5l6,3l1.5-5L866.7,1179.5z M909.2,1373.5l-6-3l-1.5,5L909.2,1373.5z M913.7,1371.5l5-9
	l-10.5-10.5l-4,14.5L913.7,1371.5z M910.2,1344l11-6l-6.5-11L910.2,1344z M912.2,1350l8.5,9l5-9H912.2z M925.7,1346l-2.5-4.5
	l-8.5,4.5H925.7z M916.7,1320.5l21,5.5l-5.5-21l-12.5,3.5L916.7,1320.5z M918.2,1182l3.5,5.5l4-4L918.2,1182z M935.2,1329.5l-17-4.5
	l6.5,11L935.2,1329.5z M925.7,1369.5l-4-4l-3.5,5.5L925.7,1369.5z M921.2,1304l7-2l-5.5-3L921.2,1304z M929.7,1185l-6,6l5.5,10
	l8.5-14L929.7,1185z M937.2,1366l-8-14l-5.5,10l6.5,6L937.2,1366z M924.7,1295.5l5.5,3l-2-7L924.7,1295.5z M927.2,1287l-1-3l-1,5
	L927.2,1287z M926.7,1339.5l2.5,4.5l6-9.5L926.7,1339.5z M935.7,1274.5l-5.5-5l-1,5H935.7z M930.2,1283.5l5.5-5h-6.5L930.2,1283.5z
	 M940.2,1273.5l15.5-15l-21-5.5l-3,12L940.2,1273.5z M955.7,1294.5l-15.5-15l-8.5,8.5l3,12.5L955.7,1294.5z M940.7,1189l-8,14h11.5
	l2-8.5L940.7,1189z M943.2,1207h-10.5l7,12L943.2,1207z M932.7,1346h10.5l-3.5-12L932.7,1346z M946.2,1358.5l-2-8.5h-11.5l8,14
	L946.2,1358.5z M941.2,1229l-4.5,17l10.5-6L941.2,1229z M947.2,1313l-10.5-6l4.5,17L947.2,1313z M955.7,1254l-6.5-10.5l-10.5,6
	L955.7,1254z M955.7,1299l-17,4.5l10.5,6L955.7,1299z M957.7,1207h-10.5l-4,14l14.5-3.5V1207z M957.7,1335.5l-14.5-3.5l4,14h10.5
	V1335.5z M957.7,1262l-12.5,12.5h12.5V1262z M957.7,1278.5h-12.5l12.5,12.5V1278.5z M957.7,1221.5l-12,3l12,7V1221.5z M945.7,1323.5
	l10-5.5l-5-3L945.7,1323.5z M957.7,1321.5l-12,7l12,3V1321.5z M950.7,1238l5-3l-9.5-5.5L950.7,1238z M947.2,1189.5l0.5,0.5v-0.5
	H947.2z M947.7,1363l-0.5,0.5h0.5V1363z M948.2,1203h6.5l-5-5.5L948.2,1203z M949.7,1355.5l5-5.5h-6.5L949.7,1355.5z M957.7,1192.5
	l-6.5-2l-0.5,2.5l7,7V1192.5z M957.7,1353l-7,7l1,2.5l6-2V1353z M957.7,1238.5l-5,3l5,8.5V1238.5z M957.7,1303l-5,8.5l5,3V1303z
	 M961.7,1203h9.5l-2-7.5l-7.5-2V1203z M961.7,1216.5l5-1.5l-5-5.5V1216.5z M961.7,1231.5l14-8l-5.5-5.5l-8.5,2.5V1231.5z
	 M961.7,1252.5l8.5-9l-8.5-5V1252.5z M967.2,1274.5l-5.5-9.5v9.5H967.2z M967.2,1278.5h-5.5v9.5L967.2,1278.5z M977.7,1227l-14,8
	l9.5,6l6.5-6.5L977.7,1227z M977.7,1260l5.5-9l-9-5l-10.5,10.5L977.7,1260z M975.7,1263.5l-12-3l7,12L975.7,1263.5z M972.2,1207h-8
	l7,6.5l2.5-0.5L972.2,1207z M980.7,1239l-3.5,4l5.5,3L980.7,1239z"/>
<path class="st1" d="M1744.8,1364.6l7-23.5l25.8,14.1L1744.8,1364.6z M1822.2,1343.4l16.4-25.8l16.4,16.4L1822.2,1343.4z
	 M1503.1,1334.1l18.8-16.4l14.1,25.8L1503.1,1334.1z M1399.9,1308.2v-2.3l2.3,2.3H1399.9z M1381.1,1303.6l-28.2-9.4V1259l30.5,32.8
	L1381.1,1303.6z M1876.2,1329.4l-28.2-30.5l25.8-44.6l37.5,65.7L1876.2,1329.4z M1798.7,1345.8l-42.2-23.5l18.8-68l49.3,49.3
	L1798.7,1345.8z M1446.8,1320l37.5-65.7l28.2,46.9l-30.5,28.2L1446.8,1320z M1967.7,1270.7l-4.7-25.8h30.5L1967.7,1270.7z
	 M1927.8,1310.6l-37.5-65.7h51.6l11.7,39.9L1927.8,1310.6z M1857.4,1244.9l-23.5,42.2l-42.2-42.2H1857.4z M1404.6,1284.8l11.7-39.9
	h51.6l-37.5,65.7L1404.6,1284.8z M1390.5,1270.7l-25.8-25.8h32.8L1390.5,1270.7z M1334.2,1289.5l-35.2-9.4l-9.4-35.2h44.6V1289.5z
	 M1803.4,1226.2l39.9-23.5l14.1,23.5H1803.4z M1275.5,1198l11.7-4.7l32.8,32.8h-35.2L1275.5,1198z M1334.2,1212.1l-25.8-23.5l25.8-7
	V1212.1z M1270.8,1179.2v-2.3l2.3,2.3H1270.8z M1899.6,1172.2l-25.8,44.6l-14.1-23.5L1899.6,1172.2z M1923.1,1169.9l14.1,56.3h-46.9
	L1923.1,1169.9z M1435.1,1169.9l32.8,56.3H1421L1435.1,1169.9z M2005.2,1226.2H1956l-16.4-68l65.7,18.8L2005.2,1226.2z M1353,1226.2
	v-49.3l65.7-18.8l-16.4,68L1353,1226.2z M1784.7,1216.8l21.1-79.8l28.2,49.3L1784.7,1216.8z M1850.4,1176.9l-28.2-49.3l79.8,21.1
	L1850.4,1176.9z M1353,1111.2l56.3,30.5l-56.3,16.4V1111.2z M2005.2,1158.1l-56.3-16.4l56.3-32.8V1158.1z M1334.2,1162.8l-39.9,9.4
	l-25.8-23.5l65.7-39.9L1334.2,1162.8z M1974.8,1080.7l21.1,14.1l-44.6,25.8L1974.8,1080.7z M1407,1120.5l-44.6-25.8l21.1-14.1
	L1407,1120.5z M1249.8,1097.1l28.2-30.5l46.9,28.2l-65.7,37.5L1249.8,1097.1z M1927.8,1120.5l-21.1-77.4l51.6,28.2L1927.8,1120.5z
	 M1430.4,1122.9l-30.5-51.6l51.6-28.2L1430.4,1122.9z M1235.7,1043.1l25.8,14.1l-18.8,18.8L1235.7,1043.1z M1885.6,1033.7l25.8,98.5
	l-96.2-25.8l14.1-56.3L1885.6,1033.7z M2005.3,1078.3l-21.1-14.1l21.1-39.9V1078.3z M1353,1024.3l21.1,39.9l-21.1,14.1V1024.3z
	 M1334.2,1078.3l-42.2-25.8l42.2-39.9V1078.3z M1967.7,1054.8l-51.6-28.2l79.8-21.1L1967.7,1054.8z M1362.4,1005.6l79.8,21.1
	l-51.6,28.2L1362.4,1005.6z M1869.2,1019.7l-35.2,9.4l7-25.8L1869.2,1019.7z M1256.8,977.4l68,16.4l-49.3,49.3l-42.2-23.5
	L1256.8,977.4z M1869.2,970.4l9.4,32.8l-28.2-16.4L1869.2,970.4z M1852.8,958.7l7-23.5l2.3,14.1L1852.8,958.7z M1292,918.8
	l30.5,56.3l-54-16.4L1292,918.8z M1899.7,1010.3l-16.5-56.3l42.2-39.9l72.7,70.4L1899.7,1010.3z M1360,984.5l72.7-72.7L1475,954
	l-16.4,56.3L1360,984.5z M2024,954v-44.6h28.1L2024,954z M2005.2,968l-56.3-58.7h56.3V968z M1902,909.4l-23.5,23.5l-7-23.5H1902z
	 M1456.2,909.4h30.5l-7,23.5L1456.2,909.4z M1353,909.4h56.3L1353,968V909.4z M1334.2,954l-25.8-44.6h25.8V954z M1871.5,890.7
	l7-23.5l23.5,23.4L1871.5,890.7z M1456.2,890.7l23.5-25.8l7,25.8H1456.2z M2024,890.7v-47l28.1,46.9L2024,890.7z M1334.2,890.7
	h-25.8l25.8-46.9V890.7z M1505.5,841.4l-7,21.1l-2.3-11.7L1505.5,841.4z M2005.2,890.7h-56.3l56.3-58.7V890.7z M1353,832l58.7,58.7
	H1353V832z M2068.6,881.3l-32.8-56.3l56.2,14L2068.6,881.3z M1489,829.6l-7-32.8l25.8,14.1L1489,829.6z M1883.2,846l16.4-58.7
	l98.5,25.8l-72.7,72.7L1883.2,846z M1458.5,787.3l16.5,56.3l-42.2,42.2l-70.4-72.7L1458.5,787.3z M1491.4,780.3l32.8-9.4l-7,23.5
	L1491.4,780.3z M2101.4,822.6l-68-18.8l49.3-49.3l42.2,25.8L2101.4,822.6z M1916.1,773.3l51.6-28.2l28.2,49.3L1916.1,773.3z
	 M1390.5,745.2l51.6,28.2l-79.8,21.1L1390.5,745.2z M2124.9,756.9l-28.2-16.4l18.8-16.5L2124.9,756.9z M2024,721.7l42.2,23.5
	l-42.2,42.2V721.7z M2005.2,773.3l-21.1-37.5l21.1-14.1V773.3z M1353,721.7l23.5,14.1l-23.5,37.5V721.7z M1951.3,679.5l44.6,25.8
	l-21.1,14.1L1951.3,679.5z M1385.9,719.4l-23.5-14.1l44.6-25.8L1385.9,719.4z M1958.3,728.7l-51.6,28.2l21.1-79.8L1958.3,728.7z
	 M1430.4,677.1l21.1,79.8l-51.6-28.2L1430.4,677.1z M2108.5,702.9l-28.2,28.2l-46.9-25.8l65.7-37.5L2108.5,702.9z M1472.7,763.9
	l-25.8-96.2l98.5,25.8l-16.4,56.3L1472.7,763.9z M2005.2,688.9l-56.3-32.9l56.3-14.1V688.9z M1353,641.9l56.3,14.1l-56.3,32.8V641.9
	z M2024,637.2l39.9-11.7l25.8,25.8l-65.7,37.5V637.2z M2087.4,620.8v2.3l-2.4-2.3H2087.4z M1507.8,620.8l28.2,51.6l-79.8-21.1
	L1507.8,620.8z M2024,585.6l25.8,25.8l-25.8,4.7V585.6z M1524.2,611.4l49.3-28.2l-21.1,79.7L1524.2,611.4z M1458.6,627.8l25.8-44.6
	l14.1,21.1L1458.6,627.8z M1554.8,573.8l-39.9,21.2l-14.1-21.1L1554.8,573.8z M1435.1,630.1l-14.1-56.3h46.9L1435.1,630.1z
	 M1353,573.9h49.3l16.4,65.7l-65.7-16.4L1353,573.9L1353,573.9z M2082.6,602l-11.7,2.3l-32.8-32.8h35.2L2082.6,602z M2005.2,623.1
	l-65.7,16.4l16.4-68h49.3L2005.2,623.1L2005.2,623.1z M1923.1,627.8l-32.8-56.3h46.9L1923.1,627.8z M1967.7,529.3l25.8,23.5H1963
	L1967.7,529.3z M1397.5,555.1h-32.8l25.8-25.8L1397.5,555.1z M1500.8,555.1l23.5-42.2l42.2,42.2H1500.8z M2024,510.5l35.2,9.4
	l9.4,32.8H2024V510.5z M2005.2,541l-30.5-32.9l2.3-11.7l28.2,7V541z M1353,503.5l28.2-7l2.3,11.7L1353,541V503.5z M1399.9,491.8h2.3
	l-2.3,2.4V491.8z M1953.6,512.9l-11.7,39.9h-51.6l37.5-63.4L1953.6,512.9z M1430.4,489.4l37.5,65.7h-51.6l-11.7-39.9L1430.4,489.4z
	 M1911.4,480l-37.5,63.4l-25.9-44.6l28.2-28.1L1911.4,480z M1482,470.6l28.2,28.1l-25.8,46.9l-37.5-65.7L1482,470.6z M1855,463.6
	l-16.4,18.8l-16.4-28.2L1855,463.6z M1601.6,477.7l-16.4,68l-51.6-49.3l25.8-42.2L1601.6,477.7z M1536,454.2l-14.1,28.2l-18.8-18.8
	L1536,454.2z M1613.4,435.5l-4.7,23.5l-28.2-16.4L1613.4,435.5z M1679.1,1383.3l-117.3-32.8L1442.1,1144l32.9-119.7l159.5-595.9
	l44.6-11.7l117.3,32.9l119.7,204.1l-192.4,718L1679.1,1383.3z M2075.6,503.5l-396.5-105.6l-344.9,91.5v316.7L1209.8,1022l72.7,274.5
	l396.5,105.6l126.7-32.8l124.3-35.2l93.9-93.9V991.5L2148.3,778L2075.6,503.5z"/>
<path class="st1" d="M389.2,175.5L388,175l-4.1-2.3l-2.3,3.9l-5.1,1.3v-14.1l5.9-10.4l-3.5-13.3l-5-1.3l-14.2-3.8l-6.2,1.7l-1.7,3
	l0.1,0l-4.2,7.3l0,0l0,0l-0.2,0.3l1.8,6.6l6.5-1.8l4.7-4.7l-7.6-7.6l1.3-2.2l5.6-1.5l5.7,1.5l5.7,9.9l-1.5,5.5l-10,5.7h-11.9
	l-9.8,9.6l2.6,10l12.9,3.4l0.1,0.3l10.7-6.1l3.4-2l3.7,6.4l4.7-1.3l4.7-1.2l0,0L389.2,175.5z M384.3,174l1.6,0.9h-2.2L384.3,174z
	 M383.1,175.9h0.9l-1.1,0.3L383.1,175.9z M378.5,158.2l-1.5-2.5l2.5,0.7L378.5,158.2z M380.1,155.4l-3.2-0.8l2.3-2.3l2,1.2
	L380.1,155.4z M381.1,152.2l-1.1-0.6l0.7-0.7L381.1,152.2z M380.4,149.7l-1.3,1.3l-2.1-1.2l3-1.8L380.4,149.7z M379.1,144.7
	l-0.5,0.1l-1.4-1.4h1.6L379.1,144.7z M376.5,140.5l1.6,0.4l0.4,1.6h-2V140.5z M376.5,144.2l1,1l-1,0.3V144.2z M376.5,146.5l1.8-0.5
	l1.2,1.2l-3,1.7V146.5z M376.5,150.7l1.9,1.1l-1.9,1.9V150.7z M376.5,156.7l1.1,2h-1.1V156.7z M376.5,159.7h1.2l-1.2,2V159.7z
	 M350.5,144.1l0.5,0.9l-1.6,0.9L350.5,144.1z M351.5,145.9l1.2,2.2l-3.4-0.9L351.5,145.9z M351.3,143.5h2.4l-1.8,1L351.3,143.5z
	 M352.5,152l-2.5,0.7l-1.3-4.7l4.5,1.2L352.5,152z M353.6,151.7l0.4-1.4l0.7,1.2L353.6,151.7z M355.5,150.9l-0.7-1.3l1.6,0.4
	L355.5,150.9z M359.1,147.4l-1.9,1.9l-2.8-0.7l1.2-4.6L359.1,147.4z M353.6,147.6l-1.3-2.2l2.2-1.3L353.6,147.6z M354.2,142.5h-2.8
	l1-1.8L354.2,142.5z M373.7,141.4l1.1,1.1h-1.3L373.7,141.4z M372.9,140.6l-0.5,1.9H370l1.8-3.1L372.9,140.6z M366.7,137.9l1.4,0.4
	l-0.7,0.7L366.7,137.9z M367.9,139.9l1.4-1.3l1.6,0.4l-1.7,3L367.9,139.9z M369.9,143.5h2.2l-0.7,2.6L369.9,143.5z M371.8,148.5
	l1.4,2.4l-2.4,1.4L371.8,148.5z M373.1,148.7l1.9,1.1l-1,0.6L373.1,148.7z M375,154.1l-3.7-1l2.4-1.4L375,154.1z M370.4,153.9
	l4.6,1.2l-3.4,3.4l-1.9-1.9L370.4,153.9z M368.9,162.6l0.4,1.4l-1.2-0.7L368.9,162.6z M368.2,161.9l0.2-0.9l0.1,0.5L368.2,161.9z
	 M369.2,159.7h1.2l-1,1L369.2,159.7z M368.8,164.9l-1.4,0.4l0.3-1L368.8,164.9z M369.7,165.7l1.2,4.6l-4.6-1.3l0.7-2.6L369.7,165.7z
	 M371.8,169.8l-1-3.7l2.3,1.3L371.8,169.8z M372.2,174.9h-2.1l1.4-2.5L372.2,174.9z M374,167.9l1,0.6l-1.9,1.1L374,167.9z
	 M373.7,166.6l-2.3-1.3l3.6-1L373.7,166.6z M370.4,164.5l-0.7-2.7l1.9-1.9l3.4,3.4L370.4,164.5z M370.4,158.7h-1.3l0.3-1
	L370.4,158.7z M357.9,159.7l-5.4,3.1l-0.9-3.1H357.9z M351.1,161.3l0.1,0.5l-0.2-0.2L351.1,161.3z M351.4,163.4l-1.1,0.6l0.4-1.4
	L351.4,163.4z M350.4,159.7l-0.3,1.1l-1.1-1.1H350.4z M347.9,159.9l2,2l-0.7,2.6l-4.6-1.3L347.9,159.9z M347.7,169.7l-1.3-2.3
	l2.3-1.3L347.7,169.7z M348.1,172.3l1.5,2.6h-2.2L348.1,172.3z M346.5,169.6l-2-1.1l1-0.6L346.5,169.6z M344.6,164.3l3.6,1l-2.3,1.3
	L344.6,164.3z M344.1,165.4l1,1.7l-1,0.6V165.4z M344.1,169.4l2.5,1.4l-2.5,0.7V169.4z M339.1,168.7l1.4-1.4l2.1,1.2l-3.1,1.8
	L339.1,168.7z M340.4,173.5l0.5-0.1l1.5,1.5h-1.6L340.4,173.5z M343.1,177.9l-1.7-0.4l-0.4-1.6h2.1V177.9z M343.1,174.3l-1.2-1.2
	l1.2-0.3V174.3z M343.1,171.8l-2,0.5l-1.2-1.2l3.1-1.8V171.8z M343.1,167.7l-1.9-1.1l1.9-1.9V167.7z M345.3,178.5l-1.2-0.3v-1.5
	l1.4,1.4L345.3,178.5z M345.8,177l-1.1-1.1h1.3L345.8,177z M344.1,174.9v-2.4l3.1-0.8l-0.9,3.2H344.1z M346.6,177.8l0.5-1.9h2.4
	l-1.8,3.1L346.6,177.8z M348.6,179.4l1.8-3l1.2,2.1l-1.4,1.4L348.6,179.4z M351.4,180.1l0.8-0.8l0.6,1.1L351.4,180.1z M363.7,175.1
	l-9.7,5.5l-5.5-9.7l1.5-5.5l10.1-5.8l0,0l9.2-5.3L363.7,175.1z M364.9,174.4l1-3.7l1.3,2.3L364.9,174.4z M366.7,170.2l3.6,1
	l-2.3,1.3L366.7,170.2z M368.6,173.4l1.8-1l-1.2,2.1L368.6,173.4z M371.8,178.9l-1.7-3h2.4l0.5,1.9L371.8,178.9z M373.5,175.9h1.3
	l-1,1L373.5,175.9z M375.5,178.1l-1.3,0.4l-0.1-0.4l1.5-1.5V178.1z M375.5,174.9h-2.3l-0.8-3.2l3.1,0.9V174.9z M375.5,171.5
	l-2.6-0.7l2.6-1.5V171.5z M375.5,167.6l-1-0.6l1-1.7V167.6z M375.5,162.4l-2.7-2.7h2.7V162.4z M375.5,158.7h-2.7l2.7-2.7V158.7z
	 M375.5,152.9l-1-1.7l1-0.6V152.9z M375.5,149l-2.6-1.5l2.6-0.7V149z M375.5,145.7l-3.2,0.9l0.8-3.1h2.3V145.7z M375.5,141.8
	l-1.5-1.5l0.1-0.4l1.3,0.3V141.8z"/>
<path class="st1" d="M292.1,141.9v-4.1l-5-1.4l-2.5,4.5h-12.6l10.4-38.9l-5.7-1.4l-4.8,4.9l-0.1,0l0,0l-4.4,4.4h-0.1v0.1l-0.3,0.3
	l-1.6,14.6l-0.1,0.1l0.1,0l-2.2,20.5l-10.4,17.9l2.6,9.9h-3.9l1.4,2.5l16.4,4.4l0-0.1l6.1,1.7l12.6-3.4l-3-5.1h-5.7l-1.8,6.9
	l-2.1,0.6l-5.6-1.5l-5.7-9.8l7.4-27.5H292.1z M290,138.3l1.1,0.3v1.5l-1.3-1.3L290,138.3z M289.5,139.9l1,1h-1.2L289.5,139.9z
	 M287.4,137.8l1.3,1.3l-0.5,1.8h-2.6L287.4,137.8z M282.4,178.9l0.7-1.2l0.8,0.8L282.4,178.9z M286.5,177.8l-1.5,0.4l-1.4-1.4l1.2-2
	L286.5,177.8z M283.9,174.3l-1,1.8l-1.8-1.8H283.9z M280.1,174.7l2.3,2.3l-1.2,2l-2-1.2L280.1,174.7z M279,178.8l1.1,0.7l-1.4,0.4
	L279,178.8z M272.2,135.9l-2.5-3.9l3.3,0.9L272.2,135.9z M273.3,131.9l-4-1.1l2.9-3.2l1.8,1.8L273.3,131.9z M276.3,108.1l1.9,1.9
	h-2.9L276.3,108.1z M276.1,106.5l-0.8-0.8l1.5-0.4L276.1,106.5z M272.1,113.6l-0.7-2.6h2.2L272.1,113.6z M274.4,111.4l2.4,4.2
	l-4.2-1.1L274.4,111.4z M271.7,116.1l1,3.5l-2.3-1.3L271.7,116.1z M272.2,120.6l-3.6,1l1.3-2.3L272.2,120.6z M273.1,121.3l0.8,2.9
	l-1.7,1.9h-0.1l-3.5-3.5L273.1,121.3z M274.2,125.3l0.2,0.8h-0.9L274.2,125.3z M268.5,130.1l-1.9-3h4.7L268.5,130.1z M274.2,128.2
	l-1.1-1.1h1.4L274.2,128.2z M275.1,124.9l-0.1-0.5l0.4-0.4L275.1,124.9z M274.7,123.3l-0.4-1.6l1.2,0.7L274.7,123.3z M276,121.6
	l-1.2-0.7l1.5-0.4L276,121.6z M276.6,119.4l-2.8,0.7l-1.2-4.6l4.7,1.3L276.6,119.4z M277.8,115.2l-2.4-4.2h3.5L277.8,115.2z
	 M279.2,109.6l-2.4-2.4l1.2-2l2.1,1.2L279.2,109.6z M280.4,105.4l-1.2-0.7l1.4-0.4L280.4,105.4z M279.6,102.4l1.5,0.4l-0.1,0.5
	l-2.1,0.5L279.6,102.4z M277,101.8l1.7,0.4l-1,1.7l-1.8-1L277,101.8z M275.2,103.6l1.4,0.8l-2.1,0.5l-0.3-0.3L275.2,103.6z
	 M274.2,106l1.4,1.4l-1.2,2l-1.8-3.1L274.2,106z M271.9,106.9l1.8,3.1h-2.5l-0.5-1.8L271.9,106.9z M269.8,109l0.3,1h-1.3L269.8,109z
	 M268,111h2.4l0.8,3.1l-3.4-0.9L268,111z M267.6,114.2l3.5,0.9l-1.6,2.7l-2.2-1.3L267.6,114.2z M267.2,117.7l1.8,1.1l-1.6,2.7
	l-0.6-0.6L267.2,117.7z M266.4,125.3l1.3-2.2l3,3h-4.4L266.4,125.3z M266.1,128.2l1.4,2.2l-1.6-0.4L266.1,128.2z M265.8,131l1.6,0.4
	l-1.9,2.1L265.8,131z M268.4,131.8l3.1,4.9l-3.8,0.7l-2.3-2.3L268.4,131.8z M266.9,141.9h2.3l-1.7,1L266.9,141.9z M268.5,146.6
	l-3.7-1l2.3-1.3L268.5,146.6z M266.4,140.9l-1.2-2.1l2.2-0.4l2.5,2.5H266.4z M265.2,136.2l1.3,1.3l-1.5,0.3L265.2,136.2z
	 M264.8,140.2l0.4,0.7h-0.5L264.8,140.2z M264.6,141.9h1.1l0.9,1.5l-2.3,1.3L264.6,141.9z M263.5,147.1l1,3.6l-2.3-1.3L263.5,147.1z
	 M261.7,150.2l2.3,1.3l-3.6,1L261.7,150.2z M264.9,152.3l0.7,2.6l-2,2l-3.4-3.4L264.9,152.3z M265.9,156.1l0.3,1h-1.3L265.9,156.1z
	 M259.8,154.5l2.6,2.6h-2.6V154.5z M259.8,158.1h2.7l-2.7,2.7V158.1z M259.8,163.9l1,1.7l-1,0.6V163.9z M260.3,162.8l3.7,1l-2.3,1.3
	L260.3,162.8z M262.2,168.1l-1.8-1.1l0.9-0.5L262.2,168.1z M259.8,167.8l2.5,1.4l-2.5,0.7V167.8z M256.8,158.7l1.4,2.5l-2.5-0.7
	L256.8,158.7z M255.3,161.4l3.1,0.8l-2.3,2.3l-2-1.1L255.3,161.4z M254.2,164.6l1.1,0.6l-0.8,0.8L254.2,164.6z M255.3,168.8
	l-0.4-1.6l1.4-1.4l2.1,1.2L255.3,168.8z M253.6,175.1l-0.4-0.7h2.5l0.4,1.3L253.6,175.1z M256.1,172l0.5-0.1l1.5,1.5h-1.6L256.1,172
	z M258.8,176.4l-1.6-0.4l-0.5-1.7h2V176.4z M258.8,172.6l-1.1-1.1l1.1-0.3V172.6z M258.8,170.2l-1.9,0.5l-1.1-1.1l3-1.7V170.2z
	 M258.8,166.1l-1.9-1.1l1.9-1.9V166.1z M258.8,160.1l-1.1-2h1.1V160.1z M258.8,157.1h-1.1l1.1-1.8V157.1z M261.1,177.1l-1.3-0.4V175
	l1.5,1.5L261.1,177.1z M261.6,175.4l-1.1-1.1h1.4L261.6,175.4z M262.1,177.3L262.1,177.3L262.1,177.3L262.1,177.3z M259.8,173.3V171
	l3.2-0.9l-0.9,3.2H259.8z M268.7,179.1l-1.6-0.4l0.8-0.8L268.7,179.1z M267.4,176.9l-1.4,1.4l-1.6-0.4l1.8-3.1L267.4,176.9z
	 M263.6,177.4l-1.2-1.2l0.5-1.9h2.4L263.6,177.4z M265.3,173.3h-2.1l0.7-2.5L265.3,173.3z M263.5,168.3l-1.3-2.3l2.3-1.3
	L263.5,168.3z M264.9,163l-4.6-1.3l3.4-3.4l2,2L264.9,163z M265.9,159.2l-1.1-1.1h1.4L265.9,159.2z M266.9,155.7l-0.1-0.5l0.3-0.3
	L266.9,155.7z M266.5,154.1l-0.4-1.4l1.1,0.6L266.5,154.1z M267.7,152.6l-1.2-0.7l1.4-0.4L267.7,152.6z M268.3,150.4l-2.7,0.7
	l-1.2-4.6l4.6,1.2L268.3,150.4z M269.4,146.3l-1.4-2.5l2.5-1.4L269.4,146.3z M268.6,138.2l3.2-0.6l-0.8,2.9L268.6,138.2z"/>
<path class="st1" d="M341.9,141.1l-13.2-3.5l-13.7,8l-3.7-6.4l-17.7,4.8l5.3,3.1l2.2-4.1l5.1-1.4v14.2l-5.9,10.4l3.5,13.3l5.5,1.5
	l9.8-36.6l9.6-5.6l8.1,14l7.3-4.2L341.9,141.1z M298.4,145.6l-1.7-1h2.3L298.4,145.6z M299.5,143.6h-1l1.1-0.3L299.5,143.6z
	 M304.1,161.2l1.5,2.6l-2.6-0.7L304.1,161.2z M302.5,164l3.2,0.9l-2.2,2.2l-2-1.2L302.5,164z M301.5,167.1l1.3,0.7l-0.8,0.8
	L301.5,167.1z M302.2,169.8l1.4-1.4l2,1.2l-3.1,1.8L302.2,169.8z M303.5,174.7l0.6-0.1l1.4,1.4h-1.6L303.5,174.7z M306.1,179
	l-1.6-0.4l-0.5-1.7h2V179z M306.1,175.2l-1-1l1-0.2V175.2z M306.1,173l-1.8,0.5l-1.2-1.2l3-1.7V173z M306.1,168.7l-1.7-1l1.7-1.7
	V168.7z M306.1,162.7l-1.1-2h1.1V162.7z M306.1,159.7H305l1.1-1.9V159.7z M316,149.2l-3.8-1l2.4-1.4L316,149.2z M311,159.6l-3.4-3.4
	l4.5-1.2l0.7,2.8L311,159.6z M313.2,158.8l0.2,0.9h-1.1L313.2,158.8z M309,152.8l2.3,1.3l-3.7,1L309,152.8z M308.6,151.4l-1-0.6
	l2-1.2L308.6,151.4z M309.5,151.9l1.3-2.2l0.9,3.5L309.5,151.9z M310.5,144.6h2.2l-1.5,2.6L310.5,144.6z M314.1,146l-1.7,1l1.1-1.9
	L314.1,146z M310.9,140.5l1.8,3.1h-2.5l-0.5-1.9L310.9,140.5z M309.2,143.6h-1.4l1.1-1.1L309.2,143.6z M307.1,141.2l1.3-0.3l0.1,0.5
	l-1.5,1.4V141.2z M307.1,144.6h2.3l0.8,3.1l-3.1-0.8V144.6z M307.1,147.9l2.5,0.7l-2.5,1.4V147.9z M307.1,151.7l1,0.6l-1,1.8V151.7z
	 M307.1,157l2.6,2.7h-2.6V157z M307.1,160.7h2.8l-2.8,2.8V160.7z M307.1,166.4l1,1.8l-1,0.6V166.4z M307.7,165.4l3.5,1l-2.2,1.3
	L307.7,165.4z M309.6,170.7l-2-1.1l1-0.6L309.6,170.7z M307.1,170.4l2.7,1.6l-2.7,0.7V170.4z M308.4,179.7l-1.3-0.4v-1.7l1.5,1.5
	L308.4,179.7z M308.9,178l-1.1-1.1h1.4L308.9,178z M309.5,175.9h-2.4v-2.2l3.2-0.8L309.5,175.9z M310.8,170.8l-1.3-2.3l2.3-1.3
	L310.8,170.8z M312.2,165.6l-4.6-1.3l3.4-3.4l1.9,2L312.2,165.6z M313.2,161.8l-1.1-1.1h1.4L313.2,161.8z M314.1,158.5L314,158
	l0.4-0.4L314.1,158.5z M313.7,156.9l-0.4-1.6l1.3,0.7L313.7,156.9z M315,155.1l-1.1-0.6l1.4-0.4L315,155.1z M315.6,153l-2.8,0.7
	l-1.2-4.6l4.7,1.2L315.6,153z M316.8,148.6l-1.3-2.3l2.3-1.3L316.8,148.6z M342.2,145.8l-0.5,0.1l-1.4-1.4h1.5L342.2,145.8z
	 M339.6,141.5l1.5,0.4l0.5,1.7h-2V141.5z M339.6,145.3l1,1l-1,0.3V145.3z M336.8,142.5l1.1,1.1h-1.4L336.8,142.5z M329.8,138.9
	l1.5,0.4l-0.8,0.8L329.8,138.9z M331,141l1.4-1.4l1.5,0.4l-1.7,3L331,141z M334.8,140.5l1.2,1.2l-0.5,1.9h-2.4L334.8,140.5z
	 M334.6,147l-1.4-2.4h2.1L334.6,147z M337.1,151.4l-0.9-1.6l1.8,1.1L337.1,151.4z M338.6,150.1l-2.6-1.5l2.6-0.7V150.1z
	 M338.6,146.8l-3.2,0.9l0.8-3.1h2.4V146.8z M338.6,142.9l-1.5-1.5l0.1-0.5l1.3,0.4V142.9z M339.6,147.6l1.8-0.5l1.1,1.1l-2.9,1.7
	V147.6z"/>
<path class="st1" d="M460.6,140.1l-13.3-3.5l-12.9,7.4l-1.1-4.1l-13.3-3.3l-13.7,8l-3.7-6.4l-17.7,4.7l5.3,3.1l2.2-4.1l5.2-1.4v14.2
	l-6,10.4l3.5,13.3l5.5,1.5l6.6-24.6l0,0l0,0l3.2-11.9l9.7-5.6l5.5,9.6l-8.7,32.5l3.3,1.9l6.3-1.7l0,0l4.5-1.3v-15.2l5.9-10.4
	l-2.2-8.2l12.7-7.3l2.9,5l0,0l2.5,4.3l0,0.2l0.2,0l0.1,0.2l-0.1,0.2l-0.1,0.1l0.1,0.1l-2.5,9.2l0,0l0,0l-2.3,8.4l0,0l0,0l-2.7,10.1
	l0,0l0,0l-1.1,4.3l3.3,1.9l10.8-2.7v-15.3l5.9-10.4L460.6,140.1z M389.7,144.5l-1.7-1h2.3L389.7,144.5z M390.8,142.5h-1l1.1-0.3
	L390.8,142.5z M395.5,160.1l1.5,2.5l-2.5-0.7L395.5,160.1z M393.9,162.9l3.2,0.9l-2.3,2.3l-2-1.2L393.9,162.9z M392.8,166.1l1.2,0.7
	l-0.8,0.8L392.8,166.1z M393.5,168.7l1.4-1.4l2.1,1.2l-3.1,1.8L393.5,168.7z M394.8,173.6l0.5-0.1l1.5,1.5h-1.7L394.8,173.6z
	 M397.5,178l-1.7-0.5l-0.4-1.6h2.1V178z M397.5,174.2l-1.1-1.1l1.1-0.3V174.2z M397.5,171.8l-1.9,0.5l-1.2-1.2l3.1-1.8V171.8z
	 M397.5,167.7l-1.9-1.1l1.9-1.9V167.7z M397.5,161.7l-1.1-2h1.1V161.7z M397.5,158.7h-1.2l1.2-2V158.7z M407.3,148.1l-3.5-1l2.2-1.3
	L407.3,148.1z M405.4,145l-1.8,1l1.2-2.1L405.4,145z M400.3,151.7l2.3,1.3l-3.6,1L400.3,151.7z M400,150.4l-0.9-0.5l1.8-1L400,150.4
	z M403.6,153.8l0.7,2.7l-1.9,1.9l-3.4-3.4L403.6,153.8z M400.8,150.9l1.3-2.3l1,3.6L400.8,150.9z M401.9,143.5h2.1l-1.4,2.5
	L401.9,143.5z M402.2,139.5l1.8,3h-2.4l-0.5-1.9L402.2,139.5z M400.6,142.5h-1.4l1.1-1.1L400.6,142.5z M398.5,140.2l1.4-0.3l0.1,0.4
	l-1.5,1.5V140.2z M398.5,143.5h2.3l0.8,3.1l-3.1-0.9V143.5z M398.5,146.8l2.7,0.7l-2.7,1.6V146.8z M398.5,150.7l1,0.6l-1,1.7V150.7z
	 M398.5,156l2.7,2.7h-2.7V156z M398.5,159.7h2.7l-2.7,2.6V159.7z M398.5,165.4l1,1.7l-1,0.5V165.4z M399,164.3l3.6,1l-2.3,1.3
	L399,164.3z M400.9,169.6l-2-1.1l1-0.6L400.9,169.6z M398.5,169.4l2.5,1.4l-2.5,0.7V169.4z M399.7,178.6l-1.2-0.3v-1.6l1.4,1.4
	L399.7,178.6z M400.2,176.9l-1-1h1.3L400.2,176.9z M400.7,174.9h-2.2v-2.3l3.1-0.8L400.7,174.9z M402.1,169.7l-1.3-2.3l2.3-1.3
	L402.1,169.7z M403.5,164.5l-4.5-1.2l3.4-3.4l1.9,1.8L403.5,164.5z M404.6,160.6l-0.9-0.9h1.1L404.6,160.6z M403.6,158.7l1-1l0.3,1
	H403.6z M405.5,157.2l-0.1-0.3l0.2-0.2L405.5,157.2z M405.1,155.8l-0.4-1.5l1.2,0.7L405.1,155.8z M406.3,154l-1.1-0.6l1.4-0.4
	L406.3,154z M406.9,151.9l-2.6,0.7L403,148l4.6,1.2L406.9,151.9z M408.1,147.5l-1.3-2.2l2.2-1.3L408.1,147.5z M433.7,145.4l0.1,0.3
	l-0.3-0.3L433.7,145.4z M433.5,144.4l-0.7,0.2l-1.2-1.2h1.6L433.5,144.4z M430.8,140.3l1.7,0.4l0.5,1.8h-2.2V140.3z M430.8,144.1
	l0.9,0.9l-0.9,0.3V144.1z M430.8,146.3l1.7-0.5l1.4,1.4l-3.1,1.8V146.3z M430.8,150.6l1.9,1.1l-1.9,1.9V150.6z M428.6,139.7l1.2,0.3
	v1.7l-1.4-1.4L428.6,139.7z M428.1,141.4l1.1,1.1h-1.4L428.1,141.4z M427.6,139.5L427.6,139.5L427.6,139.5L427.6,139.5z
	 M429.8,143.5v2.1l-3.1,1l0.8-3.1H429.8z M422.7,175.8l-1.1,1.9l-1.9-1.9H422.7z M420.5,174.8l1.6-0.9l0.5,0.9H420.5z M422.5,172.5
	l-1.3-2.3l3.6,1L422.5,172.5z M424.7,172.4l-1.2,2l-0.6-1L424.7,172.4z M425.8,172.4l0.6,2.4h-2L425.8,172.4z M426.2,169.8l-1-3.8
	l2.4,1.4L426.2,169.8z M425.9,159.9l3.3,3.4l-4.6,1.2l-0.7-2.7L425.9,159.9z M423.7,160.7l-0.3-1h1.3L423.7,160.7z M428.4,167.9
	l0.9,0.5l-1.9,1.1L428.4,167.9z M428,166.6l-2.3-1.3l3.6-1L428,166.6z M427.2,159.7h2.6v2.7L427.2,159.7z M427.1,158.7l2.7-2.6v2.6
	H427.1z M429.3,154l-3.6-1l2.3-1.3L429.3,154z M427.4,148.7l2,1.1l-1,0.6L427.4,148.7z M428.9,151.2l0.9-0.5v2.2L428.9,151.2z
	 M427.2,147.4l2.6-0.8v2.3L427.2,147.4z M421.1,137.9l1.4,0.4l-0.8,0.8L421.1,137.9z M422.3,139.9l1.4-1.4l1.6,0.4l-1.8,3.1
	L422.3,139.9z M426.1,139.4l1.2,1.2l-0.5,1.9h-2.4L426.1,139.4z M424.4,143.5h2.1l-0.7,2.5L424.4,143.5z M426.2,148.6l1.3,2.3
	l-2.3,1.3L426.2,148.6z M424.8,153.8l4.6,1.3l-3.4,3.4l-1.9-2L424.8,153.8z M423.7,157.6l1,1.1h-1.3L423.7,157.6z M422.8,161.1
	l0.1,0.4l-0.3,0.3L422.8,161.1z M423.2,162.6l0.4,1.4l-1.1-0.6L423.2,162.6z M422,164.2l1.2,0.7l-1.5,0.4L422,164.2z M421.4,166.4
	l2.7-0.7l1.2,4.6l-4.6-1.2L421.4,166.4z M420.2,170.6l1.4,2.4l-2.4,1.4L420.2,170.6z M420,180.5l-2.1-1.2l0.8-3.1l2.4,2.4L420,180.5
	z M421.2,180.4l0.6-1.1l0.7,0.7L421.2,180.4z M423.6,179.7l-1.3-1.3l1.2-2.1l1.7,2.9L423.6,179.7z M426.1,178.8l-1.8-3h2.3l0.5,2
	L426.1,178.8z M427.7,175.8h1.5l-1.1,1.1L427.7,175.8z M429.9,178l-1.5,0.4l-0.1-0.4l1.6-1.6V178z M429.9,174.8h-2.4l-0.8-3.1
	l3.3,0.9V174.8z M429.9,171.5l-2.6-0.7l2.6-1.5V171.5z M429.9,167.6l-1-0.6l1-1.7V167.6z M430.8,161.7v-2h1.1L430.8,161.7z
	 M430.8,158.7v-2.1l1.2,2.1H430.8z M432.8,158.1l-1.4-2.5l2.5,0.7L432.8,158.1z M434.4,155.4l-3.1-0.8l2.3-2.3l1.9,1.1L434.4,155.4z
	 M435.5,152.2l-1.2-0.7l0.8-0.8L435.5,152.2z M434.9,149.6l-1.4,1.4l-2.1-1.2l3.1-1.8L434.9,149.6z M462.8,152.3l-1.2-0.7l0.8-0.8
	L462.8,152.3z M462.1,149.6l-1.4,1.5l-2.2-1.2l3.1-1.9L462.1,149.6z M461.1,145.9l-0.4-0.4l0.3-0.1L461.1,145.9z M460.7,144.4
	l-0.8,0.3l-1.2-1.2h1.8L460.7,144.4z M458,140.4l1.8,0.5l0.4,1.6H458V140.4z M458,144.2l0.8,0.8l-0.8,0.2V144.2z M458,146.3l1.6-0.5
	l1.4,1.4l-3,1.8V146.3z M458,150.7l2,1.1l-2,2V150.7z M459.1,158.7H458v-1.9L459.1,158.7z M450.9,159.7h1.4l-1.1,1.2L450.9,159.7z
	 M451,164.2l-1.1-0.6l0.7-0.7L451,164.2z M453.3,160.2l3.1,3.1l-4.3,1.1l-0.6-2.4L453.3,160.2z M456.5,164.3l-1.3,2.3l-2.3-1.3
	L456.5,164.3z M454.6,167.4l-1.2,2.1l-0.8-3.3L454.6,167.4z M457.2,171.6l-2.7-0.7l2.7-1.7V171.6z M453,172.2l0.7,2.6h-2.2
	L453,172.2z M454.4,169.8l1.1-1.9l1,0.6L454.4,169.8z M451.6,172.7l-1,1.7l-0.5-0.8L451.6,172.7z M449.6,172.7l-1.3-2.3l3.6,0.9
	L449.6,172.7z M449.7,174.8h-1.5l1.1-0.7L449.7,174.8z M449.8,175.8l-1.1,1.9l-1.9-1.9H449.8z M448.9,179.3l0.9,0.9l-1.6,0.4
	L448.9,179.3z M449.4,178.4l1.2-2l1.8,3.1l-1.5,0.4L449.4,178.4z M451.4,175.8h2.5l0.5,1.9l-1.2,1.2L451.4,175.8z M455,175.8h1.3
	l-1,1L455,175.8z M454.7,174.8l-0.7-3l3.2,0.8v2.2H454.7z M457.2,167.8l-1.2-0.7l1.2-2.1V167.8z M457,162.5l-2.7-2.8h2.7V162.5z
	 M454.7,158.7l2.3-2.4v2.4H454.7z M456.5,149.8l-1.1,0.6l-1.1-1.9L456.5,149.8z M454.3,147.4l2.7-0.8v2.4L454.3,147.4z M456.4,154
	l-3.3-0.9l2.1-1.2L456.4,154z M456,151.3l1-0.6v2.3L456,151.3z M455.7,139.8l1.3,0.4v1.6l-1.5-1.5L455.7,139.8z M455.2,141.4
	l1.1,1.1h-1.4L455.2,141.4z M457,143.5v2.1l-3.2,1l0.8-3.1H457z M448.6,137.9l1.1,0.3l-0.6,0.6L448.6,137.9z M449.6,139.7l1.2-1.2
	l1.6,0.4l-1.6,2.8L449.6,139.7z M453.2,139.4l1.2,1.2l-0.5,1.9h-2.4L453.2,139.4z M451.8,143.5h1.8l-0.6,2.1L451.8,143.5z
	 M453.5,149l1.2,2l-2,1.2L453.5,149z M452.2,153.9l4.6,1.3l-3.4,3.6h0l-1.9-1.9L452.2,153.9z M451.9,158.7h-1l0.2-0.8L451.9,158.7z
	 M450.2,161l0.2,0.7l-0.5,0.5L450.2,161z M449.3,164.4l0.9,0.5l-1.1,0.3L449.3,164.4z M451.4,165.6l1.2,4.8l-4.6-1.1l0.8-3
	L451.4,165.6z M447.5,171.1l1.3,2.2l-2.2,1.3L447.5,171.1z M446.1,176.5l2.1,2.1l-1.1,1.9l-1.8-1L446.1,176.5z M454.5,179l0.2-0.2
	l0,0.1L454.5,179z M455.7,178.7l-0.2-0.7l1.7-1.7v2L455.7,178.7z M458,162.2v-2.5h1.4L458,162.2z M460.1,158.4l-1.7-2.9l2.9,0.8
	L460.1,158.4z M458.7,154.6l2.2-2.3l2.1,1.2l-1.1,1.9L458.7,154.6z"/>
<path class="st1" d="M488.2,181.8l-6-1.6l-12.9-3.4l-1.8-6.8l-0.1-0.1l0.1-0.1l-1.6-5.8l0,0l-0.1-0.4l5.7-10v-0.2h0.1l4.5-7.9
	l18.1-10.4l13.3,3.5l2.6,10l-9.8,9.6h-12l-10,5.7l-1.5,5.5l5.7,9.8l5.6,1.5l5.7-1.5l6-10.4l5,1.4v7.2l-11.7,3.1l0,0L488.2,181.8z
	 M495.9,177.8l-0.6,1.1l1.4-0.4L495.9,177.8z M479.9,178.5l1.4,0.4l-0.6-1.1L479.9,178.5z M496.4,176.9l1.4,1.4l1.6-0.4l-1.8-3
	L496.4,176.9z M477.1,177.8l1.6,0.4l1.3-1.3l-1.2-2.1L477.1,177.8z M498.5,174.3l1.9,3.3l1.3-0.3l-0.8-2.9H498.5z M475.1,176.2
	l1.2,1.2l1.8-3.1h-2.4L475.1,176.2z M501.9,174.3l0.7,2.6l1.3-0.3v-2.3H501.9z M472.5,176.6l1.4,0.3l0.1-0.5l-1.5-1.5V176.6z
	 M470.1,176l1.4,0.4v-2h-1.8L470.1,176z M473.2,174.3l1.1,1.1l0.3-1.1H473.2z M501.6,173.3h2.2V171l-3.1-0.9L501.6,173.3z
	 M498.4,173.3h2.2l-0.7-2.6L498.4,173.3z M475.9,173.3h2.1l-1.5-2.5L475.9,173.3z M472.5,173.3h2.4l0.8-3.1l-3.2,0.9V173.3z
	 M469.4,173.3h1.4l-1.4-1.4l-0.4,0.1L469.4,173.3z M470.5,171.6l1,1v-1.2L470.5,171.6z M468.5,169.5l1.3,1.3l1.8-0.5v-2.5
	L468.5,169.5z M472.5,167.7v2.3l2.7-0.7L472.5,167.7z M467.7,167l0.4,1.6l2.9-1.7l-2.1-1.2L467.7,167z M474.9,165.9l1.4,2.3l1-3.7
	L474.9,165.9z M473.1,166.9l1.9,1.1l-0.9-1.6L473.1,166.9z M472.5,163.8v2.3l1-0.6L472.5,163.8z M469.7,165l1.8,1v-2.8L469.7,165z
	 M467.1,164.6l0.3,1.2l0.7-0.7L467.1,164.6z M473,162.7l1.3,2.3l2.3-1.3L473,162.7z M467,163.4l1.8,1.1l2.3-2.3l-3-0.8L467,163.4z
	 M473,161.7l4.6,1.2l0.7-2.6l-2-2L473,161.7z M484.3,141.9l-5.5,20.7l9.3-5.3l-0.1-0.1l10.1-5.8l1.5-5.5l-5.5-9.6L484.3,141.9z
	 M468.6,160.5l2.3,0.6l-1.4-2.3L468.6,160.5z M472.5,158.1v2.7l2.7-2.7H472.5z M470.4,158.1l1.1,2v-2H470.4z M477.5,158.1l1.1,1.1
	l0.3-1.1H477.5z M497.5,157.2h1.5l-1.2-1.2L497.5,157.2z M489.9,157.2h6.4l-0.8-3.2L489.9,157.2z M477.6,157.1h1.3l-0.3-1
	L477.6,157.1z M472.5,157.1h2.6l-2.6-2.7V157.1z M470.6,157.1h0.9v-1.6L470.6,157.1z M498.2,154.9l2.1,2.1l3.4-3.4l-4.8-1.3
	L498.2,154.9z M473.1,153.6l3.3,3.4l2-2l-0.7-2.6L473.1,153.6z M479.5,155.2l0.1,0.4l0.2-0.7L479.5,155.2z M496.7,154.8l0.2,0.8
	l0.1-0.5L496.7,154.8z M478.8,152.8l0.4,1.4l0.7-0.7L478.8,152.8z M496.6,153.3l0.7,0.7l0.4-1.3L496.6,153.3z M479.3,151.9l1.1,0.7
	l0.3-1L479.3,151.9z M499.8,151.5l3.6,1l-1.3-2.3L499.8,151.5z M474.5,150.3l-1.3,2.2l3.5-0.9L474.5,150.3z M504.9,149.1v3.2l2.1-2
	L504.9,149.1z M502.9,149.7l1,1.7v-2.2L502.9,149.7z M477.1,146.5l1.2,4.6l2.6-0.7l0.7-2.6L477.1,146.5z M475,149.4l2.2,1.3
	l-0.9-3.5L475,149.4z M500.3,147.1l-1,3.6l2.3-1.3L500.3,147.1z M505.5,148.3l2.2,1.3l1.3-1.3l-0.5-1.7L505.5,148.3z M501.5,147.2
	l1,1.7l1-0.6L501.5,147.2z M504.9,145v2.4l3.1-1.8l-1.2-1.2L504.9,145z M501.4,146l2.5,1.4v-2.1L501.4,146z M477.8,145.7l3.5,0.9
	l-1.3-2.2L477.8,145.7z M480.8,143.9l1.3,2.2l0.9-3.5L480.8,143.9z M501.6,142l-0.8,3.1l3.2-0.9V142H501.6z M498.5,142l1.4,2.4
	l0.6-2.4H498.5z M507.9,144.2L507.9,144.2L507.9,144.2L507.9,144.2z M504.9,142.6v1.4l1.1-0.3L504.9,142.6z M505.7,142l1.4,1.4
	l0.6-0.2l-0.3-1.2H505.7z M504.9,141h2.2l-0.4-1.6l-1.8-0.5V141z M501.8,141h1.5l-1.2-1.2L501.8,141z M498.4,141h2.4l0.5-2l-1.1-1.1
	L498.4,141z M496.4,138.4l1.2,2l1.7-3l-1.5-0.4L496.4,138.4z M502.4,138.7l1.5,1.5v-1.5l-1.3-0.4L502.4,138.7z M495.3,136.4l0.6,1.1
	l0.7-0.7L495.3,136.4z"/>
</svg>
