<svg id="Calque_1" data-name="Calque 1" xmlns="http://www.w3.org/2000/svg" viewBox="0 0 2400 1800"><defs><style>.cls-1{fill:#f3f2f2;}.cls-2{font-size:100px;}.cls-2,.cls-7,.cls-8{fill:#162843;}.cls-2,.cls-8{font-family:Entrelacs-Fil4, Entrelacs;}.cls-3{letter-spacing:0em;}.cls-4{letter-spacing:0.01em;}.cls-5{letter-spacing:0.01em;}.cls-6{letter-spacing:0.01em;}.cls-8{font-size:150px;}.cls-9{letter-spacing:-0.02em;}.cls-10{letter-spacing:0em;}.cls-11{letter-spacing:-0.02em;}.cls-12{letter-spacing:0em;}.cls-13{letter-spacing:0.01em;}.cls-14{letter-spacing:0.01em;}.cls-15{letter-spacing:0.01em;}.cls-16{letter-spacing:0em;}.cls-17{letter-spacing:-0.04em;}.cls-18{letter-spacing:-0.04em;}.cls-19{letter-spacing:0.02em;}.cls-20{letter-spacing:0.02em;}.cls-21{letter-spacing:0.02em;}.cls-22{letter-spacing:0.02em;}.cls-23{letter-spacing:-0.05em;}.cls-24{letter-spacing:-0.05em;}.cls-25{letter-spacing:-0.05em;}</style></defs><title>Plan de travail 1</title><rect class="cls-1" width="2400" height="1800"/><text class="cls-2" transform="translate(251.67 1558.5)">à part<tspan class="cls-3" x="203.2" y="0">i</tspan><tspan x="223.3" y="0">r de la sema</tspan><tspan class="cls-4" x="644.89" y="0">i</tspan><tspan x="665.49" y="0">ne procha</tspan><tspan class="cls-5" x="995.19" y="0">i</tspan><tspan x="1015.49" y="0">ne les ateliers de tissage </tspan></text><text class="cls-2" transform="translate(251.67 1658.5)">auront lieu dans la salle kenté le mercredi mat<tspan class="cls-6" x="1606.38" y="0">i</tspan><tspan x="1626.78" y="0">n</tspan></text><path class="cls-7" d="M1525.72,1155.37l-31-117.9L1627.08,903h198.57l103.42-55.85-74.46,268.9-146.86,86.88Zm471.61-120-39.3,22.75,107.56-407.49-117.9-206.85-130.31-35.16-130.31,35.16L1563,656.87l72.4,41.37,105.49-184.1,76.53-18.62,74.47,18.62,86.88,148.93L1958,731.34,1805,820.28H1594l-192.37,192.37,55.85,208.92,262.7,70.33,248.22-144.79,66.19,109.63,72.4-41.37ZM1678.79,247.31,1904.25,117l88.94,151L2109,201.81l39.3,68.26L1962.17,377.63l-88.94-151-155.14,88.94Z"/><path class="cls-7" d="M299.57,148.5l-7.2,26.8,1.9,1.3-2.1,3.4-4.4-2.7,7.5-28.2-2.6-4.5H272l-9.6,35.4-9.6-2.6-1.6-3.1,3.3-1.8,1,1.4,4,1.1,14.1-52.3,10.2-5.7,6.3,1.6,4.9,4.8-.2,5.1-11.3,2.8-1-3.8,8.2-2.2v-.4l-2.6-2.7-3.8-1-7.3,4.2-3.9,15.1h22.1Zm3.3-26.5,3.9,1-3.3,11.6-3.8-1Zm23.5,47.7,3.9,6.8-13,3.5-6.3-1.7-5.7-10,12.5-46.6-3-.8,1.1-3.9,6.8,1.8-13.2,48.9,4.1,7.2,3.7.9,6.9-1.8-1.3-2.3Z"/><text class="cls-8" transform="translate(251.67 391.89)">a<tspan class="cls-9" x="54.9" y="0"> </tspan><tspan class="cls-10" x="88.8" y="0">b</tspan><tspan class="cls-9" x="143.25" y="0"> </tspan><tspan class="cls-10" x="177.15" y="0">c</tspan><tspan class="cls-9" x="229.8" y="0"> </tspan><tspan x="263.7" y="0">d</tspan><tspan class="cls-11" x="321.75" y="0"> </tspan><tspan x="355.65" y="0">e</tspan><tspan class="cls-11" x="409.95" y="0"> </tspan><tspan x="443.85" y="0">f</tspan><tspan class="cls-11" x="493.95" y="0"> </tspan><tspan class="cls-12" x="527.85" y="0">g</tspan><tspan class="cls-11" x="582.75" y="0"> </tspan><tspan x="616.65" y="0">h</tspan><tspan class="cls-11" x="683.7" y="0"> </tspan><tspan x="717.6" y="0">i </tspan></text><text class="cls-8" transform="translate(251.67 541.89)">j<tspan class="cls-13" x="37.5" y="0"> </tspan><tspan class="cls-10" x="76.95" y="0">k</tspan><tspan class="cls-13" x="141.45" y="0"> </tspan><tspan x="180.9" y="0">l</tspan><tspan class="cls-13" x="223.65" y="0"> </tspan><tspan x="263.1" y="0">m</tspan><tspan class="cls-13" x="358.65" y="0"> </tspan><tspan x="398.1" y="0">n</tspan><tspan class="cls-14" x="458.85" y="0"> </tspan><tspan x="498.15" y="0">o</tspan><tspan class="cls-15" x="553.35" y="0"> </tspan><tspan class="cls-10" x="592.65" y="0">p</tspan><tspan class="cls-15" x="651.89" y="0"> </tspan><tspan x="691.19" y="0">q </tspan></text><text class="cls-8" transform="translate(251.67 691.89)">r s t<tspan class="cls-16" x="225.45" y="0"> </tspan><tspan x="263.1" y="0">u</tspan><tspan class="cls-16" x="323.55" y="0"> </tspan><tspan x="361.2" y="0">v w</tspan><tspan class="cls-16" x="549.15" y="0"> </tspan><tspan x="586.79" y="0">x</tspan><tspan class="cls-16" x="648.74" y="0"> </tspan><tspan x="686.39" y="0">y </tspan></text><text class="cls-8" transform="translate(251.67 841.89)">z<tspan class="cls-17" x="60.3" y="0"> </tspan><tspan class="cls-12" x="91.8" y="0">à</tspan><tspan class="cls-17" x="146.7" y="0"> </tspan><tspan x="178.2" y="0">á</tspan><tspan class="cls-18" x="233.1" y="0"> </tspan><tspan x="264.45" y="0">â</tspan><tspan class="cls-17" x="319.35" y="0"> </tspan><tspan x="350.85" y="0">ã</tspan><tspan class="cls-17" x="405.75" y="0"> </tspan><tspan class="cls-12" x="437.25" y="0">ä</tspan><tspan class="cls-18" x="492.15" y="0"> </tspan><tspan class="cls-10" x="523.5" y="0">ç</tspan><tspan class="cls-18" x="576.15" y="0"> </tspan><tspan x="607.5" y="0">è </tspan></text><text class="cls-8" transform="translate(944.21 841.89)">é</text><text class="cls-8" transform="translate(998.51 841.89)"> </text><text class="cls-8" transform="translate(251.67 991.89)">ê<tspan class="cls-19" x="54.3" y="0"> </tspan><tspan x="94.35" y="0">ë</tspan><tspan class="cls-20" x="148.65" y="0"> </tspan><tspan x="188.7" y="0">ì</tspan><tspan class="cls-19" x="216.15" y="0"> </tspan><tspan x="256.2" y="0">í</tspan><tspan class="cls-20" x="283.95" y="0"> </tspan><tspan class="cls-12" x="324" y="0">î</tspan><tspan class="cls-20" x="351.45" y="0"> </tspan><tspan x="391.5" y="0">ï</tspan><tspan class="cls-19" x="418.95" y="0"> </tspan><tspan x="459" y="0">ñ</tspan><tspan class="cls-20" x="523.05" y="0"> </tspan><tspan class="cls-12" x="563.1" y="0">ò</tspan><tspan class="cls-20" x="650.85" y="0"> </tspan><tspan class="cls-12" x="690.9" y="0">ó </tspan></text><text class="cls-8" transform="translate(251.67 1141.89)">ô<tspan class="cls-21" x="52.05" y="0"> </tspan><tspan x="92.55" y="0">õ</tspan><tspan class="cls-21" x="146.85" y="0"> </tspan><tspan x="187.35" y="0">ö</tspan><tspan class="cls-22" x="239.4" y="0"> </tspan><tspan class="cls-10" x="279.75" y="0">ù</tspan><tspan class="cls-21" x="340.2" y="0"> </tspan><tspan x="380.7" y="0">ú</tspan><tspan class="cls-21" x="441.15" y="0"> </tspan><tspan class="cls-10" x="481.65" y="0">û</tspan><tspan class="cls-21" x="542.1" y="0"> </tspan><tspan x="582.6" y="0">ü</tspan><tspan class="cls-21" x="643.05" y="0"> </tspan><tspan class="cls-10" x="683.55" y="0">ý </tspan></text><text class="cls-8" transform="translate(251.67 1291.89)">ÿ<tspan class="cls-23" x="63.3" y="0"> </tspan><tspan x="93.45" y="0">ŵ</tspan><tspan class="cls-23" x="187.5" y="0"> </tspan><tspan class="cls-10" x="217.65" y="0">ŷ</tspan><tspan class="cls-24" x="280.95" y="0"> </tspan><tspan x="311.1" y="0">ẁ</tspan><tspan class="cls-23" x="405.15" y="0"> </tspan><tspan x="435.3" y="0">ẃ</tspan><tspan class="cls-23" x="529.35" y="0"> </tspan><tspan x="559.5" y="0">ẅ</tspan><tspan class="cls-25" x="653.55" y="0"> </tspan><tspan class="cls-10" x="683.85" y="0">ỳ </tspan></text></svg>