<svg id="Calque_1" data-name="Calque 1" xmlns="http://www.w3.org/2000/svg" viewBox="0 0 2400 1800"><defs><style>.cls-1{fill:#f3f2f2;}.cls-2,.cls-3{fill:#162843;}.cls-3{font-size:600px;font-family:Entrelacs-Broderie, Entrelacs;}.cls-4{letter-spacing:-0.02em;}.cls-5{letter-spacing:-0.03em;}.cls-6{letter-spacing:0.05em;}.cls-7{letter-spacing:0em;}.cls-8{letter-spacing:-0.01em;}.cls-10,.cls-9{fill:none;stroke-miterlimit:10;}.cls-9{stroke:#162843;stroke-width:5px;}.cls-10{stroke:#010101;stroke-width:0.65px;}</style></defs><title>Plan de travail 1 copie 6</title><rect class="cls-1" width="2400" height="1800"/><path class="cls-2" d="M482.4,400,439.2,560.8l11.4,7.8L438,589l-26.4-16.2,45-169.2-15.6-27H316.8L259.2,589l-57.6-15.6L192,554.8,211.8,544l6,8.4,24,6.6,84.6-313.8L387.6,211l37.8,9.6,29.4,28.8L453.6,280l-67.8,16.8-6-22.8,49.2-13.2v-2.4l-15.6-16.2-22.8-6-43.8,25.2L323.4,352H456Zm19.8-159,23.4,6-19.8,69.6-22.8-6Zm138,286.2,23.4,40.8-78,21-37.8-10.2-34.2-60,75-279.6-18-4.8,6.6-23.4,40.8,10.8L538.8,515.2l24.6,43.2,22.2,5.4L627,553l-7.8-13.8Z"/><text class="cls-3" transform="translate(195 1049.2)"><tspan class="cls-4">br</tspan><tspan class="cls-5" x="539.99" y="0">o</tspan><tspan class="cls-6" x="793.78" y="0">d</tspan><tspan class="cls-7" x="1085.37" y="0">e</tspan><tspan class="cls-8" x="1351.17" y="0">r</tspan><tspan x="1624.16" y="0">ie</tspan></text><path class="cls-9" d="M1390.29,1461.68l-53.83,14.41m3.86-14.41,49.92,28.82m-66.75,40.89,66.75-40.89m-41.19-53.81,28.72,114.88m-21.62-149,59.23,15.66m3.75-35.35-77,79.87m8.71-40.49,39.41,39.43m-25-93.24,39.47,68.35m-46.65-34.18,57.15-34.17m-25,93.24-.05-136.52m34.18,77.42-59.12-34.14m0,0,46.09-14.5m-46.17-35.48,50.05,50m-64.38-53.82-10.55,10.56m24.88-6.73-14.33,25m26.92-21.64-12.51,46.61m-14.41-25h57.69m-217.82,93.21,57.75.11M1209,1554.86l25-24.93m0,0h-68.2m9.14-34.13,34.1,59.06m-43.24-24.93,28.71,28.88m39.54-97.13-59.1,102.37m0-68.25,59.08,15.84m0-50-53.83,14.41m3.86-14.41,49.92,28.82m-68.2,39.43,68.2-39.43m-43.22-53.82,30.76,114.89m-21.62-149,59.23,15.66m3.75-35.35-78.81,78.8m10.56-39.42,39.41,39.43m-25-93.24,39.47,68.35m-48.61-34.23,59.11-34.12m-25,93.24-.05-136.52m34.18,77.42L1209,1368.44m0,0,46.09-14.5m-46.17-35.48,50.06,50m-64.39-53.82-10.55,10.56m24.88-6.73-14.33,25m26.92-21.64L1209,1368.44m-14.41-25h57.69m-273,0,28.88,0m17.74,174,46.61-12.47m-43.27,25h36.57m-43.27-25,39.39,39.39m-14.41-132.63v136.51m-34.12-77.4,59.11,34.16m-50-50,59.12,15.84m-59.11,34.12,59.11-34.12m-48.55-34.14,39.41,68.29m-25-93.27L1087,1451m-68.37,39.26,78.89-78.52m-50-28.85,50,28.85M1087,1343.47l-39.41,68.23m46.61-55.76,12.5,21.64m-59.11-15.84,59.11,15.84m-34.14-59.12-25,25m0,0H1087m7.2,12.48-46.61,26.92m0,28.84,53.87-14.55m-68.29,39.52,57.67.11m-30.75-115,30.75,115m164.31-82.85,77.27-44.6,73.53,19.7,19.56,74.37-34.12,59.1V1549l-58.89,15.21-15.84-9.15,49.89-186.67-34.12-59.1m-284.83,15.83v86.54l-34.12,59.1,19.7,73.53,26.91,7.23,55.77-208.1m59.1-34.12,34.11,59.09-9.14,34.13-40.81,152.34,15.84,9.14,59.1-15.84v-86.54l34.12-59.11L1248.44,1329l-73.52-19.69-80.75,46.61-21.64-37.48-25,6.69m-34.12,9.15-34.13,9.14,21.64,12.5Zm34.12-9.15-34.12,9.15M716.14,1480.17l43.27,25m0,0-12.49,46.61m37.47-3.34L773.83,1559m0-28.84-14.42,25m-50-50,50,50m0-50L712,1517.64m4.18,12.49h57.69m-39.4-68.25v86.54m-25-43.27,59.1-34.13m15.84-9.14-6.7-25m0,0L768.55,1471m-9.14-34.12,25,25M768.55,1471l-34.12-9.14m25,43.26-25-43.26m143.19-25h57.69m25,93.23h28.85m-107.65,0h39.41m-25,25,25-25m0-68.25-39.4,68.25M861.78,1496l59.11,15.84m-50-50,50,28.85m-53.83-14.42,53.83-14.42m-43.27-25,30.75,114.87m12.51-61-46.62,26.91M861.78,1496l12.49,21.64m12.49-114.86,59.11,15.84m-64.39,3.86,39.4,39.41m28.85-78.81-78.81,78.8m71.64-105.73-46.65,12.5m39.4,68.24-39.4-68.24m0,0,59.1,34.13m-9.15-34.13-59.1,34.13m34.13-77.73v136.83M908.4,1322l-12.49,46.62m0-50,50,50m-64.38-53.82-10.75,10.22m25.17-6.36-14.42,25m0,0h57.69m-165.34,0h28.84m-14.51,53.85,14.51-53.85m10.7,39.27-54-14.29m0,0,43.26-25m-28.84,0,28.84,50m59.22-84.09,0,0,34,59.07-9.15,34.13-59.11,34.13H759.41l-53.83,53.82L720,1544.56l73.53,19.7m93.23-161.47-34.12,127.35h0l-59.11,34.12-34.12-59.1,9.14-34.12,59.1-34.12m25,93.22,21.64-12.49,21.64,37.47,25-6.69m34.13-9.15-34.12,9.15m34.13-9.15,34.13-9.14-1.2-.7-20.43-11.8Zm-34.12,9.15v-86.54l34.13-59.1-19.7-73.53L908.4,1322l-46.48-12.46-34.26-9.18-34.12,9.15-9.14,15.84m0,0-25,43.27,9.14,34.13,34.13-9.15,25-25Zm0,0-.34-.34m-330.71,24.71h28.87m14.35,161.43,39.36,39.36m-32.62-14.33h36.58m-18.36-118.33.07,136.53m-21.67-30.68,46.59-12.28M487.4,1477l59.12,34.46M507,1443h57.79m-68.33,18.25,59,16m-59,34,59-34M507,1443l39.49,68.46m-25-93.57,39.41,39.56m-68.22,39.4,78.79-78.79m-50-28.93,50,28.93M561,1349.76l-39.47,68.13m211.61-43.31L683,1324.71m-14.36-3.83-10.56,10.59m24.92-6.76-14.36,25m26.91-21.7-12.49,46.68m46.7-12.51-46.7,12.51m0,0,25,14.39m0-57.78v57.78m-39.4-39.37h57.69m-204.82,0H561m7.21,12.49,12.47,21.63M521.52,1368l59.16,15.85m-12.47-21.63-46.68,26.87m0,28.76,53.87-14.29M534.05,1328l30.77,115m-18.24-118.21-25.05,25m0-18.41v86.54L487.4,1477l19.7,73.53,26.91,7.23,55.83-208m59.1-34.12,46.61,80.74,37.58-21.8-10.73-39.36-73.46-19.58-80.74,46.61-21.63-37.47-25.05,6.57m-34,9.26-34.15,9.15,21.65,12.5Zm34-9.26-34,9.26M360.57,1545.94l15.58,9.14m0,0L396,1521m-28.84,0,28.79,28.83m21.17-215.25,5.68-21.19m-12.37-3.82,24.74,25m-156.75-17.24,45.18-7.77m-47.89,24.9,39.23.23m-31.59-63.76,47.63,12.7m-50.49,14.21,66.17-73.19m-61,24.9,38,60m-34.49-92.68,47,47m-48.1-37,62.51-16.75m-64.92,39.39H340m-29.39-108.21L340,1249.53m35.55-132.62-54.21,13.65m50.36.73-32.43-18.72m-9,9.08L365,1156.26m-43.66-25.7,34.51,59.85m9.15-34.15-69.46.19m-2,17.26,62.32,16.7m-64.17,2.34,55,31.88m18.27-118.21L286.33,1242.6M317,1334.53l-36.59-36.71m-2.08,19.5L308,1368.65m9-34.13-43.15,25m0,0,34.14,9.15m-46.63,12.49,37.48,21.64m-50,0,53.83-14.43m-28.86-28.84,18.29,68.25m-57.7,0h57.7m-68.27,18.3L283,1461.88m-48.55-34.12,39.4,68.25m-59.11-34.12L273.89,1496m25-93.22-78.82,78.8m28.85-78.8,39.4,39.4M223.93,1496,283,1461.88m-34.12-59.1v136.48m49.94,0-10.52,10.56m0-28.82-14.41,25m-50-49.94,50,49.94m0-49.94-12.49,46.6M230.62,1521h57.69m-61-12.49L273.89,1496m-43.27,25,3.86,14.41m122.34,24.84-14.69,4L308,1555.06,273.89,1496l103.57-386.41-28.19-7.12-53.78,54-21.61,203.05-59.11,102.37,15.84,59.1H209.51l5.28,9.14L308,1555.06m48.83,5.18,53.57-14.3L396,1521H367.12ZM317,1334.52h0m0,0,78.68,0m0,0h39.4l.24-18.32-25-6.69Z"/><path class="cls-9" d="M1347,1436.68l57.75.12m-39.49,118.06,25-24.93m0,0H1322m10-32.6,33.21,57.53M1322,1529.93l28.71,28.88m39.54-97.13-59.1,102.37m.88-66.72,58.2,14.31"/><line class="cls-10" x1="1542.61" y1="1334.55" x2="1542.61" y2="1334.52"/><path class="cls-9" d="M1610.82,1539.25l10.56,10.62m39.45-28.86h-39.45m0,0,14.46,25m0-49.94,12.49,46.6m-26.91-208.08,57.68,0m-18.27-18.25v86.48m25-43.21-50-50m-24.94,6.73,10.44-10.61m14.51,3.89-14.39,25m26.9-21.66-12.5,46.61m0,0,46.63-12.46m-55.77,46.58,59.11-34.09m-25,43.21-25-43.25m43.26,25-43.26-25m25,43.25-34.14-9.12m0,0-9.12,34.12m18.26,0-24.63-25.17m0,0,6.37,25.17M1521,1347l12.47,21.64m0,0-34.11-9.14m0,0,18.27,68.25m-43.26-25,53.82-14.39m-3.86,14.41-37.47-21.6m37.43,158.14-10.54,10.49m0-28.81L1499.33,1546m0-49.93-12.51,46.58M1456.08,1521h57.65m-64.34-25,49.93,49.93m-46.59-37.44,46.62-12.49m-25-93.26V1539.3m-25-93.27,59.1,15.84m-34.12-59.1,39.4,39.43m-68.23,39.41,78.79-78.82m-15.83,59.08-59.1,34.16m-9.15-34.16,59.12,34.16m18.27-68.25h-57.7m39.44,68.25-39.44-68.25m73.44,127.33v0l-34-59.05,9.13-34.16,59.11-34.12h68.24l53.83-53.82-14.42-53.83-73.53-19.7-59.11,34.15-43.25,25-25,43.24-34.13,59.1,19.7,73.53,26.91,7.21,46.49,12.47,34.16,9.17,34.13-9.14m0,0,34.22-59.08,25,6.69v36.57Zm-93.15-93.24,34.12-127.33v0m59.11-34.12,34.12,59.1-9.14,34.13-59.1,34.12"/></svg>