<?xml version="1.0" encoding="utf-8"?>
<!-- Generator: Adobe Illustrator 22.1.0, SVG Export Plug-In . SVG Version: 6.00 Build 0)  -->
<svg version="1.1" id="Calque_1" xmlns="http://www.w3.org/2000/svg" xmlns:xlink="http://www.w3.org/1999/xlink" x="0px" y="0px"
	 viewBox="0 0 2400 1800" style="enable-background:new 0 0 2400 1800;" xml:space="preserve">
<style type="text/css">
	.st0{fill:#F3F3F3;}
	.st1{fill:#7B8D9E;}
	.st2{fill:#01284A;}
	.st3{fill:#00234A;}
</style>
<rect class="st0" width="2400" height="1800"/>
<path class="st1" d="M2315.5,900C2315.5,899.9,2315.5,899.9,2315.5,900L2272,737.5v0l0,0c0,0,0-0.1,0-0.1c0,0,0-0.1,0-0.1
	c0,0,0,0,0,0l0,0c0,0,0,0,0,0l0,0c0,0,0,0,0,0c0,0,0,0,0,0c0,0,0,0,0,0v0l0,0c0,0,0,0,0,0v0c0,0,0,0,0,0c0,0,0,0,0,0l-118.8-118.8
	c0,0,0,0,0,0c0,0,0,0,0,0c0,0,0,0,0,0c0,0,0,0,0,0c0,0,0,0,0,0c0,0,0,0,0,0l0,0c-0.1,0-0.1-0.1-0.2-0.1c0,0,0,0,0,0c0,0,0,0,0,0
	l-162.3-43.5c0,0,0,0,0,0c0,0,0,0,0,0h0h0c0,0,0,0,0,0c0,0-0.1,0-0.1,0c0,0-0.1,0-0.1,0v0l-162.3,43.5c0,0,0,0,0,0c0,0,0,0-0.1,0
	c0,0,0,0,0,0c0,0,0,0,0,0c0,0-0.1,0-0.1,0.1c0,0,0,0,0,0l0,0l0,0c0,0,0,0-0.1,0c0,0,0,0,0,0l-118.8,118.8c0,0,0,0,0,0c0,0,0,0,0,0
	c0,0,0,0,0,0c0,0,0,0,0,0c0,0,0,0,0,0l0,0c0,0,0,0,0,0c0,0,0,0,0,0c0,0,0,0,0,0.1c0,0,0,0,0,0c0,0,0,0,0,0l0,0c0,0,0,0,0,0
	c0,0,0,0,0,0c0,0,0,0,0,0l-43.5,162.3c0,0,0,0,0,0c0,0,0,0,0,0v0c0,0,0,0,0,0v0c0,0,0,0,0,0v0v0c0,0,0,0,0,0c0,0,0,0,0,0v0
	c0,0,0,0,0,0v0c0,0,0,0,0,0v0c0,0,0,0,0,0c0,0,0,0,0,0.1c0,0,0,0,0,0.1v0c0,0,0,0,0,0v0v0c0,0,0,0,0,0c0,0,0,0,0,0l43.5,162.3
	c0,0,0,0,0,0v0l0,0v0c0,0,0,0,0,0v0c0,0,0,0,0,0c0,0,0,0,0,0c0,0,0,0,0,0c0,0,0,0,0,0c0,0,0,0.1,0.1,0.1c0,0,0,0,0,0.1c0,0,0,0,0,0
	c0,0,0,0,0,0h0l0,0l118.8,118.8c0,0,0,0,0,0c0,0,0.1,0,0.1,0.1c0,0,0,0,0.1,0c0,0,0,0,0,0c0,0,0,0,0,0c0,0,0,0,0,0l162.3,43.5
	c0,0,0,0,0,0c0,0,0.1,0,0.1,0h0h0h0c0,0,0,0,0,0c0,0,0.1,0,0.1,0l162.3-43.5c0,0,0,0,0,0c0,0,0.1,0,0.1,0c0,0,0,0,0,0c0,0,0,0,0,0
	c0,0,0,0,0,0c0,0,0,0,0,0c0,0,0,0,0,0c0,0,0,0,0,0c0,0,0,0,0,0c0,0,0,0,0,0v0l0,0c0,0,0,0,0,0c0,0,0,0,0,0c0,0,0,0,0,0c0,0,0,0,0,0
	l118.8-118.8c0,0,0,0,0,0c0,0,0,0,0.1-0.1c0,0,0,0,0,0v0c0,0,0,0,0,0c0,0,0,0,0,0c0,0,0,0,0,0h0v0c0,0,0,0,0-0.1c0,0,0,0,0,0
	l43.5-162.3c0,0,0,0,0,0c0,0,0,0,0,0v0C2315.5,900.1,2315.6,900.1,2315.5,900L2315.5,900C2315.6,900,2315.6,900,2315.5,900
	C2315.6,900,2315.5,900,2315.5,900 M1897.6,737.1l17.5-30.4l30.4,30.4H1897.6z M1944.7,738.2l-35.4,20.4l-11.8-20.4H1944.7z
	 M1914.9,704.9l-17.2-17.2l32-8.6L1914.9,704.9z M1896.8,686.8l-8.6-8.6l15.2-15.2l26,15L1896.8,686.8z M1895.5,687.1l-22.1,5.9
	l14-14L1895.5,687.1z M1896.4,688.1l17.8,17.8l-17.7,30.6l-24.3-42L1896.4,688.1z M1908.4,759.2l-35.3,20.4l23.6-40.8L1908.4,759.2z
	 M1908.9,760.2l20.8,36l-56.8-15.2L1908.9,760.2z M1930.2,797.5l-9,33.4l-33.4,9l-15.5-57.9L1930.2,797.5z M1897.2,875.1l16.7-16.7
	l-10.6,39.4L1897.2,875.1z M1913.9,941.6l-16.7-16.7l6.1-22.8L1913.9,941.6z M1896.9,873.8l-8.6-32l25.8,14.9L1896.9,873.8z
	 M1902.6,899.4h-29.7l23.5-23.5L1902.6,899.4z M1902.6,900.6l-6.3,23.5l-23.5-23.5H1902.6z M1896.9,926.2l17.2,17.2l-25.8,14.9
	L1896.9,926.2z M1929.7,1003.8l-20.8,36l-36-20.8L1929.7,1003.8z M1872.3,1018l15.5-57.9l33.4,9l9,33.4L1872.3,1018z M1897.6,1062.9
	h47.9l-30.4,30.4L1897.6,1062.9z M1929.7,1120.9l-32-8.6l17.2-17.2L1929.7,1120.9z M1897.6,1061.8l11.8-20.4l35.4,20.4H1897.6z
	 M1908.4,1040.8l-11.8,20.4l-23.6-40.8L1908.4,1040.8z M1914.3,1094.1l-17.8,17.8l-24.1-6.5l24.3-42L1914.3,1094.1z M1895.5,1112.9
	l-8.1,8.1l-14-14L1895.5,1112.9z M1896.8,1113.2l32.7,8.8l-26,15l-15.2-15.2L1896.8,1113.2z M1930.7,1122.5l15.3,26.4l-24.1,6.5
	l-17.6-17.6L1930.7,1122.5z M1915.7,1094.3l30.8-30.8l11.3,42.1l-26.7,15.4L1915.7,1094.3z M1909.9,1040.4l20.8-36l15.2,56.8
	L1909.9,1040.4z M1922.5,969.4l23.5,6.3l-14.9,25.8L1922.5,969.4z M1922.2,968.1l-6.1-22.8l28.9,28.9L1922.2,968.1z M1920.9,967.8
	l-32-8.6l25.8-14.9L1920.9,967.8z M1904.1,900.6h84.1l-72.9,42.1L1904.1,900.6z M1904.1,899.4l11.3-42.1l72.9,42.1H1904.1z
	 M1914.6,855.6l-25.8-14.9l32-8.6L1914.6,855.6z M1922.2,831.9l22.8-6.1l-28.9,28.9L1922.2,831.9z M1922.5,830.6l8.6-32l14.9,25.8
	L1922.5,830.6z M1930.7,795.6l-20.8-36l36-20.8L1930.7,795.6z M1915.7,705.7l15.4-26.7l26.7,15.4l-11.3,42.1L1915.7,705.7z
	 M1930.7,677.5l-26.4-15.3l17.6-17.6l24.1,6.5L1930.7,677.5z M1922.8,643.6l24.3-24.3h17.2l-17.7,30.6L1922.8,643.6z M1921.5,643.3
	l-32.7-8.8l26.3-15.2h30.3L1921.5,643.3z M1887.3,634.1l-55-14.7h80.6L1887.3,634.1z M1887.5,635.4l33.1,8.9l-17.4,17.4l-30.6-17.7
	L1887.5,635.4z M1902.4,662.4l-15,15l-26.7-26.7l10.7-6.2L1902.4,662.4z M1886.6,678.2l-15,15l-21.1-36.5l9.2-5.3L1886.6,678.2z
	 M1870.6,693.8l-20.5,5.5l-9.8-36.7l9.2-5.3L1870.6,693.8z M1869.6,695.3l-16.2,16.2l-3-11.1L1869.6,695.3z M1859.1,737.1h-29.7
	l23.5-23.5L1859.1,737.1z M1853.7,712.7l17.6-17.6l24.3,42h-35.4L1853.7,712.7z M1895.6,738.2l-23.9,41.5l-11.1-41.5H1895.6z
	 M1886.5,839.4l-36-20.8l20.8-36L1886.5,839.4z M1849.5,818.1l-20.4-11.8l40.8-23.6L1849.5,818.1z M1849.9,819.6l36,20.8l-56.8,15.2
	L1849.9,819.6z M1887,841.3l9,33.4l-24.5,24.5l-42.4-42.4L1887,841.3z M1896,925.3l-9,33.4l-57.9-15.5l42.4-42.4L1896,925.3z
	 M1885.9,959.6l-36,20.8l-20.8-36L1885.9,959.6z M1869.9,1017.3l-40.8-23.6l20.4-11.8L1869.9,1017.3z M1850.5,981.4l36-20.8
	l-15.2,56.8L1850.5,981.4z M1871.7,1020.3l23.9,41.5h-35L1871.7,1020.3z M1895.6,1062.9l-24.3,42l-17.6-17.6l6.5-24.4H1895.6z
	 M1852.8,1086.4l-23.5-23.5h29.7L1852.8,1086.4z M1853.4,1088.5l16.2,16.2l-19.2-5.1L1853.4,1088.5z M1870.6,1106.2l-21.1,36.5
	l-9.2-5.3l9.8-36.7L1870.6,1106.2z M1871.6,1106.8l15,15l-26.9,26.9l-9.2-5.3L1871.6,1106.8z M1887.4,1122.6l15,15l-30.9,17.9
	l-10.7-6.2L1887.4,1122.6z M1903.2,1138.4l17.4,17.4l-33.1,8.9l-14.9-8.6L1903.2,1138.4z M1912.9,1180.6h-80.6l55-14.7
	L1912.9,1180.6z M1888.9,1165.4l32.7-8.8l23.9,23.9h-30.3L1888.9,1165.4z M1922.8,1156.4l23.7-6.4l17.7,30.6h-17.2L1922.8,1156.4z
	 M1947.7,1149.7l20.5-5.5l9.8,36.4h-12.4L1947.7,1149.7z M1966,1131.8l22.1,5.9l-19.2,5.1L1966,1131.8z M1967.9,1143.1l-20.8,5.6
	l-15-26l32.7,8.8L1967.9,1143.1z M1932.4,1121.6l25.8-14.9l6.3,23.5L1932.4,1121.6z M1947.7,1063.5l41.5,23.9l-30.4,17.5
	L1947.7,1063.5z M1947.1,1061.2l-15.5-57.9l33.4-9l24.5,24.5L1947.1,1061.2z M1948.7,976.4l39.4,10.6l-22.8,6.1L1948.7,976.4z
	 M1964.1,993.4l-32,8.6l14.9-25.8L1964.1,993.4z M1946.7,974.4l-30.8-30.8l72.9-42.1L1946.7,974.4z M1915.9,856.4l30.8-30.8
	l42.1,72.9L1915.9,856.4z M1932.1,798l32,8.6l-17.2,17.2L1932.1,798z M1965.4,806.9l22.8,6.1l-39.4,10.6L1965.4,806.9z M1965,805.6
	l-33.4-9l15.5-57.9l42.4,42.4L1965,805.6z M1958.8,695l30.4,17.5l-41.5,23.9L1958.8,695z M1958.1,693.3l-25.8-14.9l32-8.6
	L1958.1,693.3z M1932.1,677.3l15-26l20.8,5.6l-3.1,11.7L1932.1,677.3z M1969,657.2l19.2,5.1l-22.1,5.9L1969,657.2z M1968.2,655.8
	l-20.5-5.5l17.9-30.9h12.4L1968.2,655.8z M1966.2,618.3l22.5-38.9l-10.4,38.9H1966.2z M1964.9,618.3h-16.7l39.5-39.5L1964.9,618.3z
	 M1946.6,618.3h-29.5l69.8-40.3L1946.6,618.3z M1986.3,577l-71.5,41.3h-82.5L1986.3,577z M1885.9,634.9l-14.5,8.3l-39.5-22.8
	L1885.9,634.9z M1870.3,643.9l-10.4,6l-28.5-28.5L1870.3,643.9z M1858.9,650.5l-9,5.2l-19.3-33.5L1858.9,650.5z M1849,656.3l-9,5.2
	l-10.4-38.6L1849,656.3z M1828.5,623.1L1839,662l-10.4,6V623.1z M1828.5,669.4l10.7-6.2l9.8,36.4l-20.5,5.5V669.4z M1828.5,706.3
	l20.8-5.6l3.1,11.7l-23.9,23.9V706.3z M1828.5,738.2h30.8l11.3,42.1l-42.1-11.3V738.2z M1828.5,770.2l41.5,11.1l-41.5,23.9V770.2z
	 M1828.5,807.3L1849,819l-20.4,35.4V807.3z M1828.5,857.9l41.6,41.6h-41.6V857.9z M1828.5,900.6h41.6l-41.6,41.6V900.6z
	 M1828.5,945.6L1849,981l-20.4,11.8V945.6z M1828.5,994.7l41.5,23.9l-41.5,11.1V994.7z M1828.5,1030.9l42.1-11.3l-11.3,42.1h-30.8
	V1030.9z M1828.5,1063.7l23.9,23.9l-3.1,11.7l-20.8-5.6V1063.7z M1828.5,1094.9l20.5,5.5l-9.8,36.4l-10.7-6.2V1094.9z M1669.9,900.6
	h38.6v10.4L1669.9,900.6z M1708.6,912.1v12l-38.9-22.5L1708.6,912.1z M1669.9,899.4l38.6-10.4v10.4H1669.9z M1669.7,898.3l38.9-22.5
	v12L1669.7,898.3z M1669.1,897.4l39.5-39.5v16.7L1669.1,897.4z M1708.6,925.4v16.7l-39.5-39.5L1708.6,925.4z M1708.6,856.3
	l-40.3,40.3l40.3-69.8V856.3z M1708.6,943.7v29.5l-40.3-69.8L1708.6,943.7z M1812.5,1121.4l-8.9-33.1l23.7,6.4v35.4L1812.5,1121.4z
	 M1827.4,1131.3v45.6l-14.5-53.9L1827.4,1131.3z M1790.7,760.1l11.1,3l-16.2,16.2L1790.7,760.1z M1789.9,758.7l-36.4-9.7l6.2-10.7
	h35.7L1789.9,758.7z M1791,759l5.6-20.8h30l-23.9,23.9L1791,759z M1795.7,737.1h-35.3l8.6-14.9l33.1-8.9L1795.7,737.1z
	 M1759.1,737.1h-45.6l54-14.5L1759.1,737.1z M1758.4,738.2l-6,10.4l-39-10.4H1758.4z M1752.9,750l36.7,9.8l-5.5,20.5l-36.5-21.1
	L1752.9,750z M1784.8,782l42,24.3l-30.6,17.7l-17.8-17.8L1784.8,782z M1795.7,1062.9l6.4,23.7l-33.1-8.9l-8.6-14.9H1795.7z
	 M1759.7,1061.8l-6.2-10.7l36.4-9.8l5.5,20.5H1759.7z M1791,1041l11.7-3.1l23.9,23.9h-30L1791,1041z M1790.7,1039.9l-5.1-19.2
	l16.2,16.2L1790.7,1039.9z M1789.6,1040.2l-36.7,9.8l-5.3-9.2l36.5-21.1L1789.6,1040.2z M1778.4,993.9l17.8-17.8l30.6,17.7l-42,24.3
	L1778.4,993.9z M1783.4,1016.9l-14-14l8.1-8.1L1783.4,1016.9z M1769.5,960.6l25.8,14.9l-17.2,17.2L1769.5,960.6z M1796,974.6
	l-26.7-15.4l15.4-26.7l42.1,11.3L1796,974.6z M1785.3,931.5l17.5-30.4l23.9,41.5L1785.3,931.5z M1785.3,868.5l41.5-11.1l-23.9,41.5
	L1785.3,868.5z M1784.8,867.5l-15.4-26.7l26.7-15.4l30.8,30.8L1784.8,867.5z M1769.5,839.4l8.6-32l17.2,17.2L1769.5,839.4z
	 M1777.5,805.2l-8.1-8.1l14-14L1777.5,805.2z M1777.1,806.4l-8.8,32.7l-15-26l15.2-15.2L1777.1,806.4z M1768.8,842l14.9,25.8
	l-23.5,6.3L1768.8,842z M1784.2,868.8l17.7,30.6h-48.5l6.5-24.1L1784.2,868.8z M1801.9,900.6l-17.7,30.6l-24.4-6.5l-6.5-24.1H1801.9
	z M1783.6,932.2l-14.9,25.8l-8.6-32L1783.6,932.2z M1777.1,993.6l-8.6,8.6l-15.2-15.2l15-26L1777.1,993.6z M1767.8,1002.9
	l-26.7,26.7l-6.2-10.7l17.9-30.9L1767.8,1002.9z M1768.6,1003.7l15,15l-36.5,21.1l-5.3-9.2L1768.6,1003.7z M1758.4,1061.8h-44.9
	l38.9-10.4L1758.4,1061.8z M1759,1062.9l8.3,14.5l-53.9-14.5H1759z M1802.4,1087.9l8.8,32.7l-26.3-15.2l-15.2-26.3L1802.4,1087.9z
	 M1803.3,1087l-6.5-24.1h30.5v30.5L1803.3,1087z M1804,1037.5l23.5-6.3v29.7L1804,1037.5z M1803,1036.6l-17.6-17.6l42-24.3v35.4
	L1803,1036.6z M1797.1,975.2l30.4-30.4v47.9L1797.1,975.2z M1803.8,900.6h23.6v40.8L1803.8,900.6z M1803.8,899.4l23.6-40.8v40.8
	H1803.8z M1797.1,824.8l30.4-17.5v47.9L1797.1,824.8z M1785.4,781l17.6-17.6l24.4,6.5v35.4L1785.4,781z M1804,762.5l23.5-23.5v29.7
	L1804,762.5z M1796.9,737.1l6.5-24.1l24.1-6.5v30.5H1796.9z M1803.7,711.7l8.9-33.1l14.9-8.6v35.4L1803.7,711.7z M1802.4,712.1
	l-32.6,8.7l15.2-26.3l26.2-15.1L1802.4,712.1z M1768.2,721.2l-55.1,14.8l69.9-40.3L1768.2,721.2z M1751.8,749.7l-5.2,9l-33.5-19.3
	L1751.8,749.7z M1747,760.2l36.5,21.1l-15,15l-26.9-26.8L1747,760.2z M1767.8,797.1l-15,15l-17.8-30.9l6.2-10.7L1767.8,797.1z
	 M1751.9,812.9l-17.4,17.4l-8.9-33.1l8.6-14.9L1751.9,812.9z M1752.5,813.9l15.3,26.4l-26.4,15.3l-6.5-24.1L1752.5,813.9z
	 M1767.7,841.8l-8.8,32.7l-11.7,3.1l-5.6-20.8L1767.7,841.8z M1758.6,875.7l-5.9,22.1l-5.1-19.2L1758.6,875.7z M1752.6,902.2
	l5.9,22.1l-11.1-3L1752.6,902.2z M1758.9,925.6l8.8,32.7l-26-15l5.6-20.8L1758.9,925.6z M1767.8,959.6l-15.3,26.4l-17.6-17.6
	l6.5-24.1L1767.8,959.6z M1751.9,987.1l-17.7,30.6l-8.6-14.9l8.9-33.1L1751.9,987.1z M1746,1040.4l-33.5,19.3l28.3-28.3L1746,1040.4
	z M1746.6,1041.4l5.2,9l-38.6,10.4L1746.6,1041.4z M1768.2,1078.7l14.7,25.5l-69.8-40.3L1768.2,1078.7z M1786,1107.4l25.5,14.7
	l14.7,55L1786,1107.4z M1827.4,668.7l-14.5,8.3l14.5-53.9V668.7z M1811.6,677.9l-25.5,14.7l40.2-69.5L1811.6,677.9z M1825.5,622.1
	l-41.4,71.6l-71.6,41.3L1825.5,622.1z M1746.1,759.6l-5.2,9l-28.3-28.3L1746.1,759.6z M1740.3,769.6l-6,10.4l-22.5-38.9
	L1740.3,769.6z M1733.6,781.2l-8.4,14.5l-14.5-54L1733.6,781.2z M1709.7,742l14.8,55.1l-14.8,25.5V742z M1709.7,824.8l15.2-26.3
	l8.7,32.6l-23.9,23.9V824.8z M1709.7,856.7l24.3-24.3l6.4,23.7l-30.6,17.7V856.7z M1709.7,875.2l30.9-17.9l5.5,20.5l-36.4,9.8V875.2
	z M1709.7,888.8l36.7-9.8l5.5,20.5h-42.2V888.8z M1709.7,900.6h42.2l-5.5,20.5l-36.7-9.8V900.6z M1709.7,912.4l36.4,9.8l-5.5,20.5
	l-30.9-17.9V912.4z M1709.7,926.1l30.6,17.7l-6.4,23.7l-24.3-24.3V926.1z M1733.6,968.8l-8.8,32.7l-15.2-26.3v-30.3L1733.6,968.8z
	 M1708.6,742v82.6l-41.3,71.5L1708.6,742z M1667.3,904l41.3,71.5v82.5L1667.3,904z M1709.7,977.5l14.7,25.5l-14.7,55V977.5z
	 M1725.3,1004.4l8.3,14.5l-22.8,39.5L1725.3,1004.4z M1734.3,1020l6,10.4l-28.5,28.5L1734.3,1020z M1784.1,1106.3l41.3,71.5
	L1712.6,1065L1784.1,1106.3z M1828.5,1131.9l10.4,6l-10.4,38.9V1131.9z M1840,1138.5l9,5.2l-19.3,33.5L1840,1138.5z M1849.9,1144.3
	l9,5.2l-28.3,28.3L1849.9,1144.3z M1859.9,1150l10.4,6l-38.9,22.5L1859.9,1150z M1871.5,1156.7l14.5,8.3l-53.9,14.5L1871.5,1156.7z
	 M1832.3,1181.7h82.5l71.5,41.3L1832.3,1181.7z M1917.1,1181.7h29.5l40.3,40.3L1917.1,1181.7z M1948.2,1181.7h16.7l22.8,39.5
	L1948.2,1181.7z M1966.2,1181.7h12l10.4,38.9L1966.2,1181.7z M1989.8,1220.4l-10.4-38.6h10.4V1220.4z M1989.8,1180.6h-10.7
	l-9.8-36.7l20.5-5.5V1180.6z M1989.8,1136.9l-24.1-6.5l-6.5-24.4l30.6-17.7V1136.9z M1989.8,1086.5l-40.8-23.6h40.8V1086.5z
	 M1989.8,1061.8h-41.6l41.6-41.6V1061.8z M1989.8,1017.5l-23.5-23.5l23.5-6.3V1017.5z M1989.8,986.3l-42.1-11.3l42.1-72.9V986.3z
	 M1989.8,897.9l-42.1-72.9l42.1-11.3V897.9z M1989.8,812.3l-23.5-6.3l23.5-23.5V812.3z M1989.8,779.8l-41.6-41.6h41.6V779.8z
	 M1989.8,737.1h-40.8l40.8-23.6V737.1z M1989.8,711.6l-30.6-17.7l6.5-24.4l24.1-6.5V711.6z M1989.8,661.6l-20.5-5.5l9.8-36.7h10.7
	V661.6z M1989.8,618.3h-10.4l10.4-38.6V618.3z M2083.9,686.8l-32.7-8.8l26-15l15.2,15.2L2083.9,686.8z M2093.2,679l14,14l-22.1-5.9
	L2093.2,679z M2035.2,737.1l30.4-30.4l17.5,30.4H2035.2z M2083.1,738.2l-11.8,20.4l-35.4-20.4H2083.1z M2050.9,679.1l32,8.6
	l-17.2,17.2L2050.9,679.1z M2049.9,677.5l-15.3-26.4l24.1-6.5l17.6,17.6L2049.9,677.5z M2065,705.7l-30.8,30.8l-11.3-42.1l26.7-15.4
	L2065,705.7z M2070.7,759.6l-20.8,36l-15.2-56.8L2070.7,759.6z M2058.1,830.6l-23.5-6.3l14.9-25.8L2058.1,830.6z M2058.5,831.9
	l6.1,22.8l-28.9-28.9L2058.5,831.9z M2059.7,832.2l32,8.6l-25.8,14.9L2059.7,832.2z M2076.6,899.4h-84.1l72.9-42.1L2076.6,899.4z
	 M2066.8,858.4l16.7,16.7l-6.1,22.8L2066.8,858.4z M2083.4,924.9l-16.7,16.7l10.6-39.4L2083.4,924.9z M2076.6,900.6l-11.3,42.1
	l-72.9-42.1H2076.6z M2066,944.4l25.8,14.9l-32,8.6L2066,944.4z M2058.5,968.1l-22.8,6.1l28.9-28.9L2058.5,968.1z M2058.1,969.4
	l-8.6,32l-14.9-25.8L2058.1,969.4z M2049.9,1004.4l20.8,36l-36,20.8L2049.9,1004.4z M2065.5,1093.3l-30.4-30.4h47.9L2065.5,1093.3z
	 M2065.8,1095.1l17.2,17.2l-32,8.6L2065.8,1095.1z M2035.9,1061.8l35.3-20.4l11.8,20.4H2035.9z M2065,1094.3l-15.4,26.7l-26.7-15.4
	l11.3-42.1L2065,1094.3z M2049.9,1122.5l26.4,15.3l-17.6,17.6l-24.1-6.5L2049.9,1122.5z M2051.2,1122l32.7-8.8l8.6,8.6l-15.2,15.2
	L2051.2,1122z M2085.1,1112.9l22.1-5.9l-14,14L2085.1,1112.9z M2084.2,1111.9l-17.8-17.8l17.7-30.6l24.3,42L2084.2,1111.9z
	 M2072.3,1040.8l35.3-20.4l-23.6,40.8L2072.3,1040.8z M2071.7,1039.8l-20.8-36l56.8,15.2L2071.7,1039.8z M2050.4,1002.5l9-33.4
	l33.4-9l15.5,57.9L2050.4,1002.5z M2066.6,943.4l17.2-17.2l8.6,32L2066.6,943.4z M2078.1,900.6h29.7l-23.5,23.5L2078.1,900.6z
	 M2078.1,899.4l6.3-23.5l23.5,23.5H2078.1z M2083.7,873.8l-17.2-17.2l25.8-14.9L2083.7,873.8z M2059.4,830.9l-9-33.4l57.9-15.5
	l-15.5,57.9L2059.4,830.9z M2050.9,796.2l20.8-36l36,20.8L2050.9,796.2z M2072.3,759.2l11.8-20.4l23.6,40.8L2072.3,759.2z
	 M2066.4,705.9l17.8-17.8l24.1,6.5l-24.3,42L2066.4,705.9z M2094,678.2l26.9-26.9l9.2,5.3l-21.1,36.5L2094,678.2z M2093.2,677.4
	l-15-15l30.9-17.9l10.7,6.2L2093.2,677.4z M2077.4,661.6l-17.4-17.4l33.1-8.9l14.9,8.6L2077.4,661.6z M2067.8,619.4h80.6l-55,14.7
	L2067.8,619.4z M2091.8,634.6l-32.7,8.8l-23.9-23.9h30.3L2091.8,634.6z M2057.8,643.6l-23.7,6.4l-17.7-30.6h17.2L2057.8,643.6z
	 M2033,650.3l-20.5,5.5l-9.8-36.4h12.4L2033,650.3z M2014.6,668.3l-22.1-5.9l19.2-5.1L2014.6,668.3z M2012.8,656.9l20.8-5.6l15,26
	l-32.7-8.8L2012.8,656.9z M2048.3,678.4l-25.8,14.9l-6.3-23.5L2048.3,678.4z M2032.9,736.5l-41.5-23.9l30.4-17.5L2032.9,736.5z
	 M2033.5,738.8l15.5,57.9l-33.4,9l-24.5-24.5L2033.5,738.8z M2031.9,823.6l-39.4-10.6l22.8-6.1L2031.9,823.6z M2016.5,806.6l32-8.6
	l-14.9,25.8L2016.5,806.6z M2033.9,825.6l30.8,30.8l-72.9,42.1L2033.9,825.6z M2064.7,943.6l-30.8,30.8l-42.1-72.9L2064.7,943.6z
	 M2048.6,1002l-32-8.6l17.2-17.2L2048.6,1002z M2015.3,993.1l-22.8-6.1l39.4-10.6L2015.3,993.1z M2015.6,994.4l33.4,9l-15.5,57.9
	l-42.4-42.4L2015.6,994.4z M2021.8,1105l-30.4-17.5l41.5-23.9L2021.8,1105z M2022.5,1106.7l25.8,14.9l-32,8.6L2022.5,1106.7z
	 M2048.6,1122.7l-15,26l-20.8-5.6l3.1-11.7L2048.6,1122.7z M2011.7,1142.8l-19.2-5.1l22.1-5.9L2011.7,1142.8z M2012.5,1144.2
	l20.5,5.5l-17.9,30.9h-12.4L2012.5,1144.2z M2034.1,1150l23.7,6.4l-24.3,24.3h-17.2L2034.1,1150z M2059.1,1156.7l32.7,8.8
	l-26.3,15.2h-30.3L2059.1,1156.7z M2093.3,1165.9l55,14.7h-80.6L2093.3,1165.9z M2093.2,1164.6l-33.1-8.9l17.4-17.4l30.6,17.7
	L2093.2,1164.6z M2078.2,1137.6l15-15l26.7,26.7l-10.7,6.2L2078.2,1137.6z M2094,1121.8l15-15l21.1,36.5l-9.2,5.3L2094,1121.8z
	 M2110,1106.2l20.5-5.5l9.8,36.7l-9.2,5.3L2110,1106.2z M2111.1,1104.7l16.2-16.2l3,11.1L2111.1,1104.7z M2121.5,1062.9h29.7
	l-23.5,23.5L2121.5,1062.9z M2126.9,1087.3l-17.6,17.6l-24.3-42h35.4L2126.9,1087.3z M2085,1061.8l23.9-41.5l11.1,41.5H2085z
	 M2094.1,960.6l36,20.8l-20.8,36L2094.1,960.6z M2131.1,981.9l20.4,11.8l-40.8,23.6L2131.1,981.9z M2130.7,980.4l-36-20.8l56.8-15.2
	L2130.7,980.4z M2093.6,958.7l-9-33.4l24.5-24.5l42.4,42.4L2093.6,958.7z M2084.7,874.7l9-33.4l57.9,15.5l-42.4,42.4L2084.7,874.7z
	 M2094.7,840.4l36-20.8l20.8,36L2094.7,840.4z M2110.7,782.7l40.8,23.6l-20.4,11.8L2110.7,782.7z M2130.1,818.6l-36,20.8l15.2-56.8
	L2130.1,818.6z M2109,779.7l-23.9-41.5h35.1L2109,779.7z M2085,737.1l24.3-42l17.6,17.6l-6.5,24.4H2085z M2127.8,713.6l23.5,23.5
	h-29.7L2127.8,713.6z M2127.2,711.5l-16.2-16.2l19.2,5.1L2127.2,711.5z M2110,693.8l21.1-36.5l9.2,5.3l-9.8,36.7L2110,693.8z
	 M2131.7,656.3l19.3-33.5l-10.4,38.6L2131.7,656.3z M2130.7,655.7l-9-5.2l28.3-28.3L2130.7,655.7z M2120.7,650l-10.4-6l38.9-22.5
	L2120.7,650z M2109.2,643.3l-14.5-8.3l53.9-14.5L2109.2,643.3z M2148.4,618.3h-82.5l-71.5-41.3L2148.4,618.3z M2063.5,618.3h-29.5
	l-40.3-40.3L2063.5,618.3z M2032.4,618.3h-16.7l-22.8-39.5L2032.4,618.3z M2014.4,618.3h-12l-10.4-38.9L2014.4,618.3z M1990.9,579.6
	l10.4,38.6h-10.4V579.6z M1990.9,619.4h10.7l9.8,36.7l-20.5,5.5V619.4z M1990.9,663.1l24.1,6.5l6.5,24.4l-30.6,17.7V663.1z
	 M1990.9,713.5l40.8,23.6h-40.8V713.5z M1990.9,738.2h41.6l-41.6,41.6V738.2z M1990.9,782.5l23.5,23.5l-23.5,6.3V782.5z
	 M1990.9,813.7L2033,825l-42.1,72.9V813.7z M1990.9,902.1L2033,975l-42.1,11.3V902.1z M1990.9,987.7l23.5,6.3l-23.5,23.5V987.7z
	 M1990.9,1020.2l41.6,41.6h-41.6V1020.2z M1990.9,1062.9h40.8l-40.8,23.6V1062.9z M1990.9,1088.4l30.6,17.7l-6.5,24.4l-24.1,6.5
	V1088.4z M1990.9,1138.4l20.5,5.5l-9.8,36.7h-10.7V1138.4z M1990.9,1181.7h10.4l-10.4,38.6V1181.7z M2002.4,1181.7h12l-22.5,38.9
	L2002.4,1181.7z M2015.8,1181.7h16.7l-39.5,39.5L2015.8,1181.7z M2034,1181.7h29.5l-69.8,40.3L2034,1181.7z M1994.3,1223l71.5-41.3
	h82.5L1994.3,1223z M2094.7,1165.1l14.5-8.3l39.5,22.8L2094.7,1165.1z M2110.3,1156.1l10.4-6l28.5,28.5L2110.3,1156.1z
	 M2121.7,1149.5l9-5.2l19.3,33.5L2121.7,1149.5z M2131.7,1143.7l9-5.2l10.4,38.6L2131.7,1143.7z M2152.1,1176.9l-10.4-38.9l10.4-6
	V1176.9z M2152.1,1130.6l-10.7,6.2l-9.8-36.4l20.5-5.5V1130.6z M2152.1,1093.7l-20.8,5.6l-3.1-11.7l23.9-23.9V1093.7z
	 M2152.1,1061.8h-30.8l-11.3-42.1l42.1,11.3V1061.8z M2152.1,1029.8l-41.5-11.1l41.5-23.9V1029.8z M2152.1,992.7l-20.4-11.8
	l20.4-35.3V992.7z M2152.1,942.1l-41.6-41.6h41.6V942.1z M2152.1,899.4h-41.6l41.6-41.6V899.4z M2152.1,854.4l-20.4-35.4l20.4-11.8
	V854.4z M2152.1,805.3l-41.5-23.9l41.5-11.1V805.3z M2152.1,769.1l-42.1,11.3l11.3-42.1h30.8V769.1z M2152.1,736.3l-23.9-23.9
	l3.1-11.7l20.8,5.6V736.3z M2152.1,705.1l-20.5-5.5l9.8-36.4l10.7,6.2V705.1z M2152.1,668.1l-10.4-6l10.4-38.9V668.1z M2203.2,994.8
	l8.1,8.1l-14,14L2203.2,994.8z M2202.6,992.6l-17.2-17.2l25.8-14.9L2202.6,992.6z M2203.5,993.6l8.8-32.7l15,26l-15.2,15.2
	L2203.5,993.6z M2211.9,958l-14.9-25.8l23.5-6.3L2211.9,958z M2196.4,931.2l-17.7-30.6h48.5l-6.5,24.1L2196.4,931.2z M2178.7,899.4
	l17.7-30.6l24.4,6.5l6.5,24.1H2178.7z M2197,867.8l14.9-25.8l8.6,32L2197,867.8z M2203.5,806.4l8.6-8.6l15.2,15.2l-15,26
	L2203.5,806.4z M2227.1,749l-36.4,9.8l-5.5-20.5h35.7L2227.1,749z M2213.2,722.6l53.9,14.5h-45.6L2213.2,722.6z M2222.2,738.2h44.9
	l-38.9,10.4L2222.2,738.2z M2267.5,739.3l-33.5,19.3l-5.2-9L2267.5,739.3z M2238.9,769.4l-26.9,26.9l-15-15l36.5-21.1L2238.9,769.4z
	 M2211.3,797.1l-8.1,8.1l-5.9-22.1L2211.3,797.1z M2211.2,839.4l-25.8-14.9l17.2-17.2L2211.2,839.4z M2212.9,797.1l26.7-26.7
	l6.2,10.7l-17.9,30.9L2212.9,797.1z M2234.6,759.6l33.5-19.3l-28.3,28.3L2234.6,759.6z M2212.4,721.3l-14.7-25.5l69.8,40.3
	L2212.4,721.3z M2210.9,720.8l-32.7-8.8l-8.8-32.7l26.3,15.2L2210.9,720.8z M2211.7,722.2l8.6,14.9h-35.4l-6.4-23.7L2211.7,722.2z
	 M2189.6,759l-11.7,3.1l-23.9-23.9h30L2189.6,759z M2189.9,760.1l5.1,19.2l-16.2-16.2L2189.9,760.1z M2191,759.8l36.7-9.8l5.3,9.2
	l-36.5,21.1L2191,759.8z M2202.3,806.1l-17.8,17.8l-30.6-17.7l42-24.3L2202.3,806.1z M2184.6,825.4l26.7,15.4l-15.4,26.7l-42.1-11.3
	L2184.6,825.4z M2195.3,868.5l-17.5,30.4l-23.9-41.5L2195.3,868.5z M2195.3,931.5l-41.5,11.1l23.9-41.5L2195.3,931.5z M2195.9,932.5
	l15.4,26.7l-26.7,15.4l-30.8-30.8L2195.9,932.5z M2202.2,993.9l-6.5,24.1l-42-24.3l30.6-17.7L2202.2,993.9z M2196.5,1019.7
	l36.5,21.1l-5.3,9.2l-36.7-9.8L2196.5,1019.7z M2221.6,1062.9h45.6l-53.9,14.5L2221.6,1062.9z M2220.9,1061.8h-35.7l5.5-20.5
	l36.4,9.8L2220.9,1061.8z M2222.2,1061.8l6-10.4l38.9,10.4H2222.2z M2189.9,1039.9l-11.1-3l16.2-16.2L2189.9,1039.9z M2189.6,1041
	l-5.6,20.8h-30l23.9-23.9L2189.6,1041z M2184.9,1062.9h35.4l-8.6,14.9l-33.1,8.9L2184.9,1062.9z M2210.9,1079.2l-15.2,26.3
	l-26.3,15.2l8.8-32.7L2210.9,1079.2z M2212.4,1078.7l55-14.7l-69.8,40.3L2212.4,1078.7z M2228.9,1050.3l5.2-9l33.5,19.3
	L2228.9,1050.3z M2233.6,1039.8l-36.5-21.1l15-15l26.9,26.9L2233.6,1039.8z M2212.9,1002.9l15-15l17.9,30.9l-6.2,10.7L2212.9,1002.9
	z M2228.7,987.1l17.4-17.4l8.9,33.1l-8.6,14.9L2228.7,987.1z M2228.1,986.1l-15.3-26.4l26.4-15.3l6.5,24.1L2228.1,986.1z
	 M2213,958.2l8.8-32.7l11.7-3.1l5.6,20.8L2213,958.2z M2222.1,924.3l5.9-22.1l5.1,19.2L2222.1,924.3z M2222.1,875.7l11.1,3
	l-5.1,19.2L2222.1,875.7z M2221.7,874.4l-8.8-32.7l26,15l-5.6,20.8L2221.7,874.4z M2212.8,840.4l15.3-26.4l17.6,17.6l-6.5,24.1
	L2212.8,840.4z M2228.7,812.9l17.7-30.6l8.6,14.9l-8.9,33.1L2228.7,812.9z M2247,781.2l22.8-39.5l-14.5,53.9L2247,781.2z
	 M2246.4,780l-6-10.4l28.5-28.5L2246.4,780z M2268.1,735l-71.5-41.3l-41.3-71.5L2268.1,735z M2194.6,692.6l-25.5-14.7l-14.7-55
	L2194.6,692.6z M2153.2,623.1l14.5,53.9l-14.5-8.3V623.1z M2153.2,670l14.9,8.6l8.9,33.1l-23.7-6.4V670z M2153.2,706.6l24.1,6.5
	l6.5,24.1h-30.5V706.6z M2153.2,739l23.5,23.5l-23.5,6.3V739z M2153.2,769.9l24.4-6.5l17.6,17.6l-42,24.3V769.9z M2153.2,807.3
	l30.4,17.5l-30.4,30.4V807.3z M2153.2,858.6l23.6,40.8h-23.6V858.6z M2153.2,900.6h23.6l-23.6,40.8V900.6z M2153.2,944.9l30.4,30.4
	l-30.4,17.5V944.9z M2153.2,994.7l42,24.3l-17.6,17.6l-24.4-6.5V994.7z M2153.2,1031.2l23.5,6.3l-23.5,23.5V1031.2z M2153.2,1062.9
	h30.5l-6.5,24.1l-24.1,6.5V1062.9z M2153.2,1094.6l23.7-6.4l-8.9,33.1l-14.9,8.6V1094.6z M2153.2,1131.3l14.5-8.3l-14.5,53.9V1131.3
	z M2169.1,1122.1l25.5-14.7l-40.3,69.8L2169.1,1122.1z M2155.3,1177.7l41.3-71.5l71.5-41.3L2155.3,1177.7z M2234.6,1040.4l5.2-9
	l28.3,28.3L2234.6,1040.4z M2240.4,1030.4l6-10.4l22.5,38.9L2240.4,1030.4z M2247,1018.8l8.3-14.5l14.5,53.9L2247,1018.8z
	 M2270.9,1058l-14.7-55l14.7-25.5V1058z M2270.9,975.2l-15.2,26.3l-8.8-32.7l23.9-23.9V975.2z M2270.9,943.3l-24.3,24.3l-6.4-23.7
	l30.6-17.7V943.3z M2270.9,924.8l-30.9,17.9l-5.5-20.5l36.4-9.8V924.8z M2270.9,911.2l-36.7,9.8l-5.5-20.5h42.2V911.2z
	 M2270.9,899.4h-42.2l5.5-20.5l36.7,9.8V899.4z M2270.9,887.6l-36.4-9.8l5.5-20.5l30.9,17.9V887.6z M2270.9,873.9l-30.6-17.7
	l6.4-23.7l24.3,24.3V873.9z M2270.9,855.1l-23.9-23.9l8.8-32.7l15.2,26.3V855.1z M2270.9,822.5l-14.7-25.5l14.7-55V822.5z
	 M2272.1,826.8l40.3,69.8l-40.3-40.3V826.8z M2272.1,857.9l39.5,39.5l-39.5-22.8V857.9z M2272.1,875.9l38.9,22.5l-38.9-10.4V875.9z
	 M2272.1,889.1l38.6,10.4h-38.6V889.1z M2272.1,900.6h38.6l-38.6,10.4V900.6z M2272.1,912.1l38.9-10.4l-38.9,22.5V912.1z
	 M2272.1,925.4l39.5-22.8l-39.5,39.5V925.4z M2272.1,943.7l40.3-40.3l-40.3,69.8V943.7z M2272.1,1058v-82.5l41.3-71.5L2272.1,1058z
	 M2272.1,824.5V742l41.3,154L2272.1,824.5z"/>
<path class="st1" d="M1533.4,900C1533.4,899.9,1533.4,899.9,1533.4,900l-43.5-162.4v0l0,0c0,0,0-0.1,0-0.1c0,0,0-0.1,0-0.1
	c0,0,0,0,0,0l0,0c0,0,0,0,0,0l0,0c0,0,0,0,0,0c0,0,0,0,0,0c0,0,0,0,0,0v0l0,0c0,0,0,0,0,0v0c0,0,0,0,0,0c0,0,0,0,0,0l-118.8-118.8
	c0,0,0,0,0,0c0,0,0,0,0,0c0,0,0,0,0,0c0,0,0,0,0,0c0,0,0,0,0,0c0,0,0,0,0,0l0,0c-0.1,0-0.1-0.1-0.2-0.1c0,0,0,0,0,0c0,0,0,0,0,0
	l-162.3-43.5c0,0,0,0,0,0c0,0,0,0,0,0h0h0c0,0,0,0,0,0c0,0-0.1,0-0.1,0c0,0-0.1,0-0.1,0v0l-162.3,43.5c0,0,0,0,0,0c0,0,0,0-0.1,0
	c0,0,0,0,0,0c0,0,0,0,0,0c0,0-0.1,0-0.1,0.1c0,0,0,0,0,0l0,0l0,0c0,0,0,0-0.1,0c0,0,0,0,0,0L926.6,737.3c0,0,0,0,0,0c0,0,0,0,0,0
	c0,0,0,0,0,0c0,0,0,0,0,0c0,0,0,0,0,0l0,0c0,0,0,0,0,0c0,0,0,0,0,0c0,0,0,0,0,0.1c0,0,0,0,0,0c0,0,0,0,0,0l0,0c0,0,0,0,0,0
	c0,0,0,0,0,0c0,0,0,0,0,0l-43.5,162.3c0,0,0,0,0,0c0,0,0,0,0,0v0c0,0,0,0,0,0v0c0,0,0,0,0,0v0v0c0,0,0,0,0,0c0,0,0,0,0,0v0
	c0,0,0,0,0,0v0c0,0,0,0,0,0v0c0,0,0,0,0,0c0,0,0,0,0,0.1c0,0,0,0,0,0.1v0c0,0,0,0,0,0v0v0c0,0,0,0,0,0c0,0,0,0,0,0l43.5,162.3
	c0,0,0,0,0,0v0l0,0v0c0,0,0,0,0,0v0c0,0,0,0,0,0c0,0,0,0,0,0c0,0,0,0,0,0c0,0,0,0,0,0c0,0,0,0.1,0.1,0.1c0,0,0,0,0,0.1c0,0,0,0,0,0
	c0,0,0,0,0,0h0l0,0l118.8,118.8c0,0,0,0,0,0c0,0,0.1,0,0.1,0.1c0,0,0,0,0.1,0c0,0,0,0,0,0c0,0,0,0,0,0c0,0,0,0,0,0l162.3,43.5
	c0,0,0,0,0,0c0,0,0.1,0,0.1,0h0h0h0c0,0,0,0,0,0c0,0,0.1,0,0.1,0l162.3-43.5c0,0,0,0,0,0c0,0,0.1,0,0.1,0c0,0,0,0,0,0c0,0,0,0,0,0
	c0,0,0,0,0,0c0,0,0,0,0,0c0,0,0,0,0,0c0,0,0,0,0,0c0,0,0,0,0,0c0,0,0,0,0,0v0l0,0c0,0,0,0,0,0c0,0,0,0,0,0c0,0,0,0,0,0c0,0,0,0,0,0
	l118.8-118.8c0,0,0,0,0,0c0,0,0,0,0.1-0.1c0,0,0,0,0,0v0c0,0,0,0,0,0c0,0,0,0,0,0c0,0,0,0,0,0h0v0c0,0,0,0,0-0.1c0,0,0,0,0,0
	l43.5-162.3c0,0,0,0,0,0c0,0,0,0,0,0v0C1533.4,900.1,1533.4,900.1,1533.4,900L1533.4,900C1533.4,900,1533.4,900,1533.4,900
	C1533.4,900,1533.4,900,1533.4,900 M1115.4,737.1l17.5-30.4l30.4,30.4H1115.4z M1162.5,738.2l-35.4,20.4l-11.8-20.4H1162.5z
	 M1132.7,704.9l-17.2-17.2l32-8.6L1132.7,704.9z M1114.6,686.8l-8.6-8.6l15.2-15.2l26,15L1114.6,686.8z M1113.3,687.1l-22.1,5.9
	l14-14L1113.3,687.1z M1114.2,688.1l17.8,17.8l-17.7,30.6l-24.3-42L1114.2,688.1z M1126.2,759.2l-35.3,20.4l23.6-40.8L1126.2,759.2z
	 M1126.8,760.2l20.8,36l-56.8-15.2L1126.8,760.2z M1148,797.5l-9,33.4l-33.4,9l-15.5-57.9L1148,797.5z M1115,875.1l16.7-16.7
	l-10.6,39.4L1115,875.1z M1131.7,941.6l-16.7-16.7l6.1-22.8L1131.7,941.6z M1114.7,873.8l-8.6-32l25.8,14.9L1114.7,873.8z
	 M1120.4,899.4h-29.7l23.5-23.5L1120.4,899.4z M1120.4,900.6l-6.3,23.5l-23.5-23.5H1120.4z M1114.7,926.2l17.2,17.2l-25.8,14.9
	L1114.7,926.2z M1147.5,1003.8l-20.8,36l-36-20.8L1147.5,1003.8z M1090.1,1018l15.5-57.9l33.4,9l9,33.4L1090.1,1018z M1115.4,1062.9
	h47.9l-30.4,30.4L1115.4,1062.9z M1147.5,1120.9l-32-8.6l17.2-17.2L1147.5,1120.9z M1115.4,1061.8l11.8-20.4l35.4,20.4H1115.4z
	 M1126.2,1040.8l-11.8,20.4l-23.6-40.8L1126.2,1040.8z M1132.1,1094.1l-17.8,17.8l-24.1-6.5l24.3-42L1132.1,1094.1z M1113.3,1112.9
	l-8.1,8.1l-14-14L1113.3,1112.9z M1114.6,1113.2l32.7,8.8l-26,15l-15.2-15.2L1114.6,1113.2z M1148.5,1122.5l15.3,26.4l-24.1,6.5
	l-17.6-17.6L1148.5,1122.5z M1133.5,1094.3l30.8-30.8l11.3,42.1l-26.7,15.4L1133.5,1094.3z M1127.7,1040.4l20.8-36l15.2,56.8
	L1127.7,1040.4z M1140.3,969.4l23.5,6.3l-14.9,25.8L1140.3,969.4z M1140,968.1l-6.1-22.8l28.9,28.9L1140,968.1z M1138.7,967.8
	l-32-8.6l25.8-14.9L1138.7,967.8z M1121.9,900.6h84.1l-72.9,42.1L1121.9,900.6z M1121.9,899.4l11.3-42.1l72.9,42.1H1121.9z
	 M1132.4,855.6l-25.8-14.9l32-8.6L1132.4,855.6z M1140,831.9l22.8-6.1l-28.9,28.9L1140,831.9z M1140.3,830.6l8.6-32l14.9,25.8
	L1140.3,830.6z M1148.5,795.6l-20.8-36l36-20.8L1148.5,795.6z M1133.5,705.7l15.4-26.7l26.7,15.4l-11.3,42.1L1133.5,705.7z
	 M1148.5,677.5l-26.4-15.3l17.6-17.6l24.1,6.5L1148.5,677.5z M1140.6,643.6l24.3-24.3h17.2l-17.7,30.6L1140.6,643.6z M1139.4,643.3
	l-32.7-8.8l26.3-15.2h30.3L1139.4,643.3z M1105.1,634.1l-55-14.7h80.6L1105.1,634.1z M1105.3,635.4l33.1,8.9l-17.4,17.4l-30.6-17.7
	L1105.3,635.4z M1120.2,662.4l-15,15l-26.7-26.7l10.7-6.2L1120.2,662.4z M1104.4,678.2l-15,15l-21.1-36.5l9.2-5.3L1104.4,678.2z
	 M1088.4,693.8l-20.5,5.5l-9.8-36.7l9.2-5.3L1088.4,693.8z M1087.4,695.3l-16.2,16.2l-3-11.1L1087.4,695.3z M1076.9,737.1h-29.7
	l23.5-23.5L1076.9,737.1z M1071.5,712.7l17.6-17.6l24.3,42h-35.4L1071.5,712.7z M1113.4,738.2l-23.9,41.5l-11.1-41.5H1113.4z
	 M1104.3,839.4l-36-20.8l20.8-36L1104.3,839.4z M1067.3,818.1l-20.4-11.8l40.8-23.6L1067.3,818.1z M1067.8,819.6l36,20.8l-56.8,15.2
	L1067.8,819.6z M1104.8,841.3l9,33.4l-24.5,24.5l-42.4-42.4L1104.8,841.3z M1113.8,925.3l-9,33.4l-57.9-15.5l42.4-42.4L1113.8,925.3
	z M1103.8,959.6l-36,20.8l-20.8-36L1103.8,959.6z M1087.8,1017.3l-40.8-23.6l20.4-11.8L1087.8,1017.3z M1068.3,981.4l36-20.8
	l-15.2,56.8L1068.3,981.4z M1089.5,1020.3l23.9,41.5h-35L1089.5,1020.3z M1113.4,1062.9l-24.3,42l-17.6-17.6l6.5-24.4H1113.4z
	 M1070.6,1086.4l-23.5-23.5h29.7L1070.6,1086.4z M1071.2,1088.5l16.2,16.2l-19.2-5.1L1071.2,1088.5z M1088.4,1106.2l-21.1,36.5
	l-9.2-5.3l9.8-36.7L1088.4,1106.2z M1089.4,1106.8l15,15l-26.9,26.9l-9.2-5.3L1089.4,1106.8z M1105.2,1122.6l15,15l-30.9,17.9
	l-10.7-6.2L1105.2,1122.6z M1121.1,1138.4l17.4,17.4l-33.1,8.9l-14.9-8.6L1121.1,1138.4z M1130.7,1180.6h-80.6l55-14.7
	L1130.7,1180.6z M1106.7,1165.4l32.7-8.8l23.9,23.9H1133L1106.7,1165.4z M1140.6,1156.4l23.7-6.4l17.7,30.6h-17.2L1140.6,1156.4z
	 M1165.5,1149.7l20.5-5.5l9.8,36.4h-12.4L1165.5,1149.7z M1183.8,1131.8l22.1,5.9l-19.2,5.1L1183.8,1131.8z M1185.7,1143.1
	l-20.8,5.6l-15-26l32.7,8.8L1185.7,1143.1z M1150.2,1121.6l25.8-14.9l6.3,23.5L1150.2,1121.6z M1165.5,1063.5l41.5,23.9l-30.4,17.5
	L1165.5,1063.5z M1164.9,1061.2l-15.5-57.9l33.4-9l24.5,24.5L1164.9,1061.2z M1166.5,976.4L1206,987l-22.8,6.1L1166.5,976.4z
	 M1181.9,993.4l-32,8.6l14.9-25.8L1181.9,993.4z M1164.5,974.4l-30.8-30.8l72.9-42.1L1164.5,974.4z M1133.7,856.4l30.8-30.8
	l42.1,72.9L1133.7,856.4z M1149.9,798l32,8.6l-17.2,17.2L1149.9,798z M1183.2,806.9l22.8,6.1l-39.4,10.6L1183.2,806.9z
	 M1182.9,805.6l-33.4-9l15.5-57.9l42.4,42.4L1182.9,805.6z M1176.7,695l30.4,17.5l-41.5,23.9L1176.7,695z M1175.9,693.3l-25.8-14.9
	l32-8.6L1175.9,693.3z M1149.9,677.3l15-26l20.8,5.6l-3.1,11.7L1149.9,677.3z M1186.8,657.2l19.2,5.1l-22.1,5.9L1186.8,657.2z
	 M1186,655.8l-20.5-5.5l17.9-30.9h12.4L1186,655.8z M1184,618.3l22.5-38.9l-10.4,38.9H1184z M1182.7,618.3H1166l39.5-39.5
	L1182.7,618.3z M1164.4,618.3h-29.5l69.8-40.3L1164.4,618.3z M1204.1,577l-71.5,41.3h-82.5L1204.1,577z M1103.8,634.9l-14.5,8.3
	l-39.5-22.8L1103.8,634.9z M1088.2,643.9l-10.4,6l-28.5-28.5L1088.2,643.9z M1076.7,650.5l-9,5.2l-19.3-33.5L1076.7,650.5z
	 M1066.8,656.3l-9,5.2l-10.4-38.6L1066.8,656.3z M1046.4,623.1l10.4,38.9l-10.4,6V623.1z M1046.4,669.4l10.7-6.2l9.8,36.4l-20.5,5.5
	V669.4z M1046.4,706.3l20.8-5.6l3.1,11.7l-23.9,23.9V706.3z M1046.4,738.2h30.8l11.3,42.1l-42.1-11.3V738.2z M1046.4,770.2
	l41.5,11.1l-41.5,23.9V770.2z M1046.4,807.3l20.4,11.8l-20.4,35.4V807.3z M1046.4,857.9l41.6,41.6h-41.6V857.9z M1046.4,900.6h41.6
	l-41.6,41.6V900.6z M1046.4,945.6l20.4,35.3l-20.4,11.8V945.6z M1046.4,994.7l41.5,23.9l-41.5,11.1V994.7z M1046.4,1030.9l42.1-11.3
	l-11.3,42.1h-30.8V1030.9z M1046.4,1063.7l23.9,23.9l-3.1,11.7l-20.8-5.6V1063.7z M1046.4,1094.9l20.5,5.5l-9.8,36.4l-10.7-6.2
	V1094.9z M887.8,900.6h38.6v10.4L887.8,900.6z M926.4,912.1v12l-38.9-22.5L926.4,912.1z M887.8,899.4l38.6-10.4v10.4H887.8z
	 M887.5,898.3l38.9-22.5v12L887.5,898.3z M886.9,897.4l39.5-39.5v16.7L886.9,897.4z M926.4,925.4v16.7l-39.5-39.5L926.4,925.4z
	 M926.4,856.3l-40.3,40.3l40.3-69.8V856.3z M926.4,943.7v29.5l-40.3-69.8L926.4,943.7z M1030.4,1121.4l-8.9-33.1l23.7,6.4v35.4
	L1030.4,1121.4z M1045.2,1131.3v45.6l-14.5-53.9L1045.2,1131.3z M1008.5,760.1l11.1,3l-16.2,16.2L1008.5,760.1z M1007.7,758.7
	l-36.4-9.7l6.2-10.7h35.7L1007.7,758.7z M1008.8,759l5.6-20.8h30l-23.9,23.9L1008.8,759z M1013.5,737.1h-35.3l8.6-14.9l33.1-8.9
	L1013.5,737.1z M976.9,737.1h-45.6l54-14.5L976.9,737.1z M976.2,738.2l-6,10.4l-39-10.4H976.2z M970.8,750l36.7,9.8l-5.5,20.5
	l-36.5-21.1L970.8,750z M1002.7,782l42,24.3l-30.6,17.7l-17.8-17.8L1002.7,782z M1013.5,1062.9l6.4,23.7l-33.1-8.9l-8.6-14.9H1013.5
	z M977.5,1061.8l-6.2-10.7l36.4-9.8l5.5,20.5H977.5z M1008.8,1041l11.7-3.1l23.9,23.9h-30L1008.8,1041z M1008.5,1039.9l-5.1-19.2
	l16.2,16.2L1008.5,1039.9z M1007.4,1040.2l-36.7,9.8l-5.3-9.2l36.5-21.1L1007.4,1040.2z M996.2,993.9l17.8-17.8l30.6,17.7l-42,24.3
	L996.2,993.9z M1001.2,1016.9l-14-14l8.1-8.1L1001.2,1016.9z M987.3,960.6l25.8,14.9l-17.2,17.2L987.3,960.6z M1013.9,974.6
	l-26.7-15.4l15.4-26.7l42.1,11.3L1013.9,974.6z M1003.2,931.5l17.5-30.4l23.9,41.5L1003.2,931.5z M1003.2,868.5l41.5-11.1
	l-23.9,41.5L1003.2,868.5z M1002.6,867.5l-15.4-26.7l26.7-15.4l30.8,30.8L1002.6,867.5z M987.3,839.4l8.6-32l17.2,17.2L987.3,839.4z
	 M995.3,805.2l-8.1-8.1l14-14L995.3,805.2z M994.9,806.4l-8.8,32.7l-15-26l15.2-15.2L994.9,806.4z M986.6,842l14.9,25.8l-23.5,6.3
	L986.6,842z M1002,868.8l17.7,30.6h-48.5l6.5-24.1L1002,868.8z M1019.7,900.6l-17.7,30.6l-24.4-6.5l-6.5-24.1H1019.7z M1001.4,932.2
	L986.6,958l-8.6-32L1001.4,932.2z M994.9,993.6l-8.6,8.6l-15.2-15.2l15-26L994.9,993.6z M985.6,1002.9l-26.7,26.7l-6.2-10.7
	l17.9-30.9L985.6,1002.9z M986.4,1003.7l15,15l-36.5,21.1l-5.3-9.2L986.4,1003.7z M976.2,1061.8h-44.9l38.9-10.4L976.2,1061.8z
	 M976.9,1062.9l8.3,14.5l-53.9-14.5H976.9z M1020.2,1087.9l8.8,32.7l-26.3-15.2l-15.2-26.3L1020.2,1087.9z M1021.2,1087l-6.5-24.1
	h30.5v30.5L1021.2,1087z M1021.8,1037.5l23.5-6.3v29.7L1021.8,1037.5z M1020.9,1036.6l-17.6-17.6l42-24.3v35.4L1020.9,1036.6z
	 M1014.9,975.2l30.4-30.4v47.9L1014.9,975.2z M1021.7,900.6h23.6v40.8L1021.7,900.6z M1021.7,899.4l23.6-40.8v40.8H1021.7z
	 M1014.9,824.8l30.4-17.5v47.9L1014.9,824.8z M1003.2,781l17.6-17.6l24.4,6.5v35.4L1003.2,781z M1021.8,762.5l23.5-23.5v29.7
	L1021.8,762.5z M1014.7,737.1l6.5-24.1l24.1-6.5v30.5H1014.7z M1021.5,711.7l8.9-33.1l14.9-8.6v35.4L1021.5,711.7z M1020.2,712.1
	l-32.6,8.7l15.2-26.3l26.2-15.1L1020.2,712.1z M986.1,721.2L931,736l69.9-40.3L986.1,721.2z M969.6,749.7l-5.2,9L931,739.3
	L969.6,749.7z M964.9,760.2l36.5,21.1l-15,15l-26.9-26.8L964.9,760.2z M985.6,797.1l-15,15l-17.8-30.9l6.2-10.7L985.6,797.1z
	 M969.8,812.9l-17.4,17.4l-8.9-33.1l8.6-14.9L969.8,812.9z M970.3,813.9l15.3,26.4l-26.4,15.3l-6.5-24.1L970.3,813.9z M985.5,841.8
	l-8.8,32.7l-11.7,3.1l-5.6-20.8L985.5,841.8z M976.4,875.7l-5.9,22.1l-5.1-19.2L976.4,875.7z M970.5,902.2l5.9,22.1l-11.1-3
	L970.5,902.2z M976.7,925.6l8.8,32.7l-26-15l5.6-20.8L976.7,925.6z M985.6,959.6l-15.3,26.4l-17.6-17.6l6.5-24.1L985.6,959.6z
	 M969.8,987.1l-17.7,30.6l-8.6-14.9l8.9-33.1L969.8,987.1z M963.9,1040.4l-33.5,19.3l28.3-28.3L963.9,1040.4z M964.4,1041.4l5.2,9
	l-38.6,10.4L964.4,1041.4z M986,1078.7l14.7,25.5L931,1064L986,1078.7z M1003.9,1107.4l25.5,14.7l14.7,55L1003.9,1107.4z
	 M1045.2,668.7l-14.5,8.3l14.5-53.9V668.7z M1029.4,677.9l-25.5,14.7l40.2-69.5L1029.4,677.9z M1043.3,622.1l-41.4,71.6L930.4,735
	L1043.3,622.1z M963.9,759.6l-5.2,9l-28.3-28.3L963.9,759.6z M958.1,769.6l-6,10.4l-22.5-38.9L958.1,769.6z M951.4,781.2l-8.4,14.5
	l-14.5-54L951.4,781.2z M927.5,742l14.8,55.1l-14.8,25.5V742z M927.5,824.8l15.2-26.3l8.7,32.6l-23.9,23.9V824.8z M927.5,856.7
	l24.3-24.3l6.4,23.7l-30.6,17.7V856.7z M927.5,875.2l30.9-17.9l5.5,20.5l-36.4,9.8V875.2z M927.5,888.8l36.7-9.8l5.5,20.5h-42.2
	V888.8z M927.5,900.6h42.2l-5.5,20.5l-36.7-9.8V900.6z M927.5,912.4l36.4,9.8l-5.5,20.5l-30.9-17.9V912.4z M927.5,926.1l30.6,17.7
	l-6.4,23.7l-24.3-24.3V926.1z M951.4,968.8l-8.8,32.7l-15.2-26.3v-30.3L951.4,968.8z M926.4,742v82.6L885.1,896L926.4,742z
	 M885.1,904l41.3,71.5v82.5L885.1,904z M927.5,977.5l14.7,25.5l-14.7,55V977.5z M943.1,1004.4l8.3,14.5l-22.8,39.5L943.1,1004.4z
	 M952.1,1020l6,10.4l-28.5,28.5L952.1,1020z M1001.9,1106.3l41.3,71.5L930.4,1065L1001.9,1106.3z M1046.4,1131.9l10.4,6l-10.4,38.9
	V1131.9z M1057.8,1138.5l9,5.2l-19.3,33.5L1057.8,1138.5z M1067.8,1144.3l9,5.2l-28.3,28.3L1067.8,1144.3z M1077.7,1150l10.4,6
	l-38.9,22.5L1077.7,1150z M1089.3,1156.7l14.5,8.3l-53.9,14.5L1089.3,1156.7z M1050.1,1181.7h82.5l71.5,41.3L1050.1,1181.7z
	 M1134.9,1181.7h29.5l40.3,40.3L1134.9,1181.7z M1166,1181.7h16.7l22.8,39.5L1166,1181.7z M1184,1181.7h12l10.4,38.9L1184,1181.7z
	 M1207.6,1220.4l-10.4-38.6h10.4V1220.4z M1207.6,1180.6h-10.7l-9.8-36.7l20.5-5.5V1180.6z M1207.6,1136.9l-24.1-6.5l-6.5-24.4
	l30.6-17.7V1136.9z M1207.6,1086.5l-40.8-23.6h40.8V1086.5z M1207.6,1061.8H1166l41.6-41.6V1061.8z M1207.6,1017.5l-23.5-23.5
	l23.5-6.3V1017.5z M1207.6,986.3l-42.1-11.3l42.1-72.9V986.3z M1207.6,897.9l-42.1-72.9l42.1-11.3V897.9z M1207.6,812.3l-23.5-6.3
	l23.5-23.5V812.3z M1207.6,779.8l-41.6-41.6h41.6V779.8z M1207.6,737.1h-40.8l40.8-23.6V737.1z M1207.6,711.6l-30.6-17.7l6.5-24.4
	l24.1-6.5V711.6z M1207.6,661.6l-20.5-5.5l9.8-36.7h10.7V661.6z M1207.6,618.3h-10.4l10.4-38.6V618.3z M1301.7,686.8l-32.7-8.8
	l26-15l15.2,15.2L1301.7,686.8z M1311.1,679l14,14l-22.1-5.9L1311.1,679z M1253,737.1l30.4-30.4l17.5,30.4H1253z M1300.9,738.2
	l-11.8,20.4l-35.4-20.4H1300.9z M1268.7,679.1l32,8.6l-17.2,17.2L1268.7,679.1z M1267.8,677.5l-15.3-26.4l24.1-6.5l17.6,17.6
	L1267.8,677.5z M1282.8,705.7l-30.8,30.8l-11.3-42.1l26.7-15.4L1282.8,705.7z M1288.5,759.6l-20.8,36l-15.2-56.8L1288.5,759.6z
	 M1276,830.6l-23.5-6.3l14.9-25.8L1276,830.6z M1276.3,831.9l6.1,22.8l-28.9-28.9L1276.3,831.9z M1277.6,832.2l32,8.6l-25.8,14.9
	L1277.6,832.2z M1294.4,899.4h-84.1l72.9-42.1L1294.4,899.4z M1284.6,858.4l16.7,16.7l-6.1,22.8L1284.6,858.4z M1301.2,924.9
	l-16.7,16.7l10.6-39.4L1301.2,924.9z M1294.4,900.6l-11.3,42.1l-72.9-42.1H1294.4z M1283.8,944.4l25.8,14.9l-32,8.6L1283.8,944.4z
	 M1276.3,968.1l-22.8,6.1l28.9-28.9L1276.3,968.1z M1276,969.4l-8.6,32l-14.9-25.8L1276,969.4z M1267.8,1004.4l20.8,36l-36,20.8
	L1267.8,1004.4z M1283.4,1093.3l-30.4-30.4h47.9L1283.4,1093.3z M1283.6,1095.1l17.2,17.2l-32,8.6L1283.6,1095.1z M1253.8,1061.8
	l35.3-20.4l11.8,20.4H1253.8z M1282.8,1094.3l-15.4,26.7l-26.7-15.4l11.3-42.1L1282.8,1094.3z M1267.8,1122.5l26.4,15.3l-17.6,17.6
	l-24.1-6.5L1267.8,1122.5z M1269,1122l32.7-8.8l8.6,8.6L1295,1137L1269,1122z M1303,1112.9l22.1-5.9l-14,14L1303,1112.9z
	 M1302,1111.9l-17.8-17.8l17.7-30.6l24.3,42L1302,1111.9z M1290.1,1040.8l35.3-20.4l-23.6,40.8L1290.1,1040.8z M1289.5,1039.8
	l-20.8-36l56.8,15.2L1289.5,1039.8z M1268.3,1002.5l9-33.4l33.4-9l15.5,57.9L1268.3,1002.5z M1284.4,943.4l17.2-17.2l8.6,32
	L1284.4,943.4z M1295.9,900.6h29.7l-23.5,23.5L1295.9,900.6z M1295.9,899.4l6.3-23.5l23.5,23.5H1295.9z M1301.6,873.8l-17.2-17.2
	l25.8-14.9L1301.6,873.8z M1277.2,830.9l-9-33.4l57.9-15.5l-15.5,57.9L1277.2,830.9z M1268.7,796.2l20.8-36l36,20.8L1268.7,796.2z
	 M1290.1,759.2l11.8-20.4l23.6,40.8L1290.1,759.2z M1284.2,705.9l17.8-17.8l24.1,6.5l-24.3,42L1284.2,705.9z M1311.9,678.2
	l26.9-26.9l9.2,5.3l-21.1,36.5L1311.9,678.2z M1311.1,677.4l-15-15l30.9-17.9l10.7,6.2L1311.1,677.4z M1295.2,661.6l-17.4-17.4
	l33.1-8.9l14.9,8.6L1295.2,661.6z M1285.6,619.4h80.6l-55,14.7L1285.6,619.4z M1309.6,634.6l-32.7,8.8l-23.9-23.9h30.3L1309.6,634.6
	z M1275.7,643.6l-23.7,6.4l-17.7-30.6h17.2L1275.7,643.6z M1250.8,650.3l-20.5,5.5l-9.8-36.4h12.4L1250.8,650.3z M1232.5,668.3
	l-22.1-5.9l19.2-5.1L1232.5,668.3z M1230.6,656.9l20.8-5.6l15,26l-32.7-8.8L1230.6,656.9z M1266.1,678.4l-25.8,14.9l-6.3-23.5
	L1266.1,678.4z M1250.7,736.5l-41.5-23.9l30.4-17.5L1250.7,736.5z M1251.3,738.8l15.5,57.9l-33.4,9l-24.5-24.5L1251.3,738.8z
	 M1249.7,823.6l-39.4-10.6l22.8-6.1L1249.7,823.6z M1234.3,806.6l32-8.6l-14.9,25.8L1234.3,806.6z M1251.8,825.6l30.8,30.8
	l-72.9,42.1L1251.8,825.6z M1282.6,943.6l-30.8,30.8l-42.1-72.9L1282.6,943.6z M1266.4,1002l-32-8.6l17.2-17.2L1266.4,1002z
	 M1233.1,993.1l-22.8-6.1l39.4-10.6L1233.1,993.1z M1233.4,994.4l33.4,9l-15.5,57.9l-42.4-42.4L1233.4,994.4z M1239.6,1105
	l-30.4-17.5l41.5-23.9L1239.6,1105z M1240.3,1106.7l25.8,14.9l-32,8.6L1240.3,1106.7z M1266.4,1122.7l-15,26l-20.8-5.6l3.1-11.7
	L1266.4,1122.7z M1229.5,1142.8l-19.2-5.1l22.1-5.9L1229.5,1142.8z M1230.3,1144.2l20.5,5.5l-17.9,30.9h-12.4L1230.3,1144.2z
	 M1251.9,1150l23.7,6.4l-24.3,24.3h-17.2L1251.9,1150z M1276.9,1156.7l32.7,8.8l-26.3,15.2H1253L1276.9,1156.7z M1311.1,1165.9
	l55,14.7h-80.6L1311.1,1165.9z M1311,1164.6l-33.1-8.9l17.4-17.4l30.6,17.7L1311,1164.6z M1296.1,1137.6l15-15l26.7,26.7l-10.7,6.2
	L1296.1,1137.6z M1311.9,1121.8l15-15l21.1,36.5l-9.2,5.3L1311.9,1121.8z M1327.8,1106.2l20.5-5.5l9.8,36.7l-9.2,5.3L1327.8,1106.2z
	 M1328.9,1104.7l16.2-16.2l3,11.1L1328.9,1104.7z M1339.4,1062.9h29.7l-23.5,23.5L1339.4,1062.9z M1344.7,1087.3l-17.6,17.6
	l-24.3-42h35.4L1344.7,1087.3z M1302.8,1061.8l23.9-41.5l11.1,41.5H1302.8z M1312,960.6l36,20.8l-20.8,36L1312,960.6z M1348.9,981.9
	l20.4,11.8l-40.8,23.6L1348.9,981.9z M1348.5,980.4l-36-20.8l56.8-15.2L1348.5,980.4z M1311.5,958.7l-9-33.4l24.5-24.5l42.4,42.4
	L1311.5,958.7z M1302.5,874.7l9-33.4l57.9,15.5l-42.4,42.4L1302.5,874.7z M1312.5,840.4l36-20.8l20.8,36L1312.5,840.4z
	 M1328.5,782.7l40.8,23.6l-20.4,11.8L1328.5,782.7z M1348,818.6l-36,20.8l15.2-56.8L1348,818.6z M1326.8,779.7l-23.9-41.5h35.1
	L1326.8,779.7z M1302.8,737.1l24.3-42l17.6,17.6l-6.5,24.4H1302.8z M1345.7,713.6l23.5,23.5h-29.7L1345.7,713.6z M1345.1,711.5
	l-16.2-16.2l19.2,5.1L1345.1,711.5z M1327.8,693.8l21.1-36.5l9.2,5.3l-9.8,36.7L1327.8,693.8z M1349.5,656.3l19.3-33.5l-10.4,38.6
	L1349.5,656.3z M1348.5,655.7l-9-5.2l28.3-28.3L1348.5,655.7z M1338.5,650l-10.4-6l38.9-22.5L1338.5,650z M1327,643.3l-14.5-8.3
	l53.9-14.5L1327,643.3z M1366.2,618.3h-82.5l-71.5-41.3L1366.2,618.3z M1281.4,618.3h-29.5l-40.3-40.3L1281.4,618.3z M1250.3,618.3
	h-16.7l-22.8-39.5L1250.3,618.3z M1232.3,618.3h-12l-10.4-38.9L1232.3,618.3z M1208.7,579.6l10.4,38.6h-10.4V579.6z M1208.7,619.4
	h10.7l9.8,36.7l-20.5,5.5V619.4z M1208.7,663.1l24.1,6.5l6.5,24.4l-30.6,17.7V663.1z M1208.7,713.5l40.8,23.6h-40.8V713.5z
	 M1208.7,738.2h41.6l-41.6,41.6V738.2z M1208.7,782.5l23.5,23.5l-23.5,6.3V782.5z M1208.7,813.7l42.1,11.3l-42.1,72.9V813.7z
	 M1208.7,902.1l42.1,72.9l-42.1,11.3V902.1z M1208.7,987.7l23.5,6.3l-23.5,23.5V987.7z M1208.7,1020.2l41.6,41.6h-41.6V1020.2z
	 M1208.7,1062.9h40.8l-40.8,23.6V1062.9z M1208.7,1088.4l30.6,17.7l-6.5,24.4l-24.1,6.5V1088.4z M1208.7,1138.4l20.5,5.5l-9.8,36.7
	h-10.7V1138.4z M1208.7,1181.7h10.4l-10.4,38.6V1181.7z M1220.2,1181.7h12l-22.5,38.9L1220.2,1181.7z M1233.6,1181.7h16.7
	l-39.5,39.5L1233.6,1181.7z M1251.9,1181.7h29.5l-69.8,40.3L1251.9,1181.7z M1212.1,1223l71.5-41.3h82.5L1212.1,1223z
	 M1312.5,1165.1l14.5-8.3l39.5,22.8L1312.5,1165.1z M1328.1,1156.1l10.4-6l28.5,28.5L1328.1,1156.1z M1339.6,1149.5l9-5.2l19.3,33.5
	L1339.6,1149.5z M1349.5,1143.7l9-5.2l10.4,38.6L1349.5,1143.7z M1369.9,1176.9l-10.4-38.9l10.4-6V1176.9z M1369.9,1130.6l-10.7,6.2
	l-9.8-36.4l20.5-5.5V1130.6z M1369.9,1093.7l-20.8,5.6l-3.1-11.7l23.9-23.9V1093.7z M1369.9,1061.8h-30.8l-11.3-42.1l42.1,11.3
	V1061.8z M1369.9,1029.8l-41.5-11.1l41.5-23.9V1029.8z M1369.9,992.7l-20.4-11.8l20.4-35.3V992.7z M1369.9,942.1l-41.6-41.6h41.6
	V942.1z M1369.9,899.4h-41.6l41.6-41.6V899.4z M1369.9,854.4l-20.4-35.4l20.4-11.8V854.4z M1369.9,805.3l-41.5-23.9l41.5-11.1V805.3
	z M1369.9,769.1l-42.1,11.3l11.3-42.1h30.8V769.1z M1369.9,736.3l-23.9-23.9l3.1-11.7l20.8,5.6V736.3z M1369.9,705.1l-20.5-5.5
	l9.8-36.4l10.7,6.2V705.1z M1369.9,668.1l-10.4-6l10.4-38.9V668.1z M1421,994.8l8.1,8.1l-14,14L1421,994.8z M1420.4,992.6
	l-17.2-17.2l25.8-14.9L1420.4,992.6z M1421.3,993.6l8.8-32.7l15,26l-15.2,15.2L1421.3,993.6z M1429.7,958l-14.9-25.8l23.5-6.3
	L1429.7,958z M1414.2,931.2l-17.7-30.6h48.5l-6.5,24.1L1414.2,931.2z M1396.6,899.4l17.7-30.6l24.4,6.5l6.5,24.1H1396.6z
	 M1414.8,867.8l14.9-25.8l8.6,32L1414.8,867.8z M1421.3,806.4l8.6-8.6l15.2,15.2l-15,26L1421.3,806.4z M1445,749l-36.4,9.8
	l-5.5-20.5h35.7L1445,749z M1431.1,722.6l53.9,14.5h-45.6L1431.1,722.6z M1440.1,738.2h44.9l-38.9,10.4L1440.1,738.2z M1485.3,739.3
	l-33.5,19.3l-5.2-9L1485.3,739.3z M1456.8,769.4l-26.9,26.9l-15-15l36.5-21.1L1456.8,769.4z M1429.1,797.1l-8.1,8.1l-5.9-22.1
	L1429.1,797.1z M1429,839.4l-25.8-14.9l17.2-17.2L1429,839.4z M1430.7,797.1l26.7-26.7l6.2,10.7l-17.9,30.9L1430.7,797.1z
	 M1452.4,759.6l33.5-19.3l-28.3,28.3L1452.4,759.6z M1430.3,721.3l-14.7-25.5l69.8,40.3L1430.3,721.3z M1428.7,720.8l-32.7-8.8
	l-8.8-32.7l26.3,15.2L1428.7,720.8z M1429.5,722.2l8.6,14.9h-35.4l-6.4-23.7L1429.5,722.2z M1407.5,759l-11.7,3.1l-23.9-23.9h30
	L1407.5,759z M1407.7,760.1l5.1,19.2l-16.2-16.2L1407.7,760.1z M1408.8,759.8l36.7-9.8l5.3,9.2l-36.5,21.1L1408.8,759.8z
	 M1420.1,806.1l-17.8,17.8l-30.6-17.7l42-24.3L1420.1,806.1z M1402.4,825.4l26.7,15.4l-15.4,26.7l-42.1-11.3L1402.4,825.4z
	 M1413.1,868.5l-17.5,30.4l-23.9-41.5L1413.1,868.5z M1413.1,931.5l-41.5,11.1l23.9-41.5L1413.1,931.5z M1413.7,932.5l15.4,26.7
	l-26.7,15.4l-30.8-30.8L1413.7,932.5z M1420.1,993.9l-6.5,24.1l-42-24.3l30.6-17.7L1420.1,993.9z M1414.3,1019.7l36.5,21.1l-5.3,9.2
	l-36.7-9.8L1414.3,1019.7z M1439.4,1062.9h45.6l-53.9,14.5L1439.4,1062.9z M1438.8,1061.8h-35.7l5.5-20.5l36.4,9.8L1438.8,1061.8z
	 M1440.1,1061.8l6-10.4l38.9,10.4H1440.1z M1407.7,1039.9l-11.1-3l16.2-16.2L1407.7,1039.9z M1407.5,1041l-5.6,20.8h-30l23.9-23.9
	L1407.5,1041z M1402.8,1062.9h35.4l-8.6,14.9l-33.1,8.9L1402.8,1062.9z M1428.7,1079.2l-15.2,26.3l-26.3,15.2l8.8-32.7
	L1428.7,1079.2z M1430.3,1078.7l55-14.7l-69.8,40.3L1430.3,1078.7z M1446.7,1050.3l5.2-9l33.5,19.3L1446.7,1050.3z M1451.4,1039.8
	l-36.5-21.1l15-15l26.9,26.9L1451.4,1039.8z M1430.7,1002.9l15-15l17.9,30.9l-6.2,10.7L1430.7,1002.9z M1446.5,987.1l17.4-17.4
	l8.9,33.1l-8.6,14.9L1446.5,987.1z M1445.9,986.1l-15.3-26.4l26.4-15.3l6.5,24.1L1445.9,986.1z M1430.8,958.2l8.8-32.7l11.7-3.1
	l5.6,20.8L1430.8,958.2z M1439.9,924.3l5.9-22.1l5.1,19.2L1439.9,924.3z M1439.9,875.7l11.1,3l-5.1,19.2L1439.9,875.7z
	 M1439.6,874.4l-8.8-32.7l26,15l-5.6,20.8L1439.6,874.4z M1430.7,840.4l15.3-26.4l17.6,17.6l-6.5,24.1L1430.7,840.4z M1446.5,812.9
	l17.7-30.6l8.6,14.9l-8.9,33.1L1446.5,812.9z M1464.9,781.2l22.8-39.5l-14.5,53.9L1464.9,781.2z M1464.2,780l-6-10.4l28.5-28.5
	L1464.2,780z M1485.9,735l-71.5-41.3l-41.3-71.5L1485.9,735z M1412.4,692.6l-25.5-14.7l-14.7-55L1412.4,692.6z M1371,623.1
	l14.5,53.9l-14.5-8.3V623.1z M1371,670l14.9,8.6l8.9,33.1l-23.7-6.4V670z M1371,706.6l24.1,6.5l6.5,24.1H1371V706.6z M1371,739
	l23.5,23.5l-23.5,6.3V739z M1371,769.9l24.4-6.5l17.6,17.6l-42,24.3V769.9z M1371,807.3l30.4,17.5l-30.4,30.4V807.3z M1371,858.6
	l23.6,40.8H1371V858.6z M1371,900.6h23.6l-23.6,40.8V900.6z M1371,944.9l30.4,30.4l-30.4,17.5V944.9z M1371,994.7l42,24.3
	l-17.6,17.6l-24.4-6.5V994.7z M1371,1031.2l23.5,6.3L1371,1061V1031.2z M1371,1062.9h30.5l-6.5,24.1l-24.1,6.5V1062.9z M1371,1094.6
	l23.7-6.4l-8.9,33.1l-14.9,8.6V1094.6z M1371,1131.3l14.5-8.3l-14.5,53.9V1131.3z M1386.9,1122.1l25.5-14.7l-40.3,69.8
	L1386.9,1122.1z M1373.1,1177.7l41.3-71.5l71.5-41.3L1373.1,1177.7z M1452.4,1040.4l5.2-9l28.3,28.3L1452.4,1040.4z M1458.2,1030.4
	l6-10.4l22.5,38.9L1458.2,1030.4z M1464.9,1018.8l8.3-14.5l14.5,53.9L1464.9,1018.8z M1488.8,1058l-14.7-55l14.7-25.5V1058z
	 M1488.8,975.2l-15.2,26.3l-8.8-32.7l23.9-23.9V975.2z M1488.8,943.3l-24.3,24.3l-6.4-23.7l30.6-17.7V943.3z M1488.8,924.8
	l-30.9,17.9l-5.5-20.5l36.4-9.8V924.8z M1488.8,911.2l-36.7,9.8l-5.5-20.5h42.2V911.2z M1488.8,899.4h-42.2l5.5-20.5l36.7,9.8V899.4
	z M1488.8,887.6l-36.4-9.8l5.5-20.5l30.9,17.9V887.6z M1488.8,873.9l-30.6-17.7l6.4-23.7l24.3,24.3V873.9z M1488.8,855.1l-23.9-23.9
	l8.8-32.7l15.2,26.3V855.1z M1488.8,822.5L1474,797l14.7-55V822.5z M1489.9,826.8l40.3,69.8l-40.3-40.3V826.8z M1489.9,857.9
	l39.5,39.5l-39.5-22.8V857.9z M1489.9,875.9l38.9,22.5l-38.9-10.4V875.9z M1489.9,889.1l38.6,10.4h-38.6V889.1z M1489.9,900.6h38.6
	l-38.6,10.4V900.6z M1489.9,912.1l38.9-10.4l-38.9,22.5V912.1z M1489.9,925.4l39.5-22.8l-39.5,39.5V925.4z M1489.9,943.7l40.3-40.3
	l-40.3,69.8V943.7z M1489.9,1058v-82.5l41.3-71.5L1489.9,1058z M1489.9,824.5V742l41.3,154L1489.9,824.5z"/>
<path class="st2" d="M2283.6,1062.9l-51.1-29.5l-23.1,40l-51.9,13.9V943.7l59.8-103.5l-35.5-132.4l-191.1-51.2l-62.4,16.7
	l-16.5,28.7l-44.7,77.5l17.6,65.6l65-17.4l47.6-47.6l-76.1-76.1l13.2-22.9l56.4-15.1l56.7,15.2l57.4,99.4l-15,56l-100.2,57.9h-119.5
	l-96.9,96.9l26.5,98.8l128.7,34.5l1.3,2.3l106.8-61.7l2.3-1.3v0l31.5-18.2l37.1,64.3l46.9-12.6l59.4-15.9v0L2283.6,1062.9z
	 M1932.9,1114.6l-56.2-97.4l14.9-55.8l100.2-57.9h0l94.5-54.6l-56.1,209.4L1932.9,1114.6z"/>
<path class="st3" d="M1598.7,922.5l-3.6-3.9l16.9-15.8h-36.9v-5.7h36.9l-16.9-15.8l3.6-3.9l22.9,22.3v0.3L1598.7,922.5z"/>
<path class="st3" d="M818.3,922.5l-3.6-3.9l16.9-15.8h-36.9v-5.7h36.9l-16.9-15.8l3.6-3.9l22.9,22.3v0.3L818.3,922.5z"/>
<path class="st1" d="M740.4,890.2c-0.9,0-1.7,0.1-2.5,0.3l-38.5-143.8c4.2-1.2,7.2-5,7.2-9.5c0-5.4-4.4-9.9-9.9-9.9
	c-2.7,0-5.2,1.1-7,2.9L584.6,625.1c1.8-1.8,2.8-4.2,2.8-6.9c0-5.4-4.4-9.9-9.9-9.9c-4.6,0-8.4,3.1-9.5,7.3l-143.7-38.5
	c0.2-0.8,0.3-1.6,0.3-2.5c0-5.4-4.4-9.9-9.9-9.9s-9.9,4.4-9.9,9.9c0,0.9,0.1,1.7,0.3,2.5l-143.5,38.4c-1.1-4.2-5-7.3-9.5-7.3
	c-5.4,0-9.9,4.4-9.9,9.9c0,2.7,1.1,5.1,2.8,6.9L139.8,730.5c-1.8-1.8-4.2-2.8-6.9-2.8c-5.4,0-9.9,4.4-9.9,9.9c0,4.6,3.1,8.4,7.3,9.5
	L91.9,890.5c-0.8-0.2-1.7-0.3-2.5-0.3c-5.4,0-9.9,4.4-9.9,9.9c0,5.4,4.4,9.9,9.9,9.9c0.9,0,1.7-0.1,2.5-0.3l38.5,143.7
	c-4.2,1.1-7.3,5-7.3,9.5c0,5.4,4.4,9.9,9.9,9.9c2.7,0,5.1-1.1,6.9-2.8l105.4,105.4c-1.8,1.8-2.8,4.2-2.8,6.9c0,5.4,4.4,9.9,9.9,9.9
	c4.6,0,8.4-3.1,9.5-7.3l143.7,38.5c-0.2,0.8-0.3,1.6-0.3,2.5c0,5.4,4.4,9.9,9.9,9.9c5.4,0,9.9-4.4,9.9-9.9c0-0.9-0.1-1.7-0.3-2.5
	l143.5-38.5c1.1,4.2,5,7.3,9.5,7.3c5.4,0,9.9-4.4,9.9-9.9c0-2.7-1.1-5.1-2.8-6.9L689.8,1070c1.8,1.8,4.2,2.9,7,2.9
	c5.4,0,9.9-4.4,9.9-9.9c0-4.5-3.1-8.3-7.2-9.5l38.6-144c0.8,0.2,1.6,0.3,2.5,0.3c5.4,0,9.9-4.4,9.9-9.9
	C750.3,894.6,745.9,890.2,740.4,890.2z M492.4,1181.1l25.6-14.8l50.1,13.4c-0.1,0.4-0.2,0.9-0.3,1.4H492.4z M262,1181.1
	c-0.1-0.5-0.1-0.9-0.3-1.4l50-13.4l25.6,14.8H262z M98.7,903.1l34.2,9.2v12.1l-34.7-20C98.4,903.9,98.6,903.5,98.7,903.1z M99,902
	c0.1-0.4,0.1-0.8,0.2-1.3h33.7v10.4L99,902z M99.2,899.6c0-0.4-0.1-0.9-0.1-1.3l33.8-9.1v10.4H99.2z M98.8,897.2
	c-0.1-0.4-0.3-0.8-0.5-1.2l34.5-19.9v12.1L98.8,897.2z M97.8,895c-0.2-0.4-0.5-0.8-0.8-1.1l35.8-35.8v16.7L97.8,895z M96.3,893
	c-0.3-0.3-0.7-0.6-1.1-0.9l37.7-65.2v29.5L96.3,893z M97.7,905.3l35.2,20.3v16.7l-36-36C97.2,906,97.4,905.7,97.7,905.3z
	 M337.4,619.3L311.8,634l-50-13.4c0.1-0.4,0.2-0.9,0.3-1.4H337.4z M567.8,619.3c0.1,0.5,0.1,0.9,0.3,1.4L518,634l-25.6-14.8H567.8z
	 M695.8,747.1v75.6L681,797.1l13.5-50.2C694.9,746.9,695.3,747,695.8,747.1z M602.1,713l6.5,24.1H578v-30.6L602.1,713z M578,705.4
	V670l14.9,8.6l8.9,33.2L578,705.4z M689.4,743.8l-24.8,24.8l-5.2-9l29.2-16.8C688.8,743.2,689.1,743.5,689.4,743.8z M614.7,1040.2
	l-11.1-3l16.2-16.2L614.7,1040.2z M615.5,1041.6l36.4,9.8l-6.2,10.7H610L615.5,1041.6z M614.4,1041.3l-5.6,20.8l-30.1,0l23.9-23.9
	L614.4,1041.3z M609.7,1063.2h35.4l-8.6,14.9l-33.2,8.9L609.7,1063.2z M646.4,1063.2h40.5c0,0.5,0.1,0.9,0.1,1.3l-49,13.1
	L646.4,1063.2z M686.9,1062.1h-39.9l6-10.4l34.1,9.1C687.1,1061.2,687,1061.7,686.9,1062.1z M652.5,1050.3l-36.7-9.8l5.5-20.5
	l36.6,21.1L652.5,1050.3z M620.6,1018.3L578.5,994l30.6-17.7l17.9,17.9L620.6,1018.3z M686.9,738.2c0,0.4,0.1,0.9,0.2,1.3l-34.1,9.1
	l-6-10.4H686.9z M621.2,931.4l-17.7-30.6h48.6l-6.5,24.1L621.2,931.4z M645.3,926.1l-8.6,32.1l-14.9-25.8L645.3,926.1z M603.5,899.6
	l17.7-30.6l24.4,6.5l6.5,24.1H603.5z M621.8,867.9l14.9-25.8l8.6,32.1L621.8,867.9z M628.3,806.5l8.6-8.6l15.2,15.2l-15,26
	L628.3,806.5z M636,839.5l-25.8-14.9l17.2-17.2L636,839.5z M622,783.1l14,14l-8.1,8.1L622,783.1z M621.9,781.3l36.6-21.1l5.3,9.2
	l-26.9,26.9L621.9,781.3z M653.7,749.7l33.8-9.1c0.2,0.4,0.3,0.8,0.5,1.2l-29.2,16.8L653.7,749.7z M651.9,749l-36.4,9.8l-5.5-20.5
	h35.7L651.9,749z M614.4,759l-11.7,3.1l-23.9-23.9h30.1L614.4,759z M614.7,760.1l5.1,19.2l-16.2-16.2L614.7,760.1z M615.8,759.8
	l36.7-9.8l5.3,9.2l-36.6,21.1L615.8,759.8z M627,806.2L609.2,824l-30.6-17.7l42.1-24.3L627,806.2z M609.4,825.5l26.7,15.4
	l-15.4,26.7l-42.2-11.3L609.4,825.5z M620.1,868.7L602.5,899l-24-41.5L620.1,868.7z M620.1,931.7l-41.5,11.1l24-41.5L620.1,931.7z
	 M620.7,932.7l15.4,26.7l-26.7,15.4L578.5,944L620.7,932.7z M636,960.8l-8.6,32.1l-17.2-17.2L636,960.8z M628,995.1l8.1,8.1l-14,14
	L628,995.1z M628.3,993.8l8.8-32.7l15,26l-15.2,15.2L628.3,993.8z M637.6,959.9l26.5-15.3l6.5,24.1l-17.6,17.6L637.6,959.9z
	 M637.8,958.5l8.8-32.7l11.7-3.1l5.6,20.8L637.8,958.5z M646.9,924.5l5.9-22.1l5.1,19.2L646.9,924.5z M646.9,875.8l11.1,3l-5.1,19.2
	L646.9,875.8z M646.5,874.6l-8.8-32.7l26,15l-5.6,20.8L646.5,874.6z M637.6,840.5l15.3-26.5l17.6,17.6l-6.5,24.1L637.6,840.5z
	 M653.5,813l17.7-30.6l8.6,14.9l-8.9,33.2L653.5,813z M652.7,812.2l-15-15l26.7-26.7l6.2,10.7L652.7,812.2z M686.9,737.1h-40.5
	l-8.4-14.5l49,13.1C686.9,736.2,686.9,736.6,686.9,737.1z M645.1,737.1h-35.4l-6.4-23.8l33.2,8.9L645.1,737.1z M601.4,762.5
	l-23.5,6.3V739L601.4,762.5z M602.4,763.4l17.6,17.6L578,805.4V770L602.4,763.4z M608.3,824.9L578,855.3v-47.9L608.3,824.9z
	 M601.6,899.6H578v-40.9L601.6,899.6z M601.6,900.7L578,941.6l0-40.9H601.6z M608.3,975.5L578,993v-47.9L608.3,975.5z M620,1019.2
	l-17.6,17.6l-24.4-6.5V995L620,1019.2z M601.4,1037.8l-23.5,23.5v-29.8L601.4,1037.8z M608.5,1063.2l-6.5,24.1l-24.1,6.5v-30.6
	L608.5,1063.2z M601.7,1088.6l-8.9,33.2l-14.9,8.6V1095L601.7,1088.6z M603,1088.3l32.7-8.8l-15.2,26.3l-26.3,15.2L603,1088.3z
	 M637.2,1079.1l50-13.4c0.1,0.4,0.3,0.9,0.5,1.3l-65.2,37.7L637.2,1079.1z M687.5,1059.7l-33.8-9.1l5.2-9l29.2,16.8
	C687.8,1058.9,687.6,1059.3,687.5,1059.7z M658.4,1040.1l-36.6-21.1l15-15l26.9,26.9L658.4,1040.1z M637.7,1003.2l15-15l17.9,31
	l-6.2,10.7L637.7,1003.2z M653.5,987.3l17.4-17.4l8.9,33.2l-8.6,14.9L653.5,987.3z M671.8,969l23.9-23.9v30.4l-15.2,26.3L671.8,969z
	 M671.5,967.8l-6.4-23.8l30.6-17.7v17.2L671.5,967.8z M664.8,942.9l-5.5-20.5l36.4-9.8V925L664.8,942.9z M659,921.2l-5.5-20.5h42.2
	v10.7L659,921.2z M653.5,899.6l5.5-20.5l36.7,9.8v10.7H653.5z M659.3,878l5.5-20.5l31,17.9v12.4L659.3,878z M665.1,856.4l6.4-23.8
	l24.3,24.3v17.2L665.1,856.4z M671.8,831.3l8.8-32.7l15.2,26.3v30.4L671.8,831.3z M693.4,746.5l-13.2,49.2l-8.4-14.5l20.3-35.2
	C692.6,746.2,693,746.4,693.4,746.5z M691.2,745.4l-20,34.7l-6-10.4l25-25C690.5,744.9,690.9,745.2,691.2,745.4z M687.2,734.6
	l-50-13.4l-14.8-25.6l65.2,37.7C687.5,733.8,687.4,734.2,687.2,734.6z M635.7,720.8l-32.7-8.8l-8.8-32.7l26.3,15.2L635.7,720.8z
	 M593.8,677.8l-13.5-50.2c0.4-0.1,0.8-0.3,1.2-0.5l37.8,65.4L593.8,677.8z M579.3,627.9l13.2,49.2l-14.5-8.4V628
	C578.4,628,578.8,627.9,579.3,627.9z M576.8,628v40l-10.4-6l9.2-34.2C576,627.9,576.4,628,576.8,628z M546.3,1063.2H576l-23.5,23.5
	L546.3,1063.2z M554.9,1100l-19.2,5.1l16.2-16.2L554.9,1100z M551.6,1087.6l-17.6,17.6l-24.3-42.1h35.4L551.6,1087.6z M440.5,1131.8
	l32.7-8.8l-15,26l-20.8-5.6L440.5,1131.8z M436.3,1143.2l-19.2-5.1l22.1-5.9L436.3,1143.2z M437.4,656.8l20.8-5.6l15,26l-32.7-8.8
	L437.4,656.8z M439.2,668.2l-22.1-5.9l19.2-5.1L439.2,668.2z M459.8,737.1l30.4-30.4l17.5,30.4H459.8z M507.7,738.2l-11.8,20.4
	l-35.4-20.4H507.7z M495.4,759.7l-20.8,36l-15.2-56.8L495.4,759.7z M482.8,830.7l-23.5-6.3l14.9-25.8L482.8,830.7z M483.1,832
	l6.1,22.8l-28.9-28.9L483.1,832z M484.4,832.3l32.1,8.6l-25.8,14.9L484.4,832.3z M501.2,899.6H417l72.9-42.1L501.2,899.6z
	 M491.4,858.5l16.7,16.7L502,898L491.4,858.5z M508.1,925.1l-16.7,16.7l10.6-39.5L508.1,925.1z M501.2,900.7L490,942.9L417,900.7
	H501.2z M490.7,944.6l25.8,14.9l-32.1,8.6L490.7,944.6z M483.1,968.4l-22.8,6.1l28.9-28.9L483.1,968.4z M482.8,969.7l-8.6,32.1
	l-14.9-25.8L482.8,969.7z M474.6,1004.7l20.8,36l-36,20.8L474.6,1004.7z M460.6,1062.1l35.4-20.4l11.8,20.4H460.6z M507.7,1063.2
	l-17.5,30.4l-30.4-30.4H507.7z M496.9,1041.1l35.4-20.4l-23.6,40.9L496.9,1041.1z M496.4,1040.1l-20.8-36l56.8,15.2L496.4,1040.1z
	 M475.1,1002.8l9-33.5l33.5-9l15.5,58L475.1,1002.8z M491.2,943.6l17.2-17.2l8.6,32.1L491.2,943.6z M502.7,900.7h29.8L509,924.2
	L502.7,900.7z M502.7,899.6l6.3-23.5l23.5,23.5H502.7z M508.4,873.9l-17.2-17.2l25.8-14.9L508.4,873.9z M484,831l-9-33.5l58-15.5
	l-15.5,58L484,831z M475.6,796.2l20.8-36l36,20.8L475.6,796.2z M496.9,759.2l11.8-20.4l23.6,40.9L496.9,759.2z M491,705.9l17.9-17.9
	l24.1,6.5l-24.3,42.1L491,705.9z M509.8,687.1l8.1-8.1l14,14L509.8,687.1z M508.5,686.8l-32.7-8.8l26-15l15.2,15.2L508.5,686.8z
	 M507.6,687.7l-17.2,17.2l-14.9-25.8L507.6,687.7z M489.6,705.7l-30.9,30.9l-11.3-42.2l26.7-15.4L489.6,705.7z M472.9,678.4
	l-25.8,14.9l-6.3-23.5L472.9,678.4z M457.5,736.5l-41.5-24l30.4-17.5L457.5,736.5z M458.1,738.8l15.5,58l-33.5,9l-24.5-24.5
	L458.1,738.8z M456.5,823.7l-39.5-10.6l22.8-6.1L456.5,823.7z M441.1,806.6l32.1-8.6l-14.9,25.8L441.1,806.6z M458.6,825.7
	l30.8,30.8l-72.9,42.1L458.6,825.7z M489.4,943.8l-30.8,30.8l-42.1-72.9L489.4,943.8z M473.2,1002.3l-32.1-8.6l17.2-17.2
	L473.2,1002.3z M439.9,993.4l-22.8-6.1l39.5-10.6L439.9,993.4z M440.2,994.6l33.5,9l-15.5,58l-42.4-42.4L440.2,994.6z M447.1,1107.1
	l25.8,14.9l-32.1,8.6L447.1,1107.1z M446.4,1105.3l-30.4-17.5l41.5-24L446.4,1105.3z M447.4,1105.9l11.3-42.2l30.9,30.9l-15.4,26.7
	L447.4,1105.9z M490.4,1095.5l17.2,17.2l-32.1,8.6L490.4,1095.5z M508.5,1113.6l8.6,8.6l-15.2,15.2l-26-15L508.5,1113.6z
	 M509.8,1113.2l22.1-5.9l-14,14L509.8,1113.2z M508.9,1112.3l-17.9-17.9l17.7-30.6l24.3,42.1L508.9,1112.3z M509.7,1062.1l24-41.5
	l11.1,41.5H509.7z M518.8,960.8l36,20.8l-20.8,36L518.8,960.8z M555.8,982.2l20.4,11.8l-40.9,23.6L555.8,982.2z M555.4,980.6
	l-36-20.8l56.8-15.2L555.4,980.6z M518.3,959l-9-33.5l24.5-24.5l42.4,42.4L518.3,959z M509.3,874.9l9-33.5l58,15.5l-42.4,42.4
	L509.3,874.9z M519.4,840.5l36-20.8l20.8,36L519.4,840.5z M535.4,782.8l40.9,23.6l-20.4,11.8L535.4,782.8z M554.8,818.7l-36,20.8
	l15.2-56.8L554.8,818.7z M533.7,779.7l-24-41.5h35.1L533.7,779.7z M509.7,737.1l24.3-42.1l17.6,17.6l-6.5,24.4H509.7z M552.5,713.6
	l23.5,23.5h-29.8L552.5,713.6z M552,711.4l-16.2-16.2l19.2,5.1L552,711.4z M534.7,693.8l21.1-36.6l9.2,5.3l-9.8,36.7L534.7,693.8z
	 M533.7,693.2l-15-15l26.9-26.9l9.2,5.3L533.7,693.2z M517.9,677.4l-15-15l30.9-17.9l10.7,6.2L517.9,677.4z M502.1,661.5l-17.4-17.4
	l33.2-8.9l14.9,8.6L502.1,661.5z M501.1,662.1l-26.5,15.3l-15.3-26.5l24.1-6.5L501.1,662.1z M458.7,649.9L441,619.3l17.2,0
	l24.3,24.3L458.7,649.9z M457.6,650.2l-20.5,5.5l-9.8-36.4h12.4L457.6,650.2z M436,656l-20.5,5.5v-42.2h10.7L436,656z M439.6,669.5
	l6.5,24.4l-30.6,17.7V663L439.6,669.5z M456.3,737.1h-40.9v-23.6L456.3,737.1z M457.1,738.2l-41.6,41.6v-41.6H457.1z M438.9,806.1
	l-23.5,6.3v-29.8L438.9,806.1z M457.6,825.1l-42.1,72.9l0-84.2L457.6,825.1z M457.6,975.2l-42.1,11.3v-84.2L457.6,975.2z
	 M438.9,994.3l-23.5,23.5V988L438.9,994.3z M457.1,1062.1h-41.6v-41.6L457.1,1062.1z M456.3,1063.2l-40.9,23.6v-23.6H456.3z
	 M446.1,1106.5l-6.5,24.4l-24.1,6.5v-48.6L446.1,1106.5z M436,1144.3l-9.8,36.7h-10.7v-42.2L436,1144.3z M437.1,1144.6l20.5,5.5
	l-17.9,31h-12.4L437.1,1144.6z M458.7,1150.4l23.8,6.4l-24.3,24.3H441L458.7,1150.4z M459.3,1149.4l15.3-26.5l26.5,15.3l-17.6,17.6
	L459.3,1149.4z M502.1,1138.8l30.6,17.7l-14.9,8.6l-33.2-8.9L502.1,1138.8z M502.9,1138l15-15l26.7,26.7l-10.7,6.2L502.9,1138z
	 M518.7,1122.1l15-15l21.1,36.6l-9.2,5.3L518.7,1122.1z M534.7,1106.6l20.5-5.5l9.8,36.7l-9.2,5.3L534.7,1106.6z M556.3,1100.8
	l20.5-5.5v35.7l-10.7,6.2L556.3,1100.8z M556,1099.7l-3.1-11.7l23.9-23.9v30.1L556,1099.7z M546,1062.1l-11.3-42.2l42.2,11.3v30.9
	H546z M535.3,1018.9l41.5-24v35.1L535.3,1018.9z M556.4,981.2l20.4-35.4V993L556.4,981.2z M535.2,900.7h41.6l0,41.6L535.2,900.7z
	 M535.2,899.6l41.6-41.6v41.6H535.2z M556.4,819.1l20.4-11.8v47.2L556.4,819.1z M535.3,781.4l41.5-11.1v35.1L535.3,781.4z
	 M534.7,780.4l11.3-42.2h30.9v30.9L534.7,780.4z M552.9,712.4l3.1-11.7l20.8,5.6v30.1L552.9,712.4z M556.3,699.6l9.8-36.4l10.7,6.2
	v35.7L556.3,699.6z M574.4,627.5l-9.1,33.9l-9-5.2l16.8-29.2C573.6,627.2,574,627.4,574.4,627.5z M572.3,626.5l-16.8,29.2l-9-5.2
	l24.8-24.8C571.5,626,571.9,626.2,572.3,626.5z M570.4,624.9l-25,25l-10.4-6l34.6-19.9C569.8,624.3,570.1,624.6,570.4,624.9z
	 M568.9,623l-35.1,20.2l-14.5-8.4l49-13.1C568.5,622.1,568.7,622.6,568.9,623z M516.4,634.5l-32.7,8.8l-23.9-23.9h30.4L516.4,634.5z
	 M458.7,618.2l-36.8-36.8c0.3-0.3,0.6-0.7,0.8-1l65.4,37.8H458.7z M457.1,618.2l-16.7,0L420,582.9c0.4-0.2,0.7-0.5,1.1-0.8
	L457.1,618.2z M439.1,618.2H427l-9.2-34.2c0.4-0.1,0.8-0.3,1.2-0.5L439.1,618.2z M416.8,584.3l9.1,33.9h-10.4v-33.7
	C415.9,584.4,416.3,584.4,416.8,584.3z M414.3,584.5v33.7H404l9.1-33.8C413.5,584.4,413.9,584.4,414.3,584.5z M392.4,1143.5
	l-20.8,5.6l-15-26l32.7,8.8L392.4,1143.5z M390.6,1132.1l22.1,5.9l-19.2,5.1L390.6,1132.1z M277.8,1088.9l16.2,16.2l-19.2-5.1
	L277.8,1088.9z M277.2,1086.7l-23.5-23.5h29.8L277.2,1086.7z M278.2,1087.6l6.5-24.4h35.4l-24.3,42.1L278.2,1087.6z M283.5,737.1
	h-29.8l23.5-23.5L283.5,737.1z M274.9,700.4l19.2-5.1l-16.2,16.2L274.9,700.4z M278.2,712.7l17.6-17.6l24.3,42.1h-35.4L278.2,712.7z
	 M369.2,738.2l-35.4,20.4l-11.8-20.4H369.2z M322.1,737.1l17.5-30.4l30.4,30.4H322.1z M332.9,759.2l-35.4,20.4l23.6-40.9
	L332.9,759.2z M333.4,760.2l20.8,36L297.4,781L333.4,760.2z M354.7,797.6l-9,33.5l-33.5,9l-15.5-58L354.7,797.6z M321.7,875.2
	l16.7-16.7L327.8,898L321.7,875.2z M338.4,941.8l-16.7-16.7l6.1-22.8L338.4,941.8z M321.4,873.9l-8.6-32.1l25.8,14.9L321.4,873.9z
	 M327.1,899.6h-29.8l23.5-23.5L327.1,899.6z M327.1,900.7l-6.3,23.5l-23.5-23.5H327.1z M321.4,926.4l17.2,17.2l-25.8,14.9
	L321.4,926.4z M354.2,1004.1l-20.8,36l-36-20.8L354.2,1004.1z M296.7,1018.3l15.5-58l33.5,9l9,33.5L296.7,1018.3z M333.9,1041.7
	l35.4,20.4h-47.2L333.9,1041.7z M332.9,1041.1l-11.8,20.4l-23.6-40.9L332.9,1041.1z M370,1063.2l-30.4,30.4l-17.5-30.4H370z
	 M334.4,1040.7l20.8-36l15.2,56.8L334.4,1040.7z M347,969.7l23.5,6.3l-14.9,25.8L347,969.7z M346.7,968.4l-6.1-22.8l28.9,28.9
	L346.7,968.4z M345.4,968l-32.1-8.6l25.8-14.9L345.4,968z M328.6,900.7h84.2l-72.9,42.1L328.6,900.7z M328.6,899.6l11.3-42.1
	l72.9,42.1H328.6z M339.1,855.8l-25.8-14.9l32.1-8.6L339.1,855.8z M346.7,832l22.8-6.1l-28.9,28.9L346.7,832z M347,830.7l8.6-32.1
	l14.9,25.8L347,830.7z M355.2,795.7l-20.8-36l36-20.8L355.2,795.7z M340.2,705.7l15.4-26.7l26.7,15.4l-11.3,42.2L340.2,705.7z
	 M339.4,704.9l-17.2-17.2l32.1-8.6L339.4,704.9z M321.2,686.8l-8.6-8.6l15.2-15.2l26,15L321.2,686.8z M320,687.1l-22.1,5.9l14-14
	L320,687.1z M320.9,688l17.9,17.9l-17.7,30.6l-24.3-42.1L320.9,688z M320.1,738.2l-24,41.5L285,738.2H320.1z M311,839.5l-36-20.8
	l20.8-36L311,839.5z M274,818.1l-20.4-11.8l40.9-23.6L274,818.1z M274.4,819.7l36,20.8l-56.8,15.2L274.4,819.7z M311.5,841.4l9,33.5
	l-24.5,24.5l-42.4-42.4L311.5,841.4z M320.4,925.5l-9,33.5l-58-15.5l42.4-42.4L320.4,925.5z M310.4,959.8l-36,20.8l-20.8-36
	L310.4,959.8z M294.4,1017.6L253.5,994l20.4-11.8L294.4,1017.6z M274.9,981.6l36-20.8l-15.2,56.8L274.9,981.6z M296.1,1020.6
	l24,41.5H285L296.1,1020.6z M321.1,1063.8l17.7,30.6l-17.9,17.9l-24.1-6.5L321.1,1063.8z M320,1113.2l-8.1,8.1l-14-14L320,1113.2z
	 M321.2,1113.6l32.7,8.8l-26,15l-15.2-15.2L321.2,1113.6z M322.2,1112.7l17.2-17.2l14.9,25.8L322.2,1112.7z M340.2,1094.6l30.9-30.9
	l11.3,42.2l-26.7,15.4L340.2,1094.6z M356.9,1122l25.8-14.9l6.3,23.5L356.9,1122z M372.3,1063.8l41.5,24l-30.4,17.5L372.3,1063.8z
	 M371.6,1061.6l-15.5-58l33.5-9l24.5,24.5L371.6,1061.6z M373.3,976.7l39.5,10.6l-22.8,6.1L373.3,976.7z M388.7,993.7l-32.1,8.6
	l14.9-25.8L388.7,993.7z M371.2,974.7l-30.8-30.8l72.9-42.1L371.2,974.7z M340.4,856.5l30.8-30.8l42.1,72.9L340.4,856.5z
	 M356.6,798.1l32.1,8.6l-17.2,17.2L356.6,798.1z M389.9,807l22.8,6.1l-39.5,10.6L389.9,807z M389.6,805.7l-33.5-9l15.5-58l42.4,42.4
	L389.6,805.7z M383.4,695l30.4,17.5l-41.5,24L383.4,695z M382.7,693.3l-25.8-14.9l32.1-8.6L382.7,693.3z M356.6,677.3l15-26
	l20.8,5.6l-3.1,11.7L356.6,677.3z M393.5,657.1l19.2,5.1l-22.1,5.9L393.5,657.1z M392.7,655.7l-20.5-5.5l17.9-31h12.4L392.7,655.7z
	 M371.1,649.9l-23.8-6.4l24.3-24.3h17.2L371.1,649.9z M370.5,650.9l-15.3,26.5l-26.5-15.3l17.6-17.6L370.5,650.9z M327.7,661.6
	l-30.6-17.7l14.9-8.6l33.2,8.9L327.7,661.6z M326.9,662.4l-15,15l-26.7-26.7l10.7-6.2L326.9,662.4z M311.1,678.2l-15,15l-21.1-36.6
	l9.2-5.3L311.1,678.2z M295.1,693.8l-20.5,5.5l-9.8-36.7l9.2-5.3L295.1,693.8z M273.5,699.6l-20.5,5.5v-35.7l10.7-6.2L273.5,699.6z
	 M273.8,700.7l3.1,11.7L253,736.3v-30.1L273.8,700.7z M283.8,738.2l11.3,42.2L253,769.1v-30.9H283.8z M294.5,781.4l-41.5,24v-35.1
	L294.5,781.4z M273.4,819.1L253,854.5v-47.2L273.4,819.1z M294.6,899.6H253V858L294.6,899.6z M294.6,900.7L253,942.3v-41.6H294.6z
	 M273.4,981.2L253,993v-47.2L273.4,981.2z M294.5,1018.9l-41.5,11.1V995L294.5,1018.9z M295.1,1019.9l-11.3,42.2H253v-30.9
	L295.1,1019.9z M276.9,1088l-3.1,11.7l-20.8-5.6V1064L276.9,1088z M273.5,1100.8l-9.8,36.4L253,1131v-35.7L273.5,1100.8z
	 M274.6,1101.1l20.5,5.5l-21.1,36.6l-9.2-5.3L274.6,1101.1z M296.1,1107.1l15,15l-26.9,26.9l-9.2-5.3L296.1,1107.1z M311.9,1122.9
	l15,15l-31,17.9l-10.7-6.2L311.9,1122.9z M327.7,1138.8l17.4,17.4l-33.2,8.9l-14.9-8.6L327.7,1138.8z M328.7,1138.2l26.5-15.3
	l15.3,26.5l-24.1,6.5L328.7,1138.2z M371.1,1150.4l17.7,30.6h-17.2l-24.3-24.3L371.1,1150.4z M372.2,1150.1l20.5-5.5l9.8,36.4h-12.4
	L372.2,1150.1z M393.8,1144.3l20.5-5.5v42.2h-10.7L393.8,1144.3z M390.2,1130.9l-6.5-24.4l30.6-17.7v48.6L390.2,1130.9z
	 M373.5,1063.2h40.9v23.6L373.5,1063.2z M372.7,1062.1l41.6-41.6v41.6H372.7z M390.9,994.3l23.5-6.3v29.8L390.9,994.3z M372.2,975.2
	l42.1-72.9v84.2L372.2,975.2z M372.2,825.1l42.1-11.3l0,84.2L372.2,825.1z M390.9,806.1l23.5-23.5v29.8L390.9,806.1z M372.7,738.2
	h41.6v41.6L372.7,738.2z M373.5,737.1l40.9-23.6v23.6H373.5z M383.7,693.9l6.5-24.4l24.1-6.5v48.6L383.7,693.9z M393.8,656l9.8-36.7
	h10.7v42.2L393.8,656z M411.9,584.1l-9.1,34.1h-12.1l19.9-34.5C411.1,583.8,411.5,583.9,411.9,584.1z M409.7,583.1l-20.3,35.1h-16.7
	l35.8-35.8C408.9,582.6,409.3,582.8,409.7,583.1z M407.7,581.5l-36.6,36.6h-29.5l65.2-37.7C407.1,580.9,407.4,581.2,407.7,581.5z
	 M370,619.3L346,643.2l-32.7-8.8l26.3-15.2H370z M310.4,634.8l-14.5,8.4L260.9,623c0.2-0.4,0.4-0.8,0.6-1.2L310.4,634.8z
	 M294.8,643.9l-10.4,6l-25-25c0.3-0.3,0.6-0.7,0.8-1L294.8,643.9z M283.4,650.5l-9,5.2l-16.8-29.2c0.4-0.2,0.7-0.5,1.1-0.8
	L283.4,650.5z M273.4,656.2l-9,5.2l-9.1-33.9c0.4-0.1,0.8-0.3,1.2-0.5L273.4,656.2z M254.3,627.8l9.2,34.2l-10.4,6v-40
	C253.4,628,253.8,627.9,254.3,627.8z M251.8,628v40.7l-14.5,8.4l13.2-49.2C251,627.9,251.4,628,251.8,628z M142.7,1062.1
	c0-0.4-0.1-0.9-0.2-1.3l71.7-19.2l5.5,20.5H142.7z M142.7,1063.2h77.4l6.4,23.8l-83.9-22.5C142.7,1064.1,142.7,1063.7,142.7,1063.2z
	 M215.4,1041.3l11.7-3.1l23.9,23.9H221L215.4,1041.3z M215.1,1040.2L210,1021l16.2,16.2L215.1,1040.2z M214,1040.5l-71.7,19.2
	c-0.1-0.4-0.3-0.8-0.5-1.2l66.7-38.5L214,1040.5z M202.8,994.2l17.9-17.9l30.6,17.7l-42.1,24.3L202.8,994.2z M207.8,1017.2l-14-14
	l8.1-8.1L207.8,1017.2z M193.8,960.8l25.8,14.9l-17.2,17.2L193.8,960.8z M220.4,974.9l-26.7-15.4l15.4-26.7l42.2,11.3L220.4,974.9z
	 M201.8,805.3l-8.1-8.1l14-14L201.8,805.3z M202.4,807.4l17.2,17.2l-25.8,14.9L202.4,807.4z M201.5,806.5l-8.8,32.7l-15-26
	l15.2-15.2L201.5,806.5z M177.7,899.6l6.5-24.1l24.4-6.5l17.7,30.6H177.7z M226.3,900.7l-17.7,30.6l-24.4-6.5l-6.5-24.1H226.3z
	 M184.5,874.2l8.6-32.1l14.9,25.8L184.5,874.2z M192.1,840.5l-26.5,15.3l-6.5-24.1l17.6-17.6L192.1,840.5z M192,841.9l-8.8,32.7
	l-11.7,3.1l-5.6-20.8L192,841.9z M182.9,875.8L177,898l-5.1-19.2L182.9,875.8z M177,902.4l5.9,22.1l-11.1-3L177,902.4z M183.3,925.8
	l8.8,32.7l-26-15l5.6-20.8L183.3,925.8z M184.5,926.1l23.5,6.3l-14.9,25.8L184.5,926.1z M209.7,931.7l17.5-30.4l24,41.5L209.7,931.7
	z M209.7,868.7l41.5-11.1l-24,41.5L209.7,868.7z M209.1,867.6l-15.4-26.7l26.7-15.4l30.9,30.9L209.1,867.6z M202.8,806.2l6.5-24.1
	l42.1,24.3L220.6,824L202.8,806.2z M208.5,780.4L172,759.3l5.3-9.2l36.7,9.8L208.5,780.4z M183.4,737.1h-40.7c0-0.4-0.1-0.9-0.1-1.3
	l49.2-13.2L183.4,737.1z M184.1,738.2h35.7l-5.5,20.5l-36.4-9.8L184.1,738.2z M142.7,738.2h40.1l-6,10.4l-34.2-9.2
	C142.6,739.1,142.7,738.7,142.7,738.2z M215.1,760.1l11.1,3L210,779.3L215.1,760.1z M215.4,759l5.6-20.8H251l-23.9,23.9L215.4,759z
	 M220.1,737.1h-35.3l8.6-14.9l33.1-8.9L220.1,737.1z M194.1,720.8l15.2-26.3l26.2-15.1l-8.8,32.7L194.1,720.8z M192.6,721.2
	l-50.3,13.5c-0.1-0.4-0.3-0.8-0.5-1.2l65.5-37.8L192.6,721.2z M142.3,740.6l33.9,9.1l-5.2,9l-29.2-16.9
	C141.9,741.4,142.1,741,142.3,740.6z M171.4,760.2l36.6,21.1l-15,15L166,769.5L171.4,760.2z M192.1,797.2l-15,15l-17.9-30.9
	l6.2-10.7L192.1,797.2z M176.3,813l-17.4,17.4l-8.9-33.1l8.6-14.9L176.3,813z M157.9,831.3L134,855.3v-30.3l15.2-26.3L157.9,831.3z
	 M158.3,832.6l6.4,23.8L134,874.1v-17.2L158.3,832.6z M165,857.5l5.5,20.5l-36.4,9.8v-12.4L165,857.5z M170.8,879.1l5.5,20.5H134
	v-10.7L170.8,879.1z M176.2,900.7l-5.5,20.5l-36.7-9.8v-10.7H176.2z M170.5,922.3l-5.5,20.5L134,925v-12.4L170.5,922.3z M164.7,944
	l-6.4,23.8L134,943.5v-17.2L164.7,944z M165.7,944.6l26.5,15.3l-15.3,26.5l-17.6-17.6L165.7,944.6z M192.7,961.1l8.8,32.7l-8.6,8.6
	l-15.2-15.2L192.7,961.1z M207.9,1019l-66.7,38.5c-0.2-0.4-0.5-0.7-0.8-1.1l52.5-52.5L207.9,1019z M142.3,1065.6l84.5,22.6l8.8,32.7
	l-93.7-54.1C142,1066.5,142.2,1066.1,142.3,1065.6z M228.1,1088.6l23.8,6.4v35.4l-14.9-8.6L228.1,1088.6z M227.7,1087.3l-6.5-24.1
	h30.6v30.6L227.7,1087.3z M228.4,1037.8l23.5-6.3v29.8L228.4,1037.8z M227.4,1036.9l-17.6-17.6l42.1-24.3v35.4L227.4,1036.9z
	 M221.4,975.5l30.4-30.4V993L221.4,975.5z M228.2,900.7h23.6v40.9L228.2,900.7z M228.2,899.6l23.6-40.9v40.9H228.2z M221.4,824.9
	l30.4-17.5v47.9L221.4,824.9z M209.8,781.1l17.6-17.6l24.4,6.5v35.4L209.8,781.1z M228.4,762.5l23.5-23.5v29.8L228.4,762.5z
	 M221.3,737.1l6.5-24.1l24.1-6.5v30.6H221.3z M228.1,711.7l8.9-33.2l14.9-8.6v35.4L228.1,711.7z M249.4,627.6L236,677.8l-25.5,14.7
	l37.8-65.4C248.6,627.3,249,627.5,249.4,627.6z M247.2,626.6l-38.7,67l-67.2,38.8c-0.2-0.4-0.5-0.8-0.8-1.1l105.5-105.5
	C246.4,626.1,246.8,626.4,247.2,626.6z M170.4,759.7l-5.2,9l-24.8-24.8c0.3-0.3,0.5-0.7,0.8-1.1L170.4,759.7z M164.6,769.7l-6,10.4
	l-20-34.6c0.4-0.3,0.7-0.5,1-0.8L164.6,769.7z M157.9,781.2l-8.4,14.5l-13.1-49c0.4-0.2,0.8-0.4,1.2-0.6L157.9,781.2z M135.4,747.1
	l13.4,50L134,822.7v-75.4C134.5,747.3,134.9,747.2,135.4,747.1z M134,1053V945.1l23.9,23.9l-22.6,84.3
	C134.9,1053.2,134.5,1053.1,134,1053z M136.5,1053.6l22.4-83.7l17.4,17.4l-38.6,66.8C137.3,1054,136.9,1053.8,136.5,1053.6z
	 M138.6,1054.8l38.5-66.6l15,15l-52.5,52.5C139.3,1055.3,139,1055.1,138.6,1054.8z M141.3,1067.9l94.6,54.6l13.5,50.2
	c-1.2,0.4-2.4,1-3.4,1.8L140.6,1069C140.8,1068.6,141.1,1068.3,141.3,1067.9z M250.5,1172.5l-13.2-49.2l14.5,8.4v40.7
	C251.4,1172.4,251,1172.4,250.5,1172.5z M253,1172.4v-40l10.4,6l-9.2,34.2C253.8,1172.4,253.4,1172.4,253,1172.4z M255.3,1172.8
	l9.1-33.9l9,5.2l-16.8,29.2C256.2,1173.1,255.8,1173,255.3,1172.8z M257.5,1173.9l16.8-29.2l9,5.2l-24.8,24.8
	C258.3,1174.3,257.9,1174.1,257.5,1173.9z M259.4,1175.4l25-25l10.4,6l-34.6,19.9C260,1176.1,259.7,1175.7,259.4,1175.4z
	 M260.9,1177.4l35.1-20.2l14.5,8.4l-49,13.1C261.3,1178.2,261.1,1177.8,260.9,1177.4z M313.3,1165.9l32.7-8.8l23.9,23.9h-30.4
	L313.3,1165.9z M371.1,1182.2l36.8,36.8c-0.3,0.3-0.6,0.7-0.8,1l-65.4-37.8H371.1z M372.7,1182.2h16.7l20.3,35.2
	c-0.4,0.2-0.7,0.5-1.1,0.8L372.7,1182.2z M390.7,1182.2h12.1l9.2,34.2c-0.4,0.1-0.8,0.3-1.2,0.5L390.7,1182.2z M413,1216.1
	l-9.1-33.9h10.4v33.7C413.9,1215.9,413.5,1216,413,1216.1z M415.5,1215.9v-33.7h10.4l-9.1,33.8
	C416.3,1215.9,415.9,1215.9,415.5,1215.9z M417.9,1216.3l9.1-34.1h12.1l-19.9,34.5C418.7,1216.6,418.3,1216.4,417.9,1216.3z
	 M420.1,1217.3l20.3-35.1h16.7l-35.8,35.8C420.9,1217.8,420.5,1217.5,420.1,1217.3z M422.1,1218.8l36.6-36.6h29.5l-65.2,37.7
	C422.7,1219.5,422.4,1219.1,422.1,1218.8z M459.8,1181.1l23.9-23.9l32.7,8.8l-26.3,15.2H459.8z M519.4,1165.5l14.5-8.4l35.1,20.3
	c-0.2,0.4-0.4,0.8-0.6,1.2L519.4,1165.5z M535,1156.5l10.4-6l25,25c-0.3,0.3-0.6,0.7-0.8,1L535,1156.5z M546.4,1149.9l9-5.2
	l16.8,29.2c-0.4,0.2-0.7,0.5-1,0.8L546.4,1149.9z M556.4,1144.1l9-5.2l9.1,33.9c-0.4,0.1-0.8,0.3-1.2,0.5L556.4,1144.1z
	 M575.5,1172.5l-9.1-34.1l10.4-6v40C576.4,1172.4,576,1172.4,575.5,1172.5z M578,1172.3v-40.6l14.5-8.4l-13.2,49.1
	C578.8,1172.4,578.4,1172.3,578,1172.3z M580.4,1172.7l13.4-50.2l25.6-14.8l-37.8,65.4C581.2,1173,580.8,1172.8,580.4,1172.7z
	 M582.6,1173.7l38.7-67.1l66.9-38.6c0.2,0.4,0.5,0.8,0.8,1.2l-105.3,105.3C583.4,1174.2,583,1173.9,582.6,1173.7z M659.4,1040.7
	l5.2-9l24.8,24.8c-0.3,0.3-0.6,0.7-0.8,1L659.4,1040.7z M665.2,1030.7l6-10.4l20,34.7c-0.4,0.2-0.7,0.5-1,0.8L665.2,1030.7z
	 M671.9,1019.1l8.4-14.5l13.2,49.2c-0.4,0.1-0.8,0.3-1.2,0.5L671.9,1019.1z M694.5,1053.5l-13.5-50.2l14.8-25.6v75.6
	C695.3,1053.3,694.9,1053.4,694.5,1053.5z M732,895l-35.1-20.3V858l35.8,35.8C732.5,894.2,732.2,894.6,732,895z M731.5,896
	c-0.2,0.4-0.3,0.8-0.5,1.2l-34.1-9.1V876L731.5,896z M730.7,898.3c-0.1,0.4-0.1,0.9-0.1,1.3h-33.7v-10.4L730.7,898.3z M730.6,900.7
	c0,0.4,0.1,0.9,0.2,1.3l-33.9,9.1v-10.4H730.6z M731.1,903.1c0.1,0.4,0.3,0.8,0.5,1.2l-34.7,20v-12.1L731.1,903.1z M732.1,905.3
	c0.2,0.4,0.5,0.7,0.8,1.1l-36,36v-16.7L732.1,905.3z M733.5,893l-36.6-36.6v-29.5l37.7,65.2C734.2,892.4,733.9,892.7,733.5,893z
	 M696.9,943.9l36.8-36.8c0.3,0.3,0.7,0.6,1,0.8l-37.8,65.4V943.9z M736.8,890.9c-0.4,0.2-0.9,0.4-1.3,0.6l-38.6-66.9v-77.5
	c0.5,0,0.9-0.1,1.3-0.1L736.8,890.9z M688.2,732.3l-66.9-38.6l-38.7-67.1c0.4-0.2,0.8-0.5,1.1-0.8L689,731.1
	C688.7,731.5,688.5,731.9,688.2,732.3z M567.8,616.7c-0.1,0.5-0.1,0.9-0.1,1.4h-77.2l-67.1-38.7c0.2-0.4,0.4-0.8,0.6-1.2
	L567.8,616.7z M405.6,578.3c0.2,0.4,0.4,0.9,0.6,1.3l-66.9,38.6h-77.2c0-0.5,0-1-0.1-1.4L405.6,578.3z M131.5,747.3
	c0.5,0.1,0.9,0.1,1.4,0.1v77.3l-38.6,66.9c-0.4-0.2-0.8-0.4-1.3-0.6L131.5,747.3z M92.9,909.2c1.2-0.5,2.3-1.2,3.2-2l36.8,36.8v109
	c-0.5,0-1,0-1.4,0.1L92.9,909.2z M262,1183.6c0.1-0.5,0.1-0.9,0.1-1.4h77.2l67.1,38.7c-0.2,0.4-0.4,0.8-0.6,1.2L262,1183.6z
	 M424.2,1222.1c-0.2-0.4-0.4-0.9-0.6-1.3l66.9-38.6h77.3c0,0.5,0,0.9,0.1,1.4L424.2,1222.1z M698.3,1053.3c-0.4-0.1-0.9-0.1-1.3-0.1
	v-77.5l38.7-67.1c0.4,0.2,0.8,0.4,1.2,0.6L698.3,1053.3z"/>
<path class="st2" d="M253.7,857.5h-6.3c-3.9,0-6.4,1.1-7.6,3.3l-21.6,37.9l-21.3-37.9c-1.2-2.2-3.8-3.3-7.6-3.3h-6.4
	c-4.8,0-7.3,1.3-7.3,3.9v77.5c0,2.6,2.4,3.9,7.3,3.9h3.5c4.8,0,7.3-1.3,7.3-3.9v-50.1l0.5-0.1l17.6,31.4c1.1,1.5,2.7,2.3,4.8,2.3
	h3.5c2.1,0,3.7-0.8,4.8-2.3l17.6-31.4l0.5,0.1v50.1c0,2.6,2.4,3.9,7.3,3.9h3.5c4.8,0,7.3-1.3,7.3-3.9v-77.5
	C260.9,858.8,258.5,857.5,253.7,857.5z"/>
<path class="st2" d="M405.4,857.8h-57.3c-2.4,0-3.6,2-3.6,6.1v3.7c0,4,1.2,6.1,3.6,6.1h19.3v65.3c0,2.6,2.4,3.9,7.3,3.9h4.2
	c4.8,0,7.3-1.3,7.3-3.9v-65.3h19.3c2.4,0,3.6-2,3.6-6.1v-3.7C409,859.8,407.8,857.8,405.4,857.8z"/>
<path class="st2" d="M471.5,911.4c-1.1-2.6-2.4-4.9-4-7.1c-1.6-2.1-3.2-3.5-4.7-4.1v-0.5c4.4-1.6,7.8-4.1,10.4-7.5
	c2.5-3.3,3.8-7.3,3.8-11.8c0-15.2-10.1-22.8-30.2-22.8h-23.6c-3.2,0-4.8,1.6-4.8,4.8v76.3c0,2.6,2.4,3.9,7.3,3.9h4.1
	c4.8,0,7.3-1.3,7.3-3.9v-29.6h4.7c3.6,0,6.2,0.5,7.8,1.6c1.6,1.1,3,3,4.4,5.6l9.6,23.6c0.6,1.7,3,2.5,7,2.5h5c4.8,0,7.3-0.8,7.3-2.4
	c0-0.5-0.2-1.3-0.6-2.3L471.5,911.4z M455,890.2c-1.9,2-4,3-6.5,3H437v-19.6h10.7c3.1,0,5.6,0.8,7.5,2.5c1.8,1.7,2.7,3.9,2.7,6.8
	C457.8,885.8,456.9,888.2,455,890.2z"/>
<path class="st2" d="M503,857.4h-4.2c-4.8,0-7.3,1.3-7.3,4v77.5c0,2.7,2.4,4,7.3,4h4.2c4.8,0,7.3-1.3,7.3-4v-77.5
	C510.3,858.8,507.8,857.4,503,857.4z"/>
<path class="st2" d="M583.2,922.8c-0.3,0-1.4,0.4-3.1,1.2c-5.3,2.4-10.9,3.6-16.7,3.6c-13.8,0-20.7-9.1-20.7-27.4
	c0-18.3,7-27.4,21-27.4c6,0,11.1,1,15.3,2.9c1.5,0.6,2.3,1,2.5,1c1.5,0,3.1-1.5,5-4.4c1.9-2.9,2.8-5.2,2.8-7c0-2.4-2.7-4.4-8.2-6.1
	c-5.5-1.6-11.2-2.4-17.1-2.4c-27,0-40.4,14.4-40.4,43.1c0,14.9,3.2,25.9,9.7,33c6.5,7.1,16.5,10.6,30.1,10.6c6.1,0,12.1-0.9,18-2.7
	c6-1.8,9-4.3,9-7.5c0-1.5-0.8-3.6-2.3-6.4C586.5,924.2,584.9,922.8,583.2,922.8z"/>
<path class="st2" d="M636,873.6h14.5c2.4,0,3.6-2,3.6-6.1v-3.7c0-4-1.2-6.1-3.6-6.1h-44.3c-3.2,0-4.8,1.6-4.8,4.8v11H620H636z"/>
<path class="st2" d="M630,907.1h17.2c2.4,0,3.6-2,3.6-6.1v-3.7c0-4-1.2-6.1-3.6-6.1h-45.9v15.9H620H630z"/>
<path class="st2" d="M650.6,926.7h-49.3v11c0,3.2,1.6,4.8,4.8,4.8h44.4c2.4,0,3.6-2,3.6-6.1v-3.8C654.2,928.7,653,926.7,650.6,926.7
	z"/>
<path class="st2" d="M316.5,860.1c-0.7-1.7-3-2.5-6.9-2.5h-6.3c-4,0-6.3,0.8-6.9,2.5L269.8,938c-0.3,1.1-0.5,1.9-0.5,2.2
	c0,1.8,2.5,2.7,7.4,2.7h4.8c3.1,0,5-0.8,5.6-2.5l4.8-14.8l5.2-16c0,0,8.2-25.5,9-29.3h0.5l8.7,29.3l5.2,16l4.8,14.8
	c0.6,1.7,2.8,2.5,6.8,2.5h5.3c4,0,6.1-0.9,6.1-2.7c0-0.6-0.1-1.4-0.4-2.2L316.5,860.1z"/>
</svg>
