<svg id="Calque_1" data-name="Calque 1" xmlns="http://www.w3.org/2000/svg" viewBox="0 0 2400 1800"><defs><style>.cls-1{fill:#f3f2f2;}.cls-2{font-size:200px;}.cls-2,.cls-20,.cls-63{fill:#162843;}.cls-2,.cls-20{font-family:Entrelacs-Broderie, Entrelacs;}.cls-3{letter-spacing:0.1em;}.cls-4{letter-spacing:0em;}.cls-5{letter-spacing:0em;}.cls-6{letter-spacing:0.11em;}.cls-7{letter-spacing:0.06em;}.cls-8{letter-spacing:0.06em;}.cls-9{letter-spacing:0.06em;}.cls-10{letter-spacing:0.06em;}.cls-11{letter-spacing:0.04em;}.cls-12{letter-spacing:0.05em;}.cls-13{letter-spacing:0.05em;}.cls-14{letter-spacing:0.11em;}.cls-15{letter-spacing:0.11em;}.cls-16{letter-spacing:0.11em;}.cls-17{letter-spacing:0.09em;}.cls-18{letter-spacing:0.09em;}.cls-19{letter-spacing:0.09em;}.cls-20{font-size:100px;}.cls-21{letter-spacing:-0.01em;}.cls-22{letter-spacing:-0.01em;}.cls-23{letter-spacing:-0.01em;}.cls-24{letter-spacing:0.04em;}.cls-25{letter-spacing:-0.01em;}.cls-26{letter-spacing:-0.01em;}.cls-27{letter-spacing:0.02em;}.cls-28{letter-spacing:-0.02em;}.cls-29{letter-spacing:-0.01em;}.cls-30{letter-spacing:0em;}.cls-31{letter-spacing:-0.01em;}.cls-32{letter-spacing:0.03em;}.cls-33{letter-spacing:-0.02em;}.cls-34{letter-spacing:0.02em;}.cls-35{letter-spacing:-0.01em;}.cls-36{letter-spacing:0em;}.cls-37{letter-spacing:-0.01em;}.cls-38{letter-spacing:-0.01em;}.cls-39{letter-spacing:0em;}.cls-40{letter-spacing:0.05em;}.cls-41{letter-spacing:-0.01em;}.cls-42{letter-spacing:0.01em;}.cls-43{letter-spacing:0em;}.cls-44{letter-spacing:-0.01em;}.cls-45{letter-spacing:-0.02em;}.cls-46{letter-spacing:-0.02em;}.cls-47{letter-spacing:-0.03em;}.cls-48{letter-spacing:-0.01em;}.cls-49{letter-spacing:-0.02em;}.cls-50{letter-spacing:0.01em;}.cls-51{letter-spacing:0.09em;}.cls-52{letter-spacing:-0.07em;}.cls-53{letter-spacing:-0.02em;}.cls-54{letter-spacing:-0.01em;}.cls-55{letter-spacing:-0.02em;}.cls-56{letter-spacing:0.04em;}.cls-57{letter-spacing:0.04em;}.cls-58{letter-spacing:-0.02em;}.cls-59{letter-spacing:0em;}.cls-60{letter-spacing:0.06em;}.cls-61{letter-spacing:0em;}.cls-62{letter-spacing:0.01em;}</style></defs><title>Plan de travail 1 copie</title><rect class="cls-1" width="2400" height="1800"/><text class="cls-2" transform="translate(251.67 458.2)">a<tspan class="cls-3" x="102.4" y="0"> </tspan><tspan class="cls-4" x="173.4" y="0">b</tspan><tspan class="cls-3" x="267.4" y="0"> </tspan><tspan class="cls-5" x="338.4" y="0">c</tspan><tspan class="cls-6" x="426.79" y="0"> </tspan><tspan x="497.99" y="0">d</tspan><tspan class="cls-3" x="585.59" y="0"> </tspan><tspan class="cls-5" x="656.59" y="0">e </tspan></text><text class="cls-2" transform="translate(251.67 638.2)">f<tspan class="cls-7" x="71" y="0"> </tspan><tspan x="132.2" y="0">g</tspan><tspan class="cls-8" x="226.6" y="0"> </tspan><tspan x="288" y="0">h</tspan><tspan class="cls-9" x="378.99" y="0"> </tspan><tspan x="440.19" y="0">i</tspan><tspan class="cls-10" x="481.59" y="0"> </tspan><tspan x="542.99" y="0">j</tspan><tspan class="cls-8" x="596.99" y="0"> </tspan><tspan x="658.39" y="0">k </tspan></text><text class="cls-2" transform="translate(251.67 818.2)">l<tspan class="cls-11" x="77.6" y="0"> </tspan><tspan x="136.6" y="0">m</tspan><tspan class="cls-12" x="285.79" y="0"> </tspan><tspan x="344.99" y="0">n</tspan><tspan class="cls-13" x="447.79" y="0"> </tspan><tspan class="cls-4" x="506.99" y="0">o</tspan><tspan class="cls-11" x="597.99" y="0"> </tspan><tspan x="656.99" y="0">p </tspan></text><text class="cls-2" transform="translate(251.67 998.2)">q<tspan class="cls-14" x="95.2" y="0"> </tspan><tspan class="cls-4" x="167.4" y="0">r</tspan><tspan class="cls-14" x="259.8" y="0"> </tspan><tspan x="332" y="0">s</tspan><tspan class="cls-15" x="416.6" y="0"> </tspan><tspan x="489" y="0">t</tspan><tspan class="cls-16" x="570.4" y="0"> </tspan><tspan class="cls-4" x="642.79" y="0">u </tspan></text><text class="cls-2" transform="translate(251.67 1178.2)">v<tspan class="cls-17" x="89.8" y="0"> </tspan><tspan x="158" y="0">w</tspan><tspan class="cls-18" x="288.8" y="0"> </tspan><tspan class="cls-4" x="357" y="0">x</tspan><tspan class="cls-19" x="446.39" y="0"> </tspan><tspan class="cls-4" x="514.79" y="0">y</tspan><tspan class="cls-19" x="596.39" y="0"> </tspan><tspan x="664.79" y="0">z </tspan></text><text class="cls-20" transform="translate(251.67 1457.19)"><tspan class="cls-21">r</tspan><tspan class="cls-22" x="45.4" y="0">e</tspan><tspan class="cls-23" x="89.2" y="0">f</tspan><tspan x="123.6" y="0">e</tspan><tspan class="cls-24" x="168.3" y="0">r</tspan><tspan class="cls-25" x="218.9" y="0">m</tspan><tspan x="292.99" y="0">ez </tspan><tspan class="cls-26" x="403.49" y="0">b</tspan><tspan class="cls-27" x="448.99" y="0">i</tspan><tspan x="471.79" y="0">en </tspan><tspan class="cls-28" x="592.89" y="0">l</tspan><tspan class="cls-29" x="629.89" y="0">e</tspan><tspan x="673.29" y="0">s </tspan><tspan class="cls-21" x="740.58" y="0">p</tspan><tspan class="cls-30" x="784.48" y="0">o</tspan></text><text class="cls-20" transform="translate(1080.67 1456.19)">r</text><text class="cls-20" transform="translate(1125.37 1457.19)"><tspan class="cls-31">te</tspan><tspan x="83" y="0">s su</tspan></text><text class="cls-20" transform="translate(1366.17 1456.19)">r</text><text class="cls-20" transform="translate(1412.37 1457.19)"> <tspan class="cls-32" x="25" y="0">v</tspan><tspan class="cls-33" x="73" y="0">o</tspan><tspan class="cls-34" x="116.1" y="0">t</tspan><tspan class="cls-35" x="159.2" y="0">r</tspan><tspan class="cls-36" x="204.8" y="0">e </tspan><tspan class="cls-26" x="274.5" y="0">p</tspan><tspan class="cls-37" x="317.69" y="0">a</tspan><tspan class="cls-38" x="367.69" y="0">s</tspan><tspan class="cls-39" x="409.19" y="0">s</tspan><tspan class="cls-33" x="451.49" y="0">ag</tspan><tspan x="545.09" y="0">e </tspan></text><text class="cls-20" transform="translate(251.67 1557.19)">pou</text><text class="cls-20" transform="translate(389.27 1556.19)">r</text><text class="cls-20" transform="translate(435.47 1557.19)"> <tspan class="cls-25" x="25" y="0">m</tspan><tspan class="cls-31" x="99.1" y="0">a</tspan><tspan class="cls-40" x="149.1" y="0">i</tspan><tspan x="174.8" y="0">n</tspan><tspan class="cls-41" x="226.2" y="0">t</tspan><tspan x="265.9" y="0">e</tspan><tspan class="cls-29" x="310.59" y="0">n</tspan><tspan class="cls-12" x="360.69" y="0">i</tspan><tspan class="cls-42" x="385.99" y="0">r</tspan><tspan x="433.19" y="0" xml:space="preserve"> la c</tspan><tspan class="cls-43" x="617.39" y="0">h</tspan><tspan class="cls-44" x="662.49" y="0">a</tspan><tspan class="cls-45" x="712.49" y="0">l</tspan><tspan class="cls-46" x="749.18" y="0">e</tspan><tspan x="792.28" y="0">u</tspan></text><text class="cls-20" transform="translate(1274.57 1556.19)">r</text><text class="cls-20" transform="translate(1320.77 1557.19)"> <tspan class="cls-47" x="25" y="0">e</tspan><tspan x="66.5" y="0">t </tspan><tspan class="cls-48" x="132.2" y="0">l</tspan><tspan x="169.6" y="0">e </tspan><tspan class="cls-48" x="239.3" y="0">c</tspan><tspan class="cls-35" x="282.09" y="0">o</tspan><tspan class="cls-49" x="326.99" y="0">n</tspan><tspan class="cls-50" x="376.29" y="0">f</tspan><tspan class="cls-25" x="412.89" y="0">o</tspan><tspan class="cls-33" x="457.89" y="0">r</tspan><tspan class="cls-36" x="501.69" y="0">t</tspan></text><text class="cls-20" transform="translate(1862.67 1557.19)"> </text><text class="cls-20" transform="translate(251.67 1657.19)"><tspan class="cls-51">d</tspan><tspan class="cls-52" x="52.6" y="0">a</tspan><tspan class="cls-21" x="97" y="0">n</tspan><tspan class="cls-30" x="147.6" y="0">s </tspan><tspan class="cls-53" x="214.9" y="0">l</tspan><tspan class="cls-31" x="251.99" y="0">e</tspan><tspan x="295.49" y="0">s s</tspan><tspan class="cls-44" x="405.09" y="0">a</tspan><tspan class="cls-54" x="455.09" y="0">l</tspan><tspan class="cls-28" x="492.79" y="0">l</tspan><tspan class="cls-44" x="529.79" y="0">e</tspan><tspan x="573.29" y="0">s </tspan><tspan class="cls-10" x="640.59" y="0">d</tspan><tspan x="690.08" y="0">e </tspan><tspan class="cls-55" x="759.78" y="0">c</tspan><tspan class="cls-30" x="802.48" y="0">o</tspan><tspan class="cls-56" x="847.98" y="0">w</tspan><tspan x="916.98" y="0">o</tspan></text><text class="cls-20" transform="translate(1212.37 1656.19)">r</text><text class="cls-20" transform="translate(1256.07 1657.19)"><tspan class="cls-44">k</tspan><tspan class="cls-57" x="42.9" y="0">i</tspan><tspan class="cls-58" x="67.6" y="0">n</tspan><tspan x="117.1" y="0">g</tspan></text><text class="cls-20" transform="translate(251.67 180.09)"><tspan class="cls-59">b</tspan><tspan x="46.6" y="0">ro</tspan><tspan class="cls-60" x="138.3" y="0">d</tspan><tspan x="188.1" y="0">e</tspan><tspan class="cls-61" x="232.79" y="0">r</tspan><tspan class="cls-62" x="278.79" y="0">i</tspan><tspan x="300.99" y="0">e</tspan></text><path class="cls-63" d="M1540,1123.57l-75.19-129.49,18.8-71,259-150.38-73.1,275.69Zm687.15-33.42-188-108.61L1989,1067.18l-35.51,10.44V879.21l106.52-185.88-68.92-265.25L1627.72,332l-131.58,35.51-117,202.59L1423,730.92l154.55-41.77,112.78-112.78L1550.44,438.52l77.28-20.89L1705,438.52l87.72,150.38-18.8,71-156.64,89.81H1402.15L1210,944l56.39,208.86,263.16,71,225.57-129.49,60.57,104.43Z"/></svg>