<svg id="Calque_1" data-name="Calque 1" xmlns="http://www.w3.org/2000/svg" viewBox="0 0 2400 1800"><defs><style>.cls-1{fill:#eeeced;}.cls-2,.cls-3,.cls-4,.cls-5,.cls-6,.cls-7,.cls-8{fill:#1d1d1b;}.cls-3{font-size:72.6px;}.cls-25,.cls-3,.cls-32,.cls-4,.cls-5,.cls-6,.cls-65,.cls-7,.cls-8{font-family:Overpass-Black, Overpass;}.cls-4{font-size:58.08px;}.cls-5{font-size:43.56px;}.cls-6{font-size:29.04px;}.cls-7{font-size:14.52px;}.cls-8{font-size:7.26px;}.cls-10,.cls-12,.cls-15,.cls-20,.cls-21,.cls-22,.cls-24,.cls-56,.cls-57,.cls-59,.cls-60,.cls-61,.cls-63,.cls-65,.cls-9{font-size:50px;}.cls-9{font-family:Overpass-Thin, Overpass;}.cls-10{font-family:Overpass-ThinItalic, Overpass;}.cls-10,.cls-15,.cls-21,.cls-24,.cls-57,.cls-60,.cls-63{font-style:italic;}.cls-11{letter-spacing:-0.01em;}.cls-12{font-family:Overpass-ExtraLight, Overpass;}.cls-13{letter-spacing:-0.01em;}.cls-14{letter-spacing:-0.02em;}.cls-15{font-family:Overpass-ExtraLightItalic, Overpass;}.cls-16{letter-spacing:-0.01em;}.cls-17{letter-spacing:-0.05em;}.cls-18{letter-spacing:-0.02em;}.cls-19{letter-spacing:-0.01em;}.cls-20{font-family:Overpass-Light, Overpass;}.cls-21{font-family:Overpass-LightItalic, Overpass;}.cls-22{font-family:Overpass-Regular, Overpass;}.cls-23{letter-spacing:-0.02em;}.cls-24{font-family:Overpass-Italic, Overpass;}.cls-25,.cls-32{font-size:90px;}.cls-26{letter-spacing:-0.04em;}.cls-27{letter-spacing:0em;}.cls-28{letter-spacing:0em;}.cls-29{letter-spacing:-0.03em;}.cls-30,.cls-32{letter-spacing:0.01em;}.cls-31{letter-spacing:-0.04em;}.cls-33{letter-spacing:-0.01em;}.cls-34{letter-spacing:0em;}.cls-35{letter-spacing:-0.01em;}.cls-36{letter-spacing:-0.01em;}.cls-37{letter-spacing:0em;}.cls-38{letter-spacing:0.03em;}.cls-39{letter-spacing:-0.07em;}.cls-40{letter-spacing:-0.11em;}.cls-41{letter-spacing:-0.05em;}.cls-42{letter-spacing:0.01em;}.cls-43{letter-spacing:-0.07em;}.cls-44{letter-spacing:-0.03em;}.cls-45{letter-spacing:-0.07em;}.cls-46{letter-spacing:-0.07em;}.cls-47{letter-spacing:-0.05em;}.cls-48{letter-spacing:0em;}.cls-49{letter-spacing:-0.05em;}.cls-50{letter-spacing:0.01em;}.cls-51{letter-spacing:0.01em;}.cls-52{letter-spacing:-0.04em;}.cls-53{letter-spacing:-0.04em;}.cls-54{letter-spacing:-0.04em;}.cls-55{letter-spacing:-0.04em;}.cls-56{font-family:Overpass-SemiBold, Overpass;}.cls-56,.cls-57,.cls-59,.cls-60,.cls-61,.cls-63{font-weight:700;}.cls-57{font-family:Overpass-SemiBoldItalic, Overpass;}.cls-58{letter-spacing:0em;}.cls-59{font-family:Overpass-Bold, Overpass;}.cls-60{font-family:Overpass-BoldItalic, Overpass;}.cls-61{font-family:Overpass-ExtraBold, Overpass;}.cls-62{letter-spacing:0em;}.cls-63{font-family:Overpass-ExtraBoldItalic, Overpass;}.cls-64{letter-spacing:-0.02em;}</style></defs><title>Plan de travail 1</title><rect class="cls-1" width="2400" height="1800"/><rect class="cls-2" x="252.77" y="267.64" width="24.96" height="174.77"/><rect class="cls-2" x="402.66" y="267.64" width="24.95" height="124.95"/><rect class="cls-2" x="502.54" y="267.64" width="24.95" height="124.95"/><rect class="cls-2" x="277.72" y="292.72" width="24.96" height="24.96"/><rect class="cls-2" x="302.69" y="317.68" width="24.96" height="24.96"/><rect class="cls-2" x="327.65" y="342.64" width="24.96" height="24.96"/><rect class="cls-2" x="352.61" y="317.68" width="24.96" height="24.96"/><rect class="cls-2" x="377.58" y="292.72" width="25.11" height="25.11"/><rect class="cls-2" x="427.65" y="392.47" width="24.96" height="24.96"/><rect class="cls-2" x="477.58" y="392.47" width="24.96" height="24.96"/><rect class="cls-2" x="452.61" y="417.5" width="24.96" height="24.96"/><text class="cls-3" transform="translate(547.17 317.95)">Mi</text><text class="cls-3" transform="translate(627.69 317.95)">r</text><text class="cls-3" transform="translate(658.55 317.95)">age </text><text class="cls-3" transform="translate(550.88 392.95)">Visuali</text><text class="cls-3" transform="translate(789.09 392.95)">s</text><text class="cls-3" transform="translate(825.25 392.95)">ation</text><rect class="cls-2" x="252.32" y="602.86" width="19.96" height="139.82"/><rect class="cls-2" x="372.24" y="602.86" width="19.96" height="99.96"/><rect class="cls-2" x="452.15" y="602.86" width="19.96" height="99.96"/><rect class="cls-2" x="272.29" y="622.92" width="19.97" height="19.97"/><rect class="cls-2" x="292.26" y="642.89" width="19.97" height="19.97"/><rect class="cls-2" x="312.23" y="662.86" width="19.97" height="19.97"/><rect class="cls-2" x="332.2" y="642.89" width="19.97" height="19.97"/><rect class="cls-2" x="352.17" y="622.92" width="20.09" height="20.09"/><rect class="cls-2" x="392.23" y="702.73" width="19.97" height="19.97"/><rect class="cls-2" x="432.17" y="702.73" width="19.97" height="19.97"/><rect class="cls-2" x="412.2" y="722.75" width="19.97" height="19.97"/><text class="cls-4" transform="translate(487.85 643.11)">Mi</text><text class="cls-4" transform="translate(552.26 643.11)">r</text><text class="cls-4" transform="translate(576.95 643.11)">age </text><text class="cls-4" transform="translate(490.81 703.11)">Visuali</text><text class="cls-4" transform="translate(681.38 703.11)">s</text><text class="cls-4" transform="translate(710.31 703.11)">ation</text><rect class="cls-2" x="252.77" y="912.84" width="14.97" height="104.86"/><rect class="cls-2" x="342.71" y="912.85" width="14.97" height="74.97"/><rect class="cls-2" x="402.63" y="912.85" width="14.97" height="74.97"/><rect class="cls-2" x="267.74" y="927.89" width="14.98" height="14.98"/><rect class="cls-2" x="282.72" y="942.87" width="14.98" height="14.98"/><rect class="cls-2" x="297.7" y="957.85" width="14.98" height="14.98"/><rect class="cls-2" x="312.67" y="942.87" width="14.98" height="14.98"/><rect class="cls-2" x="327.65" y="927.9" width="15.07" height="15.07"/><rect class="cls-2" x="357.7" y="987.75" width="14.98" height="14.98"/><rect class="cls-2" x="387.65" y="987.75" width="14.98" height="14.98"/><rect class="cls-2" x="372.68" y="1002.76" width="14.98" height="14.98"/><text class="cls-5" transform="translate(429.41 943.04)">Mi</text><text class="cls-5" transform="translate(477.72 943.04)">r</text><text class="cls-5" transform="translate(496.24 943.04)">age </text><text class="cls-5" transform="translate(431.63 988.04)">Visuali</text><text class="cls-5" transform="translate(574.56 988.04)">s</text><text class="cls-5" transform="translate(596.26 988.04)">ation</text><rect class="cls-2" x="252.77" y="1147.84" width="9.98" height="69.91"/><rect class="cls-2" x="312.73" y="1147.84" width="9.98" height="49.98"/><rect class="cls-2" x="352.68" y="1147.84" width="9.98" height="49.98"/><rect class="cls-2" x="262.75" y="1157.87" width="9.98" height="9.98"/><rect class="cls-2" x="272.73" y="1167.86" width="9.98" height="9.98"/><rect class="cls-2" x="282.72" y="1177.85" width="9.98" height="9.98"/><rect class="cls-2" x="292.71" y="1167.86" width="9.98" height="9.98"/><rect class="cls-2" x="302.69" y="1157.88" width="10.04" height="10.04"/><rect class="cls-2" x="322.72" y="1197.78" width="9.98" height="9.98"/><rect class="cls-2" x="342.69" y="1197.78" width="9.98" height="9.98"/><rect class="cls-2" x="332.71" y="1207.79" width="9.99" height="9.99"/><text class="cls-6" transform="translate(370.53 1167.97)">Mi</text><text class="cls-6" transform="translate(402.74 1167.97)">r</text><text class="cls-6" transform="translate(415.08 1167.97)">age </text><text class="cls-6" transform="translate(372.01 1197.97)">Visuali</text><text class="cls-6" transform="translate(467.3 1197.97)">s</text><text class="cls-6" transform="translate(481.76 1197.97)">ation</text><rect class="cls-2" x="252.77" y="1332.84" width="4.99" height="34.95"/><rect class="cls-2" x="282.75" y="1332.84" width="4.99" height="24.99"/><rect class="cls-2" x="302.72" y="1332.84" width="4.99" height="24.99"/><rect class="cls-2" x="257.76" y="1337.86" width="4.99" height="4.99"/><rect class="cls-2" x="262.75" y="1342.85" width="4.99" height="4.99"/><rect class="cls-2" x="267.74" y="1347.84" width="4.99" height="4.99"/><rect class="cls-2" x="272.74" y="1342.85" width="4.99" height="4.99"/><rect class="cls-2" x="277.73" y="1337.86" width="5.02" height="5.02"/><rect class="cls-2" x="287.74" y="1357.81" width="4.99" height="4.99"/><rect class="cls-2" x="297.73" y="1357.81" width="4.99" height="4.99"/><rect class="cls-2" x="292.74" y="1362.82" width="4.99" height="4.99"/><text class="cls-7" transform="translate(311.65 1342.91)">Mi</text><text class="cls-7" transform="translate(327.75 1342.91)">r</text><text class="cls-7" transform="translate(333.92 1342.91)">age </text><text class="cls-7" transform="translate(312.39 1357.91)">Visuali</text><text class="cls-7" transform="translate(360.03 1357.91)">s</text><text class="cls-7" transform="translate(367.26 1357.91)">ation</text><rect class="cls-2" x="252.77" y="1475.05" width="2.5" height="17.48"/><rect class="cls-2" x="267.76" y="1475.05" width="2.5" height="12.49"/><rect class="cls-2" x="277.75" y="1475.05" width="2.49" height="12.49"/><rect class="cls-2" x="255.26" y="1477.56" width="2.5" height="2.5"/><rect class="cls-2" x="257.76" y="1480.05" width="2.5" height="2.5"/><rect class="cls-2" x="260.26" y="1482.55" width="2.5" height="2.5"/><rect class="cls-2" x="262.75" y="1480.05" width="2.5" height="2.5"/><rect class="cls-2" x="265.25" y="1477.56" width="2.51" height="2.51"/><rect class="cls-2" x="270.26" y="1487.53" width="2.5" height="2.5"/><rect class="cls-2" x="275.25" y="1487.53" width="2.5" height="2.5"/><rect class="cls-2" x="272.75" y="1490.03" width="2.5" height="2.5"/><text class="cls-8" transform="translate(282.21 1480.08)">Mi</text><text class="cls-8" transform="translate(290.26 1480.08)">r</text><text class="cls-8" transform="translate(293.35 1480.08)">age </text><text class="cls-8" transform="translate(282.58 1487.58)">Visuali</text><text class="cls-8" transform="translate(306.4 1487.58)">s</text><text class="cls-8" transform="translate(310.02 1487.58)">ation</text><text class="cls-9" transform="translate(1401.46 1106.08)">Thin</text><text class="cls-10" transform="translate(1401.46 1166.08)">Thin I<tspan class="cls-11" x="114.75" y="0">t</tspan><tspan x="131.35" y="0">alic</tspan></text><text class="cls-12" transform="translate(1401.46 1226.08)">E<tspan class="cls-13" x="29.45" y="0">x</tspan><tspan x="53.95" y="0">t</tspan><tspan class="cls-14" x="72.2" y="0">r</tspan><tspan x="90.35" y="0">aLight</tspan></text><text class="cls-15" transform="translate(1401.46 1286.08)">E<tspan class="cls-16" x="28.4" y="0">x</tspan><tspan class="cls-17" x="51.75" y="0">t</tspan><tspan class="cls-18" x="66.7" y="0">r</tspan><tspan x="83.85" y="0">aLight I</tspan><tspan class="cls-19" x="242.25" y="0">t</tspan><tspan x="259.14" y="0">alic</tspan></text><text class="cls-20" transform="translate(1401.46 1346.08)">Light</text><text class="cls-10" transform="translate(1516.56 1346.08)"> </text><text class="cls-21" transform="translate(1401.46 1406.08)">Light I<tspan class="cls-19" x="135.5" y="0">t</tspan><tspan x="152.75" y="0">alic</tspan></text><text class="cls-22" transform="translate(1401.46 1466.08)"><tspan class="cls-23">R</tspan><tspan x="32.1" y="0">egular</tspan></text><text class="cls-24" transform="translate(1401.46 1526.08)">I<tspan class="cls-11" x="13.45" y="0">t</tspan><tspan x="30.9" y="0">alic</tspan></text><text class="cls-25" transform="translate(1401.91 333.82)"><tspan class="cls-26">A </tspan><tspan class="cls-27" x="83.25" y="0">B</tspan><tspan class="cls-26" x="147.33" y="0"> </tspan><tspan class="cls-28" x="167.4" y="0">C</tspan><tspan class="cls-26" x="224.91" y="0"> </tspan><tspan class="cls-27" x="244.98" y="0">D</tspan><tspan class="cls-29" x="310.5" y="0"> </tspan><tspan class="cls-28" x="330.57" y="0">E</tspan><tspan class="cls-26" x="388.26" y="0"> </tspan><tspan class="cls-28" x="408.33" y="0">F</tspan><tspan class="cls-26" x="460.98" y="0"> </tspan><tspan class="cls-30" x="481.04" y="0">G</tspan><tspan class="cls-26" x="541.17" y="0"> </tspan><tspan class="cls-27" x="561.23" y="0">H</tspan><tspan class="cls-31" x="627.47" y="0"> </tspan><tspan class="cls-30" x="647.45" y="0">I</tspan><tspan class="cls-26" x="675.89" y="0"> </tspan><tspan class="cls-30" x="695.96" y="0">J</tspan><tspan x="747.26" y="0"> </tspan></text><text class="cls-32" transform="translate(1401.91 441.82)">K<tspan class="cls-33" x="66.42" y="0"> </tspan><tspan x="89.01" y="0">L</tspan><tspan class="cls-33" x="140.76" y="0"> </tspan><tspan class="cls-34" x="163.35" y="0">M</tspan><tspan class="cls-33" x="236.88" y="0"> </tspan><tspan x="259.47" y="0">N</tspan><tspan class="cls-35" x="324.99" y="0"> </tspan><tspan x="347.58" y="0">O</tspan><tspan class="cls-33" x="412.82" y="0"> </tspan><tspan class="cls-34" x="435.41" y="0">P</tspan><tspan class="cls-36" x="493.73" y="0"> </tspan><tspan x="516.41" y="0">Q</tspan><tspan class="cls-33" x="581.66" y="0"> </tspan><tspan x="604.25" y="0">R</tspan><tspan class="cls-33" x="667.97" y="0"> </tspan><tspan x="690.56" y="0">S</tspan><tspan class="cls-37" x="746.9" y="0"> </tspan></text><text class="cls-25" transform="translate(1401.91 549.82)"><tspan class="cls-38">T</tspan><tspan class="cls-39" x="57.69" y="0"> </tspan><tspan class="cls-28" x="75.06" y="0">U</tspan><tspan class="cls-40" x="140.58" y="0"> </tspan><tspan class="cls-29" x="154.35" y="0">V</tspan><tspan class="cls-41" x="214.02" y="0"> </tspan><tspan class="cls-42" x="232.38" y="0">W</tspan><tspan class="cls-43" x="310.5" y="0"> </tspan><tspan class="cls-30" x="327.78" y="0">X</tspan><tspan class="cls-40" x="392.67" y="0"> </tspan><tspan class="cls-44" x="406.44" y="0">Y</tspan><tspan class="cls-43" x="467" y="0"> </tspan><tspan class="cls-30" x="484.28" y="0">Z</tspan><tspan x="541.88" y="0"> </tspan></text><text class="cls-25" transform="translate(1960.45 549.82)">a<tspan class="cls-45" x="51.57" y="0"> </tspan><tspan x="68.4" y="0">b</tspan><tspan class="cls-46" x="120.96" y="0"> </tspan><tspan x="137.79" y="0">c </tspan></text><text class="cls-25" transform="translate(2149.17 657.82)"> </text><text class="cls-25" transform="translate(2149.17 657.82)"> </text><text class="cls-25" transform="translate(2094.63 657.82)">n</text><text class="cls-25" transform="translate(2071.05 657.82)"> </text><text class="cls-25" transform="translate(1990.95 657.82)">m</text><text class="cls-25" transform="translate(1967.37 657.82)"> </text><text class="cls-25" transform="translate(1939.92 657.82)">l</text><text class="cls-25" transform="translate(1916.34 657.82)"> </text><text class="cls-25" transform="translate(1864.59 657.82)">k</text><text class="cls-25" transform="translate(1841.02 657.82)"> </text><text class="cls-25" transform="translate(1814.28 657.82)">j</text><text class="cls-25" transform="translate(1790.71 657.82)"> </text><text class="cls-25" transform="translate(1763.98 657.82)">i</text><text class="cls-25" transform="translate(1740.4 657.82)"> </text><text class="cls-25" transform="translate(1685.86 657.82)">h</text><text class="cls-25" transform="translate(1662.28 657.82)"> </text><text class="cls-25" transform="translate(1609.72 657.82)">g</text><text class="cls-25" transform="translate(1586.14 657.82)"> </text><text class="cls-25" transform="translate(1552.3 657.82)">f</text><text class="cls-25" transform="translate(1528.72 657.82)"> </text><text class="cls-25" transform="translate(1477.6 657.82)">e</text><text class="cls-25" transform="translate(1454.02 657.82)"> </text><text class="cls-25" transform="translate(1401.46 657.82)">d</text><text class="cls-25" transform="translate(1401.46 765.82)">o<tspan class="cls-47" x="51.48" y="0"> </tspan><tspan x="70.2" y="0">p</tspan><tspan class="cls-47" x="122.76" y="0"> </tspan><tspan x="141.48" y="0">q</tspan><tspan class="cls-47" x="194.04" y="0"> </tspan><tspan x="212.76" y="0">r</tspan><tspan class="cls-47" x="251.55" y="0"> </tspan><tspan x="270.27" y="0">s</tspan><tspan class="cls-47" x="315.72" y="0"> </tspan><tspan class="cls-37" x="334.44" y="0">t</tspan><tspan class="cls-47" x="370.52" y="0"> </tspan><tspan x="389.24" y="0">u</tspan><tspan class="cls-47" x="443.78" y="0"> </tspan><tspan x="462.5" y="0">v</tspan><tspan class="cls-47" x="514.79" y="0"> </tspan><tspan class="cls-48" x="533.51" y="0">w</tspan><tspan class="cls-49" x="602.36" y="0"> </tspan><tspan x="621.08" y="0">x</tspan><tspan class="cls-47" x="675.8" y="0"> </tspan><tspan x="694.52" y="0">y </tspan></text><text class="cls-25" transform="translate(1401.46 873.82)">z</text><text class="cls-25" transform="translate(1452.13 873.82)"><tspan class="cls-50"> </tspan><tspan x="23.85" y="0">0</tspan><tspan class="cls-50" x="83.88" y="0"> </tspan><tspan x="107.73" y="0">1</tspan><tspan class="cls-50" x="145.17" y="0"> </tspan><tspan x="169.02" y="0">2</tspan><tspan class="cls-50" x="224.01" y="0"> </tspan><tspan x="247.86" y="0">3</tspan><tspan class="cls-50" x="301.77" y="0"> </tspan><tspan x="325.62" y="0">4</tspan><tspan class="cls-50" x="384.65" y="0"> </tspan><tspan x="408.5" y="0">5</tspan><tspan class="cls-50" x="462.86" y="0"> </tspan><tspan x="486.71" y="0">6</tspan><tspan class="cls-51" x="542.78" y="0"> </tspan><tspan x="566.54" y="0">7</tspan><tspan class="cls-50" x="615.59" y="0"> </tspan><tspan x="639.44" y="0">8 </tspan></text><text class="cls-25" transform="translate(1401.46 981.82)">9<tspan class="cls-52" x="56.07" y="0"> </tspan><tspan x="75.6" y="0">&amp; </tspan></text><text class="cls-25" transform="translate(1562.11 981.82)">é<tspan class="cls-53" x="51.12" y="0"> </tspan><tspan class="cls-48" x="70.56" y="0">«</tspan><tspan class="cls-54" x="123.12" y="0"> </tspan><tspan class="cls-48" x="142.65" y="0">»</tspan><tspan class="cls-53" x="195.21" y="0"> </tspan><tspan x="214.65" y="0">‘</tspan><tspan class="cls-53" x="238.14" y="0"> </tspan><tspan class="cls-48" x="257.58" y="0">()</tspan><tspan class="cls-53" x="327.24" y="0"> </tspan><tspan x="346.67" y="0">è</tspan><tspan class="cls-55" x="397.79" y="0"> </tspan><tspan class="cls-37" x="417.23" y="0">!</tspan><tspan class="cls-53" x="445.49" y="0"> </tspan><tspan x="464.93" y="0">ç </tspan></text><text class="cls-25" transform="translate(2097.15 981.82)">à</text><text class="cls-56" transform="translate(1785.66 1106.08)">SemiBold </text><text class="cls-57" transform="translate(1785.66 1166.08)">SemiBold I<tspan class="cls-19" x="231.4" y="0">t</tspan><tspan class="cls-58" x="248.95" y="0">alic</tspan></text><text class="cls-59" transform="translate(1785.66 1226.08)">Bold</text><text class="cls-60" transform="translate(1785.66 1286.08)">Bold I<tspan class="cls-11" x="123.9" y="0">t</tspan><tspan x="141.65" y="0">alic</tspan></text><text class="cls-61" transform="translate(1785.66 1346.08)">E<tspan class="cls-62" x="31.2" y="0">x</tspan><tspan x="60.05" y="0">t</tspan><tspan class="cls-11" x="79.7" y="0">r</tspan><tspan x="100.2" y="0">aBold</tspan></text><text class="cls-63" transform="translate(1785.66 1406.08)">E<tspan class="cls-11" x="29.05" y="0">x</tspan><tspan class="cls-17" x="56.45" y="0">t</tspan><tspan class="cls-64" x="72.35" y="0">r</tspan><tspan x="91.55" y="0">aBold I</tspan><tspan class="cls-19" x="242.65" y="0">t</tspan><tspan x="260.5" y="0">alic</tspan></text><text class="cls-65" transform="translate(1785.66 1466.08)">Black</text><text class="cls-63" transform="translate(1785.66 1526.08)">Black I<tspan class="cls-19" x="149.5" y="0">t</tspan><tspan x="167.35" y="0">alic</tspan></text></svg>