<svg id="Layer_1" data-name="Layer 1" xmlns="http://www.w3.org/2000/svg" viewBox="0 0 137.42 67.91"><defs><style>.cls-1{fill:#231f20;}</style></defs><title>Artboard 1</title><path class="cls-1" d="M.16,27l2.73-4a15,15,0,0,0,7.45,2.12c1.67,0,2.36-.45,2.36-1.13,0-.92-1-1.07-4.18-1.75-5.25-1.14-7.15-3.12-7.15-6.08,0-3.73,3.54-6.16,9.05-6.16a15.85,15.85,0,0,1,8.43,2.66L16,16.49a12.62,12.62,0,0,0-6.15-1.75c-1.22,0-2,.38-2,1.06,0,.84,1,.92,3.95,1.6,5.7,1.29,7.38,3,7.38,6.16,0,3.57-3.39,6.3-9.73,6.3A18,18,0,0,1,.16,27Z"/><path class="cls-1" d="M28.13,21.35V15.5H23.57V10.64l4.86-.23.84-5.7h5.39v5.7h7.52V15.5H34.66v5.74c0,2.7,1.25,3.53,3.69,3.53a10.5,10.5,0,0,0,3.45-.61l1.14,4.71a22.66,22.66,0,0,1-6.3,1C30.4,29.86,28.13,26.44,28.13,21.35Z"/><path class="cls-1" d="M47.66,22.11V10.41h6.53V21.28c0,2.12.46,3,2.17,3,1.1,0,1.86-.31,2.85-1.68V10.41h6.53v19H60.42L60,26.9h-.15a7.81,7.81,0,0,1-6.16,3C49.41,29.86,47.66,26.82,47.66,22.11Z"/><path class="cls-1" d="M70.69,19.91c0-6.23,4-10,7.94-10a5.6,5.6,0,0,1,4.44,1.9h.15l-.3-2.73V3h6.54V29.41H84.14l-.46-1.75h-.15a7.46,7.46,0,0,1-4.9,2.2C73.8,29.86,70.69,26.06,70.69,19.91Zm12.23,3.27v-7a3.57,3.57,0,0,0-2.51-.91c-1.59,0-3,1.22-3,4.56s1.1,4.71,3,4.71A2.79,2.79,0,0,0,82.92,23.18Z"/><path class="cls-1" d="M102.68,15.5H95.46V10.41h13.76v19h-6.54ZM101.54,4a4.19,4.19,0,0,1,8.36,0c0,2.28-1.75,3.8-4.18,3.8S101.54,6.31,101.54,4Z"/><path class="cls-1" d="M117.81,19.91a9.8,9.8,0,1,1,19.6,0,9.8,9.8,0,1,1-19.6,0Zm12.91,0c0-2.89-.91-4.71-3.11-4.71s-3.12,1.82-3.12,4.71.91,4.71,3.12,4.71S130.72,22.8,130.72,19.91Z"/><path class="cls-1" d="M.16,65l2.73-4a15,15,0,0,0,7.45,2.12c1.67,0,2.36-.45,2.36-1.13,0-.92-1-1.07-4.18-1.75-5.25-1.14-7.15-3.12-7.15-6.08,0-3.73,3.54-6.16,9.05-6.16a15.85,15.85,0,0,1,8.43,2.66L16,54.49a12.62,12.62,0,0,0-6.15-1.75c-1.22,0-2,.38-2,1.06,0,.84,1,.92,3.95,1.6,5.7,1.29,7.38,3,7.38,6.16,0,3.57-3.39,6.3-9.73,6.3A18,18,0,0,1,.16,65Z"/><path class="cls-1" d="M23,62c0-4.25,3.35-6.46,12-6.91-.23-1.37-1.52-2-3.65-2a13,13,0,0,0-5.47,1.6l-2.28-4.26a18.5,18.5,0,0,1,9-2.51c5.4,0,8.89,2.66,8.89,8.89V67.41H36.24l-.45-2h-.15a11.21,11.21,0,0,1-6.46,2.43A5.75,5.75,0,0,1,23,62Zm12-.61V59c-4.64.15-5.78,1.22-5.78,2.51,0,.87.69,1.37,2.05,1.37A6.19,6.19,0,0,0,35,61.4Z"/><path class="cls-1" d="M46.52,48.41h4.86l.46,2.28H52A4.16,4.16,0,0,1,56,48c1.55,0,2.77,1.07,3.19,3a4.28,4.28,0,0,1,4.1-3c2.74,0,4.26,2.43,4.26,6.23V67.41H61.41V54.64c0-.8-.15-1.14-.64-1.14s-.92.46-1.26,1.44V67.41H54.57V54.64c0-.8-.26-1.14-.76-1.14S53,54,52.67,54.94V67.41H46.52Z"/><path class="cls-1" d="M91,57.15c0-5.09-3-9.2-9-9.2a9.74,9.74,0,0,0-10,10c0,6.3,4.63,10,10.64,10a15.13,15.13,0,0,0,7.6-2.2L88.1,61.78a10.61,10.61,0,0,1-4.56,1.14c-2.75,0-4.4-.91-5-3H90.72A16.45,16.45,0,0,0,91,57.15Zm-8.82-4.26a2.83,2.83,0,0,1,3,2.74H78.57A3.41,3.41,0,0,1,82.17,52.89Z"/><path class="cls-1" d="M95.25,57.91c0-6.23,4-10,7.94-10a5.6,5.6,0,0,1,4.44,1.9h.15l-.3-2.73V41H114V67.41H108.7l-.46-1.75h-.15a7.46,7.46,0,0,1-4.9,2.2C98.36,67.86,95.25,64.06,95.25,57.91Zm12.23,3.27v-7a3.57,3.57,0,0,0-2.51-.91c-1.59,0-3,1.22-3,4.56s1.1,4.71,3,4.71A2.79,2.79,0,0,0,107.48,61.18Z"/><path class="cls-1" d="M126.24,53.5H119V48.41h13.75v19h-6.53ZM125.1,42a4.19,4.19,0,0,1,8.36,0c0,2.28-1.75,3.8-4.18,3.8S125.1,44.31,125.1,42Z"/></svg>