<svg id="Layer_1" data-name="Layer 1" xmlns="http://www.w3.org/2000/svg" xmlns:xlink="http://www.w3.org/1999/xlink" viewBox="0 0 2400 1800"><defs><style>.cls-1{fill:none;}.cls-2{clip-path:url(#clip-path);}.cls-3{fill:#fff;}</style><clipPath id="clip-path"><rect class="cls-1" x="481.17" y="157.66" width="1437.66" height="1485.67"/></clipPath></defs><title>Artboard 5</title><rect x="0.5" y="0.5" width="2399" height="1799"/><g class="cls-2"><path class="cls-3" d="M1918.83,905.42a714.43,714.43,0,0,0-102.62-369.75c-18.86-55.14-45.76-107.15-83.92-153-45.54-54.72-106.8-93.36-171.17-122.28-67.94-30.52-138.79-56.4-210.81-75.43-142.66-37.69-299.8-44.55-431,32.81-37.7,22.23-72,49.64-103.53,80.39-200.95,127.6-334.59,352.1-334.59,607.25,0,241.16,119.38,454.95,302.13,585.41,81.26,92.43,200.68,139.72,324.63,144.79,56.38,2.3,113.06-4,168.49-15.43C1637,1581.91,1918.83,1276,1918.83,905.42M487,905.42C487,662.3,609.4,447.24,795.74,318.5c-64.2,67.89-116.64,149.09-163.17,226.77Q603,594.57,576.81,645.75c-.08.15-.13.3-.21.46a43.23,43.23,0,0,0-3.74,8.91C560.21,698,550.1,738,547,783.1c-5.48,79,6.15,159,26,235.31,20.16,77.48,49.25,152.29,80.23,226,29.19,69.43,56.5,142.24,98.46,205.22q7.69,11.54,16.07,22.35C597.25,1341.59,487,1136.14,487,905.42m855.37,698.65,2.19-.6c68.1-19.2,137.17-42.84,200.84-74.57a707.78,707.78,0,0,1-203,75.16m260-205.47c-49,43.71-110,71.07-170.9,93.7-69.66,25.88-141.39,48.29-215.06,59.2-119.93,17.76-256.63-.15-349.08-85.22-48.54-44.66-78.06-104.22-104.45-163.69-22.82-51.45-45.09-103.26-65.27-155.83,90.11,186.81,281.43,316,502.35,316,307.32,0,557.35-250,557.35-557.35s-250-557.35-557.35-557.35-557.35,250-557.35,557.35a557.54,557.54,0,0,0,12.07,115.51C642.06,977,632.17,932.26,627.48,887c-5.81-55.92-7.1-115.88,8.93-170.24l10.83-36.71c61.39-118.6,134.48-239.89,231.42-332.8,45.86-44,99.34-78.9,160.75-96.53,62.58-18,129.23-19,193.47-10.15,67.6,9.31,133.84,28.83,197.95,51.77,61.83,22.12,124,46.56,178.53,83.76,98.09,66.93,141.28,180.38,159.18,293.47,9.08,57.4,11.21,116,11.13,174.06-.11,72.68-2.41,146.13-13.79,218-19.84,125.37-66.73,250.59-163.47,337M648.53,905.42c0-304.08,247.39-551.47,551.47-551.47s551.47,247.39,551.47,551.47S1504.08,1456.89,1200,1456.89,648.53,1209.5,648.53,905.42m1034.54,523.85c164.36-171.52,187.21-451.21,172.19-680.87-4.11-62.75-13-126.2-30.75-186.59a708.56,708.56,0,0,1,88.44,343.61c0,206.92-88.62,393.5-229.88,523.85"/></g></svg>