<svg id="Calque_1" data-name="Calque 1" xmlns="http://www.w3.org/2000/svg" xmlns:xlink="http://www.w3.org/1999/xlink" viewBox="0 0 2400 1800"><defs><style>.cls-1,.cls-10{fill:none;}.cls-2,.cls-9{font-size:46.38px;}.cls-2,.cls-8,.cls-9{fill:#fff;}.cls-2{font-family:Raleway-Regular, Raleway;}.cls-3{letter-spacing:-0.01em;}.cls-4{letter-spacing:-0.01em;}.cls-5{letter-spacing:0em;}.cls-6{letter-spacing:-0.01em;}.cls-7{letter-spacing:0em;}.cls-9{font-family:Raleway-Black, Raleway;}.cls-10{stroke:#fff;stroke-width:3.09px;}.cls-11{letter-spacing:-0.03em;}.cls-12{letter-spacing:-0.01em;}.cls-13{clip-path:url(#clip-path);}.cls-14{clip-path:url(#clip-path-2);}</style><clipPath id="clip-path"><rect class="cls-1" x="696.66" y="244.65" width="1004.62" height="1038.17"/></clipPath><clipPath id="clip-path-2"><rect class="cls-1" x="816.95" y="244.65" width="764.04" height="1038.17"/></clipPath></defs><title>Plan de travail 1</title><rect x="0.5" y="0.5" width="2399" height="1799"/><text class="cls-2" transform="translate(1904.35 613.79)"><tspan class="cls-3">s</tspan><tspan class="cls-4" x="22.17" y="0">y</tspan><tspan class="cls-5" x="46.8" y="0">s</tspan><tspan class="cls-6" x="69.38" y="0">t</tspan><tspan x="84.36" y="0">émique</tspan></text><text class="cls-2" transform="translate(1904.35 669.45)">numérique</text><text class="cls-2" transform="translate(1904.35 725.1)">géom<tspan class="cls-7" x="126.1" y="0">é</tspan><tspan x="153.19" y="0">trique</tspan></text><path class="cls-8" d="M1909,759.1h-3.34v-2.5H1909v-.65a12.36,12.36,0,0,1,.49-3.39,8.91,8.91,0,0,1,1.53-3.06,7.93,7.93,0,0,1,6.52-3.06,11.6,11.6,0,0,1,2.37.23,15.25,15.25,0,0,1,2,.56,8.66,8.66,0,0,1,1.55.72q.65.39,1.07.67l-1.44,2.27a6.51,6.51,0,0,0-2.23-1.18,9.78,9.78,0,0,0-3.15-.49,5,5,0,0,0-2.53.6,5.46,5.46,0,0,0-1.72,1.53,6.45,6.45,0,0,0-1,2.13,9.07,9.07,0,0,0-.32,2.37v.74h12.1v24.16h-3.15V759.1h-9v21.66H1909Zm42.53,21.66h-3.15v-13.5q0-4.31-1.28-6.26a4.36,4.36,0,0,0-3.92-1.95,8,8,0,0,0-2.78.51,9.4,9.4,0,0,0-2.57,1.44,11,11,0,0,0-2.11,2.2,8.63,8.63,0,0,0-1.34,2.76v14.79h-3.15V756.6h2.88v5.47a11.35,11.35,0,0,1,4.24-4.27,11.64,11.64,0,0,1,6-1.62,7.12,7.12,0,0,1,3.39.74,5.78,5.78,0,0,1,2.23,2.09,9.63,9.63,0,0,1,1.21,3.29,23.13,23.13,0,0,1,.37,4.31Zm12.8.46a8.54,8.54,0,0,1-3.18-.58,8,8,0,0,1-2.55-1.6,7.21,7.21,0,0,1-2.3-5.33,6,6,0,0,1,.74-2.92,7.07,7.07,0,0,1,2.09-2.32,10.22,10.22,0,0,1,3.2-1.51,14.75,14.75,0,0,1,4.08-.53,22.35,22.35,0,0,1,3.76.32,16.34,16.34,0,0,1,3.39.93V765.5a7,7,0,0,0-1.81-5.08,6.63,6.63,0,0,0-5-1.88,10.65,10.65,0,0,0-3.8.74,18.34,18.34,0,0,0-3.94,2.13l-1.11-2.09a16.32,16.32,0,0,1,9.09-3.15,9.76,9.76,0,0,1,7.14,2.55,9.43,9.43,0,0,1,2.6,7v10.9q0,1.3,1.16,1.3v2.78a7.52,7.52,0,0,1-1.21.14,2.71,2.71,0,0,1-1.88-.6,2.26,2.26,0,0,1-.72-1.67l-.09-1.9a11,11,0,0,1-4.2,3.34A12.92,12.92,0,0,1,1964.32,781.22Zm.74-2.41a10.9,10.9,0,0,0,4.52-.93,7.39,7.39,0,0,0,3.13-2.46,2.89,2.89,0,0,0,.63-.9,2.31,2.31,0,0,0,.21-.9v-3.94a19.41,19.41,0,0,0-3.27-.93,18.34,18.34,0,0,0-3.46-.32,9.61,9.61,0,0,0-5.43,1.39,4.23,4.23,0,0,0-2.09,3.66,5,5,0,0,0,.44,2.09,5.28,5.28,0,0,0,1.21,1.69,5.64,5.64,0,0,0,1.83,1.14A6.18,6.18,0,0,0,1965.06,778.81Zm18.6-31.91h3.15v28.38a2.9,2.9,0,0,0,.74,2.11,2.77,2.77,0,0,0,2.09.77,6.28,6.28,0,0,0,1.21-.14,7.92,7.92,0,0,0,1.3-.37l.56,2.55a10.37,10.37,0,0,1-2.16.6,12.6,12.6,0,0,1-2.2.23,4.69,4.69,0,0,1-3.43-1.23,4.62,4.62,0,0,1-1.25-3.46Z"/><text class="cls-9" transform="translate(1904.35 892.07)">la perfection </text><text class="cls-9" transform="translate(2210.82 892.07)"> </text><text class="cls-9" transform="translate(1904.35 947.72)">de la forme</text><line class="cls-10" x1="1581.62" y1="604.98" x2="1881.16" y2="604.98"/><polyline class="cls-10" points="1587.88 610.8 1581.62 604.98 1587.88 599.17"/><text class="cls-2" transform="translate(285.6 602.97)">unique</text><text class="cls-2" transform="translate(285.6 658.63)">manuel</text><text class="cls-2" transform="translate(285.6 714.28)">o<tspan class="cls-11" x="27.59" y="0">r</tspan><tspan x="42.67" y="0">ganique</tspan></text><text class="cls-2" transform="translate(285.6 769.94)">originel</text><text class="cls-9" transform="translate(285.6 881.25)">la sensibili<tspan class="cls-12" x="244.46" y="0">t</tspan><tspan x="263.84" y="0">é</tspan></text><text class="cls-9" transform="translate(577.65 881.25)"> </text><text class="cls-9" transform="translate(285.6 936.9)">de la forme</text><g class="cls-13"><path class="cls-8" d="M937.85,1224a34,34,0,0,0-11.47-7.6,44.86,44.86,0,0,0-31.49,0,34.14,34.14,0,0,0-11.4,7.6,31.4,31.4,0,0,0-7,11,37.9,37.9,0,0,0,0,26.24,31.4,31.4,0,0,0,7,11,34.13,34.13,0,0,0,11.4,7.6,44.86,44.86,0,0,0,31.49,0,34,34,0,0,0,11.47-7.6,31.4,31.4,0,0,0,7-11,37.86,37.86,0,0,0,0-26.24,31.4,31.4,0,0,0-7-11m-18.69,34.66a11.38,11.38,0,0,1-17,0q-3.3-3.8-3.3-10.51t3.3-10.52a11.38,11.38,0,0,1,17,0q3.29,3.8,3.3,10.52t-3.3,10.51"/><path class="cls-8" d="M1029,1247.78a31.81,31.81,0,0,0-7.92-4.57,91.83,91.83,0,0,0-12.17-4,34.86,34.86,0,0,1-8-2.72,3.55,3.55,0,0,1-2-3.1,2.8,2.8,0,0,1,1.39-2.6,6.93,6.93,0,0,1,3.55-.82,20.78,20.78,0,0,1,7.86,1.71,65.82,65.82,0,0,1,10.39,5.77l9.12-14.45a35.63,35.63,0,0,0-13.37-7.73,50.53,50.53,0,0,0-14-1.9,33.62,33.62,0,0,0-11,1.71,25.27,25.27,0,0,0-8.62,4.88,22.65,22.65,0,0,0-5.64,7.48,21.73,21.73,0,0,0-2,9.37,15.86,15.86,0,0,0,1.27,6.6,13.55,13.55,0,0,0,4.24,5.07,34.34,34.34,0,0,0,7.73,4.24,110.53,110.53,0,0,0,11.85,4,33.08,33.08,0,0,1,7.67,2.92,3.62,3.62,0,0,1,2,3q0,3.16-5.07,3.17a29,29,0,0,1-10.58-2.28,63.56,63.56,0,0,1-12-6.46l-8.24,14.45a38.75,38.75,0,0,0,14.19,8.3,52.73,52.73,0,0,0,17.11,2.85,40.86,40.86,0,0,0,11.6-1.52,25,25,0,0,0,8.74-4.43,19.47,19.47,0,0,0,5.51-7,21.5,21.5,0,0,0,1.9-9.25,18.84,18.84,0,0,0-1.27-7.16,14.33,14.33,0,0,0-4.24-5.58"/><path class="cls-8" d="M1103.3,1260.32a16.93,16.93,0,0,1-4.06.57,5.28,5.28,0,0,1-3.8-1.33q-1.39-1.33-1.39-4.63v-22h13.06v-18.12H1094v-20.91H1070v20.91h-8.24v18.12H1070v30.54a23,23,0,0,0,1.59,9.13,15.6,15.6,0,0,0,4.31,6,16.82,16.82,0,0,0,6.4,3.3,29.14,29.14,0,0,0,7.73,1,46.43,46.43,0,0,0,11.34-1.46,73.9,73.9,0,0,0,10.84-3.62l-4.31-19a27.81,27.81,0,0,1-4.56,1.58"/><path class="cls-8" d="M1202,1224a34,34,0,0,0-11.47-7.6,44.86,44.86,0,0,0-31.49,0,33.68,33.68,0,0,0-11.41,7.66,31.66,31.66,0,0,0-7,11.28,39.76,39.76,0,0,0-2.34,13.69,34.42,34.42,0,0,0,2.41,12.8,31.86,31.86,0,0,0,7,10.77,33.08,33.08,0,0,0,11.47,7.42,41.94,41.94,0,0,0,15.59,2.72q12.29,0,20.72-5.07a32.18,32.18,0,0,0,12.48-13.05l-20.4-5.83a8.93,8.93,0,0,1-4.62,4.94,16.14,16.14,0,0,1-7.42,1.77,13.75,13.75,0,0,1-7.73-2.34q-3.55-2.35-3.93-7.67h46.76q.25-1.52.44-3.49c.13-1.31.19-2.6.19-3.86A37.18,37.18,0,0,0,1209,1235a31.41,31.41,0,0,0-7-11m-38.59,17a12.36,12.36,0,0,1,3.55-7.6,11.43,11.43,0,0,1,15,0,12.39,12.39,0,0,1,3.55,7.6Z"/><path class="cls-8" d="M1307.17,1222.12a17.26,17.26,0,0,0-6.08-6.15q-4-2.47-10.84-2.47a36.91,36.91,0,0,0-15.14,2.85,22.4,22.4,0,0,0-9.95,8.3v-9.89h-21.67v66.66h24.08V1244a15.82,15.82,0,0,1,5.07-6.84,10.74,10.74,0,0,1,6.46-2.67,7,7,0,0,1,5.13,2.22q2.22,2.22,2.22,7.16v37.51h24.08v-43.85a51.49,51.49,0,0,0-.63-7.61,22.64,22.64,0,0,0-2.73-7.86"/><path class="cls-8" d="M1416.44,1254.81v-65.9h-24.08v35.74a20.31,20.31,0,0,0-8.3-8.24,24.5,24.5,0,0,0-11.85-2.92,26.57,26.57,0,0,0-11.79,2.6,27.68,27.68,0,0,0-9.19,7.23,33.9,33.9,0,0,0-6,11,42.21,42.21,0,0,0-2.15,13.69,40.32,40.32,0,0,0,2.34,14,33.27,33.27,0,0,0,6.53,11,28.94,28.94,0,0,0,9.95,7.16,31,31,0,0,0,12.61,2.54,28.43,28.43,0,0,0,12.42-2.79,20.79,20.79,0,0,0,9.25-8.87l.51,2.41q1.9,9.24,14.2,9.25a53.22,53.22,0,0,0,10.14-1.27v-20.28a4.83,4.83,0,0,1-3.55-1.58q-1-1.33-1-4.75m-24,.76q-4.82,6.85-11.41,6.85a12.58,12.58,0,0,1-9.57-3.8q-3.61-3.79-3.61-10.13a16.84,16.84,0,0,1,1-5.71,16.59,16.59,0,0,1,2.53-4.69,11.46,11.46,0,0,1,3.8-3.17,10.54,10.54,0,0,1,4.88-1.14,11.4,11.4,0,0,1,7.22,2.72,17,17,0,0,1,5.2,7.16Z"/></g><g class="cls-14"><path class="cls-8" d="M1514.45,1224a34.06,34.06,0,0,0-11.47-7.6,44.88,44.88,0,0,0-31.5,0,34.19,34.19,0,0,0-11.41,7.6,31.44,31.44,0,0,0-7,11,37.92,37.92,0,0,0,0,26.24,31.44,31.44,0,0,0,7,11,34.18,34.18,0,0,0,11.41,7.6,44.88,44.88,0,0,0,31.5,0,34,34,0,0,0,11.47-7.6,31.42,31.42,0,0,0,7-11,37.83,37.83,0,0,0,0-26.24,31.42,31.42,0,0,0-7-11m-18.69,34.66a11.38,11.38,0,0,1-17,0q-3.29-3.8-3.3-10.51t3.3-10.52a11.38,11.38,0,0,1,17,0q3.29,3.8,3.29,10.52t-3.29,10.51"/><path class="cls-8" d="M1581,642a379.69,379.69,0,0,0-54.53-196.5c-10-29.3-24.32-56.95-44.6-81.31-24.2-29.08-56.76-49.62-91-65a729.83,729.83,0,0,0-112-40.09c-75.82-20-159.33-23.67-229.07,17.44-20,11.81-38.26,26.38-55,42.72C888,387.13,816.95,506.44,816.95,642c0,128.16,63.44,241.78,160.57,311.12,43.18,49.12,106.65,74.25,172.52,76.95,30,1.22,60.09-2.1,89.55-8.2C1431.21,1001.56,1581,839,1581,642m-760.92,0c0-129.21,65-243.5,164.05-311.92-34.12,36.08-62,79.23-86.72,120.51q-15.7,26.21-29.63,53.4l-.11.24a23,23,0,0,0-2,4.73c-6.72,22.78-12.09,44-13.75,68-2.91,42,3.27,84.49,13.82,125.06,10.71,41.18,26.17,80.93,42.64,120.1,15.51,36.9,30,75.59,52.32,109.06q4.09,6.13,8.54,11.88C878.64,873.84,820.07,764.66,820.07,642m454.59,371.3,1.16-.32c36.19-10.21,72.9-22.76,106.74-39.63a376.2,376.2,0,0,1-107.9,39.95m138.17-109.2c-26,23.23-58.44,37.77-90.82,49.8-37,13.75-75.14,25.66-114.29,31.46-63.74,9.44-136.39-.08-185.52-45.29-25.8-23.74-41.49-55.39-55.51-87-12.13-27.34-24-54.88-34.69-82.81,47.89,99.28,149.56,167.94,267,167.94,163.32,0,296.2-132.87,296.2-296.2s-132.88-296.2-296.2-296.2S902.77,478.71,902.77,642a296.27,296.27,0,0,0,6.41,61.39c-6.73-23.34-12-47.12-14.48-71.17-3.09-29.72-3.78-61.58,4.75-90.48l5.75-19.51c32.63-63,71.47-127.49,123-176.87,24.37-23.36,52.79-41.93,85.43-51.3,33.26-9.55,68.68-10.1,102.82-5.39,35.93,5,71.13,15.32,105.2,27.51,32.86,11.75,65.91,24.74,94.88,44.52,52.13,35.57,75.08,95.86,84.59,156,4.83,30.51,6,61.66,5.91,92.51-.06,38.62-1.28,77.66-7.33,115.87-10.55,66.63-35.47,133.17-86.87,179.07M905.89,642C905.89,480.44,1037.36,349,1199,349S1492,480.44,1492,642,1360.57,935.12,1199,935.12,905.89,803.65,905.89,642m549.8,278.4c87.35-91.16,99.49-239.8,91.51-361.85-2.18-33.35-6.93-67.07-16.34-99.16a376.56,376.56,0,0,1,47,182.61c0,110-47.1,209.12-122.17,278.4"/></g><line class="cls-10" x1="452.31" y1="606.53" x2="848.82" y2="606.53"/><polyline class="cls-10" points="842.57 600.71 848.82 606.53 842.57 612.35"/></svg>