<svg id="Layer_1" data-name="Layer 1" xmlns="http://www.w3.org/2000/svg" viewBox="0 0 2400 1800"><defs><style>.cls-1{fill:#f2f2f2;}.cls-10,.cls-12,.cls-2,.cls-9{fill:none;}.cls-2{stroke:#000;stroke-width:1.99px;}.cls-10,.cls-11,.cls-12,.cls-13,.cls-2,.cls-9{stroke-miterlimit:10;}.cls-3{fill:#231f20;}.cls-4{fill:#f1f1f2;}.cls-5{fill:#2b2876;}.cls-13,.cls-6{fill:#b1d235;}.cls-7{fill:#168b44;}.cls-8{fill:#f6901e;}.cls-9{stroke:#0097d6;}.cls-10,.cls-11,.cls-12,.cls-13,.cls-9{stroke-width:4.97px;}.cls-10,.cls-11{stroke:#7f1416;}.cls-11{fill:#7f1416;}.cls-12,.cls-13{stroke:#b1d235;}.cls-14{font-size:21.75px;font-family:ManifontGroteskBold, Manifont Grotesk;}.cls-14,.cls-20{fill:#fff;}.cls-14,.cls-19{font-weight:700;}.cls-15{fill:#d0d2d3;}.cls-16{fill:#bbbdbf;}.cls-17{fill:#929497;}.cls-18{fill:#808184;}.cls-19{font-size:55.6px;font-family:Raleway-Bold, Raleway;}</style></defs><title>percolaris</title><rect class="cls-1" y="0.24" width="2400" height="1799.76"/><line class="cls-2" x1="3807.2" y1="75.55" x2="2036.48" y2="75.55"/><line class="cls-2" x1="3807.2" y1="149.21" x2="1152.59" y2="149.21"/><line class="cls-2" x1="3807.2" y1="222.87" x2="2036.48" y2="222.87"/><line class="cls-2" x1="3807.2" y1="296.52" x2="268.71" y2="296.52"/><line class="cls-2" x1="3807.2" y1="370.18" x2="2036.48" y2="370.18"/><line class="cls-2" x1="3807.2" y1="443.84" x2="1152.59" y2="443.84"/><line class="cls-2" x1="3807.2" y1="517.5" x2="2036.48" y2="517.5"/><line class="cls-2" x1="3807.2" y1="591.16" x2="268.15" y2="591.16"/><line class="cls-2" x1="3807.2" y1="664.81" x2="2036.48" y2="664.81"/><line class="cls-2" x1="3807.2" y1="738.47" x2="1152.59" y2="738.47"/><line class="cls-2" x1="3807.2" y1="812.13" x2="2036.48" y2="812.13"/><line class="cls-2" x1="3807.2" y1="885.79" x2="268.71" y2="885.79"/><line class="cls-2" x1="3807.2" y1="959.44" x2="2036.48" y2="959.44"/><line class="cls-2" x1="3807.2" y1="1033.1" x2="1152.59" y2="1033.1"/><line class="cls-2" x1="3807.2" y1="1106.76" x2="2036.48" y2="1106.76"/><line class="cls-2" x1="2331.12" y1="-1.52" x2="2331.12" y2="1180.42"/><line class="cls-2" x1="2257.46" y1="-1.52" x2="2257.46" y2="1180.42"/><line class="cls-2" x1="2183.8" y1="-1.52" x2="2183.8" y2="1180.42"/><line class="cls-2" x1="2110.14" y1="-1.52" x2="2110.14" y2="1180.42"/><line class="cls-2" x1="2036.49" y1="-1.52" x2="2036.49" y2="1180.42"/><line class="cls-2" x1="1889.17" y1="-1.52" x2="1889.17" y2="1180.42"/><line class="cls-2" x1="1741.86" y1="-1.52" x2="1741.86" y2="1180.42"/><line class="cls-2" x1="1594.54" y1="-1.52" x2="1594.54" y2="1180.42"/><line class="cls-2" x1="1447.23" y1="-1.52" x2="1447.23" y2="1180.42"/><line class="cls-2" x1="1299.91" y1="-1.52" x2="1299.91" y2="1180.42"/><line class="cls-2" x1="1152.6" y1="-1.52" x2="1152.6" y2="1180.42"/><line class="cls-2" x1="268.71" y1="-1.52" x2="268.71" y2="1180.42"/><line class="cls-2" x1="857.97" y1="-1.52" x2="857.97" y2="1180.42"/><line class="cls-2" x1="563.34" y1="-1.52" x2="563.34" y2="1180.42"/><path class="cls-3" d="M-618,1180.42V1477.7H3807.2V1180.42Zm2178.24,104.29,9.53,6.35-10.85,16.54-6.79-2.73Zm-143.32,12,3.43-2.06,5.81,1.16,2.38,3.21-1.09,5.47-3.43,2.06-5.81-1.16-2.38-3.21Zm-108.55,0,3.43-2.06,5.81,1.16,2.38,3.21-1.09,5.47-3.43,2.06-5.81-1.16-2.38-3.21Zm-548.22,0,3.43-2.06,5.81,1.16,2.38,3.21-1.09,5.47-3.43,2.06-5.81-1.16-2.38-3.21Zm-52.58-12,9.53,6.35-10.85,16.54-6.79-2.73Zm-415.37,34.48h-7.31l-3,15.27-.37,4.16,2.78,1.63,3.16-.44,1.21,8.36-9.63,1.87-8.17-3.22-.77-8.95,3.7-18.69h-5.48v-8.78h7.09l2.22-11.89,10.78,2-1.91,9.86h5.7Zm36.35,11.26-11.77,2.39h-11.3l1.48,6.06,5.83,2,4.69-1.33,3-3.19,6.47,6-4.65,4.95-12.06,3-12.55-4.93-2.89-15.77,9-15.78,14.42-4.93,11,2.94,4.54,9.77ZM347.4,1338l4.93,2.91,4.81-1.52,3.41-5,7.81,5.39-5.79,7.27-12,3.23-12.16-4.93-2.52-15.77,8.59-15.78,14.07-4.93,11.82,3.76,2.37,12.11-11.11.92-.44-5.28-4.45-2.1-6,2.91-3.53,8.39Zm62.34,11.93L399,1348l4.28-22.38-.34-5.23-4.31-1.85-5.5,2.37-3.53,7.11-4.12,21.9L374.78,1348h0L385,1294.53l10.69,2-3.65,18.5,5.27-4.62,6.17-1.4,10.29,4.63.65,11.63Zm43.12,0-10.67-2.09,4.26-22.35-.36-5.23-4.31-1.85-5.5,2.37-3.53,7.11-4.15,22-10.67-2.06h0l7.35-38.55,10,1.92-.82,4.46,5.76-5.2,6.43-1.58,10.29,4.63.63,11.59Zm39.14-4.52-14.59,4.93-12.69-4.93L462,1329.61l8.83-15.78,14.59-4.93,12.68,4.93,2.75,15.78Zm33.91-10.76H506v-10H525.9Zm39.37-4.18-11.77,2.39H542.2l1.48,6.06,5.83,2,4.69-1.33,3-3.19,6.47,6-4.65,4.95-12.06,3-12.55-4.93-2.89-15.77,9-15.78,14.42-4.93,11,2.94,4.54,9.77Zm20.07-7.67,2,1,10.08,1.89,6.14,3.19,1.91,8.55-6.59,9.69L586,1350.31l-11.18-3.53-2.57-6.45,8.72-4,1.83,3.95,5.1,1.4,4.81-.77,2.94-3.14-.47-2.08-1.94-1-10.32-2-6.07-3.6-1.38-7.6,6.68-9.61,12-2.89,10.83,3.77,1.68,6.91-9,3-1.4-4-4.18-1-4.5.78-2.58,2.75Zm51.09-3.59h-7.31l-3,15.27-.37,4.16,2.78,1.63,3.16-.44,1.2,8.36L623.3,1350l-8.17-3.22-.77-8.95,3.7-18.69h-5.48v-8.78h7.09l2.22-11.89,10.78,2-1.91,9.86h5.7Zm36.61,30.72L662.32,1348l4.28-22.38-.34-5.23-4.31-1.85-5.5,2.37-3.53,7.11-4.12,21.9L638.1,1348h0l10.25-53.42,10.69,2-3.65,18.5,5.27-4.62,6.17-1.4,10.29,4.63.65,11.63Zm42.86-19.46-11.77,2.39h-11.3l1.48,6.06,5.83,2,4.69-1.33,3-3.19,6.47,6-4.65,4.95-12.06,3L685,1345.39l-2.89-15.77,9-15.78,14.42-4.93,11,2.94,4.54,9.77ZM749,1319.19h-7.31l-3,15.27-.37,4.16,2.78,1.63,3.16-.44,1.2,8.36-9.63,1.87-8.17-3.22-.77-8.95,3.7-18.69H725.2v-8.78h7.09l2.22-11.89,10.78,2-1.91,9.86h5.7Zm12.49,30.72L750.82,1348l7.38-38.69,10.63,2.22Zm39.8,14.4-10.7-2.06h0l3.2-16.59-4.95,3.59-5.07.94L772.7,1345l-2.14-15.5,7.92-15.49,12.94-5.21,5.66,1.45,3.52,4.27.95-5.18,10,1.9Zm46.06-14.4-10-1.92.83-4.44-5.82,5.19-6.45,1.58-10.29-4.63-.58-11.63,4.74-24.76,10.68,2.06-4.26,22.39.32,5.24,4.27,1.85,5.5-2.37,3.53-7.12,4.2-22.06,10.69,2Zm42.86-19.46-11.77,2.39h-11.3l1.48,6.06,5.83,2,4.69-1.33,3-3.19,6.47,6-4.65,4.95-12.06,3-12.55-4.93-2.89-15.77,9-15.78,14.42-4.93,11,2.94,4.54,9.77Zm297.28,19.46-10.67-2.09,4.27-22.35-.36-5.23-4.31-1.85-5.5,2.37-3.53,7.11-4.15,22-10.67-2.06h0l7.35-38.55,10,1.92-.82,4.46,5.76-5.2,6.43-1.58,10.29,4.63.63,11.59Zm40,0-10.23-1.94.44-2.85-5.82,4.08-6.38,1.13-8.61-2.82-2.24-8.24,5.84-9.11,11.93-3.62,8.74-1.8.23-.91-.62-3.82-4.5-1.9-5.11,1.83-2.8,4-7.27-5.08,6.56-7.38,11-2.52,11.51,3.77,2,12.87Zm35.59-30.72h-7.31l-3,15.27-.37,4.16,2.78,1.63,3.16-.44,1.2,8.36L1250,1350l-8.17-3.22-.77-8.95,3.7-18.69h-5.48v-8.78h7.09l2.22-11.89,10.78,2-1.91,9.86h5.7Zm30.72.91-3-.46-7.76,3.26-4,8.85-3.45,18.15-10.71-2h0l7.36-38.56,10,1.92-1.11,5.85,5.33-6,6.78-1.94,3.73.43,3.35,1.85-4.29,9.75ZM1299,1348l7.38-38.69,10.63,2.22-7.31,38.4Zm60.33,1.92-10.71-1.92,5.49-28.8h-16.08l-6.21,32.11-5.3,9.85-10.44,3.86-5.74-.89,2.5-9.51,2.42.45,4.48-2.46,1.95-5.45,5.46-28h-5.37v-8.79h6.89l.3-2,4.91-10.26,9.93-4,5,.38,3,.72-2.61,9.28-4.06-.75-3.18,1-1.87,3.51-.31,2.1h27.13Zm5.71-43.31-5.81-1.16-2.38-3.21,1.09-5.47,3.43-2.06,5.81,1.16,2.38,3.21-1.09,5.47Zm15,31.39,4.93,2.91,4.81-1.52,3.41-5,7.81,5.39-5.79,7.27-12,3.23-12.16-4.93-2.52-15.77,8.59-15.78,14.07-4.93,11.82,3.76,2.37,12.11-11.11.92-.44-5.28-4.45-2.1-6,2.91-3.53,8.39Zm27.5,10,7.38-38.69,10.63,2.22-7.31,38.4Zm50.8,1.92-10.23-1.94.44-2.85-5.82,4.08-6.38,1.13-8.61-2.82-2.24-8.24,5.84-9.11,11.93-3.62,8.74-1.8.23-.91-.62-3.82-4.5-1.9-5.11,1.83-2.8,4-7.27-5.08,6.56-7.38,11-2.52,11.51,3.77,2,12.87Zm8.9-2,10.21-53.33,10.71,2L1478,1349.91Zm29.94,2-10.71-1.92,7.38-38.69,10.63,2.22Zm9.14-45.37-3.43,2.06-5.81-1.16-2.38-3.21,1.09-5.47,3.43-2.06,5.81,1.16,2.38,3.21Zm25.85,14.65h-7.31l-3,15.27-.37,4.16,2.78,1.63,3.16-.44,1.2,8.36-9.63,1.87-8.17-3.22-.77-8.95,3.7-18.69h-5.48v-8.78h7.09l2.22-11.89,10.78,2-1.91,9.86h5.7Zm36.35,11.26-11.77,2.39h-11.3l1.48,6.06,5.83,2,4.69-1.33,3-3.19,6.47,6-4.65,4.95-12.06,3-12.55-4.93-2.89-15.77,9-15.78,14.42-4.93,11,2.94,4.54,9.77ZM2072.06,1345l-13.13,5.21-4.73-.93-3.49-3.59-3.58,18.65-10.67-2,10.16-53,10,1.91-.61,3.28,5.08-4.28,6.21-1.45,10.93,5.21,1.95,15.5Zm38.8-24.86-3-.46-7.76,3.26-4,8.85-3.45,18.15-10.71-2h0l7.36-38.56,10,1.92-1.11,5.85,5.32-6,6.78-1.94,3.73.43,3.35,1.85-4.29,9.75Zm21.43,30.22-12.69-4.93-2.75-15.77,8.83-15.78,14.59-4.93,12.68,4.93,2.75,15.78-8.82,15.77Zm54.48-31.13h-8.52L2172,1351.3l-5.3,9.85L2156.3,1365l-5.74-.89,2.5-9.51h0l2.42.45,4.48-2.46,1.95-5.45,5.46-28H2162v-8.79h6.89l.3-2,4.91-10.26,9.93-4,5,.38,3,.72-2.61,9.28-4.06-.75-3.18,1-1.87,3.51-.31,2.1h6.82Zm33.82,30.72-10.23-1.94.44-2.85-5.82,4.08-6.38,1.13-8.61-2.82-2.24-8.24,5.84-9.11,11.93-3.62,8.74-1.8.23-.91-.62-3.82-4.5-1.9-5.11,1.83-2.8,4-7.27-5.08,6.56-7.38,11-2.52,11.51,3.77,2,12.87Zm43.77,0-10.67-2.09,4.27-22.35-.36-5.23-4.31-1.85-5.5,2.37-3.53,7.11-4.15,22-10.67-2.06h0l7.35-38.55,10,1.92-.82,4.46,5.76-5.2,6.43-1.58,10.29,4.63.63,11.59Zm40,0-10.23-1.94.44-2.85-5.82,4.08-6.38,1.13-8.61-2.82-2.24-8.24,5.84-9.11,11.93-3.62,8.74-1.8.23-.91-.62-3.82-4.5-1.9-5.11,1.83-2.8,4-7.27-5.08,6.56-7.38,11-2.52,11.51,3.77,2,12.87Zm35.59-30.72h-7.31l-3,15.27-.37,4.16,2.78,1.63,3.16-.44,1.2,8.36-9.63,1.87-8.17-3.22-.77-8.95,3.7-18.69h-5.48v-8.78h7.09l2.22-11.89,10.78,2-1.91,9.86h5.7Zm12.49,30.72-10.71-1.92,7.38-38.69,10.63,2.22Zm5.71-43.31-5.81-1.16-2.38-3.21,1.09-5.47,3.43-2.06,5.81,1.16,2.38,3.21-1.09,5.47Zm33.48,38.79-14.59,4.93-12.69-4.93-2.75-15.77,8.83-15.78,14.59-4.93,12.68,4.93,2.75,15.78Zm46.22,4.52-10.67-2.09,4.27-22.35-.36-5.23-4.31-1.85-5.5,2.37-3.53,7.11-4.15,22-10.67-2.06h0l7.35-38.55,10,1.92-.82,4.46,5.76-5.2,6.43-1.58,10.29,4.63.63,11.59Zm495.55-27.13,2,1,10.08,1.89,6.14,3.19,1.91,8.55-6.59,9.69-12.91,3.19-11.18-3.53-2.57-6.45,8.72-4,1.83,3.95,5.1,1.4,4.81-.77,2.94-3.14-.47-2.08-1.94-1-10.32-2-6.07-3.6-1.38-7.6,6.68-9.61,12-2.89,10.83,3.77,1.68,6.91-9,3-1.4-4-4.18-1-4.5.78-2.58,2.75Zm36.82,15.21,4.93,2.91,4.81-1.52,3.41-5,7.81,5.39-5.79,7.27-12,3.23-12.16-4.93-2.52-15.77,8.59-15.78,14.07-4.93,11.82,3.76,2.37,12.11-11.11.92-.44-5.28-4.45-2.1-6,2.91-3.53,8.39Zm38.21,11.93-10.71-1.92,7.38-38.69,10.63,2.22Zm5.71-43.31-5.81-1.16-2.38-3.21,1.09-5.47,3.43-2.06,5.81,1.16,2.38,3.21-1.09,5.47Zm37.2,23.85-11.77,2.39h-11.3l1.48,6.06,5.83,2,4.69-1.33,3-3.19,6.47,6-4.65,4.95-12.06,3-12.55-4.93-2.89-15.77,9-15.78,14.42-4.93,11,2.94,4.54,9.77Zm41.32,19.46-10.67-2.09,4.27-22.35-.36-5.23-4.31-1.85-5.5,2.37-3.53,7.11-4.15,22-10.67-2.06h0l7.35-38.55,10,1.92-.82,4.46,5.76-5.2,6.43-1.58,10.29,4.63.63,11.59Zm20.66-11.93,4.93,2.91,4.81-1.52,3.41-5,7.81,5.39-5.79,7.27-12,3.23-12.16-4.93-2.52-15.77,8.59-15.78,14.07-4.93,11.82,3.76,2.37,12.11-11.11.92-.44-5.28-4.45-2.1-6,2.91-3.53,8.39Zm62.07-7.54-11.77,2.39h-11.3l1.48,6.06,5.83,2,4.69-1.33,3-3.19,6.47,6-4.65,4.95-12.06,3-12.55-4.93-2.89-15.77,9-15.78,14.42-4.93,11,2.94,4.54,9.77Zm9.07-5.87h19.94v10H3184.5Zm55.83-20.06-4.06-.75-3.18,1-1.87,3.51-.31,2.1h6.82v8.79h-8.52L3223,1351.3l-5.3,9.85-10.44,3.86-5.74-.89,2.5-9.51,2.42.45,4.48-2.46,1.95-5.45,5.46-28H3213v-8.79h6.89l.3-2,4.91-10.26,9.93-4,5,.38,3,.72Zm18.95,48.84-8.09,3.5-6.88-15.77.18-18.87,7.14-18.89,13-15.77,5.81,4.82-8.17,11.35-6.14,18.49-1.08,18.48Zm35.39-33.26-3-.46-7.76,3.26-4,8.85-3.45,18.15-10.71-2h0l7.36-38.56,10,1.92-1.11,5.85,5.32-6,6.78-1.94,3.73.43,3.35,1.85-4.29,9.75Zm29,2.11-7.14,18.89-13,15.77-5.81-4.82,8.17-11.35,6.14-18.49,1.08-18.48-4.18-12.66,8.09-3.5,6.88,15.77Zm12.83,27.7-10.71-1.92,7.38-38.69,10.63,2.22Zm5.71-43.31-5.81-1.16-2.38-3.21,1.09-5.47,3.43-2.06,5.81,1.16,2.38,3.21-1.09,5.47Zm15,31.39,4.93,2.91,4.81-1.52,3.41-5,7.81,5.39-5.79,7.27-12,3.23-12.16-4.93-2.51-15.77,8.59-15.78,14.07-4.93,11.82,3.76,2.37,12.11-11.11.92-.44-5.28-4.45-2.1-6,2.91-3.53,8.39Zm54.15-18.8H3404l-3,15.27-.37,4.16,2.78,1.63,3.16-.44,1.2,8.36-9.63,1.87-8.17-3.22-.77-8.95,3.7-18.69h-5.48v-8.78h7.09l2.22-11.89,10.78,2-1.91,9.86h5.7Zm12.49,30.72-10.71-1.92,7.38-38.69,10.63,2.22Zm5.71-43.31-5.81-1.16-2.38-3.21,1.09-5.47,3.43-2.06,5.81,1.16,2.38,3.21-1.09,5.47Zm33.48,38.79-14.59,4.93-12.69-4.93-2.75-15.77,8.83-15.78,14.59-4.93,12.68,4.93,2.75,15.78Zm46.22,4.52-10.67-2.09,4.27-22.35-.36-5.23-4.31-1.85-5.5,2.37-3.53,7.11-4.15,22-10.67-2.06h0l7.35-38.55,10,1.92-.82,4.46,5.76-5.2,6.43-1.58,10.29,4.63.63,11.59Z"/><polygon class="cls-3" points="552.82 1318.33 547.4 1320.14 543.85 1325.17 554.17 1325.17 557.57 1324.22 558.76 1321.64 556.86 1319.14 552.82 1318.33"/><polygon class="cls-3" points="316.31 1318.33 310.9 1320.14 307.35 1325.17 317.67 1325.17 321.07 1324.22 322.26 1321.64 320.36 1319.14 316.31 1318.33"/><polygon class="cls-3" points="703.46 1318.33 698.04 1320.14 694.49 1325.17 704.81 1325.17 708.21 1324.22 709.4 1321.64 707.5 1319.14 703.46 1318.33"/><polygon class="cls-3" points="483.59 1318.32 476.99 1321.23 473.26 1329.62 473.78 1338 479.2 1340.91 485.81 1338 489.53 1329.62 489.01 1321.23 483.59 1318.32"/><polygon class="cls-3" points="791.95 1318.17 785.81 1320.93 781.86 1329.47 782.42 1337.99 787.66 1340.76 793.98 1337.99 797.75 1329.47 797.08 1320.93 791.95 1318.17"/><polygon class="cls-3" points="877.79 1318.33 872.38 1320.14 868.83 1325.17 879.15 1325.17 882.55 1324.22 883.74 1321.64 881.84 1319.14 877.79 1318.33"/><polygon class="cls-3" points="1439.02 1335.08 1436.93 1338.51 1437.47 1340.85 1440.62 1341.9 1445.86 1340.33 1449.81 1336.79 1450.79 1331.5 1443.48 1333.46 1439.02 1335.08"/><polygon class="cls-3" points="1208.19 1335.08 1206.1 1338.51 1206.65 1340.85 1209.79 1341.9 1215.03 1340.33 1218.98 1336.79 1219.96 1331.5 1212.65 1333.46 1208.19 1335.08"/><polygon class="cls-3" points="1556.12 1318.33 1550.71 1320.14 1547.15 1325.17 1557.48 1325.17 1560.88 1324.22 1562.07 1321.64 1560.17 1319.14 1556.12 1318.33"/><polygon class="cls-3" points="2201.22 1335.07 2199.13 1338.51 2199.67 1340.85 2202.82 1341.89 2208.06 1340.32 2212.01 1336.78 2212.98 1331.5 2205.68 1333.46 2201.22 1335.07"/><polygon class="cls-3" points="2138.48 1318.32 2131.88 1321.22 2128.15 1329.61 2128.66 1338 2134.09 1340.91 2140.7 1338 2144.42 1329.61 2143.9 1321.22 2138.48 1318.32"/><polygon class="cls-3" points="2063.14 1318.18 2056.96 1320.94 2052.98 1329.48 2053.49 1338 2058.7 1340.77 2065.06 1338 2068.86 1329.48 2068.23 1320.94 2063.14 1318.18"/><polygon class="cls-3" points="2383.26 1318.32 2376.66 1321.22 2372.93 1329.61 2373.45 1338 2378.88 1340.91 2385.48 1338 2389.2 1329.61 2388.68 1321.22 2383.26 1318.32"/><polygon class="cls-3" points="2285.03 1335.07 2282.94 1338.51 2283.48 1340.85 2286.63 1341.89 2291.87 1340.32 2295.82 1336.78 2296.8 1331.5 2289.49 1333.46 2285.03 1335.07"/><polygon class="cls-3" points="892.16 817.76 893.86 816.93 894.57 814.36 893.93 811.81 892.2 810.98 890.46 811.81 889.8 814.36 890.48 816.93 892.16 817.76"/><polygon class="cls-3" points="905.15 817.72 906.96 816.85 907.58 814.32 906.96 811.81 905.15 810.92 903.33 811.81 902.71 814.32 903.33 816.85 905.15 817.72"/><polygon class="cls-3" points="785.16 1042.02 783.47 1042.85 782.76 1045.42 783.42 1047.99 785.14 1048.82 786.89 1047.99 787.55 1045.42 786.87 1042.85 785.16 1042.02"/><polygon class="cls-3" points="906.7 835.32 905.17 835.88 904.4 837.41 909 837.41 908.32 835.88 906.7 835.32"/><polygon class="cls-3" points="808.21 1048.14 808.52 1048.84 809.53 1049.15 811.01 1048.7 811.96 1047.62 811.98 1046.04 808.64 1047.1 808.21 1048.14"/><polygon class="cls-3" points="772.92 1066.45 771.38 1067.01 770.61 1068.55 775.22 1068.55 774.53 1067.01 772.92 1066.45"/><polygon class="cls-3" points="758.93 1038.36 756.32 1038.36 756.32 1043.02 758.97 1043.02 761.27 1042.23 761.83 1040.68 761.17 1039.04 758.93 1038.36"/><polygon class="cls-3" points="822.58 1042.06 821.04 1042.62 820.28 1044.15 824.88 1044.15 824.2 1042.62 822.58 1042.06"/><path class="cls-3" d="M939.85,847V826.39H949V797.27H855.36V847h0v36.47H747.67v198.75h63v-24.69h32.64v-26.09h12v38.3H970V847ZM760.54,1075.62h-3.15l-5.84-15,3.22-1.18,4.26,11.68,4.35-11.68,3.13,1.24Zm5.09-26.17-3,2-3.42-5.29h-2.92v5.1h-3.55v-16h6.32l4.38,1.2,2,4.13-1.62,4-1.37.46Zm7.93-6.87-1.47-.58-1.43.56-.62,1.18-2.59-1.35,1.66-2.38,3.15-.77,3.67,1.14,1.35,3.65v7.2h-3.19V1050l-1.51,1.33-1.85.33-2.76-.85-1.16-2.47,1.24-2.74,5.91-1.64v-.27Zm5.09,27.74-.16.49h-7.93l.81,1.85,1.87.6,1.33-.41.73-1,2.34,1.76-1.16,1.53-3.46.89-4-1.47-1.78-4.75,1.78-4.75,4-1.47,3.94,1.39,1.72,4.35Zm1.64-5.8h3.13v1.68l1.45-1.64,1.82-.48,3.38,1.39.85,3.5v7.09h-3.34v-7l-.41-1.58-1.39-.56-1.51.73-.64,2.14v6.28h-3.34Zm9.11-14.43-3.63,1.56-1.47-.27-1.26-1.14v5.43h-3.34v-16h3.11V1041l1.29-1.41,1.78-.44,3.59,1.56,1.49,4.67Zm11.31,25-3.5,1-3.36-1.1-1.08-1.8,2.34-1.31.66,1.18,1.49.41,1.29-.23.6-.93-.29-.64-.62-.29-2.78-.62-2-1.08-.87-2.28,1.43-2.88,3.23-.87,3.32,1,.71,1.37-2.3,1.51-.66-1-1.16-.29-1.2.25-.5.81.21.52.64.31,2.7.56,2,1,1.08,2.57Zm2.51-23.9h-3.34v-7l-.41-1.58-1.39-.56-1.51.73-.64,2.14v6.24H792.6v-16h3.32v5.87l1.31-1.43,1.76-.41,3.38,1.39.85,3.5Zm12.08,0h-3.19V1050l-1.51,1.33-1.85.33-2.76-.85-1.16-2.47,1.24-2.74L812,1044v-.27l-.39-1.14-1.47-.58-1.43.56-.62,1.18-2.59-1.35,1.66-2.38,3.15-.77,3.67,1.14,1.35,3.65Zm13-5.3-.16.49h-7.93l.81,1.85,1.87.6,1.33-.41.73-1,2.34,1.76-1.16,1.53-3.46.89-4-1.47-1.78-4.75,1.78-4.75,4-1.47,3.94,1.39,1.72,4.35Zm-9.77-9.84,1-1h1.5l1,1v1.47l-1,1h-1.5l-1-1Zm5,0,1-1h1.5l1,1v1.47l-1,1h-1.5l-1-1Zm9.87,15.14h-3.35v-16h3.35Zm21.93-24.55H752.42V888.22H855.36ZM931.3,809.57l4-1.47,3.42,1,1.49,2.49-2.82,1.35-.73-1.51-1.37-.48-1.64.89-.58,2.51.56,2.53,1.66.87,1.35-.46.73-1.49,2.82,1.37-1.47,2.43-3.42,1-3.94-1.47-1.68-4.75Zm-5.74-5.73h1.5l1,1v1.47l-1,1h-1.5l-1-1v-1.47Zm2.4,4.71v11.54h-3.33V808.55ZM925.42,833l2-.5,2.67,1,1,3v7.94h-3.34v-7.05l-.31-1.51-1.1-.58-1.41.7-.62,2v6.47h-3.32v-7.05l-.39-1.62-1-.48-1.47.87-.52,2.3v6h-3.34V832.94h3.13v1.66l1.39-1.64,1.95-.46,2.14.56,1.14,1.68Zm-10.87-24.63L917.4,816l2.91-7.64,2.88,1.11-4.3,10.61H916l-4.33-10.63Zm-9.41,33.15,1.87.6,1.33-.41.73-1,2.34,1.76L910.25,844l-3.46.89-4-1.47L901,838.72l1.78-4.75,4-1.47,3.94,1.39,1.72,4.35v.94l-.16.49h-7.93ZM901,809.57l4.11-1.47,4.09,1.47,1.74,4.75-1.74,4.75-4.09,1.47L901,819.07l-1.74-4.75Zm-1.52,27.86v7.05h-3.34v-7l-.41-1.58-1.39-.56-1.51.73-.64,2.14v6.24H888.9v-16h3.32v5.87l1.31-1.43,1.76-.41,3.38,1.39Zm-11.59-27.72,3.65-1.58,1.47.29,1.27,1.08v-5.39h3.34v16h-3.11v-1.35l-1.29,1.41-1.78.44L887.89,819l-1.49-4.67Zm-6,34.74-1.83.48-3.38-1.39-.85-3.5v-7.09h3.34v7l.41,1.58,1.39.56,1.51-.73.64-2.14v-6.28h3.34v11.55h-3.13v-1.68Zm-7.74-35.9h3.34v7l.41,1.58,1.39.56,1.51-.73.64-2.14v-6.28h3.34V820.1h-3.13v-1.68l-1.45,1.64-1.83.48L875,819.15l-.85-3.5Zm-13.7-4.43H864v12.76h8.39v3.22H860.45Zm0,24.4h4.91l6.59,1.93,2.07,6-1.95,6-6.1,2h-5.54ZM965.25,1065H860.11v-33.55H965.25Zm0-38.3H860.11V888.22H965.25Zm0-143.22H860.11V851.74H965.25Z"/><polygon class="cls-3" points="870.34 836.44 868.87 832.48 865.37 831.73 864 831.73 864 841.29 865.43 841.29 869.06 840.33 870.34 836.44"/><polygon class="cls-3" points="770.17 1048.14 770.49 1048.84 771.5 1049.15 772.98 1048.7 773.93 1047.62 773.95 1046.04 770.61 1047.1 770.17 1048.14"/><rect class="cls-3" x="880.34" y="909.26" width="64.69" height="93.81"/><path class="cls-3" d="M1485.62,922.53v151.29h-155v25.25h-19.55v25.25h-89.95v-55h.06V922.53H1297v-39h.2V833.3h122.95v29.78h-26.51v20.47h56.18v39ZM1480.76,1069V927.39h-30.92V1069Zm-35.78-.21V927.39h-143.1v141.37Zm0-146.23V888.4h-143.1v34.13Zm-33.26-65.89V840.31h-3.43v16.34Zm-5.2-6.39-1.76-4.45-4-1.42-4.13,1.51-1.82,4.86,1.82,4.85,4.13,1.51,3.54-.91,1.19-1.57-2.4-1.8-.74,1-1.36.42-1.91-.62-.82-1.89h8.11l.17-.5Zm-13.33,6.4V844.84h-3.41v6.43l-.66,2.18-1.55.74-1.42-.57-.42-1.61v-7.17h-3.42v7.25l.87,3.58,3.46,1.42,1.87-.49,1.48-1.67v1.72Zm-7.41,24.92V865.25h-3.41v5.51l-1.29-1.1-1.51-.29-3.73,1.61-1.57,4.75,1.53,4.77,3.67,1.59,1.82-.45,1.31-1.44v1.38ZM1380,856.64v-7.27l-.87-3.56-3.46-1.42-1.89.49-1.46,1.67v-1.69h-3.18v11.79h3.39v-6.43l.66-2.18,1.55-.74,1.42.57.42,1.61v7.17Zm-7.33,24.94v-7.27l-.87-3.56-3.46-1.42-1.89.49-1.46,1.67V869.8h-3.18v11.79h3.39v-6.43l.66-2.18,1.55-.74,1.42.57.42,1.61v7.17Zm-6-24.95v-7.36l-1.38-3.73-3.75-1.17-3.22.78-1.7,2.44,2.65,1.38.64-1.21,1.46-.57,1.51.59.4,1.17v.27l-6,1.67-1.27,2.8,1.19,2.53,2.82.87,1.89-.34,1.55-1.36v1.23Zm-7.33,24.94v-7.36l-1.38-3.73-3.75-1.17-3.22.78-1.69,2.44,2.65,1.38.64-1.21,1.46-.57,1.5.59.4,1.17v.28l-6,1.67-1.27,2.8,1.19,2.53,2.82.87,1.89-.34,1.55-1.36v1.23Zm-5.16-24.94v-8.12l-1-3.08-2.74-1.06-2,.51-1.53,1.78-1.17-1.72-2.18-.57-2,.47-1.42,1.67v-1.69h-3.2v11.81h3.41v-6.1l.53-2.35,1.5-.89,1,.49.4,1.65v7.21h3.39V850l.64-2,1.44-.72,1.13.59.32,1.55v7.21Zm-7.1,16.12.81-2.84-2.14-.59-2,.59-1.27,1.91v-2h-3.2v11.79h3.39v-5.22l.74-2.78,2.25-1Zm-10.07,0,.81-2.84-2.14-.59-2,.59-1.27,1.91v-2h-3.2v11.79h3.39v-5.22l.74-2.78,2.25-1Zm-2.53-16.12v-8.12l-1-3.08-2.73-1.06-2,.51-1.53,1.78L1326,845l-2.18-.57-2,.47-1.42,1.67v-1.69h-3.2v11.81h3.41v-6.1l.53-2.35,1.51-.89,1,.49.4,1.65v7.21h3.39V850l.64-2,1.44-.72,1.13.59.32,1.55v7.21Zm-7,18.55-1.76-4.45-4-1.42-4.13,1.51-1.82,4.85,1.82,4.86,4.13,1.51,3.54-.91,1.19-1.57-2.4-1.8-.74,1-1.36.42-1.91-.62-.83-1.89h8.11l.17-.5Zm-2.74,211.05-1.76-4.45-4-1.42-4.13,1.51-1.82,4.85,1.82,4.86,4.13,1.51,3.54-.91,1.19-1.57-2.4-1.8-.74,1-1.36.42-1.91-.62-.83-1.89h8.11l.17-.5Zm-10-229.6v-3.29h-8.55V850h7.19v-3.29h-7.19V843.6h8.33v-3.29h-12v16.34Zm-.45,11.9v-3.29h-11.73v16.34h3.63v-6.69h6.29V871.6h-6.29v-3.06Zm-2.85,224.1v-7.27l-.87-3.56-3.46-1.42-1.89.49-1.46,1.67v-1.69h-3.18v11.79h3.39v-6.43l.66-2.18,1.55-.74,1.42.57.42,1.61v7.17Zm-11.14,25.68,4.31-11.67-3-1-2.77,7.94-2.79-7.94-3.05,1.08,4.27,10.85-1,1.57-1.17.32-1.4-.34-.66,2.78,2.67.66,2.74-1.06Zm-2.2-25.68v-7.36l-1.38-3.73-3.75-1.17-3.22.78-1.7,2.44,2.65,1.38.64-1.21,1.46-.57,1.51.59.4,1.17v.28l-6,1.67-1.27,2.8,1.19,2.52,2.82.87,1.89-.34,1.55-1.36v1.23Zm-1-23.66V927.39h-71V1069Zm-5.64,48.6v-16.33H1288v5.51l-1.29-1.1-1.5-.3-3.73,1.61-1.57,4.75,1.53,4.77,3.67,1.59,1.82-.44,1.32-1.44v1.38Zm-5.76-24.94v-7.21l-.87-3.58-3.46-1.42-1.8.42-1.33,1.46v-6h-3.39v16.33h3.39v-6.38l.66-2.18,1.55-.74,1.42.57.42,1.61v7.12Zm-7.39,24.94v-7.36l-1.38-3.73-3.75-1.17-3.22.78-1.7,2.44,2.65,1.38.64-1.21,1.46-.57,1.51.59.4,1.17v.27l-6,1.68-1.27,2.8,1.19,2.52,2.82.87,1.89-.34,1.55-1.35v1.23Zm-5.14-30.87-1.53-4.77-3.67-1.59-1.82.45-1.31,1.44v-1.38h-3.18v16.33H1265v-5.55l1.29,1.17,1.5.27,3.71-1.59Zm-7.33,30.89v-11.81h-3.41v6.43l-.66,2.18-1.55.74-1.42-.57-.42-1.61v-7.17h-3.41V1113l.87,3.58,3.46,1.42,1.86-.49,1.49-1.67v1.71Zm-6-31.34-1.76-4.45-4-1.42-4.13,1.51-1.82,4.85,1.82,4.86,4.13,1.51,3.54-.91,1.19-1.57-2.39-1.8-.74,1-1.35.42-1.91-.62-.83-1.89h8.11l.17-.5Zm-5-7,3.17-4.8-3.17-2.11-2.2,5.46Zm-1.44,32.47-1.78-4.86-4.17-1.5-4.2,1.5-1.78,4.86,1.78,4.86,4.2,1.51,4.17-1.51Zm-6.44-19.12-.55-2.69-1,.15-1-.51-.13-1.27v-4.68h2.25v-2.71h-2.25v-3.39h-3.41v3.39h-1.67v2.71h1.67v5.72l.76,2.76,2.69,1Zm-6.67,16.81-2.12-6.15-6.74-2h-5v16.33H1232l6.23-2.06Zm-2-21.4-1.17-3.24-3-1.69-2.33-.64-1.69-.55-.83-.53-.21-.76.64-1.1,1.76-.4,1.91.55.74,1.49,3-1.46-1.17-2.57-4.56-1.25-4.07,1.23-1.8,3.84.64,2.42,2.82,1.89,3.73,1.08,1.4.72.38,1.1-.78,1.42-1.91.4-2.25-.55-.93-2.06-3,1.42,1.44,3.18,4.86,1.25,4.39-1.27Z"/><rect class="cls-3" x="1328.78" y="950.47" width="88.83" height="95.92"/><polygon class="cls-3" points="1402.31 847.84 1403.01 849.41 1398.3 849.41 1399.09 847.84 1400.65 847.27 1402.31 847.84"/><polygon class="cls-3" points="1381.97 873.12 1382.63 875.72 1381.91 878.35 1380.16 879.2 1378.45 878.35 1377.75 875.72 1378.43 873.12 1380.21 872.27 1381.97 873.12"/><polygon class="cls-3" points="1363.23 851.34 1363.21 852.95 1362.24 854.05 1360.73 854.52 1359.69 854.2 1359.37 853.48 1359.82 852.42 1363.23 851.34"/><polygon class="cls-3" points="1355.91 876.28 1355.89 877.89 1354.91 878.99 1353.41 879.46 1352.37 879.14 1352.05 878.42 1352.49 877.36 1355.91 876.28"/><polygon class="cls-3" points="1323.18 872.78 1323.88 874.35 1319.17 874.35 1319.95 872.78 1321.52 872.21 1323.18 872.78"/><polygon class="cls-3" points="1320.43 1083.83 1321.13 1085.4 1316.42 1085.4 1317.2 1083.83 1318.78 1083.26 1320.43 1083.83"/><polygon class="cls-4" points="1311.32 1085.36 1311.32 1092.64 1307.91 1092.64 1307.91 1085.47 1307.48 1083.86 1306.06 1083.29 1304.51 1084.03 1303.86 1086.21 1303.86 1092.64 1300.47 1092.64 1300.47 1080.85 1303.65 1080.85 1303.65 1082.54 1305.11 1080.87 1307 1080.38 1310.45 1081.8 1311.32 1085.36"/><polygon class="cls-4" points="1304.5 1106.64 1300.18 1118.31 1298.36 1121.45 1295.62 1122.51 1292.95 1121.86 1293.61 1119.08 1295.01 1119.42 1296.18 1119.1 1297.17 1117.53 1292.9 1106.68 1295.95 1105.6 1298.74 1113.54 1301.51 1105.6 1304.5 1106.64"/><polygon class="cls-3" points="1294.6 1087.33 1294.57 1088.94 1293.6 1090.04 1292.09 1090.51 1291.06 1090.19 1290.74 1089.47 1291.18 1088.41 1294.6 1087.33"/><polygon class="cls-3" points="1287.58 1109.11 1288.23 1111.72 1287.51 1114.34 1285.77 1115.19 1284.05 1114.34 1283.36 1111.72 1284.03 1109.11 1285.82 1108.26 1287.58 1109.11"/><polygon class="cls-3" points="1274.85 1112.27 1274.83 1113.88 1273.85 1114.99 1272.35 1115.45 1271.31 1115.13 1270.99 1114.41 1271.43 1113.35 1274.85 1112.27"/><polygon class="cls-3" points="1268.92 1084.07 1269.62 1086.7 1268.94 1089.33 1267.16 1090.17 1265.39 1089.33 1264.72 1086.7 1265.44 1084.07 1267.18 1083.22 1268.92 1084.07"/><polygon class="cls-3" points="1255.57 1083.83 1256.27 1085.4 1251.56 1085.4 1252.35 1083.83 1253.91 1083.26 1255.57 1083.83"/><polygon class="cls-3" points="1249.2 1109.11 1249.84 1111.68 1249.2 1114.27 1247.36 1115.15 1245.49 1114.27 1244.86 1111.68 1245.49 1109.11 1247.36 1108.2 1249.2 1109.11"/><polygon class="cls-3" points="1234.93 1105.3 1236.43 1109.35 1235.12 1113.33 1231.41 1114.31 1229.95 1114.31 1229.95 1104.53 1231.35 1104.53 1234.93 1105.3"/><polygon class="cls-3" points="323.16 811.3 321.43 812.14 320.71 814.76 321.39 817.38 323.14 818.22 324.91 817.38 325.59 814.76 324.89 812.14 323.16 811.3"/><polygon class="cls-3" points="335.68 811.34 334.11 811.91 333.33 813.47 338.02 813.47 337.32 811.91 335.68 811.34"/><polygon class="cls-3" points="363.03 792.7 363.35 793.42 364.38 793.74 365.88 793.27 366.85 792.17 366.87 790.57 363.48 791.64 363.03 792.7"/><polygon class="cls-3" points="329.94 786.52 328.38 787.09 327.6 788.65 332.29 788.65 331.59 787.09 329.94 786.52"/><polygon class="cls-3" points="277.07 814.76 281.36 814.76 279.21 808.91 277.07 814.76"/><path class="cls-3" d="M267.87,588.51V772.62h-.05v54.76h83.63V802.25h61.68V776.82h43V588.51Zm15.73,232.34-1.15-3.12H276l-1.13,3.12-3.18-1.26,6-15.17h3.25l5.89,15.17Zm1.31-41.26v3.27h-8.29v3h7.16v3.27h-7.16v3.39h8.51v3.27H273V779.59Zm-7.57-3,1.62-3.94,3.16,2.1-2.28,3.49Zm14.18,40.75,1.69.89,1.37-.46.74-1.52,2.87,1.39-1.5,2.47-3.48,1-4-1.5-1.71-4.83,1.69-4.83,4-1.5,3.48,1,1.52,2.53-2.87,1.37-.74-1.54-1.39-.49-1.67.91-.59,2.55Zm6.43-28.11v6.58h-3.38v-7.17l-.4-1.65-1-.49-1.5.89-.53,2.34v6.08h-3.4V784.1h3.19v1.69l1.41-1.67,2-.46,2.17.57,1.16,1.71,1.52-1.77,2-.51,2.72,1.05,1,3.06v8.08h-3.4v-7.17l-.32-1.54-1.12-.59-1.43.72Zm5.28,28.11,1.69.89,1.37-.46.74-1.52,2.87,1.39-1.5,2.47-3.48,1-4-1.5-1.71-4.83,1.69-4.83,4-1.5,3.48,1,1.52,2.53L307,813.37l-.74-1.54-1.39-.49-1.67.91-.59,2.55Zm7.49-21.52h-3.39V784.11h3.39Zm-.92-12.91h-1.52l-1.06-1.06v-1.5l1.06-1.06h1.52l1.06,1.06v1.5Zm5.3,37.74h-3.39V808.93h3.39Zm-.92-12.91h-1.52l-1.06-1.06v-1.5l1.06-1.06h1.52l1.06,1.06v1.5Zm2.45-11.91h-3.41V779.59h3.41Zm10.84,23.66-3.69,1.58-1.5-.27L321,819.66v5.53h-3.4V808.94h3.17v1.37l1.31-1.43,1.81-.44,3.65,1.58,1.52,4.75Zm-5.89-36.57h-1.52L319,781.87v-1.5l1.06-1.06h1.52l1.06,1.06v1.5Zm.92,1.17v11.74h-3.39V784.11Zm5.87,8.72,1.9.61,1.35-.42.74-1,2.38,1.79-1.18,1.56-3.52.91-4.11-1.5L324.1,790l1.81-4.83,4.11-1.5,4,1.41,1.75,4.43v1l-.16.5h-8.07Zm13.15,22.45-.16.5h-8.07l.82,1.88,1.9.61,1.35-.42.74-1,2.38,1.79-1.18,1.56-3.52.91-4.11-1.5-1.81-4.83,1.81-4.83,4.11-1.5,4,1.41,1.75,4.43Zm2-23.76h-6.1v-3.07h6.1Zm14.85,4.34H346.25V779.59h3.61v13h8.53Zm11.86,0H367v-1.22L365.46,796l-1.88.34-2.81-.87-1.18-2.51,1.27-2.79,6-1.67v-.27l-.4-1.16-1.5-.59-1.46.57-.63,1.2-2.64-1.37,1.69-2.43,3.21-.78,3.73,1.16,1.37,3.71Zm13.18,0h-3.19v-1.71l-1.48,1.67-1.86.49-3.44-1.41-.87-3.57v-7.22H376v7.13l.42,1.6,1.41.57,1.54-.74.65-2.17v-6.39h3.4Zm10.23-8.79-1.41-.18-2.24,1-.74,2.76v5.19h-3.38V784.12h3.19v2l1.27-1.9,2-.59,2.13.59Zm12.2,8.78h-3.25v-1.22L401.07,796l-1.88.34-2.81-.87-1.18-2.51,1.27-2.79,6-1.67v-.27l-.4-1.16-1.5-.59-1.46.57-.63,1.2-2.64-1.37,1.69-2.43,3.21-.78,3.73,1.16,1.37,3.71ZM451.34,772H272.7V593.34H451.34Z"/><polygon class="cls-3" points="398.64 792.7 398.95 793.42 399.99 793.74 401.49 793.27 402.46 792.17 402.48 790.57 399.08 791.64 398.64 792.7"/><rect class="cls-3" x="287.89" y="609.32" width="104.82" height="104.82"/><polygon class="cls-3" points="613.57 333.31 612 333.88 611.22 335.44 615.91 335.44 615.21 333.88 613.57 333.31"/><polygon class="cls-3" points="600.5 314.61 601.22 311.99 600.57 309.39 598.82 308.55 597.04 309.39 596.37 311.99 597.07 314.61 598.77 315.45 600.5 314.61"/><polygon class="cls-3" points="611.99 315.41 613.83 314.52 614.46 311.95 613.83 309.4 611.99 308.49 610.13 309.4 609.5 311.95 610.13 314.52 611.99 315.41"/><path class="cls-3" d="M561.44,110.74V294.6h-.12v54.75h86V324.23h9.3V299h20.31V110.74Zm16.9,229.85-6.2,2h-5.63V326.39h5l6.71,2,2.11,6.12Zm.31-26v3.27H566.51V301.57h3.61v13Zm1.8-1.25v-7.22h3.4v7.13l.42,1.6,1.41.57,1.54-.74.65-2.17v-6.39h3.4v11.75h-3.19v-1.71l-1.48,1.67-1.86.49-3.44-1.41ZM593,342.65h-3.19v-1.71l-1.48,1.67-1.86.49L583,341.68l-.87-3.57V330.9h3.4V338l.42,1.6,1.41.57,1.54-.74.65-2.17V330.9H593ZM592.91,312l1.56-4.73,3.71-1.6,1.5.3,1.29,1.1v-5.49h3.4v16.25H601.2v-1.37l-1.31,1.43-1.81.44-3.65-1.58Zm13.35,30.65h-3.4v-7.09l-.42-1.6-1.41-.57-1.54.74-.65,2.17v6.35h-3.38V326.39h3.38v6l1.33-1.46,1.79-.42,3.44,1.41.87,3.57ZM606,312l1.77-4.83,4.18-1.5,4.16,1.5,1.77,4.83-1.77,4.83-4.16,1.5-4.18-1.5Zm13.36,25.29-.17.5h-8.07l.82,1.88,1.9.61,1.35-.42.74-1,2.38,1.79-1.18,1.56-3.52.91-4.11-1.5-1.81-4.83,1.81-4.83,4.11-1.5,4,1.41,1.75,4.43ZM618.59,307l3-1.11,2.9,7.77,3-7.77,2.93,1.13L626,317.82h-3Zm19.73,35.64h-3.4v-7.17l-.32-1.54-1.12-.59-1.43.72-.63,2v6.58H628v-7.17l-.4-1.65-1-.49-1.5.89-.53,2.34v6.08h-3.4V330.89h3.19v1.69l1.41-1.67,2-.46,2.17.57,1.16,1.71,1.52-1.77,2-.51,2.72,1.05,1,3.06Zm-4-37.74h-1.52l-1.06-1.06v-1.5l1.06-1.06h1.52l1.06,1.06v1.5Zm.92,1.17v11.74h-3.39V306.08Zm5.74,8.44,1.69.89,1.37-.46.74-1.52,2.87,1.39-1.5,2.47-3.48,1-4-1.5L636.91,312l1.69-4.83,4-1.5,3.48,1,1.52,2.53-2.87,1.37L644,309l-1.39-.49-1.67.91-.59,2.55Zm31.14-20.31H566.28V115.57h105.8Z"/><polygon class="cls-3" points="571.51 329.66 570.12 329.66 570.12 339.39 571.57 339.39 575.26 338.42 576.57 334.45 575.08 330.42 571.51 329.66"/><rect class="cls-3" x="580.52" y="129.05" width="77.32" height="114.05"/><path class="cls-3" d="M2003.84,471.49v25.2h-99.11V467h22v-20h-35.06v148h-89.83v51.8h-99.11V591.83h.06V520.16h-31V545h-7.65v25.2h-72.37V520.16h-.06V367.38h73.92V329.92h37.17V293.64h188.88v36.28h112.15V471.49ZM1999,441.76v-107h-107.3V442.08h35.06v-.32Zm-.89,48.11-.55-2.69-1,.15-1-.51-.13-1.27v-4.68h2.24v-2.71h-2.24v-3.39h-3.41v3.39h-1.67v2.71h1.67v5.72l.76,2.75,2.69,1Zm-.4-24.82V457.8l-.87-3.56-3.45-1.42-1.88.49L1990,455V453.3h-3.17v11.76h3.39v-6.41l.66-2.18,1.55-.74,1.42.57.42,1.61v7.15Zm-8.16,19-1.78-4.85-4.17-1.5-4.19,1.5-1.78,4.85,1.78,4.85,4.19,1.5,4.17-1.5Zm-4.37-24.9-1.78-4.85-4.17-1.5-4.19,1.5-1.78,4.85L1975,464l4.19,1.5,4.17-1.5Zm-9,22,.8-2.83-2.14-.59-2,.59-1.27,1.91v-2h-3.2V490h3.39v-5.21l.74-2.77,2.24-1Zm-4.59-16.09V457l-1-3.07-2.73-1.06-2,.51-1.52,1.78-1.17-1.71-2.18-.57-2,.47-1.42,1.67v-1.69h-3.2v11.79h3.41V459l.53-2.35,1.5-.89,1,.49.4,1.65v7.19h3.39v-6.6l.64-2,1.44-.72,1.12.59.32,1.55v7.19Zm-5.67,24.89v-16.3h-3.41v5.5l-1.29-1.1-1.5-.29-3.72,1.61-1.57,4.74,1.53,4.76,3.66,1.59,1.82-.44,1.31-1.44v1.38Zm-13.12,0V482.7l-.87-3.56-3.45-1.42-1.88.49-1.46,1.67v-1.69h-3.17V490h3.39v-6.42l.66-2.18,1.55-.74,1.42.57.42,1.61V490ZM1952,451v-1.5l-1.07-1.07h-1.53l-1.06,1.07V451l1.07,1.07H1951Zm-.14,14V453.29h-3.4v11.77Zm-5.23-4.66-1.17-3.24-3-1.69-2.33-.63-1.69-.55-.82-.53-.21-.76.64-1.1,1.76-.4,1.9.55.74,1.48,3-1.46-1.16-2.56-4.55-1.25-4.06,1.23-1.8,3.83.64,2.41,2.81,1.88,3.72,1.08,1.4.72.38,1.1-.78,1.42-1.9.4-2.24-.55-.93-2.05-3,1.42,1.44,3.17,4.85,1.25,4.38-1.27Zm-6.49,23.18-1.76-4.44-4-1.42-4.13,1.5-1.82,4.85,1.82,4.85,4.13,1.5,3.54-.91,1.19-1.57-2.39-1.8-.74,1-1.36.42-1.9-.62-.82-1.88H1940l.17-.5Zm-13.42,3.83v-6.18h-6.9V484h3.34v1.76l-3.3,1.42-3.28-1.44-1.19-4,1.12-4,3.22-1.44,2.24.76,1.25,2.16,3.11-1.8-1.95-3.11-4.65-1.23-6.05,2.44-2.1,6.22,2.14,6.2,6.14,2.45Zm-39.9,102.68V446.93h-68.09v73.23H1707.66V590.1Zm0-148V334.77H1707.66v32.61h111.09v74.7Zm0-112.16V298.49H1707.66v31.43ZM1813.9,515.31V446.93H1707.66v68.38Zm0-73.23V372.23H1707.66v69.85Zm-20,189.13.8-2.83-2.14-.59-2,.59-1.27,1.91v-2h-3.2V640h3.39v-5.21l.74-2.77,2.24-1Zm-.15-22.46-1.75-4.45-4-1.42-4.13,1.5-1.82,4.85,1.82,4.85,4.13,1.5,3.54-.91,1.19-1.57-2.39-1.8-.74,1-1.35.42-1.9-.62-.83-1.88h8.1l.17-.5Zm-9.41,24.9-1.76-4.44-4-1.42-4.13,1.5-1.82,4.85,1.82,4.85,4.13,1.5,3.53-.91,1.19-1.57-2.39-1.8-.74,1-1.35.42-1.91-.62-.82-1.88h8.1l.17-.5Zm-3.2-27.22-1.52-2.54-3.49-1-4,1.5-1.69,4.85,1.71,4.85,4,1.5,3.49-1,1.5-2.48-2.88-1.4-.74,1.52-1.38.47-1.69-.89-.57-2.58.59-2.56,1.67-.91,1.4.49.74,1.54Zm-10,19.58V624.5l-1.06-1.06h-1.53l-1.07,1.06V626l1.06,1.06h1.53Zm-.14,14V628.25h-3.4V640Zm-2.3-24.89v-7.26l-.87-3.56-3.45-1.42-1.88.49-1.46,1.67v-1.69h-3.17v11.77h3.39v-6.42l.66-2.18,1.55-.74,1.42.57.42,1.61v7.16Zm-3.57,24.9v-7.26l-.87-3.56-3.45-1.42-1.88.49L1757.5,630v-1.69h-3.17V640h3.39v-6.42l.66-2.18,1.55-.74,1.42.57.42,1.61V640Zm-9-31.27-1.76-4.45-4-1.42-4.12,1.5-1.82,4.85,1.82,4.85,4.12,1.5,3.54-.91,1.19-1.57-2.39-1.8-.74,1-1.35.42-1.91-.62-.82-1.88h8.1l.17-.5ZM1751.85,640V628.25h-3.41v6.41l-.66,2.18-1.55.74-1.42-.57-.42-1.61v-7.15H1741v7.24l.87,3.57,3.45,1.42,1.86-.49,1.48-1.67V640ZM1743,606.32l.81-2.83-2.14-.59-2,.59-1.27,1.9v-2h-3.2v11.77h3.39v-5.21l.74-2.77,2.24-1Zm-3.7,27.33-1.76-4.44-4-1.42-4.13,1.5-1.82,4.85,1.82,4.85,4.13,1.5,3.54-.91,1.19-1.57-2.39-1.8-.74,1-1.36.42-1.9-.62-.82-1.88h8.09l.17-.5Zm-5.88-24.9-1.75-4.45-4-1.42-4.13,1.5-1.82,4.85,1.82,4.85,4.13,1.5,3.54-.91,1.19-1.57-2.39-1.8-.74,1-1.35.42-1.9-.62-.83-1.88h8.1l.17-.5Zm-5-7,3.16-4.79-3.16-2.11-2.19,5.45Zm-2.75,38.3v-16.3h-4.53l-4.33,11.93-4.35-11.93h-4.53V640h3.62V630l3.71,10h3.06l3.71-10v10Zm-5-37.92v-3.28H1707v3.28h5v13h3.62v-13Zm-17.91-86.79V446.93h-37.17V372.23h-69.07V515.31h106.24Zm0-73.23V372.23h-32.32v69.85Zm0-74.7V334.77h-32.32v32.61Zm-42.3,164.86-1.76-4.44-4-1.42-4.13,1.5-1.82,4.85,1.82,4.85,4.13,1.5,3.53-.91,1.19-1.57-2.39-1.8-.74,1-1.35.42-1.91-.62-.82-1.88h8.1l.17-.5Zm-5-7,3.16-4.79-3.16-2.11-2.2,5.45Zm1.3,31.93-1.75-4.45-4-1.42-4.13,1.5-1.82,4.85,1.82,4.85L1651,564l3.53-.91,1.19-1.57-2.39-1.8-.74,1-1.35.42-1.9-.61-.83-1.88h8.1l.17-.5Zm-9.58-27.33.8-2.83-2.14-.59-2,.59-1.27,1.91v-2h-3.2v11.77h3.39v-5.21l.74-2.77,2.24-1Zm-3.51,24.9.8-2.83-2.14-.59-2,.59-1.27,1.91v-2h-3.19v11.77h3.39V558.3l.74-2.77,2.24-1Zm-7-16.09V522.3h-3.41v5.5l-1.29-1.1-1.5-.29-3.73,1.61-1.57,4.74,1.53,4.76,3.66,1.59,1.82-.44,1.31-1.44v1.38Zm-6.67,24.9,4.39-10.82-2.94-1.14-3,7.8-2.91-7.8-3,1.12,4.42,10.85Zm-6.69-24.89v-7.26l-.87-3.56-3.45-1.42-1.88.49-1.46,1.67v-1.69h-3.18v11.77h3.39V532.2l.66-2.18,1.54-.74,1.42.57.42,1.61v7.15Zm-1.49,18.52-1.76-4.45-4-1.42-4.13,1.5-1.82,4.85,1.82,4.85,4.13,1.5,3.54-.91,1.19-1.57-2.39-1.8-.74,1-1.35.42-1.91-.61-.82-1.88h8.09l.17-.5Zm-4.15-8.48-2.2-5.45-3.16,2.11,3.16,4.79Zm-6.89-11.13-5.91-15.22h-3.26l-6,15.22,3.19,1.27,1.13-3.13h6.5l1.16,3.13Zm-2.15,13V547.2H1597v16.31h3.62v-6.68h6.27v-3.28h-6.27v-3.06Z"/><polygon class="cls-3" points="1985.44 481.51 1986.08 484.07 1985.44 486.65 1983.6 487.54 1981.74 486.65 1981.1 484.07 1981.74 481.51 1983.6 480.6 1985.44 481.51"/><polygon class="cls-3" points="1981.08 456.61 1981.71 459.17 1981.08 461.75 1979.23 462.64 1977.37 461.75 1976.73 459.17 1977.37 456.61 1979.23 455.7 1981.08 456.61"/><polygon class="cls-3" points="1962.09 481.5 1962.75 484.11 1962.03 486.73 1960.3 487.58 1958.58 486.73 1957.88 484.11 1958.56 481.5 1960.34 480.66 1962.09 481.5"/><polygon class="cls-3" points="1935.95 481.17 1936.65 482.74 1931.95 482.74 1932.74 481.17 1934.31 480.6 1935.95 481.17"/><rect class="cls-3" x="1725.19" y="383.2" width="71.24" height="49.12"/><polygon class="cls-3" points="1789.57 606.34 1790.27 607.9 1785.58 607.9 1786.36 606.34 1787.92 605.77 1789.57 606.34"/><polygon class="cls-3" points="1780.16 631.24 1780.86 632.8 1776.16 632.8 1776.94 631.24 1778.51 630.66 1780.16 631.24"/><polygon class="cls-3" points="1751.91 606.34 1752.61 607.9 1747.91 607.9 1748.7 606.34 1750.26 605.77 1751.91 606.34"/><polygon class="cls-4" points="1751.85 628.25 1751.85 640.03 1748.65 640.03 1748.65 638.32 1747.17 639.99 1745.31 640.48 1741.86 639.06 1740.99 635.49 1740.99 628.25 1744.4 628.25 1744.4 635.4 1744.82 637.01 1746.24 637.58 1747.79 636.84 1748.44 634.66 1748.44 628.25 1751.85 628.25"/><polygon class="cls-4" points="1743.84 603.49 1743.03 606.32 1741.62 606.13 1739.37 607.15 1738.63 609.92 1738.63 615.13 1735.24 615.13 1735.24 603.36 1738.44 603.36 1738.44 605.39 1739.71 603.49 1741.7 602.9 1743.84 603.49"/><polygon class="cls-3" points="1735.12 631.24 1735.82 632.8 1731.12 632.8 1731.9 631.24 1733.47 630.66 1735.12 631.24"/><polygon class="cls-3" points="1729.25 606.34 1729.94 607.9 1725.25 607.9 1726.03 606.34 1727.6 605.77 1729.25 606.34"/><polygon class="cls-3" points="1656.29 529.82 1656.99 531.39 1652.29 531.39 1653.08 529.82 1654.64 529.25 1656.29 529.82"/><polygon class="cls-3" points="1652.57 554.72 1653.27 556.29 1648.57 556.29 1649.35 554.72 1650.92 554.15 1652.57 554.72"/><polygon class="cls-3" points="1632.9 530.16 1633.56 532.76 1632.84 535.38 1631.1 536.23 1629.39 535.38 1628.69 532.76 1629.37 530.16 1631.14 529.31 1632.9 530.16"/><polygon class="cls-3" points="1617.66 554.72 1618.36 556.29 1613.66 556.29 1614.44 554.72 1616.01 554.15 1617.66 554.72"/><polygon class="cls-3" points="1603.2 526.81 1605.35 532.68 1601.05 532.68 1603.2 526.81"/><path class="cls-5" d="M855.58,367.38V692h41.76V667.26h36.83V367.38Zm17.09,319.85H860.53V671h3.61v13h8.53Zm16.44-2.53-6.83,3-6.11-2.45L874,679.11l2.09-6.2,6-2.42,4.64,1.22,1.94,3.1-3.1,1.79-1.24-2.15-2.23-.76-3.2,1.43-1.12,4,1.18,4,3.27,1.43,3.29-1.41v-1.75h-3.33v-2.8h6.87Zm-28.69-22.28V372.22h68.93V662.43H860.41Z"/><path class="cls-5" d="M527.54,963.38h36.84V884.79H485.78V988.14h41.76Zm3.37-4.83h-40.3V889.62h68.93v68.93Zm-40.18,24.81V967.12h3.61v13h8.53v3.27Zm15.63-1.94-2.13-6.18,2.09-6.2,6-2.42,4.64,1.22,1.94,3.1-3.1,1.79-1.24-2.15-2.23-.76-3.2,1.43-1.12,4,1.18,4,3.27,1.43,3.29-1.41v-1.75h-3.33v-2.8h6.87v6.16l-6.83,3Z"/><polygon class="cls-6" points="1089.36 719.44 1087.83 715.34 1084.2 714.57 1082.79 714.57 1082.79 724.47 1084.27 724.47 1088.02 723.48 1089.36 719.44"/><polygon class="cls-6" points="1104.31 718.46 1104.91 716.85 1104.23 715.15 1101.91 714.46 1099.18 714.46 1099.18 719.27 1101.95 719.27 1104.31 718.46"/><path class="cls-6" d="M1117.49,732.1V706.92H1074.4V812.69h80.54V732.1Zm-22-20.86h6.55l4.55,1.27,2,4.27-1.65,4.1-4.77,1.61h-3v5.28h-3.67Zm-16.4,0h5.09l6.83,2,2.15,6.23-2,6.23-6.31,2.08h-5.73Zm.22,40V737.1L1150,737v70.72h-70.67V751.21Z"/><polygon class="cls-6" points="1975.04 60.56 1973.55 56.56 1970.01 55.81 1968.63 55.81 1968.63 65.47 1970.07 65.47 1973.74 64.5 1975.04 60.56"/><polygon class="cls-6" points="1989.64 59.6 1990.23 58.03 1989.56 56.37 1987.3 55.7 1984.63 55.7 1984.63 60.4 1987.34 60.4 1989.64 59.6"/><path class="cls-6" d="M2002.5,72.92V48.34h-42.06V151.58h78.62V72.92ZM1981,52.56h6.39l4.44,1.24,2,4.17-1.61,4-4.65,1.57h-3v5.16H1981Zm-16,0h5l6.66,1.95,2.1,6.08-2,6.08-6.16,2H1965Zm.22,39V77.79l69-.06v69h-69V91.57Z"/><polygon class="cls-6" points="547.31 500.48 544.65 500.49 544.66 505.18 547.37 505.17 549.66 504.37 550.25 502.8 549.57 501.14 547.31 500.48"/><polygon class="cls-6" points="530.04 500.65 528.65 500.65 528.69 510.31 530.13 510.3 533.79 509.32 535.08 505.38 533.58 501.39 530.04 500.65"/><path class="cls-6" d="M560.9,441.45v49l-40.46.14.1,29.43H639.46v-78.6Zm-24,70-6.15,2.05-5.59,0-.06-16.13,5,0,6.67,1.92,2.12,6.07Zm15.43-4.75-4.64,1.59h-3l0,5.15h-3.58l-.06-16.13,6.39,0,4.44,1.22,2,4.16Zm13.43-46.64V446.27h68.92v69H565.72V460.09Z"/><polygon class="cls-6" points="1578.36 868.24 1575.63 868.25 1575.65 873.06 1578.42 873.05 1580.78 872.22 1581.37 870.61 1580.68 868.92 1578.36 868.24"/><polygon class="cls-6" points="1560.66 868.41 1559.25 868.42 1559.28 878.31 1560.76 878.3 1564.52 877.3 1565.83 873.26 1564.29 869.17 1560.66 868.41"/><path class="cls-6" d="M1592.29,807.76V858l-41.46.15.11,30.15h121.84V807.76Zm-24.64,71.74-6.3,2.1-5.73,0-.06-16.52,5.09,0,6.83,2,2.17,6.22Zm15.81-4.86-4.76,1.63h-3l0,5.28H1572L1572,865l6.54,0,4.55,1.25,2.05,4.26Zm13.76-47.79V812.69h70.62v70.67h-70.62V826.85Z"/><path class="cls-6" d="M823.69,367.53V343.12h-42V446H1153V367.53ZM802.3,347.2h6.38l4.43,1.23,2,4.16-1.61,4-4.64,1.57h-3v5.14H802.3Zm-16,0h5l6.65,1.94,2.09,6.06-2,6.06-6.15,2h-5.58Zm.22,38.92V372.33h361.6v68.85H786.55V386.12Z"/><polygon class="cls-6" points="796.3 355.19 794.82 351.2 791.29 350.44 789.91 350.44 789.91 360.08 791.35 360.08 795.01 359.12 796.3 355.19"/><polygon class="cls-6" points="810.87 354.23 811.45 352.66 810.78 351.01 808.53 350.34 805.87 350.34 805.87 355.02 808.57 355.02 810.87 354.23"/><path class="cls-3" d="M490.73,963.39H412.13V884.79h78.61ZM417,958.55h68.91V889.63H417Z"/><path class="cls-3" d="M452.25,938.09v-5.47H441.43v-5.43l11.44-17h5.39v17h3.37v5.43h-3.37v5.47Zm0-10.9v-7.72l-5,7.72Z"/><path class="cls-3" d="M639.46,593.85H560.85V515.24h78.61ZM565.7,589h68.91V520.09H565.7Z"/><path class="cls-3" d="M602.19,547.54l-.71-2.05-1.9-.72-2.16.92-.85,2.64-5.26-1.74,2.34-4.74,6-2.11,6.1,1.86,2.57,5.45-1.11,3.85L604,553l4,2.64,1.36,4.84L606.63,567l-6.9,2.37L593,567.22l-2.59-3.91,5.85-2.47,1.07,2.22,2.41.83,2.58-1,1.06-2.79-1-3-3.14-1.21h-1.94v-5.24h1.82l2.38-.93Z"/><path d="M1074.4,807.73v80.54h80.54V807.73ZM1150,883.3h-70.61V812.69H1150Z"/><polygon points="1099.57 845.71 1101.36 843.87 1101.36 862.35 1107.52 862.35 1107.52 833.74 1103.39 833.74 1100.98 838.29 1095.4 840.97 1097.83 846.05 1099.57 845.71"/><polygon points="1123.8 845.71 1125.59 843.87 1125.59 862.35 1131.75 862.35 1131.75 833.74 1127.62 833.74 1125.21 838.29 1119.63 840.97 1122.06 846.05 1123.8 845.71"/><path class="cls-3" d="M1592.24,883.34v80.54h80.54V883.34Zm75.58,75.58H1597.2V888.3h70.61Z"/><polygon class="cls-3" points="1617.59 921.32 1619.38 919.48 1619.38 937.95 1625.54 937.95 1625.54 909.34 1621.41 909.34 1619 913.9 1613.42 916.57 1615.85 921.66 1617.59 921.32"/><path class="cls-3" d="M1644.54,938.84l8.2-4.45,2.46-10.74-2.45-10.74-8.2-4.46-8.2,4.46-2.46,10.74,2.46,10.74Zm5-15.19-1.29,7.15-3.69,3-1.71-.52,6.16-14.5Zm-8.67-7.16,3.69-3,1.66.52L1640,928.5l-.48-4.85Z"/><path class="cls-7" d="M1371.29,294.24V593.8h28.25v24.86h50.24l.06-324.42Zm52,317-6.2,2h-5.63V597h5l6.71,2,2.11,6.12Zm21.94,2.05h-3.61v-10l-3.7,10h-3l-3.7-10v10h-3.61V597h4.51l4.33,11.89,4.31-11.89h4.51ZM1408.41,589h-32.28V299.08H1445V589h-36.59Z"/><polygon class="cls-7" points="1416.47 600.31 1415.08 600.31 1415.08 610.04 1416.54 610.04 1420.23 609.07 1421.54 605.1 1420.04 601.07 1416.47 600.31"/><path class="cls-6" d="M1339.73,294.17V269.51h-42.38V373.44h152.45V294.17Zm-21.61-20.53h6.44l4.48,1.25,2,4.2-1.63,4-4.69,1.58h-3v5.2h-3.61Zm-16.13,0h5l6.72,2,2.11,6.12-2,6.12-6.21,2H1302Zm.22,39.32V299h142.73v69.56H1302.2V313Z"/><polygon class="cls-6" points="1312.06 281.71 1310.56 277.67 1306.99 276.91 1305.6 276.91 1305.6 286.65 1307.06 286.65 1310.75 285.68 1312.06 281.71"/><polygon class="cls-6" points="1326.77 280.73 1327.37 279.15 1326.69 277.48 1324.41 276.81 1321.73 276.81 1321.73 281.54 1324.45 281.54 1326.77 280.73"/><path class="cls-5" d="M1413.06,220.48V195.71h-41.76V299.09h78.61V220.48Zm-21.22-18.79,6-2.42,4.64,1.22,1.94,3.1-3.1,1.79-1.24-2.15-2.23-.76-3.2,1.43-1.12,4,1.18,4,3.27,1.43,3.29-1.41v-1.75H1398v-2.8h6.87v6.16l-6.83,3-6.11-2.45-2.13-6.18Zm-15.59-1.92h3.61v13h8.53V216h-12.14Zm35.35,25.54h33.47v68.94h-68.94V225.31h35.47Z"/><path class="cls-3" d="M1523.55,299.09h-78.61V220.48h78.61Zm-73.76-4.85h68.91V225.33h-68.91Z"/><path class="cls-3" d="M1493,273.78h-17.36v-5.62l1-2.85,5.69-5.56,3.71-3.23,1.16-3.11-.95-2.2-2.26-.69-2.52.88-1.19,3.19-5.07-1.88,2.17-5.33,6.7-2.4,6.49,2.07,2.57,6.43-2.11,5.68-4.69,4.29-3.37,2.65-1,2h11Z"/><path class="cls-8" d="M1965.42,956.79h-78.71v78.71h78.71V986.44h41.52V956.79Zm-73.85,4.85h69v69h-69v-69Zm94.11,14.44-6.84,3-6.12-2.45-2.13-6.18,2.09-6.2,6-2.43,4.64,1.22,1.94,3.1-3.1,1.79-1.25-2.15-2.24-.76-3.21,1.43-1.12,4,1.18,4,3.27,1.43,3.29-1.41v-1.75h-3.33v-2.81h6.88Zm17.13,0-6.84,3-6.12-2.45-2.13-6.18,2.09-6.2,6-2.43,4.64,1.22,1.94,3.1-3.1,1.79-1.25-2.15-2.24-.76-3.21,1.43-1.12,4,1.18,4,3.27,1.43,3.29-1.41v-1.75h-3.33v-2.81h6.88Z"/><path class="cls-8" d="M934.15,441.18H855.58v78.57h78.57v-49h41.45v-29.6ZM860.42,446H929.3v68.87H860.42V446Zm93.94,14.42-6.82,3L941.43,461l-2.13-6.17,2.09-6.19,6-2.42,4.63,1.22,1.94,3.1-3.1,1.79-1.24-2.15-2.23-.76-3.2,1.43-1.12,4,1.18,4,3.27,1.43,3.29-1.41V457.1H947.5v-2.8h6.87Zm17.1,0-6.82,3L958.53,461l-2.13-6.17,2.09-6.19,6-2.42,4.63,1.22,1.94,3.1-3.1,1.79-1.24-2.15-2.23-.76-3.2,1.43-1.12,4,1.18,4,3.27,1.43,3.29-1.41V457.1H964.6v-2.8h6.87Z"/><path class="cls-3" d="M860.36,519.75H781.76V441.14h78.61ZM786.6,514.9h68.91V446H786.6Z"/><path class="cls-3" d="M819.9,494.45v-18l-1.75,1.8-1.7.33-2.37-5,5.44-2.61,2.35-4.44h4v27.92Z"/><path class="cls-3" d="M1886.7,73v78.62h78.62V73Zm73.74,73.74h-68.86V77.85h68.86Z"/><polygon class="cls-3" points="1911.7 110.28 1913.46 108.47 1913.46 126.62 1919.51 126.62 1919.51 98.52 1915.45 98.52 1913.09 102.99 1907.61 105.62 1909.99 110.61 1911.7 110.28"/><path class="cls-3" d="M1939,126.62H1945v-5.5h3.4v-5.46H1945V98.51h-5.43l-11.52,17.14v5.46H1939Zm-5-11,5-7.77v7.77Z"/><path class="cls-3" d="M1813,956.79v78.61h78.61V956.79Zm73.76,73.76h-68.91V961.63h68.91Z"/><polygon class="cls-3" points="1837.68 993.86 1839.44 992.06 1839.44 1010.09 1845.44 1010.09 1845.44 982.17 1841.41 982.17 1839.06 986.61 1833.62 989.23 1835.98 994.19 1837.68 993.86"/><polygon class="cls-3" points="1861.4 987.73 1863.92 986.85 1866.18 987.53 1867.13 989.73 1865.97 992.84 1862.26 996.06 1856.58 1001.62 1855.54 1004.47 1855.54 1010.09 1872.9 1010.09 1872.9 1004.47 1861.93 1004.47 1862.89 1002.43 1866.26 999.78 1870.95 995.49 1873.06 989.81 1870.49 983.38 1864 981.3 1857.31 983.7 1855.14 989.03 1860.21 990.91 1861.4 987.73"/><rect class="cls-9" x="-99.29" y="591.19" width="183.85" height="110.49" transform="translate(639.07 653.8) rotate(90)"/><rect class="cls-9" x="-283.47" y="296.25" width="331.83" height="221.15"/><rect class="cls-9" x="84.71" y="296.52" width="220.97" height="147.31" transform="translate(565.37 174.99) rotate(90)"/><rect class="cls-9" x="29.5" y="573.27" width="257.72" height="146.33" transform="translate(804.8 488.07) rotate(90)"/><rect class="cls-10" x="-136.27" y="75.55" width="220.97" height="147.31"/><rect class="cls-11" x="-136.27" y="222.87" width="245.6" height="23.9"/><rect class="cls-12" x="10.9" y="812.36" width="184.59" height="147.12"/><rect class="cls-12" x="48.11" y="995.35" width="219.79" height="148.28"/><rect class="cls-13" x="48.11" y="1143.63" width="204.86" height="23.9"/><text class="cls-14" transform="translate(48.72 1162.9)">Dominique Peysson</text><text class="cls-14" transform="translate(-134.56 241.36)">Jeanne Berbinau Aubry</text><rect class="cls-15" x="-114.79" y="89.87" width="178.01" height="118.67"/><rect class="cls-16" x="-262.05" y="310.71" width="288.99" height="192.64"/><rect class="cls-17" x="22.66" y="825.19" width="161.07" height="107.38"/><rect class="cls-16" x="60.31" y="1007.66" width="185.47" height="123.66"/><rect class="cls-16" x="95.2" y="552.22" width="125.62" height="188.44"/><rect class="cls-18" x="-51.47" y="580.29" width="88.2" height="132.3"/><rect class="cls-16" x="134.95" y="279.82" width="120.48" height="180.72"/><path d="M1232.75,1017.61c-5.19-10.71-9.16-22-13.33-33.2-4.28-11.49-7.83-23.25-12.3-34.66-4.36-11.11-9.62-21.87-14.23-32.89-7.19-17.2-13.77-34.66-21.39-51.66-3.21-7.18-7.09-13.91-8.21-21.89-1-6.84-4.7-11.86-10.8-15.53-16.63-10-33.63-19-52.88-23a142.1,142.1,0,0,1-19-5.1c-11.12-4-22.92-6.52-31.24-16.35-4.84-5.72-7.9-21.22-4.52-27.93,2.28-4.52,3.83-9.39,6.06-13.93.87-1.76,2.45-3.79,4.16-4.4,5.62-2,8.32-5.48,9-11.49.61-5.06,2.59-10,4-14.93.53-1.87,1.42-3.66,1.76-5.56,1.51-8.44,2.64-16.95,4.35-25.34,2.47-12.08,7-23.91,3.35-36.57a10.92,10.92,0,0,1,0-5.28c1.79-7.68-2.82-14.43-3-21.81a2.87,2.87,0,0,0-.53-1.4c0-7.64.25-15.87,1-23.34,2.24-22.44-13.46-13.46-18-26.93s-15.71-13.46-15.71-18-31.41,0-35.9,0-18,4.49-29.17,11.22-20.19,9-29.17,9c-8.2,0-12.65,37.43-16.78,50.75a18.61,18.61,0,0,0-.67,1.94c-.17.43-.33.83-.5,1.16l.17,0c-1.61,7.58-2.67,15.29-3.9,23-.42,2.59-1.33,5.29-.93,7.77,1.19,7.36-2.5,11.15-8.39,14.62-6.31,3.72-11.74,8.92-17.93,12.87-5,3.18-10.09,6.2-15.22,9.18a26.58,26.58,0,0,0-17.47-2.27c-46.47,9.71-95.63,17.87-133.77,24.6C722.69,711.89,642,726,642,737.2s-2.24,42.63,13.46,56.09,69.24,65.65,85.26,74c27.13,14.21,49.36,38.14,65.07,58.34,5,6.39,18,29.17,18,42.63,0,53.87,13.46,134.63,11.22,197.45-1.63,45.73-2.24,116.68-2.24,127.89,0,6-2.55,111.88-4.93,125.68a19.14,19.14,0,0,0,18.86,22.41h3.24c.23,2.6.46,5.21.73,7.81,3.27,32.57,7.8,65,12.25,97.47,2.51,18.3,7.87,36.28,5.89,55-1.88,17.74-4,35.47-6.13,53.18-.53,4.35-.58,9.27-2.71,12.81-5.77,9.58-7.89,20-9.44,30.77-4.87,33.71-5.39,67.52-3.45,101.51,1.09,19.09,3.21,37.78,9.2,56,1.45,4.43,1.34,9.36,2.08,14,.45,2.9-.56,4.81-2.85,6.69a28.7,28.7,0,0,0-10.86,22.74c-.08,6.72.23,13.46,0,20.17-.76,21.81,13.89,34.69,27.66,48.1a7.58,7.58,0,0,0,2.59,1.37c8,3.08,12.42,9.38,14.93,17.17,1.42,4.42,3.71,8.3,8.61,8.1,16.35-.67,32.75-1.27,49-3.07,10.34-1.14,15.87-11.13,13.12-21.3-1.28-4.73-3.32-9.25-4.64-14a62.45,62.45,0,0,1-2.35-12c-.54-7-.59-14.07-.69-21.11,0-1.32.29-3.38,1.14-3.87,5.38-3.06,5.92-8.25,6.6-13.51,1.31-10.06,2.74-20.11,4.1-30.17.65-4.85,1.67-9.7,1.77-14.57.31-15.41.08-30.84.42-46.25a217.34,217.34,0,0,0-5.11-50.26c-3.07-14.35-4.75-28.76-2.95-43.4,1.44-11.69.44-23.17-1.85-34.68-1.21-6.08-2.85-12.48-2.11-18.46,1.9-15.38-3.32-31.29,3.55-46.23a2.81,2.81,0,0,0,.12-1c1-16.52,2-33,3-49.55.74-11.77.69-23.68,2.54-35.28,5-31.48,10.35-62.92,15.67-94.35h16.11c-.19,6.67-.36,13.34-.44,20-.25,19-.82,38,1.81,56.94,2.2,15.85,2.63,31.95,3.84,47.93.75,9.92,1.07,19.89,2.37,29.74,1.18,9,1.53,17.66-.6,26.71-2,8.35-1.77,17.2-2.62,25.82-.46,4.7-.87,9.42-1.74,14-1.2,6.41-3.28,12.68-4.17,19.13-2.7,19.62-4.34,39.41-7.68,58.9-2.46,14.33-6.89,28.32-6.41,43.07.4,12.26.91,24.52,1.23,36.79,0,1.42-.37,3.65-1.3,4.16-3.61,2-3.5,4.91-2.63,8a47.25,47.25,0,0,0,3.09,8.25c1.35,2.72,1.13,4.25-1.72,5.94a6.81,6.81,0,0,0-2.62,5.32c.63,9.67,4.6,17.61,13.19,22.82a28.76,28.76,0,0,1,6.71,4.93,17.83,17.83,0,0,1,3.6,6.86c1.68,5.91,2.94,11.94,4.35,17.93.55,2.37,1.64,4.8,1.45,7.11-.58,6.8-1.46,13.59-2.64,20.31-1.45,8.21-1.58,8,6.63,10.35,20.18,5.73,40.66,3.65,61.08,2.39,3.94-.24,7.92-2,11.61-3.71s4.87-4.64,2.07-8.39a5.18,5.18,0,0,1-1.09-3.46c1.06-6.69-1-12.25-5.49-17.14-3.35-3.67-7-7.14-9.83-11.19-3-4.27-4.83-9.32-7.78-13.62-2.11-3.08-1.93-5.35-.15-8.4a92,92,0,0,0,7-14.06c1.15-3.08,2.08-7,1.16-9.94a138.4,138.4,0,0,0-9.17-22.49c-3.61-6.88-4-13.3-.59-20.1,4.72-9.54,9.67-19,14.13-28.63,3.89-8.42,7.06-17.17,10.84-25.64,7.06-15.83,14.66-31.32,18.69-48.45,5.56-23.66,8.17-46.94.8-70.77-2.11-6.82-1.83-14.6-1.53-21.89.31-7.48,1.9-14.91,3.1-22.33,3.25-20.19,6.36-40.41,10-60.54,2.48-13.85,6.05-27.5,8.47-41.36,2.5-14.34,4.18-28.82,6.27-43.24.39-2.72.91-5.44,1.4-8.16H1135a18.38,18.38,0,0,0,18.27-20.51c-3-25.79-7.16-159.37-4.13-183.67,3.18-25.42-3.77-94.71-8.1-133a7.38,7.38,0,0,0,3.52-4.23c5.63,1.43,10.9,2.75,16.16,4.1,10.53,2.7,21.12,4.26,32.08,3.46,17.74-1.3,32.9-5.68,37.11-22.91,1.28-5.22,8.93-31.22,9.12-33.54A64.11,64.11,0,0,0,1232.75,1017.61ZM904.22,756.07c11.31,3.72,23,6.29,34.54,9.27,3.2.83,6.89,1.11,7.51,5.16.59,3.8,2,7.63-2.5,10.92-3.14,2.32-5.15,6.31-7.29,9.78-1.93,3.12-4.5,4.71-8.05,4.65-14.42-.25-28.84-.52-43.25-.92a13.21,13.21,0,0,1-5.18-1.42c-6.37-3.08-12.29-2.4-18.06,1.55a55.25,55.25,0,0,1-8.08,4.66,57,57,0,0,1-11.73,4c-9.87-4.3-55.86-24.9-43-30.61,12-5.34,44.73-10.69,69.23-14.14a34.1,34.1,0,0,0,17.62-8A161,161,0,0,1,904.22,756.07Z"/><text class="cls-19" transform="matrix(0.99, 0.12, -0.12, 0.99, 1173.93, 571.03)">c</text><text class="cls-19" transform="translate(1202.46 575.21) rotate(22.6)">l</text><text class="cls-19" transform="matrix(0.84, 0.54, -0.54, 0.84, 1217.19, 581.35)">i</text><text class="cls-19" transform="translate(1228.08 586.72) rotate(46.75)">c</text><text class="cls-19" transform="matrix(0.4, 0.92, -0.92, 0.4, 1247.92, 607.1)">k</text><polygon class="cls-20" points="1115.6 670.84 1117.86 593.55 1139.16 649.65 1162.98 594.57 1161.19 654.55 1204.27 612.77 1179.66 667.5 1235.45 645.39 1191.77 686.54 1251.77 687.46 1170.44 718.3 1165.17 670.84 1115.6 670.84"/><path d="M1170.44,720.94a2.64,2.64,0,0,1-2.62-2.35l-5-45.12h-47.21a2.64,2.64,0,0,1-2.64-2.71l2.27-77.29a2.64,2.64,0,0,1,5.1-.86l19,50,21.23-49.12a2.64,2.64,0,0,1,5.06,1.13L1164,648.13l38.41-37.25a2.64,2.64,0,0,1,4.24,3l-21.94,48.8,49.75-19.72a2.64,2.64,0,0,1,2.78,4.37L1198.31,684l53.5.82a2.64,2.64,0,0,1,.9,5.1l-81.33,30.84A2.64,2.64,0,0,1,1170.44,720.94Zm-52.13-52.74h46.86a2.64,2.64,0,0,1,2.62,2.35l4.9,44.08,65.25-24.74-46.21-.71a2.64,2.64,0,0,1-1.77-4.56l33.65-31.7-43,17a2.64,2.64,0,0,1-3.38-3.53l19-42.17L1163,656.44a2.64,2.64,0,0,1-4.47-2l1.38-46.21-18.35,42.44a2.64,2.64,0,0,1-2.42,1.59h-.06a2.64,2.64,0,0,1-2.41-1.7l-16.59-43.69Z"/><path d="M1142.4,748.71a7.2,7.2,0,1,1,7.2-7.2A7.21,7.21,0,0,1,1142.4,748.71Zm0-13.35a6.15,6.15,0,1,0,6.15,6.15A6.15,6.15,0,0,0,1142.4,735.36Z"/><circle cx="971.03" cy="741.51" r="4.07"/><path d="M1166.4,667.15H968.92a7.16,7.16,0,0,0-7.16,7.16V808.71a7.16,7.16,0,0,0,7.16,7.16H1166.4a7.16,7.16,0,0,0,7.16-7.16V674.3A7.16,7.16,0,0,0,1166.4,667.15ZM971,746.7a5.19,5.19,0,1,1,5.19-5.19A5.2,5.2,0,0,1,971,746.7Zm184.42,59.4a.91.91,0,0,1-.91.91H981.68a.91.91,0,0,1-.91-.91V676.91a.91.91,0,0,1,.91-.91h172.86a.91.91,0,0,1,.91.91ZM1166,742.72a1.71,1.71,0,1,1,0-2.42A1.71,1.71,0,0,1,1166,742.72Z"/><path d="M1146,738.73h-1.41l-.42-.8a.53.53,0,0,0-.51-.38h-2.57a.54.54,0,0,0-.51.38l-.42.8h-1.41a.8.8,0,0,0-.8.8v4.17a.8.8,0,0,0,.8.8H1146a.8.8,0,0,0,.8-.8v-4.17A.8.8,0,0,0,1146,738.73Zm-3.62,4a1.54,1.54,0,1,1,1.54-1.54A1.54,1.54,0,0,1,1142.4,742.74Z"/></svg>